<svg width="300" height="300" viewBox="0 0 300 300" fill="none" xmlns="http://www.w3.org/2000/svg">
<path opacity="0.989" fill-rule="evenodd" clip-rule="evenodd" d="M136.243 70C136.49 70 136.737 70 136.984 70C142.266 70.7074 147.563 71.3935 152.875 72.0583C153.024 72.0706 153.148 72.1255 153.245 72.223C153.769 75.9196 154.249 79.5971 154.686 83.2554C152.819 80.6199 151.076 77.903 149.458 75.1046C147.385 75.8867 145.314 76.6689 143.242 77.451C145.172 80.366 146.723 83.481 147.893 86.7957C150.182 93.4261 151.691 100.232 152.422 107.214C153.638 119.078 153.555 130.934 152.175 142.781C151.886 145.093 151.584 147.398 151.269 149.697C156.221 132.221 163.164 115.59 172.099 99.8042C174.343 95.9425 176.813 92.2375 179.509 88.6894C181.029 86.7575 182.745 85.0149 184.655 83.4613C183.132 81.4441 181.608 79.427 180.085 77.4099C176.202 80.0923 172.306 82.7544 168.394 85.3961C168.339 85.3412 168.339 85.2863 168.394 85.2314C168.946 84.7075 169.467 84.1585 169.958 83.5848C173.117 80.2884 176.301 77.0226 179.509 73.7873C186.566 77.0619 193.605 80.3689 200.627 83.7083C197.177 85.512 194.048 87.7624 191.241 90.4595C186.468 95.1484 182.172 100.212 178.356 105.65C168.555 119.784 160.213 134.796 153.327 150.685C157.904 143.338 162.707 136.148 167.735 129.114C172.428 122.613 177.656 116.535 183.42 110.878C186.842 107.644 190.602 104.872 194.699 102.562C197.347 101.149 200.146 100.161 203.097 99.5983C201.347 97.0878 199.618 94.5629 197.91 92.0238C195.502 93.0489 193.114 94.1466 190.747 95.3171C190.665 95.372 190.583 95.372 190.5 95.3171C193.121 93.0255 195.742 90.7339 198.363 88.4424C203.67 92.8436 208.953 97.2758 214.212 101.739C207.902 104.079 202.002 107.153 196.51 110.96C189.627 115.727 183.15 121.024 177.08 126.85C169.902 133.697 163.329 141.038 157.362 148.874C156.73 149.752 156.099 150.63 155.468 151.509C155.362 151.637 155.307 151.774 155.303 151.92C162.265 144.793 169.771 138.357 177.821 132.613C183.047 128.962 188.617 125.888 194.534 123.392C201.046 120.702 207.825 119.439 214.87 119.605C213.992 117.19 213.114 114.775 212.236 112.36C209.293 112.841 206.357 113.376 203.426 113.965C203.399 113.938 203.371 113.91 203.344 113.883C206.431 112.106 209.533 110.349 212.648 108.614C218.149 114.404 223.638 120.208 229.114 126.027C222.629 125.857 216.235 126.543 209.931 128.085C201.147 130.272 192.667 133.291 184.49 137.142C176.123 141.036 168.136 145.536 160.531 150.644C159.337 151.475 158.157 152.326 156.991 153.196C170.823 146.226 185.368 141.286 200.627 138.377C207.299 137.11 214.022 136.671 220.798 137.059C222.782 137.209 224.744 137.498 226.685 137.924C226.726 137.896 226.767 137.869 226.809 137.842C225.868 135.776 225.1 133.65 224.503 131.461C221.805 130.745 219.116 130.004 216.435 129.238C219.562 129.087 222.69 129.004 225.821 128.991C230.071 133.982 234.353 138.95 238.664 143.893C226.542 143.801 214.439 144.24 202.356 145.21C192.09 146.011 181.963 147.658 171.976 150.15C167.106 151.416 162.386 153.09 157.814 155.172C165.842 154.151 173.883 153.219 181.938 152.373C191.203 151.412 200.493 150.877 209.807 150.768C216.403 150.729 222.962 151.195 229.484 152.167C229.581 152.14 229.676 152.112 229.773 152.085C230.607 150.554 231.376 148.989 232.078 147.392C229.554 147.118 227.028 146.843 224.503 146.569C227.41 146.218 230.318 145.888 233.23 145.581C233.419 145.591 233.584 145.659 233.724 145.787C237.95 149.202 242.039 152.783 245.992 156.531C238.939 156.654 231.886 156.724 224.833 156.737C202.63 156.805 180.428 156.777 158.226 156.654C155.032 159.539 151.3 160.61 147.029 159.865C144.643 159.358 142.557 158.288 140.772 156.654C111.517 156.64 82.2611 156.599 53.0059 156.531C59.2762 150.878 65.5608 145.238 71.8599 139.612C76.8961 140.052 81.9184 140.574 86.9266 141.176C82.1476 141.667 77.3723 142.189 72.6009 142.74C69.6838 146.159 66.7473 149.562 63.7913 152.949C74.4271 151.255 85.1302 150.212 95.9008 149.821C105.767 149.434 115.592 149.9 125.376 151.22C130.638 151.987 135.798 153.168 140.854 154.761C136.581 151.263 131.888 148.409 126.775 146.198C116.748 141.935 106.319 139.136 95.4891 137.8C86.0111 136.569 76.5155 136.404 67.0023 137.306C65.6218 137.434 64.2496 137.612 62.8857 137.842C62.8016 137.8 62.7879 137.745 62.8445 137.677C67.0099 134.242 71.1676 130.798 75.3178 127.344C79.4393 127.744 83.5559 128.211 87.6676 128.744C83.6844 129.12 79.705 129.518 75.7295 129.938C74.7889 131.276 73.8009 132.58 72.7655 133.848C92.9942 131.187 112.068 134.727 129.986 144.469C134.417 146.882 138.629 149.613 142.624 152.661C142.679 152.606 142.679 152.552 142.624 152.497C138.85 148.124 134.555 144.378 129.739 141.258C118.876 134.416 107.103 129.833 94.4188 127.509C85.2526 125.794 76.0315 125.383 66.7553 126.274C73.5599 121.362 80.3934 116.491 87.2559 111.66C93.0309 113.489 98.7941 115.341 104.546 117.217C98.8909 116.787 93.2374 116.348 87.5853 115.9C85.3659 117.653 83.1704 119.437 80.9987 121.252C86.4894 120.796 91.9233 121.18 97.3004 122.404C105.977 124.438 114.155 127.703 121.835 132.202C130.633 137.236 138.387 143.59 145.094 151.262C144.661 150.039 144.113 148.859 143.448 147.721C141.201 143.944 138.594 140.431 135.626 137.183C129.309 130.486 122.352 124.6 114.755 119.523C107.053 114.285 98.8475 109.921 90.1376 106.432C86.9769 105.218 83.766 104.162 80.5047 103.262C87.9793 97.3662 95.4441 91.4519 102.899 85.5196C102.981 85.4647 103.064 85.4647 103.146 85.5196C107.814 90.2698 112.452 95.0451 117.06 99.8453C116.944 99.8713 116.835 99.8439 116.731 99.763C112.155 96.8065 107.558 93.8837 102.94 90.9946C99.5072 93.9883 96.2276 97.1581 93.1015 100.504C100.68 103.36 107.87 106.955 114.672 111.289C124.734 117.921 133.064 126.278 139.66 136.36C142.27 140.371 144.631 144.542 146.741 148.874C142.476 137.462 137.509 126.347 131.839 115.53C128.028 108.294 123.664 101.433 118.748 94.9466C115.155 90.2972 111.052 86.1532 106.439 82.5145C115.284 80.0395 124.135 77.6519 132.991 75.3516C134.314 78.9009 135.658 82.4412 137.026 85.9724C137.27 86.5682 137.462 87.1721 137.602 87.7837C135.103 85.381 132.592 82.9934 130.069 80.6208C126.867 82.7907 123.545 84.7803 120.106 86.5899C120.81 86.9644 121.468 87.4035 122.082 87.9072C124.401 89.9504 126.418 92.242 128.134 94.7819C131.462 99.7357 134.372 104.95 136.861 110.425C141.87 121.336 145.63 132.671 148.14 144.428C148.523 146.34 148.853 148.261 149.128 150.191C149.12 143.918 148.791 137.661 148.14 131.42C146.73 115.973 144.314 100.687 140.895 85.5607C139.684 80.268 138.134 75.0811 136.243 70Z" fill="#FDFDFD"/>
<path opacity="0.994" fill-rule="evenodd" clip-rule="evenodd" d="M146.941 174.396C154.324 174.396 161.706 174.396 169.088 174.396C169.088 187.212 169.088 200.028 169.088 212.845C167.304 212.845 165.521 212.845 163.737 212.845C163.737 201.812 163.737 190.78 163.737 179.747C158.276 179.747 152.814 179.747 147.353 179.747C147.353 184.605 147.353 189.463 147.353 194.32C152.046 194.293 156.739 194.32 161.431 194.402C156.995 200.544 152.549 206.677 148.094 212.804C145.87 212.872 143.647 212.859 141.425 212.762C144.536 208.419 147.638 204.07 150.728 199.713C149.302 199.686 147.874 199.658 146.447 199.631C144.062 199.166 142.594 197.753 142.042 195.39C141.962 189.706 141.989 184.025 142.125 178.348C142.882 175.983 144.488 174.666 146.941 174.396Z" fill="#FDFDFD"/>
<path opacity="0.991" fill-rule="evenodd" clip-rule="evenodd" d="M26 212.845C26 211.061 26 209.278 26 207.494C28.8817 207.508 31.7634 207.494 34.6449 207.453C40.1657 197.523 45.6133 187.547 50.9877 177.525C51.8725 175.894 53.231 174.893 55.0632 174.52C57.5605 174.356 60.0578 174.356 62.5554 174.52C64.8837 175.064 66.2971 176.505 66.7955 178.842C66.8366 190.177 66.8504 201.511 66.8366 212.845C65.0528 212.845 63.269 212.845 61.4851 212.845C61.4851 208.455 61.4851 204.063 61.4851 199.672C55.9962 199.658 50.5074 199.672 45.0187 199.713C43.1074 203.138 41.2275 206.582 39.3789 210.046C38.5576 211.499 37.3363 212.418 35.7152 212.804C32.4769 212.845 29.2385 212.859 26 212.845ZM55.8865 179.748C57.7527 179.748 59.6189 179.748 61.4851 179.748C61.4851 184.606 61.4851 189.463 61.4851 194.321C56.9839 194.348 52.4831 194.321 47.9826 194.238C50.6182 189.406 53.2529 184.576 55.8865 179.748Z" fill="#FDFDFD"/>
<path opacity="0.987" fill-rule="evenodd" clip-rule="evenodd" d="M93.0071 175.137C95.6075 175.208 97.3227 176.471 98.1529 178.924C98.7121 181.502 97.9025 183.519 95.7241 184.976C95.0274 185.345 94.2864 185.564 93.5011 185.634C87.8751 185.675 82.2492 185.689 76.6231 185.675C76.6231 188.557 76.6231 191.439 76.6231 194.32C82.2766 194.306 87.9301 194.32 93.5835 194.361C96.0312 194.696 97.5817 196.054 98.2352 198.437C98.3283 200.135 98.3695 201.837 98.3587 203.541C98.3695 205.246 98.3283 206.947 98.2352 208.646C97.6267 211.039 96.1036 212.424 93.6658 212.804C87.7379 212.859 81.81 212.859 75.8821 212.804C73.3514 212.331 71.8282 210.835 71.3127 208.317C71.2578 200.495 71.2578 192.674 71.3127 184.852C71.7554 182.351 73.2236 180.856 75.7174 180.365C81.4806 180.324 87.2438 180.31 93.0071 180.324C93.0071 178.595 93.0071 176.866 93.0071 175.137ZM76.6231 199.672C82.0844 199.672 87.5458 199.672 93.0071 199.672C93.0071 202.279 93.0071 204.886 93.0071 207.493C87.5458 207.493 82.0844 207.493 76.6231 207.493C76.6231 204.886 76.6231 202.279 76.6231 199.672Z" fill="#FDFDFD"/>
<path opacity="0.988" fill-rule="evenodd" clip-rule="evenodd" d="M175.261 185.675C177.553 185.58 179.858 185.566 182.177 185.634C184.226 188.424 186.244 191.237 188.229 194.073C190.214 191.237 192.231 188.424 194.28 185.634C196.585 185.579 198.891 185.579 201.196 185.634C197.996 190.027 194.813 194.432 191.645 198.848C194.986 203.472 198.307 208.11 201.607 212.762C199.385 212.872 197.162 212.872 194.939 212.762C192.718 209.677 190.481 206.603 188.229 203.541C185.976 206.603 183.739 209.677 181.518 212.762C179.296 212.872 177.073 212.872 174.85 212.762C178.191 208.139 181.511 203.501 184.812 198.848C181.655 194.431 178.472 190.039 175.261 185.675Z" fill="#FDFDFD"/>
<path opacity="0.986" fill-rule="evenodd" clip-rule="evenodd" d="M205.572 185.593C207.356 185.593 209.139 185.593 210.923 185.593C210.923 188.502 210.923 191.411 210.923 194.32C216.604 194.306 222.285 194.32 227.966 194.361C230.505 194.787 232.055 196.256 232.618 198.766C232.673 201.977 232.673 205.188 232.618 208.399C232.066 210.871 230.543 212.34 228.048 212.804C222.12 212.859 216.192 212.859 210.265 212.804C207.579 212.341 206.029 210.764 205.613 208.07C205.572 200.577 205.558 193.085 205.572 185.593ZM210.923 199.672C216.384 199.672 221.846 199.672 227.307 199.672C227.307 202.279 227.307 204.886 227.307 207.493C221.846 207.493 216.384 207.493 210.923 207.493C210.923 204.886 210.923 202.279 210.923 199.672Z" fill="#FDFDFD"/>
<path opacity="0.985" fill-rule="evenodd" clip-rule="evenodd" d="M272.994 207.493C272.994 209.277 272.994 211.06 272.994 212.844C268.328 212.844 263.663 212.844 258.998 212.844C258.998 205.544 258.998 198.244 258.998 190.944C253.536 190.944 248.075 190.944 242.614 190.944C242.614 193.826 242.614 196.707 242.614 199.589C247.17 199.562 251.725 199.589 256.281 199.671C252.371 204.061 248.447 208.438 244.507 212.803C242.119 212.871 239.731 212.858 237.344 212.762C239.634 210.156 241.939 207.563 244.26 204.981C243.41 204.954 242.558 204.926 241.708 204.899C239.252 204.419 237.783 202.95 237.303 200.494C237.248 197.009 237.248 193.523 237.303 190.038C237.783 187.582 239.252 186.113 241.708 185.633C247.773 185.578 253.838 185.578 259.903 185.633C262.168 186.114 263.609 187.473 264.226 189.709C264.347 195.634 264.389 201.562 264.349 207.493C267.231 207.493 270.112 207.493 272.994 207.493Z" fill="#FDFDFD"/>
<path opacity="0.993" fill-rule="evenodd" clip-rule="evenodd" d="M102.733 194.321C104.517 194.321 106.301 194.321 108.085 194.321C108.085 198.711 108.085 203.103 108.085 207.494C113.574 207.494 119.062 207.494 124.551 207.494C124.551 203.103 124.551 198.711 124.551 194.321C126.335 194.321 128.119 194.321 129.903 194.321C129.917 204.42 129.903 214.519 129.862 224.619C129.554 227.589 127.92 229.304 124.963 229.764C118.951 229.844 112.941 229.817 106.932 229.682C104.668 229.174 103.282 227.788 102.774 225.524C102.425 222.833 103.454 220.871 105.862 219.638C106.543 219.381 107.242 219.23 107.961 219.185C108.002 220.941 108.016 222.697 108.002 224.454C113.519 224.454 119.035 224.454 124.551 224.454C124.551 220.584 124.551 216.715 124.551 212.845C118.843 212.859 113.134 212.845 107.426 212.804C104.953 212.416 103.429 211.003 102.857 208.564C102.737 203.818 102.696 199.07 102.733 194.321Z" fill="#FDFDFD"/>
<path opacity="0.959" fill-rule="evenodd" clip-rule="evenodd" d="M263.198 216.055C263.994 216.055 264.789 216.055 265.585 216.055C265.585 216.317 265.668 216.55 265.832 216.755C266.485 217.169 267.144 217.196 267.808 216.837C268.019 216.649 268.157 216.416 268.22 216.137C269.014 216.055 269.81 216.028 270.608 216.055C270.46 217.288 269.774 218.043 268.549 218.319C267.002 218.706 265.52 218.542 264.103 217.825C263.484 217.396 263.182 216.807 263.198 216.055Z" fill="#FCFCFC"/>
<path opacity="0.983" fill-rule="evenodd" clip-rule="evenodd" d="M220.708 229.969C219.638 229.969 218.568 229.969 217.497 229.969C213.364 229.442 211.621 227.11 212.269 222.971C212.808 221.088 214.029 219.894 215.933 219.39C218.411 218.81 220.853 218.919 223.261 219.719C224.964 220.489 225.898 221.807 226.06 223.671C224.496 223.712 222.931 223.726 221.367 223.712C221.109 222.25 220.231 221.605 218.732 221.777C217.213 222.035 216.472 222.94 216.509 224.494C216.476 226.272 217.34 227.19 219.103 227.252C220.299 227.302 221.026 226.754 221.285 225.606C222.876 225.606 224.469 225.606 226.06 225.606C225.758 227.486 224.716 228.762 222.931 229.434C222.195 229.68 221.454 229.858 220.708 229.969Z" fill="#FDFDFD"/>
<path opacity="0.976" fill-rule="evenodd" clip-rule="evenodd" d="M141.425 219.266C142.797 219.266 144.169 219.266 145.541 219.266C145.527 220.419 145.541 221.572 145.583 222.724C146.774 221.615 147.941 220.476 149.082 219.307C150.921 219.239 152.759 219.252 154.598 219.349C153.211 220.612 151.811 221.86 150.399 223.095C151.943 225.304 153.507 227.499 155.092 229.681C153.39 229.736 151.689 229.736 149.987 229.681C149.083 228.298 148.151 226.94 147.188 225.606C146.645 226.035 146.11 226.474 145.583 226.923C145.541 227.856 145.527 228.789 145.541 229.722C144.169 229.722 142.797 229.722 141.425 229.722C141.425 226.237 141.425 222.751 141.425 219.266Z" fill="#FDFDFD"/>
<path opacity="0.983" fill-rule="evenodd" clip-rule="evenodd" d="M156.737 219.267C159.813 219.23 162.887 219.271 165.958 219.39C168.307 219.707 169.364 221.038 169.128 223.383C168.824 224.648 168.041 225.458 166.782 225.812C166.349 225.926 165.91 226.009 165.464 226.059C163.928 226.1 162.391 226.114 160.854 226.1C160.854 227.308 160.854 228.515 160.854 229.723C159.481 229.723 158.11 229.723 156.737 229.723C156.737 226.238 156.737 222.752 156.737 219.267ZM160.854 221.572C161.9 221.541 162.943 221.582 163.983 221.695C164.475 221.815 164.722 222.13 164.724 222.642C164.747 223.189 164.5 223.532 163.983 223.671C162.943 223.777 161.9 223.819 160.854 223.795C160.854 223.054 160.854 222.313 160.854 221.572Z" fill="#FDFDFD"/>
<path opacity="0.982" fill-rule="evenodd" clip-rule="evenodd" d="M171.808 219.266C173.152 219.266 174.497 219.266 175.842 219.266C175.842 220.556 175.842 221.846 175.842 223.136C177.434 223.122 179.026 223.136 180.617 223.177C181.743 223.222 182.717 223.621 183.54 224.371C184.507 225.859 184.439 227.3 183.334 228.693C182.606 229.249 181.783 229.578 180.864 229.681C177.845 229.722 174.827 229.736 171.808 229.722C171.808 226.237 171.808 222.751 171.808 219.266ZM175.842 225.441C176.858 225.427 177.873 225.441 178.888 225.482C179.655 225.684 179.916 226.165 179.67 226.923C179.544 227.078 179.392 227.201 179.217 227.294C178.097 227.411 176.972 227.453 175.842 227.417C175.842 226.758 175.842 226.1 175.842 225.441Z" fill="#FDFDFD"/>
<path opacity="0.967" fill-rule="evenodd" clip-rule="evenodd" d="M186.043 219.266C187.415 219.266 188.787 219.266 190.16 219.266C190.16 222.751 190.16 226.237 190.16 229.722C188.787 229.722 187.415 229.722 186.043 229.722C186.043 226.237 186.043 222.751 186.043 219.266Z" fill="#FDFDFD"/>
<path opacity="0.978" fill-rule="evenodd" clip-rule="evenodd" d="M193.623 219.266C195.654 219.266 197.684 219.266 199.716 219.266C200.265 221.326 200.828 223.384 201.403 225.441C202.046 223.388 202.664 221.33 203.256 219.266C205.232 219.266 207.208 219.266 209.184 219.266C209.184 222.751 209.184 226.237 209.184 229.722C207.922 229.722 206.659 229.722 205.397 229.722C205.411 227.17 205.397 224.618 205.355 222.065C204.562 224.609 203.808 227.161 203.091 229.722C201.992 229.749 200.895 229.722 199.798 229.64C199.052 227.14 198.297 224.643 197.534 222.148C197.493 224.672 197.479 227.197 197.493 229.722C196.203 229.722 194.913 229.722 193.623 229.722C193.623 226.237 193.623 222.751 193.623 219.266Z" fill="#FDFDFD"/>
<path opacity="0.976" fill-rule="evenodd" clip-rule="evenodd" d="M228.775 219.266C230.148 219.266 231.52 219.266 232.892 219.266C232.878 220.418 232.892 221.571 232.933 222.724C234.124 221.615 235.291 220.476 236.432 219.307C238.272 219.239 240.11 219.252 241.949 219.348C240.549 220.61 239.149 221.873 237.75 223.135C239.304 225.325 240.868 227.506 242.442 229.681C240.741 229.736 239.04 229.736 237.338 229.681C236.434 228.298 235.501 226.939 234.539 225.605C234.016 226.06 233.481 226.5 232.933 226.923C232.892 227.856 232.878 228.788 232.892 229.722C231.52 229.722 230.148 229.722 228.775 229.722C228.775 226.237 228.775 222.751 228.775 219.266Z" fill="#FDFDFD"/>
<path opacity="0.984" fill-rule="evenodd" clip-rule="evenodd" d="M244.089 219.266C245.406 219.266 246.723 219.266 248.041 219.266C248.027 221.214 248.041 223.163 248.082 225.111C249.456 223.202 250.815 221.28 252.157 219.348C253.721 219.266 255.285 219.238 256.85 219.266C256.85 222.751 256.85 226.237 256.85 229.722C255.56 229.722 254.271 229.722 252.981 229.722C252.995 227.718 252.981 225.715 252.94 223.712C251.537 225.708 250.123 227.698 248.699 229.681C247.163 229.722 245.626 229.736 244.089 229.722C244.089 226.237 244.089 222.751 244.089 219.266Z" fill="#FDFDFD"/>
<path opacity="0.984" fill-rule="evenodd" clip-rule="evenodd" d="M273 219.266C273 222.751 273 226.237 273 229.722C271.738 229.722 270.475 229.722 269.213 229.722C269.227 227.718 269.213 225.715 269.172 223.712C267.728 225.68 266.315 227.67 264.932 229.681C263.396 229.722 261.858 229.736 260.321 229.722C260.321 226.237 260.321 222.751 260.321 219.266C261.639 219.266 262.956 219.266 264.273 219.266C264.259 221.215 264.273 223.164 264.314 225.112C265.689 223.202 267.047 221.281 268.39 219.348C269.925 219.266 271.462 219.239 273 219.266Z" fill="#FDFDFD"/>
</svg>
