<svg width="24" height="24" viewBox="0 0 24 24" fill="none" xmlns="http://www.w3.org/2000/svg">
<path d="M5.57143 7C5.57143 6.0111 5.86467 5.0444 6.41408 4.22215C6.96349 3.39991 7.74438 2.75904 8.65801 2.3806C9.57164 2.00217 10.577 1.90315 11.5469 2.09608C12.5168 2.289 13.4077 2.76521 14.107 3.46447C14.8062 4.16373 15.2824 5.05465 15.4754 6.02455C15.6683 6.99446 15.5693 7.99979 15.1908 8.91342C14.8124 9.82705 14.1715 10.6079 13.3493 11.1573C12.527 11.7068 11.5603 12 10.5714 12C9.24535 12 7.97358 11.4732 7.0359 10.5355C6.09821 9.59785 5.57143 8.32608 5.57143 7ZM15.7643 14.2C14.828 13.6922 13.7794 13.427 12.7143 13.4286H8.42857C6.72361 13.4286 5.08848 14.1059 3.88288 15.3115C2.67729 16.517 2 18.1522 2 19.8571V21.2857C2 21.4752 2.07525 21.6568 2.20921 21.7908C2.34316 21.9247 2.52485 22 2.71429 22H14.9357C14.3966 21.472 13.9839 20.8289 13.7287 20.1187C13.4734 19.4086 13.3823 18.6498 13.462 17.8994C13.5417 17.149 13.7902 16.4264 14.1889 15.7857C14.5877 15.145 15.1262 14.6029 15.7643 14.2ZM21.2857 17.7143H19.1429V15.5714C19.1429 15.382 19.0676 15.2003 18.9336 15.0664C18.7997 14.9324 18.618 14.8571 18.4286 14.8571C18.2391 14.8571 18.0574 14.9324 17.9235 15.0664C17.7895 15.2003 17.7143 15.382 17.7143 15.5714V17.7143H15.5714C15.382 17.7143 15.2003 17.7895 15.0664 17.9235C14.9324 18.0575 14.8571 18.2391 14.8571 18.4286C14.8571 18.618 14.9324 18.7997 15.0664 18.9336C15.2003 19.0676 15.382 19.1429 15.5714 19.1429H17.7143V21.2857C17.7143 21.4752 17.7895 21.6568 17.9235 21.7908C18.0574 21.9247 18.2391 22 18.4286 22C18.618 22 18.7997 21.9247 18.9336 21.7908C19.0676 21.6568 19.1429 21.4752 19.1429 21.2857V19.1429H21.2857C21.4752 19.1429 21.6568 19.0676 21.7908 18.9336C21.9247 18.7997 22 18.618 22 18.4286C22 18.2391 21.9247 18.0575 21.7908 17.9235C21.6568 17.7895 21.4752 17.7143 21.2857 17.7143Z" fill="#BFBFBF"/>
</svg>
