<svg width="24" height="24" viewBox="0 0 24 24" fill="none" xmlns="http://www.w3.org/2000/svg">
<path d="M10.216 14.6898L8.04859 19.6559C7.98546 19.8453 8.11172 20.0347 8.3011 20.0347H9.58472C9.7741 20.0347 9.96349 19.9715 10.0897 19.8242L10.8262 19.0667C12.0046 19.0667 12.9305 18.9404 12.9305 18.4985C12.9305 18.2039 12.5097 18.0566 11.8784 17.9725L12.5307 17.2991C13.7091 17.2991 14.656 17.1728 14.656 16.7309C14.656 16.4363 14.2352 16.268 13.5829 16.2049L14.9086 14.8371C13.3514 14.816 11.7942 14.7529 10.216 14.6898Z" fill="#BFBFBF"/>
<path d="M10.216 9.36593C11.7732 9.3028 13.3514 9.23967 14.9086 9.21863L13.5829 7.85084C14.2141 7.78772 14.656 7.61937 14.656 7.32477C14.656 6.88287 13.7091 6.75661 12.5307 6.75661L11.8784 6.08324C12.5097 6.02011 12.9305 5.85177 12.9305 5.55717C12.9305 5.11527 11.9836 4.98901 10.8262 4.98901L10.0897 4.23147C9.96349 4.08417 9.7741 4 9.58472 4H8.3011C8.11172 4 7.98546 4.21043 8.04859 4.37877L10.216 9.36593Z" fill="#BFBFBF"/>
<path d="M21.8737 11.6806C20.9268 10.6495 19.6011 10.0814 18.2123 10.0814C14.4246 10.0814 10.6369 10.2076 6.84914 10.4602L5.12362 10.5864L3.79792 8.58735C3.67167 8.39796 3.46124 8.29275 3.25081 8.29275H2.24075C2.09345 8.29275 1.96719 8.44005 2.00928 8.58735L2.99829 12.0173L2.00928 15.4684C1.96719 15.6157 2.07241 15.763 2.24075 15.763H3.22977C3.46124 15.763 3.65062 15.6577 3.77688 15.4684L5.10258 13.4693L6.84914 13.5955C10.6369 13.8481 14.4246 13.9743 18.2123 13.9743C19.6011 13.9743 20.9268 13.3851 21.8737 12.3751C22.0421 12.1646 22.0421 11.87 21.8737 11.6806ZM19.6222 12.7749C19.559 12.9011 19.4328 12.9853 19.2855 12.9853C19.2434 12.9853 19.1803 12.9853 19.1382 12.9643C18.9488 12.8801 18.8646 12.6697 18.9488 12.5013C19.0119 12.3751 19.033 12.2067 19.033 12.0384C19.033 11.87 19.0119 11.7017 18.9488 11.5544C18.8646 11.365 18.9488 11.1546 19.1382 11.0914C19.3276 11.0073 19.538 11.0914 19.6011 11.2808C19.7063 11.5123 19.7484 11.7648 19.7484 12.0384C19.7695 12.2909 19.7063 12.5644 19.6222 12.7749Z" fill="#BFBFBF"/>
</svg>
