<svg width="54" height="54" viewBox="0 0 54 54" fill="none" xmlns="http://www.w3.org/2000/svg">
<path d="M21.3604 0.75C18.3867 0.75 18.4307 0.881835 19.3682 4.61719L25.4619 23.25H8.58691L4.0166 16.5703C3.48926 15.7939 3.5625 15.75 2.72754 15.75H1.90723C0.310543 15.75 0.852538 17.3906 0.852538 17.3906L1.90723 27L0.852538 36.6094C0.852538 36.6094 0.325194 38.25 1.79004 38.25H2.72754C3.51855 38.25 3.48926 38.2207 4.0166 37.4297L8.58691 30.75H25.4619L19.3682 49.2656C18.3867 53.1914 18.3721 53.25 21.3604 53.25C22.9863 53.25 22.9863 53.2061 24.0557 51.375L37.8838 30.75H49.4853C51.5654 30.75 53.2353 29.0801 53.2353 27C53.2353 24.9199 51.5654 23.25 49.4853 23.25H37.8838L24.0557 2.625C23.0596 0.911134 23.001 0.75 21.5947 0.75H21.3604Z" fill="#898989"/>
</svg>
