<svg width="150" height="96" viewBox="0 0 150 96" fill="none" xmlns="http://www.w3.org/2000/svg">
<path d="M76.15 13.6962C78.1129 11.9088 78.0397 4.82045 73.087 1.57922C72.7022 2.19332 72.3301 2.81508 72.037 3.48019C77.4343 8.33471 76.2856 10.9366 76.15 13.6962Z" fill="#BFBFBF"/>
<path d="M88.2491 11.7289C86.7794 12.0964 87.3113 12.0596 67.8147 19.2156C66.7215 19.5112 66.7062 20.872 66.3087 21.7384C73.1584 19.0653 79.9851 16.3234 86.8832 13.7726C87.7854 13.5331 87.9484 12.4756 88.2491 11.7289Z" fill="#BFBFBF"/>
<path d="M74.4044 28.7665C74.9471 29.5641 76.1499 29.508 76.8507 28.9627C77.5439 28.4862 77.8114 27.6529 78.1223 26.9165C78.4306 27.4822 78.6676 28.1498 79.2384 28.5117C79.8499 28.9296 80.8106 28.9271 81.2489 28.2594C83.3964 25.1382 81.3558 24.0022 80.6756 20.0948C79.4874 21.9072 79.6229 22.4233 81.4375 26.0525C80.7776 27.1355 79.0549 26.524 78.9071 25.3671C78.7644 23.6878 78.5529 21.9855 77.8624 20.4311C77.452 20.984 76.9883 21.6594 77.2176 22.3856C77.3884 23.675 78.2013 25.1658 77.2915 26.3456C76.8456 26.9979 75.6887 27.6299 75.1307 26.7661C74.1572 25.4766 74.9471 23.8636 74.8274 22.4213C74.7892 22.0594 74.8223 21.5498 74.384 21.4326C73.6884 21.9397 72.8958 22.6939 73.0589 23.6393C73.3086 23.9885 73.831 24.2178 73.752 24.7249C73.8107 26.0755 73.4819 27.6223 74.4044 28.7665Z" fill="#BFBFBF"/>
<path d="M55.8531 32.8157C56.8928 32.7775 57.9324 33.1444 58.9721 32.9941C59.836 32.2245 60.259 30.9657 60.2234 29.8241C59.548 27.8542 57.8203 26.4502 56.0366 25.4971C55.2237 25.041 54.049 24.8014 53.3354 25.5659C52.7264 26.1572 52.9583 27.0542 53.0296 27.7982C52.7493 28.8455 52.1504 29.9361 52.5174 31.0396C52.8665 31.9926 53.9189 32.3341 54.7981 32.6144C50.8784 36.2296 43.9523 39.2344 42.4926 40.7611C44.2637 40.384 45.8996 39.566 47.6095 38.985C50.7795 37.6038 53.7457 35.5907 55.8531 32.8157ZM56.8495 28.4862C57.9554 29.0417 58.8677 29.954 59.2576 31.1492C58.3351 31.0727 57.4178 30.9402 56.503 30.7975C56.6737 30.0356 56.7501 29.2583 56.8495 28.4862ZM53.1622 29.7909C53.5317 29.0367 54.1865 27.997 55.1498 28.1601C55.848 28.7818 55.7283 29.8113 55.7104 30.6523C54.8135 30.5351 53.919 30.3031 53.1622 29.7909Z" fill="#BFBFBF"/>
<path d="M100.878 31.8142C101.222 31.7123 101.544 31.5416 101.877 31.4014C103.052 33.384 103.913 35.5933 104.214 37.8867C104.479 37.6676 104.803 37.479 104.925 37.135C105.993 34.7498 105.748 31.934 107.116 29.6686C107.779 28.7105 108.615 29.9464 109.117 30.428C109.734 30.0993 109.876 29.2227 109.853 28.5805C109.15 26.7006 107.546 25.7669 106.12 28.9041C105.455 30.7261 105.188 32.6577 104.734 34.5357C104.357 33.1598 103.566 28.137 100.3 27.867C99.8362 28.583 99.3444 29.2889 99.0106 30.0763C99.2323 30.9401 100.05 31.5696 100.878 31.8142Z" fill="#BFBFBF"/>
<path d="M143.424 75.2773C142.958 67.4415 142.208 59.6208 141.808 51.785C142.568 52.4908 143.21 53.3572 144.168 53.8134C144.276 52.7926 144.213 52.2064 141.49 45.2793C141.006 44.0561 140.611 42.7846 139.918 41.6608C139.303 42.7692 138.873 43.9669 138.452 45.1595C138.266 45.7252 138.027 46.3469 138.302 46.928C138.966 48.587 138.537 46.4041 140.483 75.0326C135.076 74.4771 129.671 73.7789 124.338 72.7188C130.387 66.463 127.842 53.2547 127.24 39.933C128.055 40.6057 128.626 41.6785 129.732 41.913C129.661 40.6796 129.207 39.5202 128.805 38.3684C126.129 31.2426 125.918 30.7197 125.359 29.8241C124.615 31.2842 123.943 32.8234 123.619 34.4339C123.815 35.6112 124.355 36.7375 124.34 37.9606C124.541 47.5599 126.032 57.1209 125.561 66.7354C125.581 67.3955 125.222 68.0249 124.625 68.3154C119.938 70.5748 113.415 71.4119 113.01 72.52C112.419 73.705 111.955 74.9562 111.68 76.2507C111.68 76.2507 119.196 77.2104 130.102 78.7352C123.396 82.0271 116.777 85.8843 109.292 85.4549C108.125 85.3912 106.826 84.8943 106.336 83.7527C105.666 82.4226 106.278 80.8095 105.519 79.5226C104.112 81.5116 102.794 90.5688 109.807 90.6789C117.982 90.9304 125.818 85.1117 134.637 81.6759C136.6 80.8655 138.732 80.6872 140.827 80.5368C140.957 82.9934 141.113 85.4626 140.883 87.9191C140.804 89.1754 140.575 90.4317 140.73 91.6931C142.205 89.9785 143.441 84.8715 143.579 80.4808C144.39 80.3891 145.575 80.6923 146.003 79.7749C146.545 78.4142 147.114 77.0483 147.473 75.6239C146.179 75.1321 144.772 75.4047 143.424 75.2773Z" fill="#BFBFBF"/>
<path d="M41.3383 48.1206C38.5533 57.9365 40.2365 68.7803 45.1811 71.4932C46.3099 72.0079 47.8134 72.4921 48.8888 71.5976C51.4218 69.7298 52.2168 66.5164 52.8946 63.6114C54.7099 56.8395 55.6967 49.2874 58.5416 46.9943C58.5362 48.2409 53.6876 63.4306 60.0476 70.6548C64.5054 75.7668 77.0381 74.5654 79.1187 59.236C80.2323 62.9718 81.3892 67.0439 84.4751 69.666C86.7584 71.6001 90.0023 72.2729 92.8818 71.511C98.5528 69.9485 99.6123 60.8086 98.1644 55.0059C96.7453 48.7509 94.3603 43.7524 93.7024 40.2872C94.6809 40.7587 95.5958 41.3881 96.6839 41.5919C97.0077 40.3093 96.2869 39.6608 91.9263 33.1776C91.5211 32.5813 91.0981 31.9825 90.4891 31.5798C89.4901 33.2183 89.0901 35.1296 88.4376 36.9185C89.75 38.7737 89.5869 41.1359 90.0558 43.2611C92.3936 55.1519 95.7795 57.7057 96.643 61.685C95.704 64.8812 90.8048 65.2699 87.8083 63.7949C80.0249 60.0073 82.4622 41.5476 77.1209 32.9356C77.0317 32.9304 76.8533 32.9177 76.7641 32.91C75.8136 34.9028 75.2046 37.0611 74.8657 39.2399C74.6567 40.1598 75.1384 41.0109 75.3906 41.8697C76.9603 46.5101 77.6 51.4358 77.493 56.3234C77.2126 62.4759 72.6185 66.9349 65.2206 66.3482C62.8736 66.0908 60.9548 64.2815 60.1495 62.1282C57.8701 56.2095 60.8499 49.9227 61.4798 41.7855C61.495 40.9956 61.5384 40.1726 61.2326 39.4284C60.3845 37.3541 56.9425 40.7881 54.8594 46.1762C51.719 54.0711 51.3616 63.7821 48.0453 66.4221C46.7423 67.516 43.7627 67.358 42.5437 63.7082C41.5274 61.0153 40.8194 55.153 42.3525 47.7154C43.01 46.5203 43.5579 45.2462 43.6292 43.865C43.0201 44.4995 42.7551 45.6411 41.774 45.7992C40.9332 45.7431 40.7217 44.7773 40.6911 44.0969C40.6069 41.5894 41.7613 39.2833 42.2964 36.8879C40.5101 39.6706 39.3609 43.0317 39.7049 46.37C39.7813 47.267 40.4591 47.9703 41.3383 48.1206Z" fill="#BFBFBF"/>
<path d="M67.9038 47.7663C68.4032 48.5589 69.6544 48.5283 70.1921 47.7944C70.9515 46.7521 71.2828 45.4449 71.4 44.1758C70.8547 44.8001 70.5795 45.7608 69.7538 46.0794C68.9154 46.2603 68.4899 45.2894 68.4822 44.6014C68.3243 42.0557 69.5066 39.7062 70.0622 37.2828C67.8834 40.4407 66.6454 45.7595 67.9038 47.7663Z" fill="#BFBFBF"/>
<path d="M84.2585 47.7255C84.7233 48.5307 87.0287 49.5502 87.8057 44.1656C87.2552 44.7619 86.9978 45.636 86.2614 46.0462C85.4893 46.3367 84.9363 45.5239 84.9032 44.8435C84.5974 42.2213 85.8919 39.8106 86.4016 37.3083C84.6987 39.8555 82.8548 45.2257 84.2585 47.7255Z" fill="#BFBFBF"/>
<path d="M13.3382 52.8552C15.4889 51.5683 17.4791 49.9731 18.9928 47.9625C19.4973 48.3397 19.9891 48.7347 20.4682 49.1475C20.9039 48.4722 21.4034 47.7867 21.5333 46.9738C21.1409 46.4464 20.5599 46.115 20.0171 45.7685C20.3866 44.4078 20.8173 42.917 20.3815 41.5257C20.0553 40.5879 18.8219 40.644 18.1314 41.1205C16.7401 41.9843 15.415 43.4929 15.6647 45.2436C15.9527 46.3852 17.1325 46.9432 18.027 47.5574C13.9773 51.4727 7.33732 54.2434 5.57111 55.9972C6.55575 55.8377 11.3274 54.1537 13.3382 52.8552ZM16.9796 43.6866C17.5096 43.3706 18.0906 42.7106 18.7583 43.0546C19.3113 43.6509 19.1507 44.5326 19.1023 45.2716C18.2818 44.9174 17.4663 44.4663 16.9796 43.6866Z" fill="#BFBFBF"/>
<path d="M107.575 62.0391C104.334 62.5342 101.27 70.2775 101.765 77.1528C91.8348 81.7983 67.5672 87.34 45.8461 82.6341C43.3055 82.1805 41.1216 80.6745 39.2614 78.9595C33.702 73.8517 35.5793 58.52 28.9232 45.9673C28.1077 44.604 27.3738 43.1489 26.2118 42.0404C25.6359 43.1413 25.6054 44.4078 25.3735 45.6054C25.3072 46.3036 25.0498 47.0604 25.3786 47.7282C27.6567 52.7023 29.8686 57.7708 30.8955 63.1731C31.2191 65.0639 31.8002 67.0592 31.2472 68.9525C24.9132 78.8658 10.8697 84.7569 6.6693 81.7498C3.02221 78.8653 7.80394 70.6402 8.21356 67.8899C6.98024 69.007 5.97245 72.4719 4.60271 72.571C3.76176 72.5047 3.59867 71.5033 3.54518 70.8331C3.45855 68.3817 4.60525 66.1341 5.09451 63.7872C2.28018 68.098 1.9985 73.0669 3.09925 74.3522C3.55799 74.9358 4.34538 74.7905 4.98498 74.7141C3.29662 80.6318 3.84573 87.7228 9.66104 87.5725C17.2199 87.3639 25.7919 80.9447 30.2968 75.1728C31.5811 73.5317 32.2411 71.5211 32.6615 69.508C33.8097 77.2419 34.288 82.5001 41.165 85.985C55.0608 93.7483 93.279 88.48 107.634 78.0982C113.675 73.7589 111.364 61.4964 107.575 62.0391ZM104.563 68.4071C105.124 67.5739 106.105 66.812 107.167 67.0871C107.988 67.342 108.395 68.1727 108.742 68.8913C110.347 72.7518 110.038 73.0063 102.573 76.7756C102.534 73.8935 102.95 70.8662 104.563 68.4071Z" fill="#BFBFBF"/>
<path d="M109.277 45.8577C107.696 48.7148 106.286 53.069 106.563 55.2174C106.763 57.1254 109.32 57.0106 110.658 55.6404C111.647 54.8173 111.685 53.4235 111.782 52.241C111.864 50.5388 110.467 49.2876 109.239 48.3346C109.565 47.351 110.044 46.4209 110.302 45.4168C109.924 45.4576 109.448 45.4397 109.277 45.8577ZM111.064 52.9699C110.21 53.6655 109.219 54.402 108.062 54.3612C106.817 54.1908 107.835 51.8052 108.276 50.7045C109.293 51.3288 110.47 51.8767 111.064 52.9699Z" fill="#BFBFBF"/>
<path d="M133.106 89.5628C132.632 89.5194 132.165 88.9512 132.53 88.5231C133.414 87.1368 135.104 86.2679 135.56 84.6064C135.453 83.6559 134.217 83.712 133.496 83.7094C132.627 83.6661 132.163 84.428 131.824 85.1008C132.757 84.8765 133.722 84.8816 134.635 85.1977C133.692 86.5177 131.992 87.4631 131.837 89.2162C131.429 91.3329 135.559 91.4766 137.945 89.0378C136.352 89.3258 134.742 89.8762 133.106 89.5628Z" fill="#BFBFBF"/>
<path d="M101.092 84.3746C100.318 84.2166 99.9659 85.0525 99.4945 85.4857C98.4726 86.3113 98.2662 87.7613 97.201 88.5538C94.1686 91.0664 90.2723 92.0908 86.85 93.9153C88.8071 93.7114 90.6928 93.0846 92.6091 92.6616C95.2516 91.5276 98.1082 89.861 99.0154 86.9407C99.757 87.5447 100.521 88.3729 101.556 88.3448C102.685 87.3179 102.583 85.0142 101.092 84.3746ZM100.037 85.873C100.921 85.5163 101.581 86.2502 101.757 87.058C101.105 86.8057 100.305 86.6019 100.037 85.873Z" fill="#BFBFBF"/>
</svg>
