<svg width="24" height="24" viewBox="0 0 24 24" fill="none" xmlns="http://www.w3.org/2000/svg">
<path d="M9.23064 15.4614C9.04703 15.4614 8.87093 15.3885 8.7411 15.2586C8.61127 15.1288 8.53833 14.9527 8.53833 14.7691V9.23064C8.53833 9.04703 8.61127 8.87093 8.7411 8.7411C8.87093 8.61127 9.04703 8.53833 9.23064 8.53833C9.41425 8.53833 9.59034 8.61127 9.72017 8.7411C9.85001 8.87093 9.92295 9.04703 9.92295 9.23064V14.7691C9.92295 14.9527 9.85001 15.1288 9.72017 15.2586C9.59034 15.3885 9.41425 15.4614 9.23064 15.4614Z" fill="#FBFBFB"/>
<path d="M20.3075 15.4614C20.1239 15.4614 19.9478 15.3885 19.818 15.2586C19.6882 15.1288 19.6152 14.9527 19.6152 14.7691V9.23064C19.6152 9.04703 19.6882 8.87093 19.818 8.7411C19.9478 8.61127 20.1239 8.53833 20.3075 8.53833C20.4912 8.53833 20.6672 8.61127 20.7971 8.7411C20.9269 8.87093 20.9998 9.04703 20.9998 9.23064V14.7691C20.9998 14.9527 20.9269 15.1288 20.7971 15.2586C20.6672 15.3885 20.4912 15.4614 20.3075 15.4614Z" fill="#FBFBFB"/>
<path d="M17.5385 18.2308C17.3549 18.2308 17.1788 18.1579 17.049 18.0281C16.9191 17.8982 16.8462 17.7221 16.8462 17.5385V6.46159C16.8462 6.27798 16.9191 6.10189 17.049 5.97206C17.1788 5.84223 17.3549 5.76929 17.5385 5.76929C17.7221 5.76929 17.8982 5.84223 18.028 5.97206C18.1579 6.10189 18.2308 6.27798 18.2308 6.46159V17.5385C18.2308 17.7221 18.1579 17.8982 18.028 18.0281C17.8982 18.1579 17.7221 18.2308 17.5385 18.2308Z" fill="#FBFBFB"/>
<path d="M14.7692 21C14.5856 21 14.4095 20.9271 14.2797 20.7972C14.1498 20.6674 14.0769 20.4913 14.0769 20.3077V3.69231C14.0769 3.5087 14.1498 3.33261 14.2797 3.20277C14.4095 3.07294 14.5856 3 14.7692 3C14.9528 3 15.1289 3.07294 15.2587 3.20277C15.3886 3.33261 15.4615 3.5087 15.4615 3.69231V20.3077C15.4615 20.4913 15.3886 20.6674 15.2587 20.7972C15.1289 20.9271 14.9528 21 14.7692 21Z" fill="#FBFBFB"/>
<path d="M11.9999 18.2308C11.8163 18.2308 11.6402 18.1579 11.5104 18.0281C11.3806 17.8982 11.3076 17.7221 11.3076 17.5385V6.46159C11.3076 6.27798 11.3806 6.10189 11.5104 5.97206C11.6402 5.84223 11.8163 5.76929 11.9999 5.76929C12.1835 5.76929 12.3596 5.84223 12.4895 5.97206C12.6193 6.10189 12.6922 6.27798 12.6922 6.46159V17.5385C12.6922 17.7221 12.6193 17.8982 12.4895 18.0281C12.3596 18.1579 12.1835 18.2308 11.9999 18.2308Z" fill="#FBFBFB"/>
<path d="M6.46159 18.2308C6.27798 18.2308 6.10189 18.1579 5.97206 18.0281C5.84223 17.8982 5.76929 17.7221 5.76929 17.5385V6.46159C5.76929 6.27798 5.84223 6.10189 5.97206 5.97206C6.10189 5.84223 6.27798 5.76929 6.46159 5.76929C6.64521 5.76929 6.8213 5.84223 6.95113 5.97206C7.08096 6.10189 7.1539 6.27798 7.1539 6.46159V17.5385C7.1539 17.7221 7.08096 17.8982 6.95113 18.0281C6.8213 18.1579 6.64521 18.2308 6.46159 18.2308Z" fill="#FBFBFB"/>
<path d="M3.69231 15.4614C3.5087 15.4614 3.33261 15.3885 3.20277 15.2586C3.07294 15.1288 3 14.9527 3 14.7691V9.23064C3 9.04703 3.07294 8.87093 3.20277 8.7411C3.33261 8.61127 3.5087 8.53833 3.69231 8.53833C3.87592 8.53833 4.05201 8.61127 4.18184 8.7411C4.31168 8.87093 4.38462 9.04703 4.38462 9.23064V14.7691C4.38462 14.9527 4.31168 15.1288 4.18184 15.2586C4.05201 15.3885 3.87592 15.4614 3.69231 15.4614Z" fill="#FBFBFB"/>
</svg>
