<svg width="24" height="24" viewBox="0 0 24 24" fill="none" xmlns="http://www.w3.org/2000/svg">
<path d="M12 21C10.22 21 8.47991 20.4722 6.99987 19.4832C5.51983 18.4943 4.36628 17.0887 3.68509 15.4442C3.0039 13.7996 2.82567 11.99 3.17294 10.2442C3.5202 8.49836 4.37737 6.89471 5.63604 5.63604C6.89471 4.37737 8.49836 3.5202 10.2442 3.17294C11.99 2.82567 13.7996 3.0039 15.4442 3.68509C17.0887 4.36628 18.4943 5.51983 19.4832 6.99987C20.4722 8.47991 21 10.22 21 12C20.9955 14.3856 20.0458 16.6721 18.359 18.359C16.6721 20.0458 14.3856 20.9955 12 21ZM12 3.85715C10.3895 3.85715 8.81516 4.33472 7.47607 5.22947C6.13699 6.12421 5.0933 7.39595 4.47698 8.88387C3.86067 10.3718 3.69942 12.009 4.01361 13.5886C4.3278 15.1682 5.10334 16.6191 6.24213 17.7579C7.38093 18.8967 8.83185 19.6722 10.4114 19.9864C11.991 20.3006 13.6282 20.1393 15.1161 19.523C16.6041 18.9067 17.8758 17.863 18.7705 16.5239C19.6653 15.1848 20.1429 13.6105 20.1429 12C20.1389 9.8416 19.2797 7.77274 17.7535 6.24651C16.2273 4.72029 14.1584 3.86111 12 3.85715Z" fill="#FBFBFB"/>
<path d="M15.285 11.4429L10.9628 8.94648C10.8651 8.89004 10.7542 8.86033 10.6413 8.86035C10.5284 8.86037 10.4175 8.89011 10.3198 8.94658C10.222 9.00305 10.1409 9.08426 10.0845 9.18205C10.0281 9.27983 9.99846 9.39074 9.99854 9.50362V14.4965C9.99846 14.6094 10.0281 14.7203 10.0845 14.8181C10.1409 14.9158 10.222 14.997 10.3198 15.0535C10.4175 15.11 10.5284 15.1397 10.6413 15.1397C10.7542 15.1398 10.8651 15.1101 10.9628 15.0536L15.285 12.5572C15.3829 12.5008 15.4642 12.4196 15.5208 12.3218C15.5773 12.224 15.6071 12.113 15.6071 12C15.6071 11.8871 15.5773 11.7761 15.5208 11.6783C15.4642 11.5805 15.3829 11.4993 15.285 11.4429Z" fill="#FBFBFB"/>
</svg>
