<svg width="35" height="50" viewBox="0 0 35 50" fill="none" xmlns="http://www.w3.org/2000/svg">
<path fill-rule="evenodd" clip-rule="evenodd" d="M31.4398 33.764C31.6546 31.8826 31.3828 30.4141 28.5024 29.1913C26.8448 28.4905 25.2096 28.3295 23.9298 28.2035C22.6329 28.0758 21.7012 27.9841 21.4816 27.403C21.5286 26.7878 21.6312 26.1931 21.7474 25.5198C22.0915 23.5254 22.5546 20.8418 22.0423 14.8959C21.3571 6.9428 19.6747 0.850992 12.5099 0.0173495C12.5099 0.0173495 4.47379 -0.752798 2.54241 7.96929C1.77558 11.0828 2.02795 14.1364 2.22454 16.5149C2.31548 17.6153 2.39448 18.5712 2.35511 19.3217C2.30692 20.24 2.09379 21.4189 1.86572 22.6804C1.50454 24.6782 1.10588 26.8833 1.2655 28.5892C1.41981 30.2457 1.78942 30.795 2.34411 31.6193L2.35511 31.6357C0.922843 32.4047 -0.261561 34.1367 0.0502491 37.4713C0.362059 40.8059 1.73264 43.4361 3.16489 45.3609C4.59715 47.2856 10.6712 49.9889 11.6761 49.9994C14.2484 50.0276 15.4107 48.9835 16.329 48.1585C16.7518 47.7787 17.1228 47.4453 17.556 47.2844C17.8682 47.1685 18.1774 47.0678 18.487 46.9671L18.4872 46.967L18.4873 46.967L18.4874 46.9669L18.4874 46.9669L18.4876 46.9669L18.4877 46.9668L18.4877 46.9668L18.4878 46.9668L18.4879 46.9667L18.488 46.9667L18.4881 46.9667C19.9829 46.4801 21.4883 45.9901 23.4106 43.7572C23.762 43.3492 24.2706 43.123 24.8516 42.8646C25.9706 42.367 27.3581 41.75 28.4076 39.4855C30.372 35.2526 32.4747 34.9822 35 34.9116C32.8825 33.517 31.906 33.6663 31.4398 33.764ZM19.6643 14.2328C19.5045 17.8166 19.4622 18.4315 18.7507 20.1564C18.1054 21.719 13.7765 24.8432 12.9338 24.8432C12.0909 24.8432 8.48494 23.0619 6.9865 20.5433C5.80782 18.5632 5.26531 14.1211 5.26531 14.1211C4.63255 6.63475 9.91502 3.20259 12.8034 3.35191C16.7462 3.5565 19.8437 10.2209 19.6643 14.2328ZM3.74849 6.6499C3.74849 6.6499 3.75648 17.4215 6.99668 22.5609C6.3423 22.0787 5.15219 20.7865 4.71247 19.6413C3.99748 17.8047 3.54063 16.5678 2.99924 11.2873C2.95128 10.4125 3.41384 6.76513 3.74849 6.6499ZM20.9207 30.8655C7.27669 32.0849 2.79139 21.759 2.79139 21.759C2.62621 23.2418 2.75135 23.8176 2.86879 24.3579C2.88777 24.4452 2.90655 24.5316 2.92388 24.6208C3.04836 25.2616 3.37616 26.8795 6.61188 29.584C11.0846 33.3159 16.1034 32.9055 19.3192 32.6426L19.6118 32.6187C20.8222 32.5218 22.3177 32.293 23.7659 32.0714C25.8309 31.7555 27.7995 31.4542 28.7078 31.5711C29.7678 31.7085 30.452 32.1272 30.9511 33.2172C31.0572 32.6492 30.8472 31.3794 29.2687 30.6092C27.9072 29.9449 22.5403 30.6092 20.9207 30.8655ZM21.4723 17.2169C21.4723 17.2169 21.1081 26.1846 18.1978 27.7661C19.0076 27.8297 20.1166 27.6673 20.7255 26.7737C21.0498 26.2975 21.9727 21.5439 21.4723 17.2169ZM22.1131 28.8068C13.08 29.1959 6.40515 23.7507 6.40515 23.7507C7.0904 24.7091 8.21204 26.12 9.76882 27.21C13.9444 30.1354 18.7323 29.9473 20.2263 29.8602C20.7714 29.8285 21.2697 29.7554 21.7882 29.6793C22.8819 29.5189 24.0653 29.3453 25.9667 29.5192C25.7726 29.4556 25.6049 29.3983 25.4531 29.3464C24.5333 29.0322 24.1983 28.9177 22.1131 28.8068ZM2.54245 26.12C2.54245 26.12 3.60122 34.4576 12.51 36.7022C13.5999 37.2063 14.4079 37.7086 15.0837 38.1287C16.5928 39.0667 17.4426 39.595 19.2989 38.8187C17.7684 40.3602 14.1923 40.9963 12.51 39.3925C11.7054 38.6255 11.2287 38.4461 10.6709 38.2362C10.0623 38.0072 9.35724 37.7419 8.02469 36.6375C5.47091 34.5212 2.72862 30.9937 2.47963 28.942C2.44145 28.6274 2.4062 28.355 2.37545 28.1173L2.37543 28.1172L2.3754 28.117L2.37539 28.1169L2.37536 28.1167L2.37536 28.1166L2.37535 28.1166L2.37533 28.1165C2.20563 26.8052 2.17313 26.554 2.54245 26.12ZM13.6943 43.885C8.08646 42.667 2.41794 32.4694 2.41794 32.4694C2.35512 32.7257 2.60411 34.4857 3.1649 35.6439C3.7257 36.8021 6.46228 41.4348 10.0806 44.0779C11.8989 45.4067 15.0066 46.1298 17.3699 46.0016C19.7329 45.8733 21.1355 44.5378 22.474 42.4212C22.2212 42.5928 21.988 42.7555 21.7686 42.9086C19.6094 44.4156 18.7851 44.9909 13.6943 43.885ZM0.860046 35.8038C0.860046 35.8038 2.74117 43.5618 6.98306 46.3261C10.7791 48.8016 12.2914 48.2942 13.5853 47.86C13.754 47.8034 13.9191 47.748 14.085 47.7006C11.2525 47.5643 8.82074 46.4144 6.46687 44.2673C5.56228 43.4443 3.69486 40.8364 2.79143 39.2655C2.49903 38.7586 0.860046 35.8038 0.860046 35.8038ZM20.7962 41.6404C18.4286 44.3342 16.809 43.3724 16.809 43.3724C17.9317 43.3724 18.6147 42.8598 20.0481 41.2561C20.7885 40.4277 21.6208 39.0411 22.4139 37.7198L22.414 37.7198C23.1564 36.4829 23.8645 35.3033 24.4306 34.6927C26.1335 32.8537 27.2413 32.2129 28.7079 32.2765C30.2384 32.3435 30.4314 33.624 30.4314 33.624C30.4314 33.624 29.9208 32.9537 28.7914 32.8537C26.7875 32.6771 24.8732 35.6371 23.1018 38.3762C22.3025 39.6121 21.5324 40.8029 20.7962 41.6404ZM23.6928 42.4741C25.9606 41.0052 26.9066 39.1782 27.7286 37.5907C27.9114 37.2378 28.088 36.8967 28.2716 36.574C29.3315 34.714 30.0169 34.1366 31.1372 34.2648C30.7637 33.8803 29.4058 33.8391 28.5833 34.714C28.0935 35.2359 26.7765 37.6004 26.2157 38.754C25.655 39.9074 24.0993 42.2109 23.6928 42.4741ZM22.2285 35.3125C15.6474 38.6706 10.5181 33.3712 10.5181 33.3712C11.3963 33.8885 16.3521 35.1632 18.6158 34.928C20.5461 34.727 21.4393 34.2436 22.3736 33.6945C24.3655 32.5245 25.349 32.3859 26.2444 32.474C25.3755 32.6602 25.0088 32.997 24.3688 33.5848C23.9016 34.0139 23.2887 34.5767 22.2285 35.3125ZM18.7711 4.97327C18.7711 4.97327 20.5198 7.31312 20.9311 9.28846C21.2109 10.6253 21.8094 14.9711 20.6808 17.0382C20.8547 14.4297 20.7123 11.809 20.2572 9.23672C20.1075 8.36076 19.211 5.81279 18.7711 4.97327ZM16.8718 24.4527C18.6993 23.084 19.5706 20.1339 19.5706 20.1339C18.9924 24.0459 17.1814 25.2522 16.4674 25.7278L16.456 25.7354C15.7501 26.2058 14.961 26.4197 13.7983 26.0776C14.1307 26.1622 15.0443 25.8213 16.8718 24.4527Z" fill="#FBFBFB"/>
</svg>
