<svg width="38" height="68" viewBox="0 0 38 68" fill="none" xmlns="http://www.w3.org/2000/svg">
<path fill-rule="evenodd" clip-rule="evenodd" d="M18.9589 43.3986C18.6951 43.2598 18.3434 43.0666 18.0255 42.8566C17.4268 42.4364 16.0244 43.1926 16.0244 43.1926L12.6754 45.6046L9.4857 47.0627C9.4857 47.0627 9.06723 43.8483 8.54803 43.0456C8.32902 42.7068 7.87964 42.5582 7.42828 42.4089C6.81009 42.2044 6.18821 41.9987 6.14948 41.3017C6.10492 40.4996 5.73437 40.0544 5.31503 39.5505C5.10397 39.2969 4.88055 39.0285 4.68011 38.6922C4.08142 37.6878 3.94743 31.5906 3.94743 31.5906C3.94743 31.5906 3.34473 35.297 3.34473 36.1584V39.3394C3.34473 40.0625 3.48721 40.8428 3.62916 41.6202C3.73056 42.1755 3.83169 42.7293 3.88043 43.2598C3.91794 43.6672 3.91776 44.158 3.91757 44.6804C3.91717 45.7911 3.91671 47.045 4.27815 47.9452C4.51899 48.5447 4.32265 49.6185 4.10422 50.813C3.84043 52.2556 3.54443 53.8744 3.94743 55.0468C4.29473 56.0568 4.78889 56.6804 5.19331 57.1908C5.64702 57.7633 5.98777 58.1933 5.88151 58.8665C5.68053 60.1396 5.9485 63.4216 7.08291 64.493C8.21731 65.5646 9.35171 66.4346 11.0178 66.7033C12.152 66.8864 12.7004 67.0987 13.4407 67.3853L13.4407 67.3853L13.4408 67.3853L13.4411 67.3854L13.4412 67.3855C13.7882 67.5198 14.1775 67.6705 14.689 67.8422C15.6634 68.1691 16.4399 67.9 17.0635 67.6838C17.4661 67.5443 17.805 67.4268 18.0925 67.506C18.2932 67.5606 18.5383 67.6209 18.7871 67.6821L18.9589 67.7244L19.0342 67.7061C19.319 67.6367 19.6022 67.5678 19.8253 67.506C20.1151 67.4266 20.456 67.5442 20.8603 67.6837C21.484 67.8988 22.2585 68.166 23.2288 67.8422C23.7444 67.6701 24.136 67.5185 24.4858 67.3831L24.486 67.383L24.4862 67.3829L24.4864 67.3829C25.221 67.0985 25.7714 66.8855 26.8999 66.7033C28.566 66.4346 29.7047 65.5646 30.8391 64.493C31.9735 63.4216 32.2372 60.1396 32.0405 58.8665C31.9364 58.193 32.2774 57.7617 32.7308 57.1883C33.1345 56.6777 33.6273 56.0543 33.9743 55.0468C34.3771 53.8779 34.0808 52.266 33.8161 50.8256C33.5964 49.6303 33.3985 48.5531 33.6396 47.9452C33.9884 47.0654 33.9948 45.8706 34.0005 44.7932C34.0035 44.2292 34.0064 43.6974 34.0581 43.2598C34.1139 42.7886 34.2012 42.299 34.2891 41.8063L34.2891 41.8063C34.4386 40.9677 34.5898 40.1202 34.5898 39.3394V36.1584C34.5898 35.2885 33.9911 31.6033 33.9911 31.6033C33.9911 31.6033 33.8573 37.7005 33.2544 38.7047C33.0526 39.0411 32.8291 39.3096 32.618 39.5632L32.618 39.5632C32.1987 40.067 31.8282 40.5122 31.7725 41.3142C31.7241 42.0119 31.1056 42.2175 30.4898 42.4221C30.0411 42.5712 29.5939 42.7198 29.3697 43.0581C28.838 43.8608 28.4363 47.0627 28.4363 47.0627L25.2338 45.5921L21.8849 43.1801C21.8849 43.1801 20.4827 42.4404 19.8798 42.8439C19.5823 43.0443 19.2751 43.2293 18.9589 43.3986ZM18.9589 51.9331C18.496 51.8809 17.9695 51.7133 17.4987 51.5634C17.0584 51.4232 16.6669 51.2986 16.4221 51.2986C16.0967 51.2986 15.6656 51.5472 15.2055 51.8126C14.6296 52.1447 14.0083 52.5031 13.4919 52.433C12.5624 52.307 12.4244 49.7982 12.4244 49.7982C12.4244 49.7982 16.0286 47.9452 17.029 48.1469C17.669 48.2479 18.3194 48.2619 18.9631 48.1889C19.6066 48.2619 20.2573 48.2479 20.897 48.1469C21.9016 47.9452 25.5018 49.7982 25.5018 49.7982C25.5018 49.7982 25.3678 52.3195 24.4344 52.433C23.9164 52.496 23.2953 52.1399 22.7206 51.8103C22.2595 51.5459 21.8282 51.2986 21.5039 51.2986C21.2569 51.2986 20.864 51.4234 20.4222 51.5637C19.9507 51.7135 19.4235 51.8809 18.9589 51.9331ZM21.1389 63.5488C21.055 63.4845 20.9742 63.4163 20.8967 63.3442C19.9421 62.4554 19.3765 62.2475 18.7146 62.0042C17.9926 61.7388 17.156 61.4313 15.5749 60.1515C12.5447 57.6987 9.291 53.6111 8.99552 51.2333C8.95015 50.8682 8.90827 50.5521 8.87174 50.2765C8.67037 48.7569 8.6318 48.4658 9.07001 47.9631C9.07001 47.9631 10.3262 57.6252 20.8967 60.2265C22.0036 60.7265 22.8655 61.225 23.5937 61.6635C25.1354 59.9494 25.8758 57.5012 25.8758 57.5012C25.5539 59.6286 24.9099 61.0655 24.2294 62.0485C25.8517 63.0274 26.8665 63.5312 28.952 62.679C27.4397 64.167 24.2436 64.9271 22.0641 64.0658C21.2558 64.5591 20.343 64.7676 19.0266 64.3891C19.314 64.4607 19.9672 64.2704 21.1389 63.5488ZM27.1578 58.8257C30.6108 56.9931 31.043 46.6005 31.043 46.6005C31.6367 51.6148 30.5416 57.1238 30.1568 57.6758C29.4344 58.7112 28.1185 58.8994 27.1578 58.8257ZM6.62231 47.3455C6.62231 47.3455 9.01835 59.5937 13.9299 64.6955C13.0612 64.2973 11.3891 63.1006 10.6232 61.899C9.38382 59.9744 8.57789 58.6723 6.77729 52.7913C6.52756 51.8074 6.25809 47.5532 6.62231 47.3455Z" fill="#D9D9D9"/>
<path fill-rule="evenodd" clip-rule="evenodd" d="M37.2275 15.5641C37.9123 19.0704 36.879 22.691 36.8121 22.9191C36.7647 23.444 36.5513 25.6467 36.1643 28.9309C36.1604 28.9636 36.1628 28.9992 36.1657 29.0435C36.1847 29.3298 36.2275 29.9764 34.741 32.4986C33.5925 34.4472 33.3456 35.5699 33.3079 36.0994C33.2507 34.6065 33.0173 29.0999 32.6102 26.8509C32.5778 26.6718 32.5422 26.473 32.5037 26.2576C31.9803 23.3296 30.9117 17.3517 29.7889 16.6315C28.5833 15.8583 23.9744 15.0893 22.551 15.6818C21.1276 16.2743 11.9517 15.5011 11.9517 15.5011C11.9517 15.5011 7.63181 15.0305 6.6229 16.5138C5.61399 17.9971 3.66741 21.7453 4.19486 26.0819C4.72232 30.4186 3.7764 32.2002 3.7764 32.2002L4.00238 36.0578L1.52835 29.2882C1.52835 29.2882 1.28561 29.8849 1.05113 27.9225C0.964688 27.1991 0.861764 26.5264 0.766261 25.9023C0.602717 24.8334 0.460938 23.9068 0.460938 23.111C0.460938 21.8506 0.519433 18.2744 1.00514 17.4634C1.22163 17.0918 1.41741 16.7368 1.6034 16.3996L1.60344 16.3996C2.29858 15.1393 2.8568 14.1272 3.84739 13.421C3.84739 13.421 6.1457 15.2069 8.45225 14.8497C8.45225 14.8497 3.8349 13.0176 3.71766 10.4039C3.60042 7.79023 4.48809 3.02507 8.80797 2.07118C8.80797 2.07118 11.0475 1.59634 11.8847 2.07118C11.8847 2.07118 16.6278 -1.53841 22.5468 0.77274L25.9167 3.31919C25.9167 3.31919 29.8851 3.85707 30.8311 6.88679C30.8311 6.88679 36.5201 11.9419 37.2275 15.5641ZM33.3218 36.478C33.3218 36.478 33.3172 36.3415 33.3079 36.0994C33.2893 36.3612 33.3218 36.478 33.3218 36.478ZM10.0514 13.6017C10.0514 13.6017 9.39816 14.1942 7.50608 9.97532C5.61399 5.75641 10.9973 3.08389 10.9973 3.08389C5.55125 9.38282 10.0514 13.6017 10.0514 13.6017ZM11.9477 9.9165C11.9477 9.9165 12.6006 4.62186 17.038 2.66788C21.4751 0.713895 24.2004 3.36122 24.2004 3.36122C24.2004 3.36122 23.2542 3.12591 19.1101 3.78143C14.9657 4.43697 11.9477 9.9165 11.9477 9.9165ZM18.3399 8.35751C18.4766 7.56703 18.8408 6.83399 19.3875 6.24864C19.9342 5.66329 20.6394 5.25118 21.4166 5.06307C24.2004 4.31511 27.4571 5.93292 27.4571 5.93292C22.4255 4.08818 18.3399 8.35751 18.3399 8.35751ZM28.3445 8.35751C24.1584 6.61786 20.8097 10.8788 20.8097 10.8788C23.268 6.86385 25.0955 7.17891 28.8185 7.82077L28.8186 7.82078C29.0389 7.85876 29.2658 7.89788 29.4999 7.93732C33.6903 8.64326 35.5656 13.3622 35.5656 13.3622C33.8728 10.6241 32.6528 10.1239 28.8556 8.5672C28.6902 8.4994 28.5199 8.42959 28.3445 8.35751ZM11.9801 13.2165C13.8378 12.0349 14.6129 10.5652 15.2863 9.2881L15.2863 9.28806C15.436 9.00424 15.5807 8.72994 15.7311 8.47043C16.5992 6.97418 17.1607 6.5098 18.0784 6.61289C17.7724 6.30359 16.66 6.27049 15.9863 6.97418C15.5851 7.39412 14.5062 9.29613 14.0467 10.224C13.5875 11.1518 12.3131 13.0046 11.9801 13.2165ZM33.3718 27.0237C35.5761 23.7833 31.137 14.3877 31.137 14.3877C33.9885 18.5447 35.5756 23.9312 35.4911 24.5999C35.3326 25.8548 34.256 26.6383 33.3718 27.0237Z" fill="#D9D9D9"/>
</svg>
