<svg width="24" height="24" viewBox="0 0 24 24" fill="none" xmlns="http://www.w3.org/2000/svg">
<path d="M14.8077 7.03846H8.61542V3.96154C8.61542 3.42308 9.15388 3 9.92311 3H14.077C14.8462 3 15.3846 3.38462 15.3846 3.96154L15.4231 6.42308C15.4231 6.57692 15.3462 6.73077 15.2693 6.84615C15.1154 7 14.9616 7.03846 14.8077 7.03846ZM9.76926 5.88461H14.2308V4.42308C14.2308 4.30769 14.1154 4.19231 14 4.19231H9.96157C9.84619 4.19231 9.7308 4.30769 9.7308 4.42308L9.76926 5.88461Z" fill="#BFBFBF"/>
<path d="M20.4615 5.88461H3.53846C2.69231 5.88461 2 6.53846 2 7.34615V18.7308C2 19.5769 2.65385 20.1923 3.53846 20.1923H20.4615C21.3077 20.1923 22 19.5385 22 18.7308V7.34615C22 6.53846 21.3077 5.88461 20.4615 5.88461ZM15.3077 13.7692H10.3077L12.2692 15.7308C12.3846 15.8462 12.4615 16.0385 12.4615 16.1923C12.4615 16.3462 12.4231 16.5 12.2692 16.6538C11.9615 16.9231 11.5385 16.9231 11.2692 16.6538L8.15385 13.5385C8.11538 13.5 8.07692 13.4615 8.07692 13.4231C8.03846 13.4231 8.07692 13.4231 8.03846 13.3846C8 13.3462 8 13.3077 8 13.3077C8 13.2692 8 13.2308 8 13.2308V13.1923C8 13.1538 8 13.1154 8 13.0769C8 13.0385 8 13 8 12.9615C8 12.9231 8 12.8846 8 12.8846C8 12.8462 8 12.8077 8 12.8077C8.03846 12.7692 8 12.7308 8.03846 12.7308C8.07692 12.7308 8.07692 12.6923 8.07692 12.6923C8.11538 12.6538 8.11538 12.6154 8.15385 12.5769L11.2692 9.46154C11.5385 9.19231 11.9615 9.19231 12.2308 9.5C12.3462 9.61538 12.4231 9.80769 12.4231 9.96154C12.4231 10.1154 12.3846 10.2692 12.2308 10.4231L10.2692 12.3846H15.3077C15.6923 12.3846 16 12.6923 16 13.0769C16 13.4615 15.6923 13.7692 15.3077 13.7692Z" fill="#BFBFBF"/>
</svg>
