<svg width="24" height="24" viewBox="0 0 24 24" fill="none" xmlns="http://www.w3.org/2000/svg">
<path d="M9.19228 7.03846H15.3846V3.96154C15.3846 3.42308 14.8461 3 14.0769 3H9.92304C9.15381 3 8.61535 3.38462 8.61535 3.96154L8.57689 6.42308C8.57689 6.57692 8.65381 6.73077 8.73074 6.84615C8.88458 7 9.03843 7.03846 9.19228 7.03846ZM14.2307 5.88461H9.7692V4.42308C9.7692 4.30769 9.88458 4.19231 9.99997 4.19231H14.0384C14.1538 4.19231 14.2692 4.30769 14.2692 4.42308L14.2307 5.88461Z" fill="#BFBFBF"/>
<path d="M3.53846 5.88461H20.4615C21.3077 5.88461 22 6.53846 22 7.34615V18.7308C22 19.5769 21.3462 20.1923 20.4615 20.1923H3.53846C2.69231 20.1923 2 19.5385 2 18.7308V7.34615C2 6.53846 2.69231 5.88461 3.53846 5.88461ZM8.69231 13.7692H13.6923L11.7308 15.7308C11.6154 15.8462 11.5385 16.0385 11.5385 16.1923C11.5385 16.3462 11.5769 16.5 11.7308 16.6538C12.0385 16.9231 12.4615 16.9231 12.7308 16.6538L15.8462 13.5385C15.8846 13.5 15.9231 13.4615 15.9231 13.4231C15.9615 13.4231 15.9231 13.4231 15.9615 13.3846C16 13.3462 16 13.3077 16 13.3077C16 13.2692 16 13.2308 16 13.2308V13.1923C16 13.1538 16 13.1154 16 13.0769C16 13.0385 16 13 16 12.9615C16 12.9231 16 12.8846 16 12.8846C16 12.8462 16 12.8077 16 12.8077C15.9615 12.7692 16 12.7308 15.9615 12.7308C15.9231 12.7308 15.9231 12.6923 15.9231 12.6923C15.8846 12.6538 15.8846 12.6154 15.8462 12.5769L12.7308 9.46154C12.4615 9.19231 12.0385 9.19231 11.7692 9.5C11.6538 9.61538 11.5769 9.80769 11.5769 9.96154C11.5769 10.1154 11.6154 10.2692 11.7692 10.4231L13.7308 12.3846H8.69231C8.30769 12.3846 8 12.6923 8 13.0769C8 13.4615 8.30769 13.7692 8.69231 13.7692Z" fill="#BFBFBF"/>
</svg>
