<svg width="24" height="24" viewBox="0 0 24 24" fill="none" xmlns="http://www.w3.org/2000/svg">
<path d="M10.975 2H4.90308C4.66484 1.99999 4.43624 2.09413 4.26709 2.26191C4.09794 2.42968 4.00194 2.6575 4 2.89574V21.1043C4.00194 21.3425 4.09794 21.5703 4.26709 21.7381C4.43624 21.9059 4.66484 22 4.90308 22H10.975C11.2126 22 11.4404 21.9056 11.6084 21.7376C11.7764 21.5697 11.8708 21.3418 11.8708 21.1043V2.89574C11.8708 2.65818 11.7764 2.43034 11.6084 2.26236C11.4404 2.09437 11.2126 2 10.975 2ZM7.93539 20.7372C7.61188 20.7357 7.29605 20.6384 7.02776 20.4577C6.75948 20.2769 6.55077 20.0207 6.42797 19.7213C6.30517 19.422 6.27379 19.0931 6.33779 18.776C6.4018 18.4588 6.55831 18.1678 6.78758 17.9395C7.01685 17.7113 7.3086 17.5561 7.626 17.4935C7.9434 17.4309 8.27223 17.4638 8.57098 17.5879C8.86973 17.712 9.12501 17.9219 9.3046 18.191C9.48418 18.4601 9.58003 18.7763 9.58003 19.0999C9.57809 19.5348 9.40396 19.9512 9.09574 20.258C8.78752 20.5649 8.37031 20.7372 7.93539 20.7372ZM10.0866 12.8223C10.0867 12.8795 10.0645 12.9344 10.0247 12.9755C9.98501 13.0166 9.93085 13.0407 9.87371 13.0426H6.00441C5.94657 13.0407 5.89161 13.017 5.85069 12.976C5.80977 12.9351 5.78598 12.8802 5.78414 12.8223V3.52717C5.78605 3.47003 5.81009 3.41587 5.85119 3.37614C5.8923 3.33641 5.94724 3.31421 6.00441 3.31424H9.87371C9.93018 3.31424 9.98434 3.33668 10.0243 3.37661C10.0642 3.41654 10.0866 3.4707 10.0866 3.52717V12.8223ZM19.3965 2H13.3245C13.087 2 12.8591 2.09437 12.6911 2.26236C12.5232 2.43034 12.4288 2.65818 12.4288 2.89574V21.1043C12.4288 21.3418 12.5232 21.5697 12.6911 21.7376C12.8591 21.9056 13.087 22 13.3245 22H19.3965C19.6347 22 19.8633 21.9059 20.0325 21.7381C20.2016 21.5703 20.2976 21.3425 20.2996 21.1043V2.89574C20.2976 2.6575 20.2016 2.42968 20.0325 2.26191C19.8633 2.09413 19.6347 1.99999 19.3965 2ZM16.3642 20.7372C16.0413 20.7328 15.727 20.6331 15.4606 20.4506C15.1943 20.268 14.9879 20.0108 14.8673 19.7113C14.7467 19.4118 14.7174 19.0833 14.7831 18.7671C14.8487 18.451 15.0064 18.1613 15.2362 17.9345C15.466 17.7078 15.7578 17.554 16.0748 17.4926C16.3918 17.4312 16.7198 17.4649 17.0177 17.5894C17.3156 17.714 17.5701 17.9238 17.749 18.1926C17.928 18.4613 18.0235 18.777 18.0235 19.0999C18.0225 19.3165 17.9788 19.5307 17.8948 19.7304C17.8108 19.93 17.6882 20.1111 17.534 20.2633C17.3798 20.4154 17.1971 20.5356 16.9964 20.6169C16.7956 20.6982 16.5808 20.7391 16.3642 20.7372ZM18.5154 12.8223C18.5136 12.8802 18.4898 12.9351 18.4489 12.976C18.408 13.017 18.353 13.0407 18.2952 13.0426H14.4258C14.3687 13.0407 14.3146 13.0166 14.2748 12.9755C14.2351 12.9344 14.2129 12.8795 14.2129 12.8223V3.52717C14.2129 3.4707 14.2354 3.41654 14.2753 3.37661C14.3152 3.33668 14.3694 3.31424 14.4258 3.31424H18.2952C18.3523 3.31421 18.4073 3.33641 18.4484 3.37614C18.4895 3.41587 18.5135 3.47003 18.5154 3.52717V12.8223Z" fill="#BFBFBF"/>
<path d="M17.2893 5.39207H15.4317C15.3918 5.38553 15.3509 5.38775 15.3119 5.39857C15.273 5.4094 15.2368 5.42857 15.206 5.45476C15.1751 5.48095 15.1504 5.51354 15.1334 5.55026C15.1164 5.58697 15.1076 5.62694 15.1076 5.6674C15.1076 5.70785 15.1164 5.74783 15.1334 5.78454C15.1504 5.82126 15.1751 5.85384 15.206 5.88003C15.2368 5.90623 15.273 5.9254 15.3119 5.93623C15.3509 5.94705 15.3918 5.94927 15.4317 5.94273H17.2893C17.3292 5.94927 17.3701 5.94705 17.4091 5.93623C17.448 5.9254 17.4842 5.90623 17.515 5.88003C17.5459 5.85384 17.5706 5.82126 17.5876 5.78454C17.6046 5.74783 17.6134 5.70785 17.6134 5.6674C17.6134 5.62694 17.6046 5.58697 17.5876 5.55026C17.5706 5.51354 17.5459 5.48095 17.515 5.45476C17.4842 5.42857 17.448 5.4094 17.4091 5.39857C17.3701 5.38775 17.3292 5.38553 17.2893 5.39207Z" fill="#BFBFBF"/>
<path d="M8.86783 5.39207H7.01027C6.97035 5.38553 6.92948 5.38775 6.8905 5.39857C6.85152 5.4094 6.81536 5.42857 6.78453 5.45476C6.75369 5.48095 6.72893 5.51354 6.71194 5.55026C6.69495 5.58697 6.68616 5.62694 6.68616 5.6674C6.68616 5.70785 6.69495 5.74783 6.71194 5.78454C6.72893 5.82126 6.75369 5.85384 6.78453 5.88003C6.81536 5.90623 6.85152 5.9254 6.8905 5.93623C6.92948 5.94705 6.97035 5.94927 7.01027 5.94273H8.86783C8.90775 5.94927 8.94862 5.94705 8.9876 5.93623C9.02658 5.9254 9.06274 5.90623 9.09357 5.88003C9.12441 5.85384 9.14917 5.82126 9.16616 5.78454C9.18315 5.74783 9.19194 5.70785 9.19194 5.6674C9.19194 5.62694 9.18315 5.58697 9.16616 5.55026C9.14917 5.51354 9.12441 5.48095 9.09357 5.45476C9.06274 5.42857 9.02658 5.4094 8.9876 5.39857C8.94862 5.38775 8.90775 5.38553 8.86783 5.39207Z" fill="#BFBFBF"/>
</svg>
