<svg width="24" height="24" viewBox="0 0 24 24" fill="none" xmlns="http://www.w3.org/2000/svg">
<path d="M3.00012 16.2998V17.7998V18.3998V18.6998C3.00012 19.196 3.40393 19.5998 3.9001 19.5998H5.92928C6.27248 19.5998 6.58089 19.409 6.73419 19.1024L7.0855 18.3998H16.9146L17.2659 19.1024C17.4192 19.409 17.7277 19.5998 18.0709 19.5998H20.1C20.5962 19.5998 21 19.1959 21 18.6998V18.3998V17.7998V16.2998H3.00012ZM6.19752 18.8339C6.14652 18.9362 6.04362 18.9998 5.92932 18.9998H3.90014C3.73483 18.9998 3.60016 18.8654 3.60016 18.6998V18.3998H6.41473L6.19752 18.8339ZM20.4 18.6998C20.4 18.8654 20.2653 18.9998 20.1 18.9998H18.0709C17.9566 18.9998 17.8537 18.9362 17.8026 18.8338L17.5854 18.3998H20.4V18.6998Z" fill="#898989"/>
<path d="M20.9999 14.7999H19.1999C19.0343 14.7999 18.8999 14.6658 18.8999 14.4999C18.8999 14.334 19.0343 14.2 19.1999 14.2H20.9999V13.6H19.1999C19.0343 13.6 18.8999 13.4659 18.8999 13.3C18.8999 13.1341 19.0343 13 19.1999 13H20.9999V12.4C20.9999 11.9038 20.5964 11.5 20.0999 11.5H20.0465L18.6986 4.70051C18.605 4.28801 18.2441 4 17.8211 4H6.17907C5.75606 4 5.39517 4.28801 5.29946 4.70858L3.9537 11.4999H3.89998C3.40378 11.4999 3 11.9038 3 12.3999V12.9999H4.49998C4.6659 12.9999 4.79996 13.134 4.79996 13.2999C4.79996 13.4658 4.66586 13.5999 4.49998 13.5999H3V14.1999H4.49998C4.6659 14.1999 4.79996 14.334 4.79996 14.4999C4.79996 14.6658 4.66586 14.7999 4.49998 14.7999H3V15.6998H20.9999V14.7999ZM5.72339 11.4999C5.9085 10.318 7.17298 9.39996 8.69998 9.39996C10.2273 9.39996 11.4917 10.318 11.6769 11.4999H5.72339ZM12.3233 11.4999C12.5084 10.318 13.7729 9.39996 15.2999 9.39996C16.8272 9.39996 18.0917 10.318 18.2768 11.4999H12.3233ZM15.2999 8.79996C13.8248 8.79996 12.5555 9.54397 11.9999 10.6048C11.4446 9.54397 10.1753 8.79996 8.69995 8.79996C6.83665 8.79996 5.29946 9.98617 5.11828 11.4999H4.56539L5.88627 4.83339C5.91747 4.696 6.03806 4.6 6.17907 4.6H17.8211C17.9621 4.6 18.0824 4.696 18.1118 4.82528L19.4348 11.4999H18.8819C18.7004 9.98617 17.1635 8.79996 15.2999 8.79996Z" fill="#898989"/>
</svg>
