<svg width="200" height="200" viewBox="0 0 200 200" fill="none" xmlns="http://www.w3.org/2000/svg">
<path d="M95.7778 16.1885L95.1211 15.532V16.0118L95.7778 16.6683V16.1885Z" fill="#CAA85F"/>
<path d="M97.529 17.1587V16.6479H96.2519V16.6635L95.8506 16.2622V16.742L96.2519 17.1435V17.1587H97.529Z" fill="#CAA85F"/>
<path d="M97.6011 16.6472H98.2945V17.158H97.6011V16.6472Z" fill="#CAA85F"/>
<path d="M99.2654 17.2307H100.127V17.7779H99.2654V17.2307Z" fill="#CAA85F"/>
<path d="M96.5793 17.2307H97.9657V17.7779H96.5793V17.2307Z" fill="#CAA85F"/>
<path d="M95.0473 15.459L94.2449 14.6565V15.1363L95.0473 15.9392V15.459Z" fill="#CAA85F"/>
<path d="M98.0398 17.2307H99.1924V17.7779H98.0398V17.2307Z" fill="#CAA85F"/>
<path d="M94.1713 14.5836L93.5879 14V14.4797L94.1713 15.0639V14.5836Z" fill="#CAA85F"/>
<path d="M93.3328 14.8607L93.88 15.408V14.8761L93.3328 14.3291V14.8607Z" fill="#CAA85F"/>
<path d="M93.5151 13.9272L93.3328 13.7449V14.2244L93.5151 14.4075V13.9272Z" fill="#CAA85F"/>
<path d="M94.4647 15.4591L93.9536 14.9485V15.4801L94.5373 16.0638L94.4647 15.9909V15.4591Z" fill="#CAA85F"/>
<path d="M94.5359 15.532V16.0636L95.4845 17.0122V16.4804L94.5359 15.532Z" fill="#CAA85F"/>
<path d="M96.2509 17.2464L95.5579 16.5532V17.0848L95.4849 17.012L96.2509 17.778H96.5063V17.2307H96.2509V17.2464Z" fill="#CAA85F"/>
<path d="M104.022 16.6472H105.263V17.158H104.022V16.6472Z" fill="#CAA85F"/>
<path d="M103.548 17.2307H104.806V17.7779H103.548V17.2307Z" fill="#CAA85F"/>
<path d="M106.065 17.2307H107.341V17.7779H106.065V17.2307Z" fill="#CAA85F"/>
<path d="M104.88 17.2307H105.993V17.7779H104.88V17.2307Z" fill="#CAA85F"/>
<path d="M105.334 16.6472H106.429V17.158H105.334V16.6472Z" fill="#CAA85F"/>
<path d="M106.502 16.6472H107.341V17.158H106.502V16.6472Z" fill="#CAA85F"/>
<path d="M103.146 16.6472H103.949V17.158H103.146V16.6472Z" fill="#CAA85F"/>
<path d="M100.958 17.2307H102.235V17.7779H100.958V17.2307Z" fill="#CAA85F"/>
<path d="M100.63 16.6472H101.761V17.158H100.63V16.6472Z" fill="#CAA85F"/>
<path d="M101.833 16.6472H103.074V17.158H101.833V16.6472Z" fill="#CAA85F"/>
<path d="M102.307 17.2307H103.474V17.7779H102.307V17.2307Z" fill="#CAA85F"/>
<path d="M100.2 17.2307H100.886V17.7779H100.2V17.2307Z" fill="#CAA85F"/>
<path d="M104.423 3.77002H93.333V13.6409L93.8803 14.1881V13.6561L93.9533 13.7291V14.2607L94.756 15.0636V14.5316L94.8291 14.6046V15.1363L95.3399 15.6471V15.1157L95.4128 15.1886V15.7206L96.2518 16.5593V16.5747H97.0912V16.0279H97.164V16.5747H98.2952V11.9415H100.63V16.5744H101.323V16.0276H101.396V16.5744H102.636V16.0276H102.709V16.5744H103.658V16.0276H103.731V16.5744H104.807V16.0276H104.88V16.5744H105.993V16.0276H106.066V16.5744H107.341V6.68839L104.423 3.77002ZM104.181 4.35369L105.932 6.10472H96.493L94.742 4.35369H104.181ZM93.6248 9.31492L94.2085 9.8986V11.0659L93.6248 10.4823V9.31492ZM98.061 15.7942H96.3485L93.5665 13.0122V11.3377L96.0863 13.8575L96.1547 13.926H98.061V15.7942ZM94.4165 10.225L94.5004 10.1904L94.5839 10.3901C94.5839 10.3901 94.5592 10.4757 94.6059 10.6613C94.6283 10.7494 94.6463 10.847 94.6463 10.9469C94.6463 11.044 94.6222 11.0851 94.6089 11.1526C94.5837 11.2765 94.558 11.4007 94.5004 11.3435C94.4429 11.287 94.4172 11.1124 94.3918 10.9382C94.3785 10.8444 94.3547 10.7559 94.3547 10.6592C94.3547 10.5589 94.3726 10.4974 94.3951 10.4531C94.4418 10.3602 94.4165 10.225 94.4165 10.225ZM94.7924 11.6496V10.4823L95.3759 11.0659V12.2333L94.7924 11.6496ZM95.5841 11.3923L95.6679 11.3578L95.7515 11.5574C95.7515 11.5574 95.7263 11.6436 95.7732 11.8287C95.7954 11.9172 95.8136 12.0143 95.8136 12.1147C95.8136 12.2113 95.7896 12.2524 95.7765 12.3199C95.7511 12.4439 95.7254 12.5681 95.6679 12.5109C95.61 12.4544 95.5846 12.2798 95.5591 12.1056C95.5456 12.0117 95.5218 11.9232 95.5218 11.8266C95.5218 11.7262 95.54 11.6648 95.5622 11.6204C95.6091 11.5275 95.5841 11.3923 95.5841 11.3923ZM95.9595 12.817V11.6496L96.2514 11.9415H96.8351V13.1088H96.2514L95.9595 12.817ZM97.3139 12.0601L97.5646 11.9415L97.8156 12.0601C97.8156 12.0601 97.7404 12.1719 97.8808 12.3127C97.9482 12.3797 98.0024 12.4605 98.0024 12.5616C98.0024 12.6596 97.9312 12.7252 97.8906 12.8069C97.8149 12.958 97.7369 13.1088 97.5646 13.1088C97.3926 13.1088 97.3146 12.958 97.2387 12.8069C97.1981 12.7252 97.1269 12.6596 97.1269 12.5616C97.1269 12.4602 97.1813 12.3797 97.2483 12.3127C97.3891 12.1717 97.3139 12.0601 97.3139 12.0601ZM107.108 15.7942H100.862V13.926H107.108V15.7942ZM101.108 12.0601L101.359 11.9415L101.609 12.0601C101.609 12.0601 101.534 12.1719 101.675 12.3127C101.742 12.3797 101.797 12.4605 101.797 12.5616C101.797 12.6596 101.725 12.7252 101.684 12.8069C101.609 12.958 101.531 13.1088 101.359 13.1088C101.186 13.1088 101.108 12.958 101.033 12.8069C100.992 12.7252 100.921 12.6596 100.921 12.5616C100.921 12.4602 100.975 12.3797 101.042 12.3127C101.183 12.1717 101.108 12.0601 101.108 12.0601ZM102.088 13.1088V11.9415H105.299V13.1088H102.088ZM105.777 12.0601L106.028 11.9415L106.279 12.0601C106.279 12.0601 106.203 12.1719 106.344 12.3127C106.411 12.3797 106.466 12.4605 106.466 12.5616C106.466 12.6596 106.394 12.7252 106.354 12.8069C106.278 12.958 106.2 13.1088 106.028 13.1088C105.856 13.1088 105.778 12.958 105.702 12.8069C105.661 12.7252 105.59 12.6596 105.59 12.5616C105.59 12.4602 105.645 12.3797 105.712 12.3127C105.853 12.1717 105.777 12.0601 105.777 12.0601ZM107.108 13.1088H106.758V11.9415H107.108V13.1088ZM107.108 11.3578H96.2514L93.6248 8.73102V7.56367L96.2514 10.1904H107.108V11.3578Z" fill="#CAA85F"/>
<path d="M98.8776 14.2758H100.045L100.337 13.9839L100.045 13.6921H98.8776L98.5857 13.9839L98.8776 14.2758Z" fill="#CAA85F"/>
<path d="M100.047 15.4436C100.208 15.4436 100.339 15.313 100.339 15.1518C100.339 14.9906 100.208 14.8599 100.047 14.8599C99.8858 14.8599 99.7551 14.9906 99.7551 15.1518C99.7551 15.313 99.8858 15.4436 100.047 15.4436Z" fill="#CAA85F"/>
<path d="M98.8776 15.4436C99.0387 15.4436 99.1694 15.313 99.1694 15.1518C99.1694 14.9906 99.0387 14.8599 98.8776 14.8599C98.7164 14.8599 98.5857 14.9906 98.5857 15.1518C98.5857 15.313 98.7164 15.4436 98.8776 15.4436Z" fill="#CAA85F"/>
<path d="M98.5857 12.9784C98.5857 13.0176 98.6142 13.044 98.6303 13.0765C98.6607 13.1372 98.6919 13.1974 98.7608 13.1974C98.8297 13.1974 98.8612 13.1372 98.8913 13.0765C98.9074 13.044 98.9362 13.0176 98.9362 12.9784C98.9362 12.9378 98.914 12.9053 98.8874 12.879C98.8311 12.8225 98.8612 12.7776 98.8612 12.7776L98.7608 12.7302L98.6602 12.7776C98.6602 12.7776 98.6908 12.8222 98.6343 12.879C98.6079 12.9053 98.5857 12.9378 98.5857 12.9784Z" fill="#CAA85F"/>
<path d="M99.052 12.9784C99.052 13.0176 99.0803 13.044 99.0966 13.0765C99.1272 13.1372 99.1583 13.1974 99.2271 13.1974C99.2958 13.1974 99.3273 13.1372 99.3574 13.0765C99.3737 13.044 99.4022 13.0176 99.4022 12.9784C99.4022 12.9378 99.3803 12.9053 99.3537 12.879C99.2974 12.8225 99.3275 12.7776 99.3275 12.7776L99.2271 12.7302L99.127 12.7776C99.127 12.7776 99.1569 12.8222 99.1006 12.879C99.074 12.9053 99.052 12.9378 99.052 12.9784Z" fill="#CAA85F"/>
<path d="M99.5193 12.9784C99.5193 13.0176 99.548 13.044 99.5641 13.0765C99.5943 13.1372 99.6258 13.1974 99.6944 13.1974C99.7635 13.1974 99.7946 13.1372 99.8252 13.0765C99.8413 13.044 99.8697 13.0176 99.8697 12.9784C99.8697 12.9378 99.8476 12.9053 99.821 12.879C99.7647 12.8225 99.7948 12.7776 99.7948 12.7776L99.6944 12.7302L99.594 12.7776C99.594 12.7776 99.6241 12.8222 99.5679 12.879C99.5415 12.9053 99.5193 12.9378 99.5193 12.9784Z" fill="#CAA85F"/>
<path d="M99.9868 12.9784C99.9868 13.0176 100.015 13.044 100.032 13.0765C100.062 13.1372 100.093 13.1974 100.162 13.1974C100.231 13.1974 100.262 13.1372 100.292 13.0765C100.309 13.044 100.337 13.0176 100.337 12.9784C100.337 12.9378 100.315 12.9053 100.288 12.879C100.232 12.8225 100.262 12.7776 100.262 12.7776L100.162 12.7302L100.062 12.7776C100.062 12.7776 100.092 12.8222 100.035 12.879C100.009 12.9053 99.9868 12.9378 99.9868 12.9784Z" fill="#CAA85F"/>
<path d="M87.6036 137.409L86.132 141.939C85.1376 141.621 84.2427 141.283 83.3279 140.945L85.1475 136.534C85.953 136.832 86.7684 137.13 87.6036 137.409Z" fill="#BFBFBF"/>
<path d="M84.7042 136.335L82.8845 140.726C81.9598 140.338 81.0648 139.911 80.1699 139.464L82.3078 135.222C83.1132 135.61 83.8988 135.987 84.7042 136.335Z" fill="#BFBFBF"/>
<path d="M90.5653 138.272L89.4615 142.902C88.4672 142.663 87.4728 142.395 86.5779 142.087L88.0495 137.527C88.8749 137.825 89.7201 138.064 90.5653 138.272Z" fill="#BFBFBF"/>
<path d="M81.9097 135.005L79.7519 139.247C78.8669 138.79 77.9919 138.313 77.1367 137.796L79.6326 133.733C80.3684 134.19 81.1341 134.607 81.9097 135.005Z" fill="#BFBFBF"/>
<path d="M93.6061 138.888L92.8603 143.587C91.8659 143.428 90.8716 143.23 89.8772 143.001L90.9909 138.382C91.8726 138.581 92.7443 138.749 93.6061 138.888Z" fill="#BFBFBF"/>
<path d="M96.673 139.266L96.2951 144.014C95.3008 143.925 94.3064 143.825 93.312 143.676L94.0578 138.967C94.9229 139.097 95.7979 139.196 96.673 139.266Z" fill="#BFBFBF"/>
<path d="M79.2213 133.474L76.7354 137.527C75.8902 137.001 75.0649 136.445 74.2495 135.858L77.0536 132.014C77.7596 132.56 78.4855 133.017 79.2213 133.474Z" fill="#BFBFBF"/>
<path d="M69.9128 125.427L66.2834 128.517C65.647 127.752 65.0205 126.977 64.4338 126.172L68.282 123.381C68.7991 124.076 69.3758 124.762 69.9128 125.427Z" fill="#BFBFBF"/>
<path d="M64.801 117.659L60.565 119.825C60.1076 118.931 59.68 118.037 59.2922 117.113L63.6973 115.295C64.0354 116.149 64.4033 116.934 64.801 117.659Z" fill="#BFBFBF"/>
<path d="M61.6545 109.016L57.0208 110.128C56.7921 109.135 56.5932 108.141 56.4341 107.148L61.1374 106.403C61.2766 107.317 61.4258 108.171 61.6545 109.016Z" fill="#BFBFBF"/>
<path d="M62.4664 111.996L57.9321 113.466C57.6338 112.473 57.3654 111.569 57.1267 110.595L61.7505 109.483C61.9693 110.337 62.198 111.172 62.4664 111.996Z" fill="#BFBFBF"/>
<path d="M66.2919 120.42L62.2349 122.903C61.7178 122.059 61.2405 121.185 60.7732 120.291L65.0191 118.135C65.397 118.91 65.8445 119.645 66.2919 120.42Z" fill="#BFBFBF"/>
<path d="M106.671 143.676C105.676 143.825 104.682 143.925 103.688 144.014L103.31 139.266C104.185 139.193 105.05 139.093 105.905 138.967L106.671 143.676Z" fill="#BFBFBF"/>
<path d="M68.0184 122.994L64.1603 125.785C63.5835 124.981 63.0267 124.156 62.4897 123.302L66.5567 120.818C67.0141 121.563 67.5013 122.278 68.0184 122.994Z" fill="#BFBFBF"/>
<path d="M74.2485 129.808L71.156 133.424C70.4103 132.778 69.6744 132.103 68.9585 131.437L72.3592 128.04C72.9459 128.656 73.5922 129.242 74.2485 129.808Z" fill="#BFBFBF"/>
<path d="M71.9907 127.703L68.6198 131.071C67.9238 130.365 67.2476 129.63 66.6311 128.875L70.2506 125.785C70.7875 126.441 71.3643 127.087 71.9907 127.703Z" fill="#BFBFBF"/>
<path d="M76.6685 131.745L73.8643 135.54C73.0689 134.954 72.2833 134.338 71.5276 133.692L74.6201 130.076C75.2863 130.682 75.9625 131.229 76.6685 131.745Z" fill="#BFBFBF"/>
<path d="M63.5206 114.896L59.1255 116.724C58.7476 115.8 58.3996 114.866 58.1311 113.922L62.6555 112.452C62.8941 113.276 63.1924 114.091 63.5206 114.896Z" fill="#BFBFBF"/>
<path d="M138.235 109.483L142.869 110.595C142.63 111.589 142.362 112.523 142.053 113.466L137.529 111.996C137.788 111.172 137.986 110.337 138.235 109.483Z" fill="#BFBFBF"/>
<path d="M136.298 115.344L140.693 117.162C140.305 118.086 139.877 118.98 139.43 119.875L135.184 117.659C135.582 116.934 135.999 116.149 136.298 115.344Z" fill="#BFBFBF"/>
<path d="M137.38 112.452L141.905 113.922C141.586 114.916 141.248 115.8 140.91 116.724L136.505 114.896C136.793 114.091 137.102 113.276 137.38 112.452Z" fill="#BFBFBF"/>
<path d="M135.003 118.135L139.239 120.291C138.782 121.185 138.305 122.059 137.788 122.903L133.721 120.42C134.148 119.645 134.566 118.91 135.003 118.135Z" fill="#BFBFBF"/>
<path d="M139.233 103.392L143.956 103.75C143.877 104.743 143.768 105.737 143.618 106.73L138.915 105.985C139.074 105.131 139.164 104.266 139.233 103.392Z" fill="#BFBFBF"/>
<path d="M138.981 94.1438L143.684 93.3987C143.833 94.3921 143.943 95.3856 144.022 96.379L139.269 96.7466C139.16 95.8624 139.07 94.9981 138.981 94.1438Z" fill="#BFBFBF"/>
<path d="M138.868 106.453L143.571 107.198C143.412 108.192 143.213 109.185 142.985 110.178L138.351 109.066C138.55 108.172 138.719 107.317 138.868 106.453Z" fill="#BFBFBF"/>
<path d="M108.964 138.382L110.068 143.001C109.073 143.23 108.079 143.428 107.085 143.597L106.349 138.888C107.25 138.749 108.122 138.58 108.964 138.382Z" fill="#BFBFBF"/>
<path d="M133.447 120.818L137.504 123.302C136.977 124.156 136.42 124.981 135.834 125.785L132.025 122.994C132.493 122.278 133.02 121.563 133.447 120.818Z" fill="#BFBFBF"/>
<path d="M114.852 136.534L116.672 140.935C115.757 141.313 114.812 141.65 113.867 141.929L112.396 137.398C113.221 137.13 114.046 136.832 114.852 136.534Z" fill="#BFBFBF"/>
<path d="M117.663 135.222L119.821 139.464C118.936 139.911 118.031 140.338 117.116 140.726L115.286 136.335C116.112 135.987 116.877 135.61 117.663 135.222Z" fill="#BFBFBF"/>
<path d="M131.703 123.371L135.561 126.172C134.964 126.977 134.348 127.752 133.702 128.517L130.082 125.427C130.649 124.762 131.186 124.076 131.703 123.371Z" fill="#BFBFBF"/>
<path d="M111.947 137.527L113.419 142.047C112.425 142.355 111.51 142.623 110.535 142.861L109.422 138.232C110.277 138.063 111.142 137.825 111.947 137.527Z" fill="#BFBFBF"/>
<path d="M119.875 134.021L122.371 138.074C121.675 138.482 120.969 138.879 120.253 139.247L118.105 135.005C118.702 134.7 119.292 134.372 119.875 134.021Z" fill="#BFBFBF"/>
<path d="M127.668 128.04L131.029 131.408C130.323 132.103 129.587 132.779 128.831 133.395L125.739 129.779C126.405 129.242 127.051 128.656 127.668 128.04Z" fill="#BFBFBF"/>
<path d="M129.772 125.785L133.392 128.875C132.736 129.63 132.069 130.365 131.403 131.07L128.042 127.702C128.609 127.086 129.196 126.441 129.772 125.785Z" fill="#BFBFBF"/>
<path d="M122.944 132.024L125.738 135.869C124.744 136.564 123.749 137.23 122.755 137.856L120.269 133.802C121.194 133.236 122.079 132.64 122.944 132.024Z" fill="#BFBFBF"/>
<path d="M125.382 130.126L128.475 133.742C127.719 134.388 126.933 135.004 126.128 135.59L123.334 131.746C124.07 131.229 124.716 130.683 125.382 130.126Z" fill="#BFBFBF"/>
<path d="M135.184 82.4203L139.43 80.2546C139.877 81.1487 140.305 82.0428 140.693 82.9667L136.298 84.7847C135.999 83.98 135.582 83.1952 135.184 82.4203Z" fill="#BFBFBF"/>
<path d="M112.396 62.7215L113.867 58.1914C114.862 58.5093 115.757 58.857 116.672 59.1848L114.852 63.5858C114.046 63.2977 113.221 63.0195 112.396 62.7215Z" fill="#BFBFBF"/>
<path d="M115.286 63.8047L117.116 59.4038C118.031 59.7912 118.936 60.2184 119.821 60.6654L117.663 64.9074C116.877 64.52 116.112 64.1425 115.286 63.8047Z" fill="#BFBFBF"/>
<path d="M109.422 61.857L110.535 57.2275C111.53 57.4659 112.464 57.7342 113.419 58.0422L111.947 62.5623C111.142 62.304 110.277 62.0259 109.422 61.857Z" fill="#BFBFBF"/>
<path d="M118.105 65.1251L120.273 60.8831C121.158 61.3401 122.033 61.817 122.878 62.3336L120.392 66.3967C119.627 65.9398 118.861 65.5225 118.105 65.1251Z" fill="#BFBFBF"/>
<path d="M103.325 60.863L103.703 56.1143C104.698 56.2037 105.692 56.3031 106.686 56.4521L105.941 61.161C105.072 61.0285 104.2 60.9292 103.325 60.863Z" fill="#BFBFBF"/>
<path d="M93.3191 56.4521C94.3135 56.3031 95.3078 56.2037 96.3022 56.1143L96.68 60.863C95.805 60.9325 94.93 61.0318 94.0748 61.161L93.3191 56.4521Z" fill="#BFBFBF"/>
<path d="M106.398 61.24L107.134 56.541C108.128 56.7 109.123 56.8987 110.117 57.1272L109.013 61.7467C108.158 61.5579 107.263 61.3791 106.398 61.24Z" fill="#BFBFBF"/>
<path d="M120.771 66.6551L123.267 62.592C124.115 63.1218 124.941 63.6781 125.743 64.2609L122.949 68.1056C122.243 67.5989 121.517 67.1121 120.771 66.6551Z" fill="#BFBFBF"/>
<path d="M136.469 85.2327L140.874 83.4048C141.252 84.3287 141.59 85.2625 141.868 86.2063L137.344 87.6766C137.105 86.862 136.797 86.0374 136.469 85.2327Z" fill="#BFBFBF"/>
<path d="M138.351 91.1134L142.965 90.0007C143.193 90.9942 143.392 91.9876 143.551 92.981L138.848 93.7261C138.719 92.8221 138.55 91.9578 138.351 91.1134Z" fill="#BFBFBF"/>
<path d="M133.693 79.7087L137.76 77.2251C138.278 78.0695 138.755 78.9437 139.212 79.8378L135.006 81.9936C134.569 81.2187 134.151 80.4538 133.693 79.7087Z" fill="#BFBFBF"/>
<path d="M137.529 88.1336L142.053 86.6633C142.362 87.6567 142.63 88.5607 142.869 89.5343L138.235 90.647C137.986 89.7926 137.788 88.9581 137.529 88.1336Z" fill="#BFBFBF"/>
<path d="M125.739 70.3212L128.831 66.7051C129.587 67.3509 130.323 68.0264 131.029 68.692L127.668 72.0598C127.051 71.4736 126.405 70.8875 125.739 70.3212Z" fill="#BFBFBF"/>
<path d="M123.334 68.3839L126.128 64.5393C126.933 65.1254 127.719 65.7513 128.475 66.3871L125.382 69.9734C124.716 69.4469 124.07 68.9005 123.334 68.3839Z" fill="#BFBFBF"/>
<path d="M128.042 72.4273L131.403 69.0596C132.109 69.7649 132.775 70.5001 133.392 71.2551L129.772 74.3447C129.196 73.689 128.609 73.0433 128.042 72.4273Z" fill="#BFBFBF"/>
<path d="M132.025 77.1455L135.873 74.344C136.46 75.1487 137.017 75.9732 137.544 76.8276L133.487 79.3112C133.02 78.5661 132.493 77.8508 132.025 77.1455Z" fill="#BFBFBF"/>
<path d="M130.082 74.7021L133.702 71.6125C134.348 72.3774 134.964 73.1523 135.561 73.957L131.703 76.7585C131.186 76.0532 130.649 75.3677 130.082 74.7021Z" fill="#BFBFBF"/>
<path d="M79.6326 66.3967L77.1367 62.3336C77.9919 61.817 78.8669 61.3401 79.7519 60.8831L81.9097 65.1251C81.1341 65.5225 80.3684 65.9497 79.6326 66.3967Z" fill="#BFBFBF"/>
<path d="M62.6205 87.6766L58.0962 86.2063C58.4044 85.2129 58.7525 84.3287 59.0905 83.4048L63.4856 85.2327C63.1973 86.0374 62.899 86.862 62.6205 87.6766Z" fill="#BFBFBF"/>
<path d="M63.6973 84.7847L59.2922 82.9667C59.68 82.0428 60.1076 81.1487 60.565 80.2546L64.801 82.4203C64.4033 83.1952 64.0354 83.98 63.6973 84.7847Z" fill="#BFBFBF"/>
<path d="M91.0333 61.7467L89.9197 57.1272C90.914 56.8987 91.9084 56.7 92.9027 56.541L93.6485 61.24C92.7337 61.3791 91.8785 61.5579 91.0333 61.7467Z" fill="#BFBFBF"/>
<path d="M65.0191 81.9936L60.7732 79.8378C61.2405 78.9437 61.7178 78.0695 62.2349 77.2251L66.2919 79.7087C65.8445 80.4538 65.397 81.2187 65.0191 81.9936Z" fill="#BFBFBF"/>
<path d="M61.1334 93.6773L56.45 92.9323C56.609 91.9388 56.8078 90.9454 57.0365 89.9519L61.6703 91.0646C61.4217 91.9587 61.2726 92.823 61.1334 93.6773Z" fill="#BFBFBF"/>
<path d="M60.757 96.7368L56.0139 96.3692C56.0935 95.3758 56.2028 94.3824 56.352 93.3889L61.0553 94.134C60.9261 94.9983 60.8366 95.8626 60.757 96.7368Z" fill="#BFBFBF"/>
<path d="M66.5567 79.3112L62.4897 76.8276C63.0267 75.9732 63.5835 75.1487 64.1603 74.344L68.0184 77.1355C67.5013 77.8508 67.0141 78.5661 66.5567 79.3112Z" fill="#BFBFBF"/>
<path d="M61.7605 90.647L57.1267 89.5343C57.3654 88.5409 57.6338 87.607 57.9321 86.6633L62.4664 88.1336C62.198 88.9581 61.9693 89.7926 61.7605 90.647Z" fill="#BFBFBF"/>
<path d="M82.3021 64.9074L80.1443 60.6654C81.0293 60.2184 81.9242 59.7912 82.849 59.4038L84.6686 63.8047C83.893 64.1425 83.1075 64.52 82.3021 64.9074Z" fill="#BFBFBF"/>
<path d="M61.0553 105.985L56.352 106.73C56.2028 105.737 56.0935 104.743 56.0139 103.75L60.757 103.382C60.8366 104.266 60.9261 105.131 61.0553 105.985Z" fill="#BFBFBF"/>
<path d="M85.1501 63.6251L83.3005 59.2241C84.2154 58.8566 85.1501 58.5089 86.1046 58.2307L87.5763 62.7608C86.7709 63.0191 85.9555 63.2973 85.1501 63.6251Z" fill="#BFBFBF"/>
<path d="M88.0495 62.5625L86.5779 58.0522C87.5722 57.7442 88.4871 57.476 89.4615 57.2375L90.5653 61.8671C89.7201 62.026 88.8749 62.3042 88.0495 62.5625Z" fill="#BFBFBF"/>
<path d="M72.3619 72.0888L68.991 68.721C69.7069 68.0256 70.4427 67.35 71.1885 66.7341L74.281 70.3502C73.5949 70.8867 72.9485 71.4728 72.3619 72.0888Z" fill="#BFBFBF"/>
<path d="M77.0536 68.1056L74.2495 64.2609C75.0649 63.6748 75.8902 63.1185 76.7354 62.592L79.2213 66.6551C78.4855 67.1121 77.7596 67.5989 77.0536 68.1056Z" fill="#BFBFBF"/>
<path d="M70.2235 74.3447L66.604 71.2551C67.2503 70.5001 67.9265 69.7649 68.5927 69.0596L71.9636 72.4273C71.367 73.0433 70.7903 73.689 70.2235 74.3447Z" fill="#BFBFBF"/>
<path d="M68.2845 76.7585L64.4065 73.9471C64.9932 73.1424 65.6196 72.3675 66.266 71.6025L69.8855 74.6921C69.3783 75.3677 68.8016 76.0532 68.2845 76.7585Z" fill="#BFBFBF"/>
<path d="M74.6201 69.9732L71.5276 66.3571C72.2833 65.7213 73.0689 65.0954 73.8643 64.5093L76.6685 68.3539C75.9625 68.9003 75.2863 69.4467 74.6201 69.9732Z" fill="#BFBFBF"/>
<path d="M146.74 92.4253L146.83 92.8922C146.989 93.9552 147.098 95.0281 147.188 96.1109C147.188 96.2699 147.188 96.4288 147.188 96.5878C147.247 97.3527 147.277 98.1177 147.297 98.8826L153.9 100.065L147.377 101.247C147.377 102.022 147.327 102.777 147.267 103.542C147.267 103.701 147.267 103.86 147.267 104.019C147.178 105.102 147.068 106.175 146.909 107.237L146.74 107.724C146.571 108.797 146.353 109.85 146.104 110.903C146.104 111.052 146.034 111.211 145.995 111.36C145.736 112.413 145.448 113.456 145.12 114.48L144.97 114.937C144.622 115.93 144.254 116.973 143.847 117.967L143.668 118.414C143.25 119.407 142.783 120.401 142.296 121.394C142.226 121.543 142.156 121.682 142.077 121.821C141.58 122.815 141.082 123.729 140.506 124.653L140.247 125.05C139.67 125.974 139.064 126.868 138.437 127.742L138.159 128.13C137.523 129.004 136.846 129.848 136.17 130.673L135.862 131.03C135.146 131.845 134.42 132.64 133.664 133.415L133.326 133.743C132.561 134.507 131.755 135.233 130.94 135.938L130.582 136.256C129.757 136.951 128.911 137.617 128.036 138.243L127.649 138.521C126.525 139.336 125.342 140.081 124.138 140.796H124.049C123.283 141.243 122.518 141.7 121.722 142.107L121.304 142.326C120.31 142.813 119.316 143.319 118.321 143.697L117.884 143.866C116.889 144.283 115.895 144.651 114.841 144.988L114.384 145.147C113.389 145.475 112.325 145.763 111.271 146.021L110.804 146.131C109.75 146.379 108.696 146.588 107.622 146.767L107.165 146.846C106.101 147.005 105.027 147.124 103.943 147.214H103.466C102.7 147.263 101.934 147.303 101.169 147.323L99.9853 153.84L98.8119 147.363C98.0463 147.363 97.2806 147.303 96.5249 147.253H96.0476C94.9637 147.164 93.8898 147.045 92.8258 146.886L92.3585 146.806C91.2846 146.627 90.2206 146.419 89.1765 146.171L88.7092 146.061C87.6551 145.803 86.6111 145.515 85.5869 145.187L85.1394 145.028C84.145 144.69 83.091 144.313 82.0966 143.905L81.6492 143.737C80.6548 143.309 79.6604 142.852 78.6661 142.366L78.2385 142.147C77.2441 141.65 76.3293 141.154 75.4046 140.567L75.0068 140.309C74.092 139.743 73.1871 139.137 72.3121 138.511L71.9243 138.233C71.0592 137.587 70.214 136.922 69.3886 136.246L69.0307 135.928C68.2054 135.223 67.4099 134.498 66.6442 133.733L66.3061 133.405C65.5405 132.63 64.8146 131.835 64.1086 131.021L63.8003 130.663C63.1043 129.838 62.4281 128.994 61.8116 128.12L61.5431 127.732C60.9067 126.858 60.3001 125.964 59.7334 125.04C59.6439 124.911 59.5544 124.782 59.4748 124.643C58.918 123.719 58.4009 122.775 57.8938 121.811L57.685 121.384C57.1977 120.391 56.6906 119.457 56.3127 118.404C56.2431 118.255 56.1934 118.106 56.1338 117.957C55.7261 116.963 55.3482 115.97 55.0101 114.927L54.861 114.47C54.5328 113.476 54.2345 112.403 53.976 111.35C53.976 111.201 53.9064 111.042 53.8666 110.893C53.628 109.84 53.4092 108.787 53.2302 107.714C53.2302 107.555 53.1805 107.396 53.1507 107.247C52.9916 106.184 52.8722 105.112 52.7827 104.029V103.552C52.7231 102.787 52.6833 102.032 52.6734 101.257L46.1404 100.075L52.6734 98.8926C52.6734 98.1276 52.7231 97.3627 52.7827 96.5977V96.1209C52.8722 95.038 52.9916 93.9651 53.1507 92.9021C53.1507 92.7531 53.2103 92.5942 53.2302 92.4352C53.4092 91.3623 53.628 90.3092 53.8666 89.2562C53.8666 89.1072 53.9362 88.9482 53.976 88.7992C54.2345 87.7461 54.5328 86.703 54.861 85.6798L55.0101 85.2228C55.3482 84.2294 55.7261 83.2359 56.1338 82.2425C56.1934 82.0935 56.2431 81.9444 56.3127 81.7954C56.7304 80.802 57.1977 79.8085 57.685 78.8151L57.8938 78.3879C58.4009 77.3945 58.8881 76.4805 59.4748 75.5566C59.5544 75.4175 59.6439 75.2884 59.7334 75.1592C60.3001 74.2353 60.9067 73.3412 61.5431 72.467L61.8116 72.0796C62.4579 71.2053 63.1341 70.3609 63.8003 69.5363L64.1086 69.1787C64.8146 68.3641 65.5405 67.5693 66.3061 66.7944L66.6442 66.4666C67.4099 65.7017 68.2054 64.9764 69.0307 64.2711L69.3886 63.9631C70.214 63.2578 71.0592 62.5922 71.9243 61.9762L72.3121 61.6981C73.1871 61.0722 74.092 60.4662 75.0068 59.9L75.4046 59.6417C76.3393 59.0456 77.3336 58.5191 78.328 58.0522L78.7556 57.8336C79.7499 57.3468 80.7443 56.8898 81.7387 56.4626L82.1861 56.2938C83.1805 55.8864 84.1749 55.5089 85.2289 55.1712L85.6764 55.0122C86.6707 54.6844 87.7446 54.3963 88.7987 54.138L89.266 54.0287C90.2604 53.7803 91.3741 53.5717 92.448 53.3929L92.9153 53.3134C93.9793 53.1545 95.0532 53.0353 96.1371 52.9459H96.6144C97.3701 52.9459 98.1358 52.8564 98.9114 52.8366L100.095 46.3196L101.198 52.767C101.964 52.767 102.73 52.8266 103.485 52.8763H103.963C105.047 52.9657 106.121 53.0849 107.184 53.2439L107.652 53.3234C108.726 53.5022 109.78 53.7108 110.834 53.9592L111.301 54.0685C112.355 54.3267 113.389 54.6148 114.423 54.9427L114.871 55.1016C115.865 55.4394 116.909 55.8169 117.914 56.2242L118.351 56.3931C119.346 56.8203 120.34 57.2773 121.334 57.7641L121.752 57.9826C122.746 58.4793 123.671 58.976 124.586 59.5622L124.994 59.8205C125.908 60.3867 126.803 60.9927 127.678 61.6186L128.066 61.8968C128.941 62.5425 129.786 63.2081 130.612 63.8837L130.97 64.2016C131.785 64.9069 132.591 65.6321 133.356 66.3971L133.694 66.7249C134.45 67.4998 135.176 68.2945 135.892 69.1092L136.2 69.4668C136.896 70.2914 137.572 71.1358 138.189 72.01L138.467 72.3975C139.094 73.2717 139.7 74.1658 140.277 75.0897L140.535 75.4871C141.092 76.411 141.609 77.3547 142.107 78.3184C142.186 78.4575 142.256 78.5965 142.325 78.7456C142.813 79.739 143.32 80.6728 143.698 81.7259L143.877 82.1729C144.284 83.1664 144.652 84.1598 145 85.1533L145.149 85.6102C145.477 86.6037 145.766 87.6766 146.024 88.7297C146.024 88.8787 146.104 89.0376 146.134 89.1866C146.353 90.2993 146.571 91.3523 146.74 92.4253ZM145.299 88.9482C145.05 87.9548 144.762 86.8918 144.443 85.8884L144.284 85.4414C143.956 84.4479 143.588 83.4545 143.181 82.461L143.011 82.014C142.594 81.0205 142.136 80.0271 141.659 79.133L141.44 78.7058C140.953 77.7124 140.446 76.8382 139.889 75.9341L139.641 75.5268C139.074 74.6228 138.477 73.7485 137.861 72.8842L137.582 72.4968C136.956 71.6424 136.29 70.8179 135.593 70.0033L135.285 69.6456C134.589 68.8409 133.873 68.0561 133.127 67.3011C133.018 67.1918 132.899 67.0825 132.789 66.9633C132.034 66.2183 131.248 65.503 130.443 64.8076L130.085 64.4996C129.279 63.8141 128.444 63.1584 127.589 62.5127L127.201 62.2445C126.346 61.6186 125.461 61.0225 124.556 60.4662L124.158 60.2079C123.253 59.6615 122.319 59.1449 121.374 58.6582L120.946 58.4396C119.952 57.9627 119.047 57.5058 118.063 57.0984L117.615 56.9196C116.621 56.5222 115.627 56.1547 114.632 55.8169L114.175 55.6679C113.181 55.3401 112.186 55.0519 111.112 54.8036L110.645 54.6943C109.651 54.4559 108.577 54.2373 107.523 54.0685L107.055 53.989C106.011 53.83 104.947 53.7207 103.883 53.6313H103.406C102.71 53.6313 102.014 53.5419 101.308 53.5221L101.765 56.0355C102.252 56.0355 102.76 56.0355 103.217 56.1249L102.839 60.8636H102.64L102.779 61.6285L103.088 63.2975C103.903 63.3671 104.709 63.4465 105.504 63.5658L105.971 63.6552C106.767 63.7843 107.562 63.9433 108.348 64.1221L108.815 64.2314C109.601 64.4301 110.386 64.6486 111.152 64.887L111.599 65.046C112.375 65.3043 113.131 65.5824 113.877 65.8805L114.324 66.0593C115.07 66.3772 115.796 66.7249 116.522 67.0527L116.949 67.2713C117.665 67.6488 118.371 68.0363 119.067 68.4535L119.465 68.7118C120.151 69.139 120.827 69.586 121.454 70.0629L121.841 70.3311C122.488 70.8179 123.124 71.3245 123.741 71.8411L124.099 72.1491C124.715 72.6856 125.312 73.222 125.888 73.7982L125.988 73.8976L126.435 73.5797L126.117 74.0267L126.227 74.1261C126.79 74.7022 127.337 75.2983 127.867 75.9143L128.176 76.2719C128.703 76.8878 129.17 77.5236 129.687 78.1793L129.965 78.5667C130.433 79.2224 130.89 79.888 131.318 80.5536L131.566 80.9609C131.984 81.6464 132.382 82.3518 132.75 83.077C132.829 83.2161 132.899 83.3551 132.968 83.4942C133.336 84.2194 133.684 84.9446 133.963 85.6897C134.032 85.8387 134.082 85.9878 134.142 86.1368C134.45 86.8819 134.728 87.6468 134.987 88.4118L135.136 88.8588C135.385 89.6337 135.594 90.4086 135.792 91.1934C135.792 91.3523 135.862 91.5113 135.902 91.6603C136.081 92.4418 136.24 93.2366 136.379 94.0446C136.379 94.1936 136.429 94.3525 136.459 94.5115C136.578 95.3062 136.667 96.1109 136.727 96.9156V96.9752L138.348 97.2733L139.173 97.4223C139.173 97.3428 139.173 97.2733 139.173 97.2037L143.926 96.8362C143.926 97.313 143.986 97.8296 144.006 98.2866L146.522 98.7436C146.522 98.0382 146.462 97.3329 146.412 96.6375V96.1606C146.323 95.0976 146.213 94.0446 146.054 93.0015L145.965 92.5246C145.796 91.4716 145.587 90.4384 145.338 89.4052C145.378 89.2661 145.338 89.1072 145.299 88.9482ZM99.866 52.3597H100.005L99.8461 52.4193V52.6578V52.8564V53.1644V53.373V53.6115H99.9753L100.224 53.6711L99.9753 53.7406H99.8063L99.3787 55.0718L99.7566 55.1513L100.005 55.2109L99.7566 55.2606L99.329 55.35L99.2097 55.9858L99.1301 56.4527L99.7566 56.562L99.0705 56.6812L98.8716 57.7541L99.7566 57.8833L98.7622 58.0223L98.5733 59.0158L99.7069 59.1648L98.5136 59.3138L98.3247 60.3073L99.4781 60.4364H99.7069L98.2551 60.5954L98.0661 61.5888L99.7069 61.7478L97.9965 61.9166L97.8573 62.7313V62.93L99.7466 63.0988L97.7579 63.2777V63.4167L97.6087 64.281L99.7466 64.4499L97.5292 64.6387V64.8473L97.38 65.6321H97.5889L99.7765 65.7911L97.6187 65.95H97.3104L97.1911 66.6057L97.1315 66.9435H97.2209H97.6982L99.7765 67.0925L97.7281 67.2316L97.2209 67.9866H97.0221L96.8431 68.98H97.3005H97.7778L99.7665 69.1092L97.7778 69.2383H97.3005H96.7436L96.5647 70.2318H97.38H97.8573L99.7168 70.351L97.8772 70.4602H97.4099H96.4851L96.3161 71.4537L97.4894 71.5133H97.9767L99.7168 71.6126L97.9866 71.712H97.5193L96.2365 71.7815L96.0575 72.775L97.6087 72.8544H98.086L99.7168 72.9439L98.096 73.0333H97.6286L95.9979 73.1127L95.8288 74.1062H96.1769L97.738 74.1857H98.2153L99.7367 74.2651L98.2153 74.8115H97.738L96.2266 74.9407H95.7493L95.5703 75.9341H95.9084H96.3956L97.8474 76.0037H98.3247L99.7367 76.0732L98.3346 76.1427H97.8573L96.4553 76.2123H95.968H95.5007L95.3217 77.2057H96.1371H96.6243L97.9568 77.2653H98.4341L99.7367 77.3249L98.444 77.3845H97.9667L96.674 77.4441H96.1868H95.1924L95.0234 78.3581L96.2862 78.4177H96.7735H97.9965H98.4738L99.6671 78.4773H98.4838H98.0065H96.8232H96.336L95.2322 79.1231H95.0333L94.9041 79.7986L94.8544 80.0768H94.9737H95.4709L96.6243 80.1264H97.1116H98.2153H98.6926H99.7765H98.7025H98.2253H97.1513H96.6641H95.5604H95.0731H94.7748L94.6058 81.1199H95.3118H95.8089H95.3217H94.4467L94.387 81.4179L94.2677 82.0736H94.6058H95.6001H96.0874H97.0121H97.4994H98.3744H98.8616H98.3843H97.5292H97.042H96.157H95.6797H94.7549H94.2577L94.0887 83.067H94.6256H95.1328H95.9879H96.4752H97.2806H97.7678H98.5434H97.7977H97.3104H96.5448H96.0575H95.2521H94.7549H94.0091V83.2359V83.5439L93.9196 84.0207H94.3969H95.1825H95.6896H96.4155H96.9127H97.5988H98.0761H98.7423H98.1059H97.6187H96.9624H96.4752H95.7891H95.2919H94.556H93.7407L93.681 84.3684L93.5915 84.885V84.9744H93.9694H94.3771H94.9041H95.5604H96.0675H96.674H96.9525H97.1513C97.3349 84.9285 97.5208 84.892 97.7082 84.8652L98.1755 84.7956L98.7423 84.7161C98.9014 84.7161 99.0605 84.7161 99.2196 84.7161H99.7765H100.015V49.4986L99.866 52.3597ZM96.5746 53.5916H96.0973C95.0333 53.681 93.9793 53.7903 92.9352 53.9492L92.4679 54.0287C91.4138 54.1976 90.3698 54.4162 89.3456 54.6546L88.8782 54.7639C87.8441 55.0089 86.8199 55.297 85.8056 55.6281L85.3582 55.7772C84.3638 56.1149 83.3694 56.4825 82.3751 56.8799C82.2358 56.9395 82.0767 56.9892 81.9375 57.0587C80.9432 57.466 79.9488 57.923 79.0439 58.3999L78.6263 58.6184C77.6319 59.1052 76.747 59.6119 75.8421 60.1682L75.4344 60.4265C74.5395 60.9828 73.6545 61.5789 72.7993 62.2047L72.4115 62.473C71.5464 63.1088 70.7211 63.7644 69.9057 64.4599L69.5477 64.7678C68.7423 65.4632 67.9568 66.1785 67.211 66.9236L66.8729 67.2614C66.1271 68.0164 65.4112 68.8012 64.7151 69.6059L64.4069 69.9735C63.7208 70.7881 63.0645 71.6126 62.4181 72.467L62.1397 72.8544C61.5133 73.7187 60.9266 74.593 60.3598 75.497C60.2803 75.6361 60.1908 75.7652 60.1013 75.9043C59.5544 76.8083 59.0472 77.7323 58.5501 78.676L58.3412 79.1032C57.854 80.0966 57.4065 81.0106 56.9889 81.9842L56.8099 82.4312C56.4122 83.4247 56.0443 84.4181 55.7062 85.4116L55.557 85.8685C55.2388 86.862 54.9505 87.8554 54.6919 88.9284C54.6919 89.0873 54.6223 89.2463 54.5825 89.3953C54.3439 90.3887 54.1351 91.4616 53.9561 92.5147C53.9561 92.6736 53.9064 92.8326 53.8765 92.9915C53.7174 93.985 53.6081 95.0877 53.5186 96.1507C53.5186 96.3096 53.5186 96.4686 53.5186 96.6275C53.5186 97.3229 53.439 98.0283 53.4191 98.7336L55.9249 98.2766C55.9249 97.7899 55.9249 97.2832 56.0144 96.8262L60.7675 97.1938C60.7621 97.2665 60.7621 97.3396 60.7675 97.4124L61.5829 97.2633L63.2136 96.9653V96.9057C63.2832 96.101 63.3727 95.2963 63.4921 94.5016C63.4921 94.3426 63.4921 94.1837 63.5716 94.0346C63.6976 93.2333 63.8567 92.4385 64.0489 91.6504C64.0489 91.5014 64.1185 91.3424 64.1583 91.1835C64.3472 90.3986 64.566 89.6238 64.8146 88.8489L64.9637 88.4018C65.2223 87.6369 65.5007 86.8719 65.8089 86.1268L65.978 85.6798C66.2962 84.9347 66.6442 84.2095 66.9723 83.4843L67.1812 83.067C67.559 82.3418 67.9468 81.6365 68.3644 80.951L68.623 80.5437C69.0506 79.8582 69.508 79.1926 69.9753 78.5568C70.0648 78.4376 70.1543 78.2985 70.2537 78.1793C70.731 77.5236 71.2481 76.8878 71.7552 76.2719L72.0734 75.9143C72.6038 75.2983 73.1507 74.7022 73.7141 74.1261L74.0423 73.7982L73.9031 73.6095L74.1218 73.7684C74.6787 73.222 75.2554 72.6955 75.8421 72.1789L76.2001 71.8709C76.8265 71.3544 77.453 70.8775 78.1092 70.3609L78.497 70.0927C79.1533 69.6158 79.8195 69.1688 80.4858 68.7416L80.8935 68.4833C81.5796 68.0661 82.2955 67.6786 83.0115 67.3011L83.439 67.0825C84.155 66.7249 84.8908 66.3772 85.6366 66.0891L86.0741 65.9103C86.8298 65.6123 87.5855 65.3341 88.3512 65.0758L88.8086 64.9168C89.5743 64.6784 90.3499 64.4599 91.1454 64.2612L91.6028 64.1519C92.3883 63.9731 93.1838 63.8141 93.9893 63.685L94.4566 63.5956C95.2521 63.4763 96.0575 63.3969 96.8729 63.3273H96.9326L97.2209 61.7378L97.3701 60.8934H97.1513L96.7735 56.0653C97.264 56.0255 97.7513 55.9957 98.2352 55.9759L98.6926 53.4625C97.9866 53.5022 97.2806 53.5419 96.5746 53.5916ZM51.4801 100.065L52.2557 100.204V100.075L52.3154 100.224L52.5441 100.273H52.6734L53.0612 100.343H53.26H53.4987V100.194L53.5583 99.9655L53.628 100.194L53.6777 100.383L54.8311 100.591L54.9107 100.194L54.9604 99.9655V100.194L55.0499 100.641L55.6863 100.75L56.1536 100.84L56.263 100.194L56.3823 100.899L57.4563 101.088L57.5855 100.194L57.7247 101.187L58.7788 101.376L58.918 100.234L59.435 101.515L60.4294 101.704L60.5587 100.542V100.303L60.857 101.764L61.8514 101.952L62.0204 100.303L62.1894 102.022L63.0048 102.171H63.2037L63.4125 100.303L63.5915 102.29H63.7307L64.5958 102.449L64.7748 100.293L64.9538 102.519H65.1228L65.9481 102.668V102.449L66.1072 100.264L66.3956 102.469V102.787L67.0022 102.896L67.38 102.966V102.866V102.38L67.5292 100.303L67.6783 102.36V102.837V103.035L68.6727 103.214V102.747V102.27L68.802 100.283L68.9213 102.27V102.747V103.313L69.9157 103.482L69.9654 102.658V102.181L70.0748 100.323L70.1841 102.161V102.638L70.2438 103.562L71.2382 103.741L71.3078 102.548V102.072L71.4072 100.323L71.5066 102.052V102.529L71.5763 103.82L72.5706 103.989L72.6601 102.439V101.962L72.7496 100.323L73.3562 101.923V102.399L73.4457 104.029L74.44 104.207V103.85L74.5196 102.29V101.803L74.5991 100.283L74.7284 101.764V102.24L74.8079 103.76V104.237L75.8023 104.416V104.068V103.582L75.8719 102.141V101.654L75.9415 100.244L76.0111 101.644V102.121L76.0807 103.532V104.009V104.496L77.0751 104.674V103.85V103.363L77.3336 102.082V101.605L77.3933 100.303L77.453 101.595V102.072L77.5126 103.373V103.85V104.843L78.4075 105.012H78.4771V103.741V103.254L78.5368 102.032V101.555V100.363V101.545V102.022L78.5965 103.214V103.691V104.903V105.121L79.2528 105.241H79.561V105.112V104.615L79.6107 103.462V102.986V101.873V101.396V100.313V101.386V101.863V102.946V103.423V104.525V105.012V105.32L80.6051 105.499V104.774V104.277V103.284V102.797V103.274V104.267V104.754V105.648H80.8835L81.5597 105.767V105.419V104.426V103.929V103.015V102.529V101.644V101.168V100.303V101.158V101.634V102.499V102.976V103.86V104.347V105.261V105.757V105.817L82.554 105.996V105.439V104.933V104.088V103.592L84.2942 102.757V102.27V101.505V101.028V100.273V101.019V101.495V102.25V102.727V103.502V103.989V104.784V105.28V106.045H84.4533H84.7615L85.2488 106.135V105.737V104.953V104.446V103.711V103.224V102.539V102.052V101.396V100.919V100.273V100.909V101.386V102.032V102.509V103.164V103.651V104.347V104.833V105.569V105.737V106.085V106.304L85.5869 106.363L86.094 106.463H86.2034V105.737V105.36V105.211V104.555V104.049V103.443V103.164C86.1988 103.098 86.1988 103.032 86.2034 102.966C86.2034 102.787 86.1338 102.598 86.094 102.409C86.0542 102.221 86.094 102.101 86.0244 101.942C85.9548 101.783 85.9647 101.575 85.9448 101.386C85.925 101.197 85.9448 101.068 85.9448 100.909C85.9448 100.75 85.9448 100.532 85.9448 100.343C85.9448 100.154 85.9448 100.184 85.9448 100.105H51.4801V100.065ZM53.4689 103.482C53.4689 103.641 53.4689 103.8 53.4689 103.959C53.5583 105.022 53.6677 106.075 53.8268 107.118C53.8268 107.277 53.8865 107.436 53.9064 107.595C54.0854 108.648 54.2942 109.681 54.5328 110.715C54.5328 110.864 54.6024 111.023 54.6422 111.181C54.9007 112.175 55.1891 113.238 55.5073 114.241L55.6565 114.688C55.9945 115.682 56.3625 116.675 56.7602 117.669L56.9392 118.116C57.3568 119.109 57.8043 120.103 58.2915 120.997L58.5003 121.424C58.9975 122.417 59.4947 123.292 60.0516 124.196C60.141 124.335 60.2305 124.464 60.3101 124.603C60.8769 125.507 61.4636 126.381 62.09 127.245L62.4181 127.593C63.0446 128.447 63.7009 129.272 64.4069 130.087L64.7251 130.444C65.4211 131.249 66.1371 132.034 66.8828 132.789L67.2209 133.127C67.9667 133.872 68.7523 134.587 69.5577 135.282L69.9157 135.59C70.731 136.276 71.5564 136.931 72.4215 137.577L72.8093 137.845C73.6644 138.471 74.5494 139.067 75.4543 139.624C75.5835 139.713 75.7128 139.803 75.852 139.882C76.7569 140.428 77.6916 140.945 78.6362 141.432L79.0539 141.65C80.0482 142.127 80.9631 142.584 81.9475 142.991C82.0867 143.061 82.2458 143.111 82.385 143.17C83.3794 143.568 84.3737 143.935 85.3681 144.273L85.8156 144.422C86.8298 144.753 87.854 145.041 88.8882 145.286L89.3555 145.396C90.3499 145.634 91.4238 145.853 92.4778 146.021L92.9452 146.101C93.9395 146.26 95.0433 146.369 96.1072 146.459H96.5845C97.2806 146.459 97.9866 146.548 98.6926 146.568L98.2153 144.134C97.7281 144.134 97.2209 144.134 96.7635 144.045L97.1315 139.306H97.3403L97.2209 138.521L96.9226 136.882C96.1072 136.812 95.3018 136.733 94.5063 136.614L94.039 136.524C93.2335 136.395 92.438 136.236 91.6525 136.057L91.1951 135.948C90.3996 135.749 89.624 135.531 88.8583 135.292L88.4009 135.133C87.6353 134.885 86.8795 134.597 86.1238 134.299L85.6863 134.12C84.9405 133.802 84.2047 133.454 83.4888 133.127L83.0612 132.908C82.3452 132.531 81.6293 132.143 80.9432 131.726L80.5355 131.468C79.8494 131.04 79.1831 130.593 78.5468 130.116L78.159 129.848C77.5027 129.361 76.8762 128.855 76.2498 128.338L75.8918 128.03C75.2852 127.494 74.6886 126.957 74.1119 126.381L73.7738 126.053C73.2037 125.477 72.6568 124.881 72.1331 124.265L71.8149 123.907C71.2978 123.292 70.8205 122.656 70.3134 122C70.214 121.881 70.1245 121.742 70.035 121.623C69.5676 120.957 69.1102 120.291 68.6826 119.636L68.4241 119.228C68.0065 118.543 67.6187 117.838 67.2408 117.112L67.032 116.695C66.6641 115.97 66.3161 115.245 66.0376 114.5L65.8686 114.053C65.5603 113.307 65.2819 112.542 65.0234 111.778L64.8742 111.33C64.6256 110.556 64.4069 109.781 64.2179 108.996C64.2179 108.837 64.1384 108.678 64.1086 108.529C63.923 107.747 63.7639 106.953 63.6313 106.145C63.6313 105.996 63.5716 105.837 63.5517 105.678C63.4324 104.883 63.3429 104.078 63.2733 103.274L61.6227 102.976L60.8272 102.827C60.8222 102.896 60.8222 102.966 60.8272 103.035L56.0741 103.403C56.0741 102.926 56.0045 102.409 55.9846 101.952L53.4788 101.495C53.3992 102.082 53.4689 102.757 53.4689 103.482ZM99.7566 147.253V147.383V147.621V147.671H99.9157L99.7765 147.72L99.9157 148.495V113.327H99.677H99.1202C98.9611 113.327 98.802 113.327 98.6429 113.327L98.0761 113.248L97.6087 113.178L97.0519 113.079L96.853 113.019H96.5746H95.968H95.4609H94.8046H94.4268H94.2776H93.5517H93.4821V113.129L93.6313 113.973H94.3572H94.7748H95.2322H95.7294H96.4155H96.9027H97.559H98.0463H98.6827H98.0164H97.5391H96.853H96.3558H95.63H95.1228H94.7649H94.3373H93.85V114.211L93.9594 114.778V114.927H94.3074H94.7151H95.2123H96.0178H96.505H97.2707H97.7579H98.5037H97.7281H97.2408H96.4354H95.9482H95.093H94.5859H94.039V115.096L94.1782 115.88H94.2378H94.735H95.6598H96.2266H97.1116H97.5988H98.454H98.9312H98.444H97.569H97.0817H96.157H95.6697H94.6754H94.3273L94.4467 116.556V116.834H95.3416H95.8288H95.3316H94.6058L94.7847 117.828H95.093H95.5802L96.6442 119.646H97.1315H98.2054H98.6827H99.7566H98.6727H98.1954H97.0917H96.6044L95.451 119.695H94.9538H94.8245V120.003L94.9438 120.649H95.2322L96.4453 120.709H96.9226H98.1159H98.5932H99.7765L98.5832 120.768H98.1059H96.8829H96.3956L95.1328 120.828V120.907L95.2919 121.791H96.2862H96.7735L98.0661 121.851H98.5434L99.8361 121.911L98.5335 121.97H98.0562L96.7238 122.03H96.2365H95.4112L95.5802 123.023H96.0675H96.5547L97.9568 123.093H98.4341L99.8361 123.162L98.4241 123.232H97.9468L96.495 123.301H96.0078H95.6598L95.8388 124.295H96.3161L97.8275 124.374H98.3048L99.8162 124.444L98.2153 125.497H97.738L96.2266 125.606H95.8686L96.0376 126.6L97.6684 126.679H98.1358L99.7566 126.769L98.1258 126.858H97.6485L96.0874 126.937L96.2663 127.931L97.559 128H98.0264L99.7566 128.1L98.0164 128.199H97.5292L96.336 128.259L96.5149 129.252L97.4496 129.302H97.917L99.7566 129.58L97.8971 129.699H97.4198H96.5945L96.7735 130.693H97.3403H97.8176L99.8063 130.822L97.8176 130.951H97.3403H96.8729L97.0519 131.944H97.2209H97.6982L99.7466 132.083L97.6783 132.56H97.2209H97.1215L97.1911 132.948L97.3005 133.554H97.6187L99.7765 133.713L97.5889 133.872H97.3701L97.5193 134.696V134.865L99.7466 135.054L97.5889 135.233L97.748 136.097V136.236L99.7367 136.415L97.8374 136.584V136.782L97.9866 137.597L99.7069 137.766L98.0562 137.925L98.2451 138.918L99.7069 139.077H99.4682L98.3645 139.514L98.5434 140.508L99.7566 140.657L98.6131 140.806L98.802 141.799L99.7963 141.938L98.9014 142.068L99.1003 143.141L99.7963 143.26L99.15 143.369L99.2395 143.836L99.3489 144.472L99.7963 144.571L100.035 144.621H99.7963L99.3986 144.71L99.6074 145.863H99.7963L100.035 145.922L99.7963 145.982H99.6472V146.22V146.429L99.7566 147.253ZM103.416 146.538H103.893C104.957 146.449 106.021 146.339 107.065 146.18L107.533 146.101C108.587 145.932 109.631 145.714 110.655 145.475L111.122 145.366C112.117 145.117 113.181 144.829 114.185 144.502L114.642 144.353C115.637 144.015 116.631 143.647 117.625 143.25L118.073 143.071C119.067 142.664 120.062 142.207 120.956 141.73L121.384 141.511C122.16 141.114 122.925 140.687 123.671 140.25L124.079 140.011C125.153 139.349 126.197 138.653 127.211 137.925L127.599 137.657C128.454 137.021 129.289 136.365 130.095 135.67L130.453 135.362C131.258 134.666 132.044 133.951 132.799 133.206L133.137 132.868C133.883 132.113 134.599 131.328 135.295 130.524L135.603 130.166C136.29 129.352 136.956 128.527 137.592 127.673L137.871 127.285C138.487 126.421 139.084 125.547 139.651 124.643C139.73 124.504 139.82 124.374 139.899 124.245C140.456 123.331 140.963 122.407 141.45 121.464L141.669 121.036C142.146 120.043 142.604 119.129 143.021 118.155L143.19 117.708C143.598 116.715 143.966 115.721 144.294 114.728L144.453 114.281C144.771 113.288 145.06 112.294 145.308 111.221C145.308 111.062 145.388 110.903 145.418 110.754C145.666 109.761 145.875 108.688 146.044 107.635L146.134 107.158C146.293 106.165 146.402 105.062 146.492 103.999V103.522C146.541 102.827 146.581 102.121 146.601 101.416L144.085 101.873C144.085 102.36 144.036 102.866 144.006 103.323L139.253 102.956C139.253 102.886 139.253 102.817 139.253 102.747L138.447 102.896L136.807 103.194C136.747 103.999 136.657 104.804 136.538 105.598C136.538 105.757 136.478 105.916 136.459 106.065C136.319 106.873 136.16 107.668 135.981 108.449C135.981 108.599 135.912 108.757 135.872 108.916C135.673 109.701 135.464 110.476 135.216 111.251L135.066 111.698C134.808 112.463 134.53 113.228 134.221 113.973C134.162 114.122 134.112 114.271 134.042 114.42C133.734 115.165 133.386 115.89 133.048 116.616C132.978 116.755 132.909 116.894 132.829 117.033C132.461 117.758 132.064 118.463 131.646 119.149L131.397 119.556C130.97 120.242 130.512 120.907 130.045 121.543L129.767 121.931C129.279 122.586 128.772 123.222 128.255 123.838L127.947 124.196C127.44 124.782 126.952 125.358 126.366 125.914L126.515 126.143L126.326 126.004L125.998 126.331C125.421 126.908 124.825 127.444 124.208 127.981L123.85 128.289C123.234 128.815 122.597 129.282 121.951 129.799L121.563 130.067C120.748 130.653 119.922 131.209 119.057 131.726L118.65 131.964C118.113 132.272 117.576 132.57 117.029 132.858L116.601 133.077C115.875 133.435 115.149 133.782 114.404 134.07L113.956 134.249C113.21 134.547 112.455 134.835 111.679 135.084L111.232 135.243C110.466 135.481 109.68 135.7 108.895 135.898L108.427 136.008C107.642 136.186 106.846 136.345 106.051 136.475L105.584 136.564C104.788 136.683 103.983 136.763 103.167 136.832H103.108L102.789 138.521L102.64 139.336H102.849L103.187 144.045C102.697 144.084 102.209 144.114 101.725 144.134L101.268 146.647C102.014 146.627 102.72 146.588 103.416 146.538ZM147.367 100.283L147.595 100.234H147.645L147.705 100.085V100.214L148.471 100.075H113.27C113.27 100.154 113.27 100.234 113.27 100.313C113.27 100.393 113.27 100.691 113.27 100.879C113.27 101.068 113.27 101.197 113.27 101.356C113.27 101.515 113.21 101.724 113.19 101.913C113.171 102.101 113.19 102.231 113.111 102.38C113.031 102.529 113.051 102.757 113.011 102.936C113.007 103.005 113.007 103.075 113.011 103.145V103.413V104.019V104.744V105.141V105.737V106.463V106.542H113.121L113.966 106.383V104.923V104.436V103.741V103.254V102.598V102.121V101.476V100.999V100.363V101.009V101.485V102.141V102.628V103.313V103.8V104.535V105.042V105.39V105.827V106.304H114.195L114.762 106.204H114.921V105.439V104.943V104.148V103.661V102.886V102.409V101.654V101.177V100.432V101.187V101.664V102.429V102.916V103.721V104.217V105.062V105.569V106.025V106.125H115.09L115.875 105.976V105.737V105.241V104.327V103.84V102.956V102.479V101.615V101.138V100.283V101.148V101.625V102.509V102.995V103.909V104.406V105.4V105.737L116.551 105.618H116.84V104.724V104.237V103.244V102.767V103.254V104.247V104.744V105.469L117.834 105.29V104.982V104.496L117.884 103.393V102.916V101.833V101.356V100.283V101.366V101.843V102.956V103.433L117.934 104.585V105.082V105.211H118.242L118.898 105.092V104.873L118.948 103.661V103.184V101.992V101.515L119.007 100.333L119.057 101.525V102.002V103.224V103.711V104.982H119.137L120.022 104.813V103.82V103.343L120.081 102.042V101.565L120.141 100.273L120.201 101.575V102.052L120.26 103.393V103.88V104.704L121.255 104.525V104.039V103.562L121.324 102.151V101.674L121.384 100.273L121.444 101.684V102.171L121.513 103.611V104.098V104.446L122.508 104.267V103.79L122.587 102.27V101.793L122.667 100.283L122.746 101.803V102.29L122.826 103.85V104.207L123.82 104.029L123.91 102.399V101.923L123.999 100.303L124.079 101.942V102.419L124.158 103.969L125.153 103.8L125.232 102.509V102.032L125.322 100.303L125.421 102.052V102.529L125.491 103.721L126.485 103.542L126.545 102.618V102.141L126.654 100.303L126.764 102.161V102.638V103.462L127.758 103.294V102.727V102.25L127.887 100.264L128.016 102.25V102.727V103.194L129.011 103.015V102.817V102.34L129.15 100.283L129.289 102.36V102.846V102.946L129.677 102.876L130.284 102.767V102.449L130.453 100.283L130.622 102.469V102.688L131.457 102.539H131.626L131.805 100.313L131.984 102.469L132.839 102.31H132.978L133.157 100.323L133.336 102.221H133.525L134.341 102.072L134.51 100.353L134.669 102.002L135.663 101.813L135.832 100.353V100.591L135.961 101.754L136.956 101.565L137.115 100.353L137.264 101.495L138.318 101.307L138.457 100.313L138.587 101.207L139.66 101.019L139.78 100.313L139.889 100.959L140.366 100.87L141.003 100.76L141.092 100.313L141.142 100.085V100.313L141.222 100.711L142.375 100.502L142.425 100.313L142.484 100.085L142.544 100.313V100.462H142.783H142.992L143.369 100.393L147.367 100.283ZM135.862 94.6307C135.862 94.4718 135.802 94.3227 135.782 94.1638C135.653 93.379 135.494 92.6041 135.315 91.8391C135.315 91.6802 135.245 91.5312 135.206 91.3722C135.017 90.6073 134.808 89.8423 134.569 89.0972C134.569 88.9383 134.46 88.7893 134.41 88.6403C134.162 87.8952 133.893 87.1501 133.595 86.4249L133.416 85.9778L130.721 87.1501L116.492 93.3392L116.85 93.4088L118.838 93.7664L119.833 93.9452L122.637 94.4519L123.81 94.6605L128.086 95.4354L129.508 95.6937L136.17 96.9057C136.051 96.101 136.001 95.3659 135.862 94.6307ZM132.193 83.4048C131.825 82.7094 131.447 82.014 131.039 81.3384C130.96 81.1994 130.87 81.0702 130.781 80.9411C130.363 80.2655 129.926 79.6099 129.458 78.9542L129.19 78.5667C128.713 77.9309 128.195 77.315 127.718 76.709L127.4 76.3514C126.883 75.7553 126.406 75.1692 125.799 74.6029L125.7 74.742L120.091 82.6299L118.948 84.2194L116.293 87.9548L115.428 89.1767L113.936 91.2629L113.24 92.2564L112.952 92.6538L113.767 92.7928L114.543 92.9419L115.229 93.0611L133.127 85.2824C132.909 84.7956 132.68 84.289 132.441 83.832L132.193 83.4048ZM125.461 74.285C124.904 73.7386 124.317 73.2022 123.721 72.6856L123.363 72.3776C122.756 71.861 122.14 71.3842 121.503 70.9073L121.116 70.6291C120.469 70.1722 119.813 69.7251 119.127 69.3079L118.719 69.0496C118.043 68.6422 117.357 68.2647 116.651 67.8972L116.223 67.6786C115.517 67.3309 114.811 66.9832 114.075 66.6852L113.638 66.5163L112.544 69.2781L106.846 83.7624L106.906 84.1201L107.175 85.5705L107.314 86.3355L107.463 87.17L107.851 86.8918L108.845 86.1864L110.943 84.6963L112.156 83.832L115.895 81.1696L117.496 80.037L125.451 74.4241L125.57 74.3347L125.461 74.285ZM94.8941 87.4581H93.8998H93.5418V87.6965L93.4125 88.4118H93.681L93.86 88.3124L94.2975 88.1137L94.4168 88.0541H94.4765L94.8046 87.8952L95.1328 87.7561H95.2422L95.7791 87.5673L96.1172 87.4382H95.7393H95.1228L94.8941 87.4581ZM78.497 70.9073C77.8606 71.3742 77.2441 71.9007 76.6376 72.3776L76.2796 72.6856C75.7327 73.1624 75.1957 73.679 74.6787 74.1459L81.9375 79.3019L83.5285 80.4344L87.506 83.226L88.7291 84.0903L90.9365 85.6599L91.9309 86.3653L92.6866 86.9017L92.796 86.3454L92.9352 85.5705L93.0545 84.885L85.2587 67.0031C84.7715 67.2216 84.2644 67.4501 83.8069 67.6885L83.3893 67.9071C82.6833 68.2747 81.9873 68.6522 81.3111 69.0595L80.9133 69.3178C80.2372 69.735 79.5908 70.1721 78.9246 70.6391L78.497 70.9073ZM74.2014 74.6228C73.6445 75.189 73.1076 75.7652 72.5905 76.3712L72.2822 76.7289C71.7751 77.3349 71.2879 77.9508 70.8106 78.5866L70.5322 78.9741C70.0748 79.6099 69.6273 80.2655 69.2097 80.9609C69.1301 81.0901 69.0406 81.2192 68.9611 81.3583C68.5434 82.0339 68.1656 82.7293 67.8076 83.4247L67.5888 83.8519C67.2309 84.5572 66.8928 85.2725 66.5945 85.9977C66.5249 86.1467 66.4752 86.2957 66.4155 86.4447L69.1898 87.5276L83.6976 93.23L84.0655 93.1703L85.4974 92.912L86.2829 92.8226L87.3867 92.624H87.4563L86.8199 91.7299L85.4477 89.8026L84.5826 88.5906L82.1066 85.1135L80.973 83.524L75.7128 76.1328L74.4798 74.4142L74.2014 74.6228ZM65.4012 89.0972C65.1626 89.8423 64.9538 90.6073 64.7549 91.3722C64.7549 91.5312 64.6853 91.6802 64.6555 91.8391C64.4765 92.6041 64.3174 93.379 64.1881 94.1638C64.1881 94.3227 64.1285 94.4718 64.1086 94.6307C63.9992 95.3659 63.9097 96.101 63.85 96.856L70.5123 95.644L71.9342 95.3857L76.21 94.6108L77.3734 94.4022L80.1775 93.8956L81.1719 93.7167L82.3055 93.5081L66.0973 87.1302C65.8984 87.6269 65.7194 88.1237 65.5504 88.6403L65.4012 89.0972ZM87.3469 104.992V105.539V105.936V106.582H87.5657H87.6949L88.3015 106.691V106.413C88.2646 106.355 88.2314 106.296 88.202 106.234C88.202 106.165 88.1324 106.085 88.0927 106.016L87.9932 105.807L87.9037 105.618C87.9037 105.509 87.7944 105.41 87.7446 105.3C87.6949 105.191 87.6551 105.072 87.6054 104.963C87.6081 104.926 87.6081 104.89 87.6054 104.853C87.5358 104.674 87.4762 104.506 87.4165 104.327C87.3568 104.148 87.327 104.098 87.2872 103.979V104.357L87.3469 104.992ZM64.1086 105.459C64.1086 105.618 64.1583 105.767 64.1881 105.926C64.3174 106.711 64.4765 107.486 64.6555 108.251C64.6555 108.41 64.7251 108.559 64.7549 108.718C64.9538 109.483 65.1626 110.248 65.4012 110.993L65.5504 111.45C65.8089 112.195 66.0774 112.94 66.3757 113.665C66.4354 113.814 66.4851 113.963 66.5547 114.112L69.3787 113.009L83.5782 106.84L83.2103 106.771L81.2216 106.423L80.2272 106.244L77.4032 105.737L76.2299 105.529L71.9541 104.754L70.5322 104.496L63.8799 103.294C63.9395 104.029 64.029 104.744 64.1384 105.499L64.1086 105.459ZM67.7778 116.685C68.1357 117.381 68.5136 118.076 68.9312 118.751C69.0108 118.891 69.1003 119.02 69.1798 119.149C69.5975 119.824 70.0449 120.48 70.5023 121.136L70.7808 121.523C71.2481 122.159 71.7751 122.775 72.2524 123.381L72.5607 123.739C73.0777 124.345 73.6147 124.921 74.1715 125.487L74.2511 125.567L74.6687 124.99L80.1875 117.241L81.3111 115.672L83.9263 112.006L84.7914 110.794L86.2829 108.718L86.9889 107.724L87.1679 107.466L86.2431 107.307L85.4675 107.158L84.7914 107.039L66.8928 114.817C67.1115 115.304 67.3403 115.811 67.5888 116.268L67.7778 116.685ZM74.5096 125.805C75.0665 126.351 75.6532 126.888 76.2498 127.404L76.6077 127.712C77.2143 128.229 77.8308 128.706 78.4672 129.183L78.855 129.461C79.5013 129.928 80.1477 130.365 80.8437 130.782L81.2415 131.04C81.9177 131.448 82.6137 131.825 83.3197 132.193L83.7373 132.411C84.4433 132.759 85.1593 133.107 85.8852 133.405L86.3326 133.574L87.4165 130.822L93.2435 116.377L93.1739 116.02L92.9153 114.579L92.7761 113.804L92.6071 112.89L92.3485 113.069L91.3542 113.774L89.266 115.225L88.0529 116.089L84.3936 118.652L82.7927 119.785L75.0466 125.328L74.45 125.755L74.5096 125.805ZM94.6555 112.691H95.0234H96.0178L95.6797 112.572L95.4808 112.493L95.1427 112.374L94.8046 112.244H94.7052C94.5314 112.172 94.3621 112.089 94.1981 111.996L93.9893 111.897L93.7605 111.797L93.5816 111.698H93.3031L93.4125 112.294V112.423V112.642H93.7804H94.4467L94.6555 112.691ZM121.503 129.252C122.14 128.785 122.756 128.259 123.353 127.782L123.721 127.474C124.317 126.957 124.904 126.421 125.461 125.874C125.54 125.785 125.63 125.706 125.71 125.626L123.999 124.404L116.601 119.149L115 118.016L111.52 115.543L110.307 114.678L107.483 112.691V112.9L107.363 113.596V113.854L107.165 114.579L107.035 115.255L114.831 133.137C115.318 132.918 115.826 132.689 116.273 132.451L116.701 132.233C117.238 131.954 117.755 131.666 118.272 131.358L118.689 131.13C119.534 130.623 120.35 130.077 121.145 129.501L121.503 129.252ZM127.718 123.431C128.225 122.825 128.713 122.209 129.19 121.573L129.458 121.185C129.926 120.55 130.363 119.894 130.781 119.199C130.87 119.069 130.96 118.94 131.039 118.801C131.447 118.126 131.825 117.43 132.193 116.735L132.412 116.308C132.77 115.602 133.108 114.887 133.406 114.162L133.585 113.715L130.821 112.632L116.303 106.93L115.935 106.989L114.493 107.247L113.717 107.396L113.151 107.496L113.688 108.241L114.384 109.234L115.955 111.44L116.82 112.652L119.614 116.576L120.758 118.175L125.908 125.417C126.416 124.901 126.903 124.364 127.37 123.818L127.718 123.431ZM134.569 111.062C134.808 110.317 135.017 109.552 135.206 108.787C135.206 108.628 135.275 108.479 135.315 108.32C135.494 107.555 135.653 106.781 135.782 105.996C135.782 105.837 135.782 105.688 135.862 105.529C135.971 104.794 136.051 104.058 136.121 103.313L129.468 104.515L128.046 104.744L123.761 105.519L122.597 105.737L119.793 106.254L118.799 106.433L117.665 106.631L133.873 113.009C134.062 112.513 134.241 112.016 134.41 111.499C134.46 111.34 134.52 111.191 134.569 111.032V111.062ZM112.604 105.539V104.049C112.604 104.158 112.524 104.267 112.484 104.386C112.445 104.506 112.435 104.515 112.415 104.585C112.395 104.655 112.335 104.804 112.286 104.913L112.166 105.251L112.107 105.36C112.107 105.489 111.987 105.608 111.928 105.737L111.868 105.867L111.659 106.294L111.56 106.473V106.731L112.286 106.602H112.514V106.224L112.604 105.539ZM80.3167 80.0966L90.6681 90.647L90.7973 90.5377L90.9763 90.3688L77.7015 77.3945L80.3167 80.0966ZM90.7675 109.572L90.4791 109.284L77.7015 122.348L90.7675 109.572ZM99.7168 87.7163H99.2296H98.7523L98.3048 87.8554L97.8374 87.9349C97.6767 87.955 97.5173 87.9848 97.3601 88.0243C97.2011 88.0243 97.0519 88.1038 96.8928 88.1435L96.4155 88.2627L95.968 88.4217L95.7294 88.5111L95.5106 88.5906H95.4112L95.2322 88.7297L95.093 88.7992H94.9936L94.7947 88.8985L94.6555 88.9681C94.5163 89.0376 94.3671 89.0972 94.2279 89.1767L93.8003 89.4251L93.4026 89.6734L93.1341 89.8423L93.0545 89.9019L92.9551 89.9715L92.5773 90.2596C92.4679 90.339 92.3585 90.4086 92.269 90.4881L91.921 90.8358H91.8315L91.6624 90.9947L91.4636 91.1636L91.3343 91.2828L91.1354 91.5014C91.0181 91.6166 90.9085 91.7394 90.8073 91.8689C90.7783 91.8929 90.7517 91.9195 90.7277 91.9484L90.4791 92.2166L90.2604 92.5147C90.2349 92.5461 90.2116 92.5793 90.1908 92.614C90.0913 92.7332 89.9919 92.8624 89.9024 92.9915L89.8427 93.071L89.6339 93.3988L89.3853 93.8161C89.3058 93.9552 89.2163 94.0943 89.1367 94.2433L88.9279 94.6704C88.8583 94.8095 88.7788 94.9486 88.7191 95.0976V95.187C88.6694 95.3062 88.6296 95.4255 88.5898 95.5447L88.4705 95.8626C88.4705 95.8626 88.4705 95.952 88.4208 96.0017L88.2617 96.4487C88.2617 96.6077 88.1822 96.7666 88.1424 96.9256C88.1026 97.0845 88.0529 97.2335 88.0231 97.3825C87.9932 97.5316 87.9634 97.7104 87.9336 97.8693C87.9037 98.0283 87.9336 98.1773 87.864 98.3363C87.8303 98.4969 87.8071 98.6595 87.7944 98.823C87.7944 98.982 87.7944 99.1409 87.7944 99.2999C87.7944 99.4588 87.7944 99.6277 87.7944 99.7867C87.7944 99.9456 87.7944 99.9456 87.7944 100.025C87.7944 100.105 87.7944 100.184 87.7944 100.264C87.7944 100.343 87.7944 100.591 87.7944 100.75C87.7944 100.909 87.7944 101.068 87.7944 101.227C87.8071 101.391 87.8303 101.553 87.864 101.714C87.864 101.873 87.864 102.032 87.9336 102.181C88.0032 102.33 87.9336 102.509 88.0231 102.668C88.1126 102.827 88.1026 102.976 88.1424 103.125C88.1822 103.274 88.212 103.443 88.2617 103.601L88.4208 104.049L88.5103 104.297L88.5898 104.506V104.605L88.739 104.953C88.7355 104.986 88.7355 105.019 88.739 105.052C88.7407 105.085 88.7407 105.118 88.739 105.151L88.7987 105.261L88.8583 105.39L89.0671 105.817C89.1467 105.966 89.2362 106.105 89.3157 106.244L89.5643 106.651L89.7035 106.89L89.7731 106.979L89.8328 107.059C89.9223 107.188 90.0217 107.317 90.1212 107.436V107.496L90.3399 107.794L90.5885 108.062C90.6125 108.091 90.6391 108.118 90.6681 108.142C90.7693 108.271 90.8789 108.394 90.9962 108.509L91.3045 108.807L91.6724 109.135L91.7519 109.205L92.0303 109.453C92.1222 109.531 92.2185 109.604 92.3187 109.671H92.3784L92.7562 109.96L92.8457 110.019L92.9352 110.089L93.1639 110.228L93.5716 110.476C93.7097 110.566 93.8524 110.649 93.9992 110.724C94.1384 110.804 94.2876 110.864 94.4268 110.933L94.6754 111.052H94.7649C94.7978 111.047 94.8314 111.047 94.8643 111.052H94.9637L95.3118 111.181L95.5305 111.271H95.63H95.7692C95.915 111.333 96.0644 111.386 96.2166 111.43L96.6939 111.549C96.8472 111.598 97.0033 111.638 97.1613 111.668L97.6386 111.768L98.1059 111.837L98.5932 111.907H99.0705H99.5577H100.204H100.701H101.169L101.656 111.837L102.133 111.768L102.61 111.668C102.765 111.639 102.918 111.599 103.068 111.549C103.227 111.549 103.396 111.479 103.545 111.43C103.701 111.386 103.853 111.333 104.003 111.271L104.46 111.102H104.549L104.897 110.963L105.206 110.814L105.335 110.754L105.683 110.585H105.763L106.17 110.705C106.451 110.551 106.723 110.382 106.986 110.198L107.065 110.138L107.453 109.85L107.542 109.781C107.646 109.714 107.746 109.641 107.841 109.562L108.119 109.314L108.199 109.244L108.557 108.916L108.775 108.708L108.895 108.579L109.074 108.38L109.223 108.211L109.302 108.132L109.541 107.863L109.76 107.565V107.506L110.038 107.128L110.108 107.049L110.168 106.959L110.317 106.721L110.565 106.314C110.645 106.175 110.734 106.035 110.814 105.886C110.893 105.737 110.943 105.608 111.013 105.459C111.075 105.35 111.131 105.237 111.182 105.121V105.022V104.933C111.228 104.832 111.267 104.73 111.301 104.625L111.381 104.416C111.377 104.38 111.377 104.343 111.381 104.307C111.378 104.261 111.378 104.214 111.381 104.168C111.43 104.019 111.49 103.87 111.53 103.721C111.57 103.572 111.619 103.403 111.659 103.244L111.778 102.787L111.868 102.3C111.868 102.151 111.868 101.992 111.938 101.833C112.007 101.674 111.938 101.515 112.007 101.346C112.017 101.188 112.017 101.028 112.007 100.87C112.007 100.711 112.007 100.542 112.007 100.383C112.007 100.224 112.007 100.224 112.007 100.144C112.007 100.065 112.007 99.9854 112.007 99.9059C112.007 99.8264 112.007 99.5781 112.007 99.4191C112.017 99.2603 112.017 99.1011 112.007 98.9423C112.007 98.7734 111.957 98.6144 111.938 98.4555C111.918 98.2965 111.938 98.1376 111.868 97.9885L111.778 97.5018L111.659 97.0448C111.659 96.8858 111.58 96.7269 111.53 96.5679C111.48 96.409 111.43 96.2699 111.381 96.1209C111.331 95.9719 111.271 95.8129 111.212 95.6639C111.217 95.631 111.217 95.5974 111.212 95.5645C111.212 95.4453 111.122 95.3361 111.072 95.2168V95.1175L111.142 94.8095C111.123 94.7645 111.099 94.7213 111.072 94.6804C111.003 94.5314 110.943 94.3923 110.874 94.2532C110.804 94.1141 110.705 93.9651 110.625 93.826L110.376 93.4187L110.168 93.0909L110.098 93.0114L109.82 92.6339L109.75 92.5345L109.521 92.2365L109.283 91.9683L109.203 91.8888L108.875 91.5212L108.567 91.2133L108.159 90.8358L108.089 90.7762L107.801 90.5179L107.523 90.3092L107.413 90.2298L107.025 89.9417C107.002 89.9371 106.979 89.9371 106.956 89.9417L106.618 89.7231C106.488 89.6337 106.349 89.5542 106.21 89.4747L105.792 89.2264C105.653 89.1469 105.504 89.0873 105.365 89.0178L105.017 88.8489H104.917H104.828L104.48 88.7197L104.162 88.6005L104.012 88.5508L103.565 88.3919C103.416 88.3919 103.247 88.3124 103.088 88.2727C102.929 88.2329 102.789 88.1833 102.63 88.1535C102.473 88.114 102.314 88.0841 102.153 88.0641L101.676 87.9846L101.198 87.8554H100.721H100.234H99.7566L99.7168 87.7163ZM122.657 122.298L109.71 109.075L109.541 109.264L109.432 109.383L119.962 119.646L122.657 122.298ZM109.183 90.5079L109.481 90.8159L122.657 77.3547L109.183 90.5079ZM114.155 133.395L112.962 130.653L106.777 116.516L106.717 116.884L106.359 118.871L106.18 119.864L105.673 122.626L105.454 123.788L104.679 128.07L104.42 129.491L103.187 136.157C103.933 136.087 104.679 136.008 105.405 135.898L105.872 135.809C106.657 135.69 107.433 135.531 108.199 135.352L108.666 135.243C109.442 135.054 110.197 134.835 110.953 134.597L111.401 134.448C112.156 134.2 112.892 133.921 113.628 133.623L114.065 133.454L114.155 133.395ZM95.5802 129.421L95.3217 128L94.5461 123.719L94.3273 122.626L93.8202 119.814L93.6412 118.821L93.4324 117.689L87.0585 133.882C87.5557 134.07 88.0529 134.249 88.57 134.418L89.0174 134.567C89.7632 134.806 90.5289 135.024 91.3045 135.213L91.7619 135.322C92.5275 135.501 93.3031 135.66 94.0887 135.779L94.556 135.869C95.2919 135.978 96.0376 136.057 96.7735 136.117L95.5802 129.421ZM85.8454 66.6951L87.0386 69.4171L93.2435 83.6234L93.3131 83.2657L93.6711 81.2788L93.85 80.2854L94.3572 77.4839L94.566 76.3216L95.3416 72.0498L95.6001 70.6291L96.7934 64.0128C96.0376 64.0823 95.2919 64.1618 94.556 64.2711L94.0887 64.3605C93.3031 64.4897 92.5275 64.6387 91.7619 64.8175L91.3045 64.9268C90.5289 65.1155 89.7632 65.3341 89.0174 65.5725L88.57 65.7215C87.8142 65.9699 87.0685 66.2481 86.3426 66.5461L85.8951 66.715L85.8454 66.6951ZM104.43 70.5993L104.689 72.02L105.464 76.3017L105.673 77.464L106.18 80.2755L106.369 81.2689L106.568 82.4114L112.942 66.2282C112.445 66.0394 111.947 65.8606 111.43 65.6917L110.983 65.5427C110.227 65.3043 109.472 65.0857 108.696 64.897L108.229 64.7877C107.463 64.6089 106.687 64.4499 105.902 64.3307L105.434 64.2413C104.709 64.132 103.973 64.0525 103.227 63.9929L104.43 70.5993Z" fill="#BFBFBF"/>
<path d="M99.9906 158.688C88.3872 158.688 77.0445 155.25 67.3966 148.81C57.7488 142.369 50.2292 133.215 45.7888 122.505C41.3484 111.795 40.1866 100.01 42.4503 88.6399C44.714 77.2701 50.3015 66.8262 58.5064 58.629C66.7112 50.4318 77.1647 44.8495 88.5451 42.5879C99.9255 40.3263 111.722 41.487 122.442 45.9233C133.162 50.3596 142.324 57.8722 148.771 67.5111C155.217 77.1499 158.658 88.4822 158.658 100.075C158.64 115.614 152.453 130.512 141.454 141.5C130.456 152.488 115.545 158.67 99.9906 158.688ZM99.9906 42.1571C88.5245 42.1571 77.3159 45.5541 67.7823 51.9186C58.2487 58.2832 50.8184 67.3292 46.4309 77.9129C42.0435 88.4965 40.8961 100.142 43.1337 111.378C45.3714 122.613 50.8936 132.933 59.0021 141.032C67.1105 149.132 77.441 154.647 88.687 156.881C99.933 159.115 111.589 157.966 122.182 153.581C132.775 149.196 141.828 141.771 148.197 132.245C154.566 122.719 157.964 111.52 157.962 100.065C157.944 84.7106 151.83 69.9908 140.962 59.1347C130.094 48.2786 115.359 42.1728 99.9906 42.1571Z" fill="#BFBFBF"/>
<path d="M100.517 90.1201H100.209V90.438H99.5622H99.2639H98.7866L98.4784 90.4876L98.011 90.5572L97.7127 90.6168L97.3846 90.6963H97.2454L96.957 90.7757C96.7979 90.8155 96.6487 90.9247 96.4996 90.9247L96.2112 91.034H96.1615L95.7737 91.193L95.5052 91.3221C95.366 91.3917 95.2169 91.4513 95.0776 91.5307L94.8489 91.6698L94.5606 91.8387L94.4413 91.9083L94.1827 92.0871L93.8049 92.3652L93.5563 92.554H93.4966L93.1983 92.8322L93.1188 92.9017L92.9895 93.0209L92.8403 93.16L92.731 93.2891L92.6116 93.4183L92.5321 93.5077L92.2537 93.8157L92.1443 94.2031L91.8758 94.5906L91.6968 94.8389L91.4482 95.2462C91.3985 95.3356 91.3886 95.3754 91.309 95.5145C91.2295 95.6535 91.13 95.8324 91.0803 95.9317C91.0306 96.031 90.961 96.1205 90.961 96.2198V96.2695L90.8118 96.6569L90.6925 96.9351C90.6229 96.9947 90.6925 97.0543 90.6229 97.1338C90.5533 97.2132 90.6328 97.3027 90.5533 97.3921C90.4737 97.4815 90.5135 97.5212 90.4737 97.6802C90.434 97.8391 90.3544 98.0378 90.3544 98.1371C90.3544 98.2365 90.434 98.2862 90.3544 98.4451C90.2749 98.6041 90.2749 98.8127 90.2749 98.912V99.2101V99.6869V99.9949V100.233V100.472V100.78V101.247C90.2697 101.339 90.2697 101.432 90.2749 101.525C90.2948 101.684 90.3544 101.892 90.3544 101.992C90.3544 102.091 90.3246 102.151 90.3544 102.3C90.3842 102.449 90.4737 102.608 90.4737 102.757C90.5016 102.848 90.5248 102.941 90.5433 103.035C90.5831 103.184 90.6527 103.382 90.6925 103.482C90.7323 103.581 90.8019 103.68 90.8019 103.77C90.7976 103.79 90.7976 103.81 90.8019 103.829C90.8516 103.959 90.9312 104.118 90.9709 104.207C91.0107 104.296 91.0903 104.396 91.0903 104.475C91.1599 104.624 91.2394 104.763 91.319 104.902C91.3687 104.982 91.4582 105.071 91.4582 105.161L91.6272 105.429L91.7167 105.558C91.7664 105.647 91.8261 105.727 91.8857 105.816L92.1642 106.194L92.3531 106.432L92.6315 106.76L92.7111 106.85L92.8204 106.969L92.9497 107.108L93.0193 107.177L93.1585 107.307L93.2779 107.416L93.3773 107.505C93.4767 107.605 93.5861 107.694 93.6955 107.783L93.9341 107.972L94.3219 108.25L94.5705 108.419L94.6998 108.509L94.9782 108.677L95.2368 108.817L95.724 109.085L96.0024 109.214H96.0521L96.4399 109.383L96.7184 109.482L97.1658 109.631L97.4442 109.701C97.6033 109.74 97.7525 109.82 97.9116 109.82H98.2099L98.6773 109.899H98.9557H99.433H99.7313H99.9699H100.209H100.557H101.034L101.332 109.85L101.81 109.78H102.108C102.263 109.748 102.416 109.705 102.565 109.651L102.864 109.572L103.122 109.502L103.321 109.432L103.599 109.323H103.659L104.047 109.164L104.315 109.045L104.494 108.946L104.733 108.817L104.922 108.717L105.698 108.191C105.827 108.101 105.966 108.012 106.085 107.913L106.334 107.724L106.672 107.396L106.762 107.316L106.901 107.197L107.03 107.078L107.169 106.929L107.348 106.75C107.376 106.729 107.4 106.702 107.418 106.671C107.517 106.571 107.607 106.462 107.696 106.363L107.885 106.124L108.164 105.737L108.193 105.041L108.263 104.932C108.327 104.837 108.383 104.738 108.432 104.634L108.571 104.376C108.651 104.237 108.73 104.098 108.8 103.959L108.919 103.671C108.979 103.541 109.078 103.412 109.078 103.283C109.121 103.193 109.157 103.1 109.188 103.005C109.238 102.856 109.317 102.707 109.317 102.548L109.407 102.26V102.121C109.436 102.011 109.496 101.902 109.496 101.803C109.496 101.704 109.426 101.654 109.496 101.495C109.566 101.336 109.516 101.127 109.566 101.028C109.615 100.929 109.615 100.889 109.615 100.73V100.253V99.9452V99.7068V99.4684V99.1604C109.625 99.0049 109.625 98.849 109.615 98.6935V98.4153C109.595 98.2564 109.586 98.0477 109.536 97.9484C109.486 97.8491 109.486 97.7398 109.486 97.6404L109.367 97.1834V97.0245V96.8854C109.317 96.7364 109.267 96.5873 109.208 96.4384C109.181 96.3404 109.147 96.2441 109.108 96.1503C109.108 96.0907 109.158 96.2198 109.108 96.0907C109.059 95.9615 108.979 95.8026 108.939 95.7132C108.899 95.6237 108.82 95.5244 108.82 95.4449C108.75 95.2959 108.681 95.1568 108.601 95.0177L108.452 94.7495C108.372 94.6204 108.293 94.4813 108.203 94.3521L108.034 94.0938C107.945 93.9647 107.845 93.8355 107.746 93.7163L107.557 93.4779L107.279 93.1501L107.199 93.0607L107.08 92.9414L106.752 92.6037L106.632 92.4944L106.543 92.405L106.225 92.1268L105.986 91.9381L105.598 91.6599L105.34 91.491C105.21 91.4016 105.081 91.3122 104.942 91.2327L104.673 91.0837L104.256 90.8651L103.977 90.736H103.918L103.54 90.5671L103.251 90.4678C103.102 90.4181 102.953 90.3188 102.794 90.3188H102.665H102.496C102.347 90.279 102.197 90.1995 102.038 90.1995H101.74L101.263 90.1201H100.994H100.517Z" fill="#BFBFBF"/>
<path d="M99.2126 93.3196H99.6899H99.9783H100.217H100.277H100.754H100.823H101.132H101.281H101.331L101.798 93.4289H101.967H102.086L102.255 93.4985H102.315C102.461 93.553 102.604 93.616 102.743 93.6872H102.792L103.22 93.8958C103.359 93.9753 103.488 94.0647 103.618 94.1541L104.005 94.4323L104.373 94.7403L104.711 95.0681L105.03 95.4257L105.308 95.8132L105.557 96.2205C105.609 96.3033 105.655 96.3896 105.696 96.4788C105.725 96.5325 105.748 96.5891 105.765 96.6477C105.825 96.7868 105.895 96.9358 105.944 97.0848C105.944 97.1841 106.014 97.2735 106.044 97.3729C106.039 97.4291 106.039 97.4856 106.044 97.5418C106.044 97.7007 106.133 97.8497 106.163 98.0087C106.193 98.1676 106.163 98.0087 106.163 98.0683C106.163 98.1279 106.163 98.1577 106.163 98.2173C106.163 98.2769 106.163 98.3763 106.163 98.4557C106.168 98.482 106.168 98.5089 106.163 98.5352V98.5948C106.163 98.7438 106.163 98.9028 106.163 99.0617C106.163 99.2207 106.163 99.0617 106.163 99.1213C106.163 99.181 106.163 99.4392 106.163 99.5982V99.6578C106.163 99.8168 106.163 99.9757 106.163 100.135C106.167 100.151 106.167 100.168 106.163 100.184V100.254C106.173 100.389 106.173 100.526 106.163 100.661C106.163 100.661 106.163 100.661 106.163 100.711C106.163 100.761 106.163 100.711 106.163 100.77C106.163 100.83 106.104 101.039 106.064 101.178C106.064 101.178 106.064 101.367 105.984 101.466L105.925 101.635C105.925 101.635 105.925 101.635 105.925 101.684C105.925 101.734 105.815 101.982 105.746 102.131C105.746 102.131 105.746 102.131 105.746 102.181C105.746 102.231 105.596 102.459 105.517 102.598V102.658C105.437 102.787 105.358 102.926 105.268 103.055C105.179 103.185 105.089 103.324 104.99 103.443L105.179 104.446L105 104.655L104.841 104.834L104.662 104.993L104.304 105.301C104.178 105.399 104.045 105.489 103.906 105.569C103.746 105.684 103.58 105.79 103.409 105.887L103.19 106.006L103.021 106.085C102.879 106.152 102.733 106.208 102.584 106.254H102.524C102.378 106.313 102.228 106.362 102.076 106.403H102.017L101.36 106.731H101.301H101.201H100.903H100.784H100.306H99.7098C99.5708 106.741 99.4312 106.741 99.2922 106.731H99.0933H98.8547H98.7055H98.6458L98.1884 106.622H98.1288L97.8503 106.542L97.6714 106.473C97.522 106.418 97.3759 106.355 97.2338 106.284L96.8063 106.075L96.2295 105.738C96.0947 105.653 95.9651 105.56 95.8417 105.46L95.4838 105.152C95.3644 105.052 95.2551 104.933 95.1457 104.824L94.8374 104.466L94.559 104.079C94.4695 103.949 94.39 103.81 94.3104 103.671V103.622L94.1712 103.373C94.1712 103.314 94.1215 103.254 94.0916 103.204C94.0618 103.155 94.0916 103.204 94.0916 103.145C94.0916 103.085 93.9624 102.857 93.9027 102.708C93.9027 102.708 93.9027 102.708 93.9027 102.658C93.8459 102.509 93.7994 102.356 93.7635 102.201C93.7635 102.042 93.684 101.893 93.6541 101.734C93.6243 101.575 93.6541 101.734 93.6541 101.674C93.6541 101.615 93.6541 101.585 93.6541 101.525C93.6487 101.443 93.6487 101.36 93.6541 101.277C93.6582 101.254 93.6582 101.231 93.6541 101.208V100.77C93.6541 100.631 93.6541 100.492 93.6541 100.363V100.304C93.6541 100.145 93.6541 99.9856 93.6541 99.8267V99.777C93.6439 99.6215 93.6439 99.4656 93.6541 99.3101V99.1909C93.6541 99.0915 93.6541 98.9922 93.6541 98.8929C93.6541 98.7935 93.6541 98.8134 93.6541 98.7736C93.6541 98.7736 93.7337 98.4657 93.7734 98.3067L93.853 98.0186C93.853 97.959 93.853 97.9093 93.9226 97.8497L94.0916 97.4027C94.1612 97.2537 94.2408 97.1245 94.3204 96.9854C94.3999 96.8464 94.3204 96.9854 94.3204 96.9258L94.5789 96.5285C94.6684 96.3993 94.7479 96.2602 94.8474 96.141L95.1656 95.7834L95.3247 95.6046L95.4937 95.4456H95.5434L95.7323 95.2668L95.9014 95.1376L96.2892 94.8595C96.4185 94.7701 96.5577 94.7005 96.6969 94.6211L96.9554 94.482L97.1145 94.4025H97.1742C97.3156 94.3327 97.4618 94.273 97.6117 94.2237L98.0691 94.0647H98.2183C98.3551 94.0223 98.4946 93.9891 98.6359 93.9654H98.6956H99.0635L99.2126 93.3196ZM98.447 94.4522C98.3084 94.4861 98.1722 94.5293 98.0393 94.5813L97.6316 94.7403L97.4029 94.8098H97.3432L97.1543 94.9092L96.7864 95.1376C96.667 95.2171 96.5378 95.2966 96.4284 95.386L96.3489 95.4555L96.0406 95.8033L95.8716 95.9523C95.82 96.0005 95.7734 96.0537 95.7323 96.1112L95.444 96.4391C95.3445 96.5583 95.2749 96.6874 95.1854 96.8066L95.096 96.9457L94.9567 97.1841C94.8871 97.3033 94.8175 97.4325 94.7579 97.5616C94.6982 97.7007 94.6485 97.8398 94.5988 97.9789C94.5386 98.1164 94.4919 98.2595 94.4596 98.4061C94.4181 98.5464 94.3849 98.689 94.3601 98.8333C94.3601 98.9823 94.3601 99.1213 94.3005 99.2704C94.3005 99.4194 94.3005 99.5585 94.3005 99.7075C94.3005 99.8565 94.3005 99.9956 94.3005 100.145C94.2604 100.351 94.2404 100.56 94.2408 100.77V101.068C94.2408 101.068 94.2408 101.158 94.2408 101.208C94.2408 101.357 94.3104 101.496 94.3502 101.645C94.3502 101.784 94.4297 101.923 94.4794 102.052C94.4794 102.191 94.5888 102.33 94.6485 102.459L94.738 102.658C94.7685 102.724 94.8051 102.787 94.8474 102.847C94.917 102.976 94.9965 103.095 95.0761 103.224L95.3346 103.582C95.4095 103.688 95.4926 103.787 95.5832 103.88C95.6826 103.989 95.7821 104.098 95.8914 104.198L96.1898 104.456L96.5477 104.714C96.667 104.794 96.7864 104.873 96.9156 104.943L97.2935 105.142L97.7012 105.31L97.91 105.39H98.1188L98.5464 105.489H98.6757C98.7751 105.489 98.8745 105.489 98.974 105.489H99.4115H99.6402H99.849H100.287C100.436 105.489 100.585 105.489 100.724 105.489C100.873 105.489 101.002 105.4 101.142 105.36L101.549 105.231L101.858 105.122L101.957 105.062L102.156 104.953L102.255 104.893H102.355L102.603 104.764L102.753 104.685L103.101 104.397L103.439 104.118C103.439 104.118 103.548 104.039 103.608 103.989C103.663 103.938 103.713 103.881 103.757 103.82C103.838 103.742 103.915 103.659 103.986 103.572L104.055 103.492C104.145 103.373 104.224 103.244 104.304 103.125C104.39 103.004 104.47 102.878 104.542 102.747C104.542 102.668 104.632 102.588 104.672 102.499C104.711 102.41 104.672 102.42 104.741 102.37C104.801 102.231 104.851 102.092 104.9 101.953C104.931 101.885 104.958 101.815 104.98 101.744L105.04 101.525C105.04 101.376 105.119 101.237 105.149 101.098L105.209 100.661C105.209 100.522 105.209 100.373 105.209 100.224C105.209 100.075 105.209 99.936 105.209 99.787C105.209 99.6379 105.209 99.4989 105.209 99.3498C105.209 99.2505 105.209 99.1511 105.209 99.0518C105.213 99.0056 105.213 98.959 105.209 98.9127C105.185 98.765 105.152 98.619 105.109 98.4756C105.109 98.3365 105.04 98.1974 104.99 98.0683L104.811 97.661C104.811 97.5914 104.761 97.5219 104.731 97.4623L104.622 97.2735L104.383 96.896L104.125 96.5384C104.047 96.4379 103.964 96.3417 103.876 96.2503C103.777 96.141 103.677 96.0317 103.568 95.9324L103.28 95.6741C103.166 95.5801 103.047 95.4938 102.922 95.4158L102.544 95.1873L102.156 94.9886L101.758 94.8197L101.549 94.7403H101.341L100.913 94.631C100.867 94.6356 100.82 94.6356 100.774 94.631H100.475C100.33 94.6207 100.184 94.6207 100.038 94.631C99.8888 94.631 99.7396 94.631 99.5905 94.631H99.153L98.7154 94.6906L98.2879 94.7999L98.447 94.4522Z" fill="#BFBFBF"/>
<path d="M175 99.5679L163.704 103.254C162.989 117.537 157.467 131.162 148.033 141.918L153.601 152.846L142.663 147.313C132.05 156.941 118.486 162.694 104.181 163.635L100.492 175L96.8031 163.705C82.4679 162.988 68.7984 157.441 58.0229 147.968L47.3633 153.363L52.7428 142.812C43.0754 132.186 37.3048 118.596 36.3755 104.267L25 100.561L36.296 96.8756C37.0064 82.5906 42.5291 68.965 51.9672 58.2108L46.3888 47.2829L57.3268 52.8164C68.1985 42.9762 82.1421 37.1955 96.7932 36.4544L100.532 25L104.301 36.5339C118.235 37.4602 131.475 42.953 141.967 52.1607L152.607 46.7663L147.237 57.3167C156.901 67.9453 162.671 81.5338 163.605 95.8623L175 99.5679ZM163.426 99.3096H163.048H162.203H161.994H160.562C160.358 83.4784 153.928 68.3627 142.663 57.2273L143.658 56.1743L143.747 56.0749L144.364 55.4292L144.622 55.1609L144.851 54.9126L151.225 48.2068L144.503 54.5748L144.254 54.8033L143.976 55.0616L143.339 55.6676L143.24 55.7669L142.176 56.7604C131.096 45.9541 116.283 39.8153 100.8 39.6136V38.183V37.8154V37.1399V36.4246L100.552 26.967L100.303 36.4047V37.12V37.8154V38.1731V39.6036H100.134C92.1476 39.5978 84.2393 41.1754 76.8673 44.2449C69.4953 47.3144 62.8062 51.8149 57.1876 57.4856L56.1336 56.4921L55.7855 56.1643L55.3878 55.7868L55.1094 55.5285L54.8707 55.3L47.9102 48.6936L54.5227 55.6477L54.7614 55.8862L55.0199 56.1643L55.3878 56.5518L55.7259 56.8995L56.7203 57.9625C45.6689 69.2001 39.4556 84.3106 39.4084 100.065C39.4084 100.124 39.4084 100.174 39.4084 100.233H37.9765H37.7875H36.9324H36.2164L26.9291 100.482L36.2363 100.77H36.9523H37.7975H38.0063H39.4382C39.6468 116.6 46.0751 131.714 57.3368 142.852L56.3424 143.905L56.2529 144.005L55.6364 144.65L55.3779 144.919L55.1392 145.167L48.7753 151.883L55.4574 145.624L55.706 145.395L55.9745 145.137L56.6208 144.531L56.7203 144.432L57.7743 143.438C69.0655 154.446 84.219 160.604 99.995 160.595H100.204V162.026V162.214V163.079V163.794L100.442 173.063L100.691 163.774V163.059V162.214V162.016V160.585C116.535 160.374 131.662 153.952 142.812 142.703L143.866 143.697L144.214 144.024L144.612 144.402L144.881 144.66L145.129 144.889L152.09 151.495L145.467 144.541L145.239 144.303L144.98 144.024L144.612 143.637L144.274 143.289L143.28 142.226C154.289 130.953 160.449 115.825 160.442 100.075V99.9056H161.864H162.063H162.918H163.634L172.922 99.6573L163.624 99.4089L163.426 99.3096Z" fill="#BFBFBF"/>
<path d="M80.2172 147.213C81.321 147.213 82.2159 148.107 82.2159 149.21C82.2159 150.313 81.321 151.207 80.2172 151.207C79.1134 151.207 78.2185 150.313 78.2185 149.21C78.2185 148.107 79.1134 147.213 80.2172 147.213Z" fill="#BFBFBF"/>
<path d="M52.6398 119.437C52.9149 119.716 53.1013 120.071 53.1756 120.455C53.2498 120.84 53.2087 121.238 53.0573 121.599C52.9059 121.96 52.651 122.269 52.3246 122.486C51.9982 122.703 51.6149 122.818 51.2229 122.818C50.8308 122.818 50.4475 122.703 50.1211 122.486C49.7948 122.269 49.5399 121.96 49.3884 121.599C49.237 121.238 49.1959 120.84 49.2701 120.455C49.3444 120.071 49.5308 119.716 49.8059 119.437C49.9909 119.25 50.2115 119.101 50.4548 118.999C50.698 118.897 50.9591 118.845 51.2229 118.845C51.4866 118.845 51.7477 118.897 51.9909 118.999C52.2342 119.101 52.4548 119.25 52.6398 119.437Z" fill="#BFBFBF"/>
<path d="M52.2842 78.4874C51.8946 78.4492 51.5251 78.2969 51.2217 78.0498C50.9184 77.8026 50.6949 77.4715 50.579 77.098C50.4632 76.7245 50.4603 76.3251 50.5707 75.9499C50.681 75.5747 50.8997 75.2404 51.1994 74.9889C51.4991 74.7373 51.8664 74.5797 52.2553 74.5358C52.6443 74.4919 53.0375 74.5636 53.3859 74.7419C53.7342 74.9203 54.0221 75.1974 54.2135 75.5385C54.4049 75.8796 54.4913 76.2696 54.4618 76.6595C54.4419 76.9235 54.3694 77.1808 54.2485 77.4164C54.1276 77.652 53.9609 77.861 53.758 78.0313C53.5552 78.2016 53.3203 78.3297 53.0672 78.408C52.8141 78.4863 52.5479 78.5133 52.2842 78.4874Z" fill="#BFBFBF"/>
<path d="M81.5327 51.0976C81.2821 50.7964 81.1263 50.4279 81.0847 50.0385C81.0431 49.649 81.1177 49.256 81.299 48.9087C81.4803 48.5615 81.7603 48.2755 82.1038 48.0867C82.4473 47.898 82.839 47.8149 83.2297 47.8479C83.6203 47.8809 83.9925 48.0285 84.2994 48.2721C84.6063 48.5158 84.8343 48.8446 84.9548 49.2174C85.0752 49.5901 85.0827 49.9901 84.9763 50.367C84.8699 50.744 84.6543 51.0811 84.3567 51.3361C84.1565 51.5076 83.9241 51.6376 83.6731 51.7185C83.4221 51.7995 83.1575 51.8297 82.8947 51.8075C82.6319 51.7854 82.3762 51.7112 82.1423 51.5893C81.9085 51.4674 81.7013 51.3003 81.5327 51.0976Z" fill="#BFBFBF"/>
<path d="M120.242 147.214C120.636 147.214 121.02 147.33 121.347 147.548C121.674 147.767 121.929 148.077 122.08 148.44C122.23 148.803 122.27 149.203 122.193 149.588C122.116 149.974 121.927 150.328 121.649 150.605C121.371 150.883 121.016 151.073 120.63 151.149C120.245 151.226 119.845 151.186 119.481 151.036C119.118 150.886 118.807 150.631 118.589 150.304C118.37 149.978 118.254 149.593 118.254 149.2C118.254 148.674 118.463 148.168 118.836 147.796C119.209 147.423 119.715 147.214 120.242 147.214Z" fill="#BFBFBF"/>
<path d="M150.654 119.437C150.929 119.716 151.115 120.071 151.189 120.455C151.264 120.84 151.222 121.238 151.071 121.599C150.92 121.96 150.665 122.269 150.338 122.486C150.012 122.703 149.629 122.818 149.237 122.818C148.845 122.818 148.461 122.703 148.135 122.486C147.809 122.269 147.554 121.96 147.402 121.599C147.251 121.238 147.21 120.84 147.284 120.455C147.358 120.071 147.545 119.716 147.82 119.437C148.005 119.25 148.225 119.101 148.469 118.999C148.712 118.897 148.973 118.845 149.237 118.845C149.5 118.845 149.761 118.897 150.005 118.999C150.248 119.101 150.469 119.25 150.654 119.437Z" fill="#BFBFBF"/>
<path d="M148.182 78.4878C147.791 78.5176 147.4 78.4312 147.058 78.2394C146.715 78.0476 146.438 77.7589 146.259 77.4098C146.081 77.0607 146.01 76.6666 146.055 76.2773C146.101 75.8879 146.26 75.5207 146.514 75.2217C146.768 74.9227 147.104 74.7054 147.481 74.5971C147.858 74.4888 148.259 74.4944 148.633 74.6131C149.007 74.7318 149.337 74.9583 149.583 75.2642C149.828 75.57 149.977 75.9416 150.012 76.332C150.035 76.5939 150.006 76.8578 149.926 77.1083C149.847 77.3589 149.718 77.5911 149.548 77.7917C149.378 77.9922 149.169 78.1569 148.935 78.2764C148.7 78.3959 148.445 78.4678 148.182 78.4878Z" fill="#BFBFBF"/>
<path d="M116.115 51.3361C115.818 51.0811 115.602 50.744 115.496 50.367C115.389 49.9901 115.397 49.5901 115.517 49.2174C115.638 48.8446 115.866 48.5158 116.173 48.2721C116.479 48.0285 116.852 47.8809 117.242 47.8479C117.633 47.8149 118.025 47.898 118.368 48.0867C118.712 48.2755 118.992 48.5615 119.173 48.9087C119.354 49.256 119.429 49.649 119.387 50.0385C119.346 50.4279 119.19 50.7964 118.939 51.0976C118.771 51.3003 118.563 51.4674 118.33 51.5893C118.096 51.7112 117.84 51.7854 117.577 51.8075C117.314 51.8297 117.05 51.7995 116.799 51.7185C116.548 51.6376 116.315 51.5076 116.115 51.3361Z" fill="#BFBFBF"/>
</svg>
