<svg width="71" height="29" viewBox="0 0 71 29" fill="none" xmlns="http://www.w3.org/2000/svg">
<path d="M69.8166 0.599976H3.54999C2.89685 0.599976 2.36671 1.13012 2.36671 1.78326V14.31L0.346679 16.3301C0.12425 16.5525 0 16.8531 0 17.1667V25.4499C0 26.1031 0.530142 26.6332 1.18328 26.6332H17.2245C18.0458 28.0414 19.5557 28.9999 21.3 28.9999C23.0442 28.9999 24.5542 28.0414 25.3754 26.6332H49.1757C49.9969 28.0414 51.5069 28.9999 53.2511 28.9999C55.0297 28.9999 56.5633 28.0023 57.3715 26.5492L70.0285 24.2476C70.5905 24.1448 71 23.6548 71 23.0832V1.78326C70.9999 1.13012 70.4697 0.599976 69.8166 0.599976ZM13.0167 20.1249C13.0167 20.4515 12.7517 20.7167 12.425 20.7167H7.6917C7.36513 20.7167 7.09999 20.4517 7.09999 20.1249V7.10825C7.09999 6.78168 7.36499 6.51654 7.6917 6.51654H12.425C12.7515 6.51654 13.0167 6.78154 13.0167 7.10825V20.1249ZM21.3 26.6332C19.9948 26.6332 18.9333 25.5718 18.9333 24.2665C18.9333 22.9612 19.9948 21.8999 21.3 21.8999C22.6051 21.8999 23.6667 22.9613 23.6667 24.2666C23.6667 25.572 22.6051 26.6332 21.3 26.6332ZM26.0332 11.8417C26.0332 12.1682 25.7682 12.4334 25.4415 12.4334H15.975C15.6484 12.4334 15.3833 12.1684 15.3833 11.8417V7.10839C15.3833 6.78182 15.6483 6.51668 15.975 6.51668H25.4417C25.7682 6.51668 26.0334 6.78168 26.0334 7.10839L26.0332 11.8417ZM40.2332 11.8417C40.2332 12.1682 39.9682 12.4334 39.6415 12.4334H28.9915C28.6649 12.4334 28.3998 12.1684 28.3998 11.8417V7.10839C28.3998 6.78182 28.6648 6.51668 28.9915 6.51668H39.6415C39.9681 6.51668 40.2332 6.78168 40.2332 7.10839V11.8417ZM43.1916 12.4332C42.8651 12.4332 42.5999 12.1682 42.5999 11.8415V7.10825C42.5999 6.78168 42.8649 6.51654 43.1916 6.51654H53.8416C54.1682 6.51654 54.4333 6.78154 54.4333 7.10825V11.8415C54.4333 12.1681 54.1683 12.4332 53.8416 12.4332H43.1916ZM53.2499 26.6332C51.9447 26.6332 50.8832 25.5718 50.8832 24.2665C50.8832 22.9612 51.9447 21.8999 53.2499 21.8999C54.5551 21.8999 55.6166 22.9613 55.6166 24.2666C55.6166 25.572 54.5551 26.6332 53.2499 26.6332ZM68.6332 11.8417C68.6332 12.1682 68.3682 12.4334 68.0414 12.4334H57.3915C57.0649 12.4334 56.7998 12.1684 56.7998 11.8417V7.10839C56.7998 6.78182 57.0648 6.51668 57.3915 6.51668H68.0414C68.368 6.51668 68.6332 6.78168 68.6332 7.10839V11.8417Z" fill="#898989"/>
</svg>
