<svg width="24" height="24" viewBox="0 0 24 24" fill="none" xmlns="http://www.w3.org/2000/svg">
<path d="M11.1062 3.62069C11.3531 3.62069 11.5899 3.71878 11.7645 3.89338C11.9391 4.06799 12.0372 4.3048 12.0372 4.55172C12.0372 4.79865 11.9391 5.03546 11.7645 5.21007C11.5899 5.38467 11.3531 5.48276 11.1062 5.48276C11.0239 5.48276 10.9449 5.51546 10.8867 5.57366C10.8285 5.63186 10.7958 5.7108 10.7958 5.7931C10.7958 5.87541 10.8285 5.95435 10.8867 6.01255C10.9449 6.07075 11.0239 6.10345 11.1062 6.10345C11.5177 6.10345 11.9124 5.93996 12.2034 5.64896C12.4944 5.35795 12.6579 4.96327 12.6579 4.55172C12.6579 4.14018 12.4944 3.74549 12.2034 3.45449C11.9124 3.16348 11.5177 3 11.1062 3C11.0239 3 10.9449 3.0327 10.8867 3.0909C10.8285 3.1491 10.7958 3.22804 10.7958 3.31034C10.7958 3.39265 10.8285 3.47159 10.8867 3.52979C10.9449 3.58799 11.0239 3.62069 11.1062 3.62069Z" fill="#898989"/>
<path d="M12.8907 3.62069C13.1376 3.62069 13.3744 3.71878 13.549 3.89338C13.7236 4.06799 13.8217 4.3048 13.8217 4.55172C13.8217 4.79865 13.7236 5.03546 13.549 5.21007C13.3744 5.38467 13.1376 5.48276 12.8907 5.48276C12.8084 5.48276 12.7294 5.51546 12.6712 5.57366C12.613 5.63186 12.5803 5.7108 12.5803 5.7931C12.5803 5.87541 12.613 5.95435 12.6712 6.01255C12.7294 6.07075 12.8084 6.10345 12.8907 6.10345C13.3022 6.10345 13.6969 5.93996 13.9879 5.64896C14.2789 5.35795 14.4424 4.96327 14.4424 4.55172C14.4424 4.14018 14.2789 3.74549 13.9879 3.45449C13.6969 3.16348 13.3022 3 12.8907 3C12.8084 3 12.7294 3.0327 12.6712 3.0909C12.613 3.1491 12.5803 3.22804 12.5803 3.31034C12.5803 3.39265 12.613 3.47159 12.6712 3.52979C12.7294 3.58799 12.8084 3.62069 12.8907 3.62069Z" fill="#898989"/>
<path d="M11.6897 8.16107H7.96552V11.7207H11.6897V8.16107Z" fill="#898989"/>
<path d="M3 16.5031V20.3855C3 20.4678 3.0327 20.5468 3.0909 20.605C3.1491 20.6632 3.22804 20.6959 3.31034 20.6959H7.34483V16.5031H3ZM20.6897 4.25069H16.2052C16.1333 3.89862 15.9415 3.58241 15.6625 3.35601C15.3834 3.12962 15.0345 3.00708 14.6752 3.00931C14.5929 3.00931 14.5139 3.042 14.4557 3.10021C14.3975 3.15841 14.3648 3.23734 14.3648 3.31965C14.3648 3.40196 14.3975 3.4809 14.4557 3.5391C14.5139 3.5973 14.5929 3.63 14.6752 3.63C14.9221 3.63 15.1589 3.72809 15.3335 3.90269C15.5081 4.07729 15.6062 4.31411 15.6062 4.56103C15.6062 4.80796 15.5081 5.04477 15.3335 5.21937C15.1589 5.39397 14.9221 5.49207 14.6752 5.49207C14.5929 5.49207 14.5139 5.52476 14.4557 5.58296C14.3975 5.64116 14.3648 5.7201 14.3648 5.80241C14.3648 5.88472 14.3975 5.96366 14.4557 6.02186C14.5139 6.08006 14.5929 6.11276 14.6752 6.11276C15.0345 6.11498 15.3834 5.99244 15.6625 5.76605C15.9415 5.53965 16.1333 5.22344 16.2052 4.87138H20.3793V7.54034H21V4.56103C21 4.47872 20.9673 4.39979 20.9091 4.34158C20.8509 4.28338 20.772 4.25069 20.6897 4.25069Z" fill="#898989"/>
<path d="M7.34483 12.3414H3V15.8979H7.34483V12.3414Z" fill="#898989"/>
<path d="M3.62069 4.87134H9.23793C9.32024 4.87134 9.39918 4.83865 9.45738 4.78044C9.51558 4.72224 9.54828 4.64331 9.54828 4.561C9.54828 4.47869 9.51558 4.39975 9.45738 4.34155C9.39918 4.28335 9.32024 4.25065 9.23793 4.25065H8.35966C8.41654 4.08975 8.51657 3.94757 8.64879 3.83967C8.78102 3.73176 8.94036 3.66228 9.10941 3.63881C9.27846 3.61534 9.4507 3.63879 9.60732 3.70659C9.76395 3.77439 9.89892 3.88394 9.99749 4.02327C10.0961 4.16259 10.1544 4.32633 10.1662 4.49659C10.1781 4.66684 10.1428 4.83707 10.0644 4.98867C9.98604 5.14027 9.86748 5.2674 9.72172 5.35617C9.57596 5.44494 9.4086 5.49194 9.23793 5.49203C9.15562 5.49203 9.07668 5.52473 9.01848 5.58293C8.96028 5.64113 8.92759 5.72007 8.92759 5.80238C8.92759 5.88469 8.96028 5.96362 9.01848 6.02182C9.07668 6.08002 9.15562 6.11272 9.23793 6.11272C9.53139 6.11207 9.81866 6.02822 10.0664 5.8709C10.3141 5.71357 10.5122 5.48922 10.6375 5.22389C10.7629 4.95855 10.8104 4.6631 10.7747 4.37183C10.7389 4.08055 10.6212 3.80539 10.4354 3.57828C10.2495 3.35117 10.0031 3.18142 9.72465 3.08872C9.44621 2.99603 9.1472 2.98419 8.8623 3.05458C8.57741 3.12497 8.31831 3.27471 8.11508 3.48642C7.91186 3.69812 7.77283 3.96312 7.71414 4.25065H3.31034C3.22804 4.25065 3.1491 4.28335 3.0909 4.34155C3.0327 4.39975 3 4.47869 3 4.561V7.54031H3.62069V4.87134Z" fill="#898989"/>
<path d="M11.6897 12.3414H7.96552V15.8979H11.6897V12.3414Z" fill="#898989"/>
<path d="M7.34483 8.16107H3V11.7207H7.34483V8.16107Z" fill="#898989"/>
<path d="M11.6897 16.5186H7.96552V20.6959H11.6897V16.5186Z" fill="#898989"/>
<path d="M21 12.3414H16.6552V15.8979H21V12.3414Z" fill="#898989"/>
<path d="M21 8.16107H16.6552V11.7207H21V8.16107Z" fill="#898989"/>
<path d="M16.0345 8.16107H12.3104V11.7207H16.0345V8.16107Z" fill="#898989"/>
<path d="M16.6552 20.6958H20.6896C20.7719 20.6958 20.8509 20.6631 20.9091 20.6049C20.9673 20.5467 21 20.4678 21 20.3855V16.5031H16.6552V20.6958Z" fill="#898989"/>
<path d="M16.0345 16.5186H12.3104V20.6959H16.0345V16.5186Z" fill="#898989"/>
<path d="M12.3104 15.8824H16.0345V12.3414H12.3104V15.8824ZM13.1079 13.4803C13.0789 13.4515 13.0558 13.4172 13.04 13.3793C13.0243 13.3415 13.0162 13.301 13.0162 13.26C13.0162 13.219 13.0243 13.1785 13.04 13.1406C13.0558 13.1028 13.0789 13.0685 13.1079 13.0396C13.1661 12.9818 13.2448 12.9494 13.3267 12.9494C13.4087 12.9494 13.4874 12.9818 13.5455 13.0396L14.1662 13.6603L14.7869 13.0396C14.8451 12.9818 14.9237 12.9494 15.0057 12.9494C15.0877 12.9494 15.1664 12.9818 15.2245 13.0396C15.2536 13.0685 15.2767 13.1028 15.2924 13.1406C15.3082 13.1785 15.3163 13.219 15.3163 13.26C15.3163 13.301 15.3082 13.3415 15.2924 13.3793C15.2767 13.4172 15.2536 13.4515 15.2245 13.4803L14.6038 14.101L15.2245 14.7217C15.2681 14.7649 15.2979 14.8201 15.3101 14.8803C15.3223 14.9404 15.3164 15.0028 15.2932 15.0596C15.2699 15.1164 15.2303 15.1651 15.1795 15.1994C15.1286 15.2337 15.0686 15.2521 15.0073 15.2524C14.9664 15.2526 14.9259 15.2448 14.8881 15.2294C14.8503 15.2139 14.8159 15.1912 14.7869 15.1624L14.1662 14.5417L13.5455 15.1624C13.4877 15.2197 13.4097 15.2521 13.3283 15.2524C13.2875 15.2526 13.247 15.2448 13.2092 15.2294C13.1713 15.2139 13.1369 15.1912 13.1079 15.1624C13.0789 15.1336 13.0558 15.0992 13.04 15.0614C13.0243 15.0236 13.0162 14.983 13.0162 14.9421C13.0162 14.9011 13.0243 14.8605 13.04 14.8227C13.0558 14.7849 13.0789 14.7506 13.1079 14.7217L13.7286 14.101L13.1079 13.4803Z" fill="#898989"/>
</svg>
