<svg width="24" height="24" viewBox="0 0 24 24" fill="none" xmlns="http://www.w3.org/2000/svg">
<path d="M16.3596 16.1207C16.1927 15.9531 15.9289 15.9329 15.7371 16.0709L13.651 17.5728C11.2857 17.1859 9.53475 15.8845 8.85577 15.2048C8.17746 14.5265 6.81344 12.713 6.42651 10.3476L7.92915 8.26157C8.0671 8.07046 8.04557 7.80667 7.87868 7.63911L5.57593 5.33771C5.41914 5.17957 5.17419 5.15063 4.9851 5.26638L2.30417 6.90024C2.19515 6.96619 2.11642 7.07318 2.08681 7.19767C2.04442 7.37196 1.10838 11.5313 6.54292 17.4302C6.54696 17.4349 6.55167 17.4396 6.55638 17.4443C6.56109 17.4483 6.5658 17.4537 6.57051 17.4578C12.4687 22.893 16.6294 21.9569 16.803 21.9145C16.9275 21.8843 17.0338 21.8062 17.1004 21.6965L18.7343 19.0163C18.8501 18.8265 18.8198 18.5815 18.6637 18.4248L16.3596 16.1207Z" fill="#BFBFBF"/>
<path d="M17.4753 13.7506H18.4389C18.4382 9.23597 14.7654 5.56247 10.2494 5.5618V6.52475C14.2338 6.52543 17.4746 9.76623 17.4753 13.7506Z" fill="#BFBFBF"/>
<path d="M10.3752 2V2.96296C16.2526 2.96363 21.0357 7.74544 21.0364 13.6241H22C21.9994 7.21517 16.7849 2 10.3752 2Z" fill="#BFBFBF"/>
</svg>
