<svg width="24" height="24" viewBox="0 0 24 24" fill="none" xmlns="http://www.w3.org/2000/svg">
<path d="M19.65 7.25H19.425V5.225C19.425 5.16533 19.4013 5.1081 19.3591 5.0659C19.3169 5.02371 19.2597 5 19.2 5H15.375C15.3153 5 15.2581 5.02371 15.2159 5.0659C15.1737 5.1081 15.15 5.16533 15.15 5.225V7.25H7.05V6.35C7.05 6.29033 7.0263 6.2331 6.9841 6.1909C6.9419 6.14871 6.88467 6.125 6.825 6.125H4.8C4.74033 6.125 4.6831 6.14871 4.6409 6.1909C4.59871 6.2331 4.575 6.29033 4.575 6.35V7.25H4.35C3.99208 7.25041 3.64894 7.39277 3.39585 7.64585C3.14277 7.89894 3.0004 8.24208 3 8.6V17.15C3.0004 17.5079 3.14277 17.8511 3.39585 18.1041C3.64894 18.3572 3.99208 18.4996 4.35 18.5H19.65C20.0079 18.4996 20.3511 18.3572 20.6041 18.1041C20.8572 17.8511 20.9996 17.5079 21 17.15V8.6C20.9996 8.24208 20.8572 7.89894 20.6041 7.64585C20.3511 7.39277 20.0079 7.25041 19.65 7.25ZM15.6 5.45H18.975V7.25H15.6V5.45ZM12 16.7C9.8909 16.7 8.175 14.9841 8.175 12.875C8.175 10.7659 9.8909 9.05 12 9.05C14.1091 9.05 15.825 10.7659 15.825 12.875C15.825 14.9841 14.1091 16.7 12 16.7ZM5.025 6.575H6.6V7.25H5.025V6.575ZM6.375 16.25C6.37486 16.3693 6.32741 16.4837 6.24305 16.568C6.15869 16.6524 6.04431 16.6999 5.925 16.7H3.45V9.05H5.925C6.04431 9.05014 6.15869 9.09759 6.24305 9.18195C6.32741 9.26632 6.37486 9.38069 6.375 9.5V16.25ZM12 9.95C11.4215 9.95 10.856 10.1215 10.375 10.443C9.89394 10.7644 9.51904 11.2212 9.29765 11.7557C9.07627 12.2901 9.01834 12.8782 9.1312 13.4456C9.24407 14.013 9.52264 14.5342 9.93171 14.9433C10.3408 15.3524 10.862 15.6309 11.4294 15.7438C11.9968 15.8567 12.5849 15.7987 13.1193 15.5773C13.6538 15.356 14.1106 14.9811 14.432 14.5C14.7535 14.019 14.925 13.4535 14.925 12.875C14.9241 12.0995 14.6157 11.356 14.0673 10.8077C13.519 10.2593 12.7755 9.95088 12 9.95ZM12 15.35C11.5105 15.35 11.032 15.2048 10.625 14.9329C10.218 14.6609 9.90073 14.2744 9.7134 13.8221C9.52607 13.3699 9.47706 12.8723 9.57256 12.3922C9.66806 11.912 9.90378 11.471 10.2499 11.1249C10.596 10.7788 11.037 10.5431 11.5172 10.4476C11.9973 10.3521 12.4949 10.4011 12.9471 10.5884C13.3994 10.7757 13.7859 11.093 14.0579 11.5C14.3298 11.907 14.475 12.3855 14.475 12.875C14.4743 13.5312 14.2133 14.1603 13.7493 14.6243C13.2853 15.0883 12.6562 15.3493 12 15.35ZM12.225 11.075C12.225 11.1347 12.2013 11.1919 12.1591 11.2341C12.1169 11.2763 12.0597 11.3 12 11.3C11.5824 11.3005 11.1821 11.4666 10.8868 11.7618C10.5916 12.0571 10.4255 12.4574 10.425 12.875C10.425 12.9347 10.4013 12.9919 10.3591 13.0341C10.3169 13.0763 10.2597 13.1 10.2 13.1C10.1403 13.1 10.0831 13.0763 10.0409 13.0341C9.99871 12.9919 9.975 12.9347 9.975 12.875C9.9756 12.3381 10.1891 11.8234 10.5688 11.4438C10.9484 11.0641 11.4631 10.8506 12 10.85C12.0597 10.85 12.1169 10.8737 12.1591 10.9159C12.2013 10.9581 12.225 11.0153 12.225 11.075ZM17.625 6.125C17.625 6.18467 17.6013 6.2419 17.5591 6.2841C17.5169 6.32629 17.4597 6.35 17.4 6.35H16.275C16.2153 6.35 16.1581 6.32629 16.1159 6.2841C16.0737 6.2419 16.05 6.18467 16.05 6.125C16.05 6.06533 16.0737 6.0081 16.1159 5.9659C16.1581 5.92371 16.2153 5.9 16.275 5.9H17.4C17.4597 5.9 17.5169 5.92371 17.5591 5.9659C17.6013 6.0081 17.625 6.06533 17.625 6.125ZM18.525 6.125C18.525 6.1695 18.5118 6.213 18.4871 6.25C18.4624 6.287 18.4272 6.31584 18.3861 6.33287C18.345 6.3499 18.2998 6.35436 18.2561 6.34568C18.2125 6.33699 18.1724 6.31557 18.1409 6.2841C18.1094 6.25263 18.088 6.21254 18.0793 6.1689C18.0706 6.12525 18.0751 6.08001 18.0921 6.0389C18.1092 5.99778 18.138 5.96264 18.175 5.93792C18.212 5.9132 18.2555 5.9 18.3 5.9C18.3597 5.9 18.4169 5.92371 18.4591 5.9659C18.5013 6.0081 18.525 6.06533 18.525 6.125Z" fill="#898989"/>
</svg>
