<svg width="24" height="24" viewBox="0 0 24 24" fill="none" xmlns="http://www.w3.org/2000/svg">
<path d="M12.0041 4.9929C10.6191 4.9929 9.26514 5.40362 8.11352 6.17311C6.9619 6.94259 6.06432 8.0363 5.53429 9.31591C5.00425 10.5955 4.86557 12.0036 5.13578 13.362C5.40599 14.7204 6.07295 15.9682 7.05232 16.9476C8.0317 17.927 9.27949 18.5939 10.6379 18.8641C11.9964 19.1343 13.4044 18.9957 14.684 18.4656C15.9636 17.9356 17.0573 17.038 17.8268 15.8864C18.5963 14.7348 19.007 13.3808 19.007 11.9958C19.0049 10.1392 18.2664 8.35918 16.9536 7.04635C15.6407 5.73351 13.8608 4.99502 12.0041 4.9929ZM10.0033 15.664C10.0033 15.7524 9.96816 15.8372 9.90562 15.8998C9.84308 15.9623 9.75826 15.9975 9.66982 15.9975H7.66899C7.58055 15.9975 7.49573 15.9623 7.43319 15.8998C7.37066 15.8372 7.33552 15.7524 7.33552 15.664V10.6619C7.33552 10.5735 7.37066 10.4887 7.43319 10.4261C7.49573 10.3636 7.58055 10.3284 7.66899 10.3284H9.66982C9.75826 10.3284 9.84308 10.3636 9.90562 10.4261C9.96816 10.4887 10.0033 10.5735 10.0033 10.6619V15.664ZM13.338 15.664C13.338 15.7524 13.3029 15.8372 13.2403 15.8998C13.1778 15.9623 13.093 15.9975 13.0045 15.9975H11.0037C10.9153 15.9975 10.8304 15.9623 10.7679 15.8998C10.7054 15.8372 10.6702 15.7524 10.6702 15.664V7.99415C10.6702 7.9057 10.7054 7.82088 10.7679 7.75835C10.8304 7.69581 10.9153 7.66067 11.0037 7.66067H13.0045C13.093 7.66067 13.1778 7.69581 13.2403 7.75835C13.3029 7.82088 13.338 7.9057 13.338 7.99415V15.664ZM16.6727 15.664C16.6727 15.7524 16.6376 15.8372 16.575 15.8998C16.5125 15.9623 16.4277 15.9975 16.3392 15.9975H14.3384C14.25 15.9975 14.1652 15.9623 14.1026 15.8998C14.0401 15.8372 14.0049 15.7524 14.0049 15.664V9.32803C14.0049 9.23959 14.0401 9.15477 14.1026 9.09223C14.1652 9.02969 14.25 8.99456 14.3384 8.99456H16.3392C16.4277 8.99456 16.5125 9.02969 16.575 9.09223C16.6376 9.15477 16.6727 9.23959 16.6727 9.32803V15.664Z" fill="#BFBFBF"/>
<path d="M19.6656 12.3293C19.5884 14.1313 18.8762 15.8479 17.6551 17.1753L19.3071 18.8283C20.965 17.0614 21.9223 14.751 21.9999 12.3293H19.6656Z" fill="#BFBFBF"/>
<path d="M17.1835 17.6468C16.398 18.3688 15.4703 18.9187 14.4598 19.2612C13.4493 19.6037 12.3783 19.7312 11.3157 19.6355C10.253 19.5399 9.22209 19.2232 8.28898 18.7058C7.35588 18.1884 6.54121 17.4817 5.89721 16.631L3.97308 17.9629C4.81332 19.094 5.88309 20.0348 7.1123 20.7236C8.34151 21.4124 9.70241 21.8337 11.1058 21.9598C12.5092 22.086 13.9234 21.9141 15.2557 21.4555C16.5881 20.9969 17.8084 20.262 18.8369 19.2988L17.1835 17.6468Z" fill="#BFBFBF"/>
<path d="M12.3376 4.3343C14.2535 4.42 16.0681 5.21957 17.4242 6.57571C18.7803 7.93185 19.5799 9.74638 19.6656 11.6623H21.9999C21.9155 9.12656 20.8703 6.71768 19.0763 4.92362C17.2822 3.12957 14.8734 2.08446 12.3376 2V4.3343Z" fill="#BFBFBF"/>
<path d="M5.51742 16.0808C4.80043 14.9451 4.39454 13.6409 4.34044 12.2989C4.28633 10.9569 4.5859 9.6242 5.20913 8.43445C5.83236 7.2447 6.75736 6.23965 7.89141 5.52003C9.02547 4.80042 10.3287 4.39151 11.6706 4.3343V2C9.90264 2.05816 8.18172 2.58429 6.68346 3.5247C5.1852 4.46511 3.96322 5.78615 3.1422 7.35302C2.32118 8.9199 1.93052 10.6765 2.01005 12.4437C2.08959 14.2108 2.63649 15.9253 3.59495 17.412L5.51742 16.0808Z" fill="#BFBFBF"/>
</svg>
