<svg width="24" height="24" viewBox="0 0 24 24" fill="none" xmlns="http://www.w3.org/2000/svg">
<path d="M10.8773 2C13.321 2 15.5403 2.8977 17.1611 4.34399C17.6599 4.79284 18.0838 5.29156 18.4578 5.84016C19.555 6.51343 20.4527 7.43607 21.0512 8.48339C21.6746 9.5307 22.0237 10.7027 21.9987 11.9495C21.9987 13.0716 21.7245 14.1189 21.2507 15.0665C20.7519 16.0141 20.0537 16.837 19.2059 17.5103L19.2308 21.5998L15.5154 19.2059C15.266 19.2558 14.9917 19.3057 14.7174 19.3306C14.4182 19.3555 14.1189 19.3555 13.8197 19.3805C12.8971 19.3805 12.0243 19.2308 11.2014 18.9815C10.4035 18.7321 9.65538 18.383 8.98211 17.9342L5.01727 20.4776L5.0422 16.064C4.11957 15.3408 3.34655 14.4182 2.82289 13.3958C2.29923 12.3734 2 11.2264 2 10.0294C2 7.81011 2.99744 5.81522 4.61829 4.34399C6.2142 2.8977 8.43351 2 10.8773 2ZM14.6426 9.90474C14.6426 10.179 14.7673 10.4533 14.9418 10.6279C15.1413 10.8024 15.3907 10.9271 15.665 10.9271C15.9642 10.9271 16.2136 10.8024 16.4131 10.6279C16.5876 10.4533 16.7123 10.179 16.7123 9.90474C16.7123 9.60551 16.5876 9.35615 16.4131 9.15666C16.2136 8.98211 15.9642 8.85743 15.665 8.85743C15.3907 8.85743 15.1413 8.98211 14.9418 9.15666C14.7673 9.35615 14.6426 9.60551 14.6426 9.90474ZM10.1541 9.15666C9.97955 9.35615 9.85487 9.60551 9.85487 9.90474C9.85487 10.179 9.97955 10.4533 10.1541 10.6279C10.3536 10.8024 10.603 10.9271 10.8773 10.9271C11.1765 10.9271 11.4258 10.8024 11.6253 10.6279C11.7999 10.4533 11.9246 10.179 11.9246 9.90474C11.9246 9.60551 11.7999 9.35615 11.6253 9.15666C11.4258 8.98211 11.1765 8.85743 10.8773 8.85743C10.603 8.85743 10.3536 8.98211 10.1541 9.15666ZM7.13684 9.90474C7.13684 9.60551 7.01216 9.35615 6.81267 9.15666C6.63811 8.98211 6.38875 8.85743 6.08952 8.85743C5.81522 8.85743 5.54093 8.98211 5.36637 9.15666C5.16688 9.35615 5.06714 9.60551 5.06714 9.90474C5.06714 10.179 5.16688 10.4533 5.36637 10.6279C5.54093 10.8024 5.81522 10.9271 6.08952 10.9271C6.38875 10.9271 6.63811 10.8024 6.81267 10.6279C7.01216 10.4533 7.13684 10.179 7.13684 9.90474ZM19.0314 6.86254C19.5051 7.83505 19.7545 8.9073 19.7545 10.0544C19.7545 12.2737 18.7571 14.2686 17.1362 15.7398C15.5403 17.1861 13.321 18.0588 10.9022 18.0588H10.8773C10.6279 18.0588 10.3785 18.0588 10.1292 18.0339C10.5032 18.2334 10.9271 18.383 11.3261 18.5326C12.1241 18.7571 12.9469 18.8817 13.8197 18.8817C14.094 18.8817 14.3932 18.8817 14.6675 18.8568C14.9668 18.8069 15.2411 18.782 15.5154 18.7072H15.6151L18.7571 20.727L18.7321 17.2858L18.8319 17.211C19.6548 16.5627 20.353 15.7647 20.8268 14.8421C21.2756 13.9693 21.525 12.9719 21.525 11.9495C21.525 10.8024 21.2257 9.68032 20.6522 8.73275C20.2283 8.03454 19.6797 7.3862 19.0314 6.86254Z" fill="#BFBFBF"/>
</svg>
