<svg width="24" height="24" viewBox="0 0 24 24" fill="none" xmlns="http://www.w3.org/2000/svg">
<path fill-rule="evenodd" clip-rule="evenodd" d="M21.9967 14.2328C20.2126 16.0169 15.009 16.2399 11.9612 15.9426H7.20359C7.4266 16.4629 8.09564 16.909 9.21069 17.2806C12.1842 18.247 17.0161 18.247 19.9152 17.2806C21.2533 16.8346 21.9967 16.2399 21.9967 15.6452V14.2328ZM6.6089 9.84694C9.58238 10.8133 14.4143 10.8133 17.3878 9.84694C20.1382 8.9549 20.1382 7.61683 17.3878 6.72479C14.4143 5.7584 9.58238 5.7584 6.6089 6.72479C5.34517 7.17081 4.6018 7.69117 4.6018 8.28586C4.6018 8.88056 5.34517 9.40092 6.6089 9.84694ZM4.6018 10.739C4.6018 12.3001 9.65672 13.0434 11.2921 13.0434C13.5222 13.1178 15.7524 12.8204 17.3878 12.3001C18.6515 11.854 19.4692 11.3337 19.4692 10.739V9.32658C17.9825 10.6646 14.4143 11.1107 12.0355 11.1107C9.65672 11.1107 6.0142 10.6646 4.6018 9.32658V10.739ZM7.12926 12.9691C5.71685 12.5974 4.08144 11.854 4.08144 10.739V9.25225C1.70265 9.99562 0.959281 11.3337 4.08144 12.3744C4.89914 12.6717 6.0142 12.8948 7.12926 12.9691ZM4.08144 14.8275C7.05492 15.7939 11.8868 15.7939 14.786 14.8275C16.124 14.3815 16.8674 13.7868 16.8674 13.2664V12.9691C15.5293 13.3408 13.8196 13.5638 12.0355 13.5638H10.4001C7.79829 13.7125 3.56108 13.3408 2 11.854V13.2664C2 13.7868 2.81771 14.3815 4.08144 14.8275ZM14.1169 15.5709C16.2727 15.5709 18.4285 15.3479 19.9152 14.8275C23.2604 13.7125 22.1453 12.3001 19.6179 11.5567C19.1719 12.0771 18.4285 12.5231 17.3878 12.8204V13.2664C17.3878 14.4558 15.6037 15.1992 14.1169 15.5709Z" fill="#BFBFBF"/>
</svg>
