<svg width="44" height="44" viewBox="0 0 44 44" fill="none" xmlns="http://www.w3.org/2000/svg">
<path d="M22 20.8272L42.4179 10.0092C42.0925 9.70588 41.7023 9.46328 41.2256 9.22059L25.9449 1.09198C24.6011 0.38418 23.3005 0 22 0C20.6995 0 19.399 0.38418 18.0552 1.09198L2.77439 9.22059C2.29757 9.46328 1.90739 9.70588 1.58224 10.0092L22 20.8272ZM20.5261 44V23.2537L0.173399 12.4154C0.0650132 12.8603 0 13.3456 0 13.9522V29.7041C0 32.636 1.10541 33.728 3.12119 34.7997L20.0926 43.818C20.2444 43.8989 20.3744 43.9596 20.5261 44ZM23.4739 44C23.6257 43.9596 23.7557 43.8989 23.9075 43.818L40.8789 34.7997C42.8947 33.728 44 32.636 44 29.7041V13.9522C44 13.3456 43.9352 12.8603 43.8269 12.4154L23.4739 23.2537V44Z" fill="#898989"/>
</svg>
