<svg width="200" height="200" viewBox="0 0 200 200" fill="none" xmlns="http://www.w3.org/2000/svg">
<path d="M93 5H108V18L100.5 19.5L93 18V5Z" fill="#CAA95F"/>
<path d="M108.309 4.49431C100.491 1.89417 100.828 1.97302 100.687 2.01089C100.679 2.01089 100.671 2.01089 100.663 2.01089L93.2123 4.49431C93.1505 4.51489 93.0968 4.55438 93.0587 4.60719C93.0206 4.66001 93 4.72347 93 4.78859V18.4474C93 18.5209 93.0261 18.592 93.0737 18.648C93.1212 18.7041 93.187 18.7414 93.2595 18.7535L100.71 19.9952C100.825 20.0138 100.466 20.0411 108.262 18.7535C108.334 18.7414 108.4 18.7041 108.448 18.648C108.495 18.592 108.521 18.5209 108.521 18.4474V4.78859C108.521 4.72347 108.501 4.66001 108.463 4.60719C108.425 4.55438 108.371 4.51489 108.309 4.49431ZM107.901 9.32456L101.071 7.0485V5.21947L107.901 7.49552V9.32456ZM93.6209 7.49552L100.45 5.21947V7.0485L93.6209 9.32456V7.49552ZM96.1043 18.5983V15.0327H97.9668L97.9879 18.9124L96.1043 18.5983Z" fill="#2A2A2A"/>
</svg>
