<svg width="200" height="200" viewBox="0 0 200 200" fill="none" xmlns="http://www.w3.org/2000/svg">
<path d="M156.229 100.145C156.251 100.138 156.271 100.134 156.289 100.116C156.293 100.112 156.296 100.105 156.3 100.098C156.314 100.087 156.314 100.072 156.322 100.056C156.329 100.041 156.343 100.031 156.347 100.014C156.347 100.011 156.343 100.007 156.343 99.9998C156.343 99.9962 156.35 99.9925 156.35 99.9853C156.35 99.9817 156.343 99.9781 156.343 99.9708C156.343 99.9672 156.347 99.9599 156.347 99.9563C156.343 99.9418 156.329 99.9345 156.325 99.92C156.318 99.9019 156.314 99.8838 156.3 99.8711C156.296 99.8639 156.289 99.8566 156.282 99.8494C156.264 99.8349 156.245 99.8312 156.229 99.824C156.215 99.8204 156.211 99.8059 156.196 99.8059L114.115 92.917L126.122 74.117C126.129 74.1062 126.125 74.0953 126.129 74.0844C126.136 74.0663 126.143 74.0518 126.143 74.0391C126.147 74.0246 126.147 74.0137 126.143 74.001C126.143 73.9829 126.136 73.9684 126.129 73.9557C126.125 73.9449 126.129 73.9304 126.122 73.9231C126.118 73.9159 126.111 73.9159 126.107 73.9086C126.1 73.905 126.104 73.8941 126.096 73.8905C126.093 73.8832 126.082 73.8869 126.078 73.8832C126.071 73.876 126.071 73.8687 126.067 73.8651C126.056 73.8579 126.046 73.8651 126.035 73.8579C126.017 73.8506 126.002 73.847 125.986 73.8434C125.975 73.8434 125.964 73.8434 125.949 73.8434C125.931 73.847 125.917 73.8506 125.901 73.8579C125.893 73.8651 125.879 73.8579 125.872 73.8651L107.068 85.8758L100.179 43.7903C100.175 43.7758 100.161 43.7685 100.155 43.754C100.148 43.7359 100.145 43.7178 100.132 43.7051C100.126 43.6979 100.121 43.6942 100.114 43.687C100.097 43.6725 100.079 43.6689 100.061 43.6616C100.047 43.6544 100.041 43.6435 100.027 43.6399C100.021 43.6399 100.018 43.6435 100.011 43.6435C100.007 43.6435 100.003 43.6362 99.996 43.6362C99.9906 43.6362 99.9888 43.6435 99.9815 43.6435C99.9761 43.6435 99.9724 43.6399 99.967 43.6399C99.9525 43.6435 99.9453 43.6544 99.9326 43.6616C99.9126 43.6689 99.8945 43.6725 99.88 43.687C99.8728 43.6942 99.8673 43.6979 99.8619 43.7051C99.8492 43.7196 99.8456 43.7377 99.8383 43.754C99.8329 43.7685 99.8184 43.7758 99.8166 43.7903L92.9277 85.8722L74.1241 73.8651C74.1151 73.8579 74.1024 73.8651 74.0915 73.8579C74.0752 73.8506 74.0625 73.847 74.0462 73.8434C74.0317 73.8434 74.0208 73.8434 74.0081 73.8434C73.99 73.847 73.9773 73.8506 73.961 73.8579C73.9501 73.8651 73.9392 73.8579 73.9284 73.8651C73.9229 73.8687 73.9229 73.876 73.9175 73.8832C73.9121 73.8869 73.903 73.8832 73.8976 73.8905C73.8921 73.8941 73.8939 73.905 73.8885 73.9086C73.8849 73.9159 73.8776 73.9159 73.8722 73.9231C73.8668 73.9304 73.8704 73.9449 73.8667 73.9557C73.8595 73.9702 73.8523 73.9847 73.8523 74.001C73.8486 74.0155 73.8486 74.0264 73.8523 74.0391C73.8523 74.0536 73.8595 74.0681 73.8667 74.0844C73.8704 74.0953 73.8668 74.1062 73.8722 74.117L85.8793 92.9206L43.7974 99.8095C43.7847 99.8095 43.7774 99.824 43.7647 99.8276C43.7448 99.8349 43.7267 99.8385 43.7104 99.853C43.7031 99.8602 43.6977 99.8675 43.6922 99.8747C43.6796 99.8892 43.6759 99.9074 43.6687 99.9237C43.6632 99.9346 43.6487 99.9454 43.6451 99.9599C43.6451 99.9636 43.6506 99.9708 43.6487 99.9744C43.6487 99.9817 43.6433 99.9853 43.6433 99.9889C43.6433 99.9962 43.6487 99.9998 43.6487 100.003C43.6506 100.011 43.6451 100.014 43.6451 100.018C43.6487 100.036 43.6632 100.047 43.6705 100.06C43.6777 100.078 43.6796 100.092 43.6922 100.101C43.6959 100.109 43.6995 100.116 43.7049 100.119C43.7212 100.138 43.743 100.141 43.7647 100.148C43.7774 100.152 43.7847 100.167 43.7974 100.17L85.8811 107.055L73.8722 125.859C73.8668 125.87 73.8704 125.881 73.8667 125.892C73.8595 125.91 73.8523 125.921 73.8523 125.937C73.8504 125.951 73.8504 125.962 73.8523 125.975C73.8523 125.993 73.8595 126.008 73.8667 126.02C73.8704 126.031 73.8668 126.042 73.8722 126.053C73.8758 126.06 73.8849 126.057 73.8885 126.06C73.8921 126.067 73.8921 126.078 73.8976 126.086C73.903 126.089 73.9102 126.089 73.9175 126.093C73.9229 126.096 73.9229 126.107 73.9284 126.111C73.961 126.129 73.9918 126.14 74.0281 126.14C74.0607 126.14 74.0951 126.129 74.1241 126.111L92.9277 114.104L99.8166 156.186C99.8184 156.204 99.8329 156.211 99.8401 156.227C99.8474 156.242 99.8492 156.256 99.8619 156.269C99.8673 156.273 99.8691 156.28 99.8746 156.287C99.8927 156.302 99.9126 156.305 99.9344 156.316C99.9471 156.32 99.9525 156.334 99.967 156.334C99.9761 156.338 99.9869 156.338 99.996 156.338H99.9978C100.007 156.338 100.018 156.338 100.027 156.334C100.039 156.334 100.047 156.32 100.059 156.316C100.081 156.305 100.103 156.302 100.119 156.287C100.125 156.28 100.128 156.276 100.132 156.269C100.145 156.255 100.146 156.24 100.154 156.224C100.161 156.209 100.175 156.202 100.179 156.186L107.068 114.104L125.872 126.111C125.901 126.129 125.935 126.14 125.968 126.14C126.004 126.14 126.035 126.129 126.067 126.111C126.071 126.107 126.071 126.096 126.078 126.093C126.085 126.089 126.093 126.089 126.096 126.086C126.104 126.078 126.104 126.067 126.107 126.06C126.111 126.057 126.118 126.06 126.122 126.053C126.129 126.042 126.125 126.031 126.129 126.02C126.136 126.006 126.143 125.991 126.143 125.975C126.143 125.96 126.143 125.95 126.143 125.937C126.143 125.919 126.136 125.908 126.129 125.892C126.125 125.881 126.129 125.87 126.122 125.859L114.111 107.055L156.196 100.17C156.211 100.163 156.215 100.148 156.229 100.145ZM107.708 92.0216L100.183 99.5467V46.0485L107.708 92.0216ZM86.1928 93.2359L92.0414 92.2808L99.5665 99.8059H46.0665L86.1928 93.2359ZM92.297 107.947L99.8202 100.426V153.924L92.297 107.947ZM107.967 107.692L100.442 100.167H153.938L107.967 107.692ZM108.282 91.9636L124.924 75.3223L113.727 92.8553L108.282 91.9636ZM91.9816 91.7063L75.3402 75.0649L92.8715 86.2619L91.9816 91.7063ZM91.7242 108.007L75.0829 124.648L86.2798 107.115L91.7242 108.007ZM108.023 108.262L124.664 124.904L107.135 113.711L108.023 108.262Z" fill="#FBFBFB"/>
<path d="M169.812 99.8061H160.055C160.052 99.2261 160.026 98.6516 160.01 98.0752L164.431 97.9194C164.53 97.9157 164.608 97.8306 164.605 97.7309C164.601 97.6276 164.523 97.5569 164.416 97.5533L160.001 97.7091C159.976 97.1292 159.948 96.551 159.909 95.9783L164.32 95.6702C164.42 95.6629 164.494 95.5778 164.487 95.4799C164.479 95.3766 164.391 95.3095 164.296 95.3095L159.881 95.6176C159.84 95.0413 159.807 94.4595 159.751 93.8904L164.13 93.4265C164.229 93.4192 164.3 93.3268 164.289 93.2289C164.278 93.131 164.193 93.0513 164.092 93.0694L159.706 93.5298C159.646 92.9534 159.568 92.3825 159.486 91.8098L163.861 91.1972C163.961 91.1827 164.032 91.0903 164.017 90.9924C164.003 90.8945 163.907 90.8257 163.812 90.8366L159.441 91.4528C159.359 90.8764 159.263 90.3091 159.169 89.7401L166.738 88.4061C166.837 88.388 166.904 88.2956 166.886 88.1977C166.868 88.0998 166.779 88.031 166.678 88.0491L159.106 89.383C159.002 88.8139 158.905 88.243 158.787 87.6812L163.095 86.7641C163.194 86.7424 163.258 86.6481 163.236 86.5484C163.214 86.4524 163.12 86.3926 163.02 86.4107L158.705 87.3278C158.582 86.7623 158.45 86.1986 158.316 85.6386L162.595 84.5693C162.691 84.5439 162.75 84.4497 162.725 84.35C162.7 84.2539 162.602 84.1905 162.506 84.2195L158.23 85.2852C158.089 84.7215 157.929 84.1706 157.77 83.6142L162.018 82.3962C162.114 82.3672 162.17 82.2694 162.141 82.1697C162.116 82.0736 162.015 82.0211 161.919 82.0464L157.67 83.2644C157.511 82.708 157.348 82.157 157.172 81.6078L161.366 80.2449C161.462 80.2123 161.511 80.1108 161.482 80.0148C161.449 79.9187 161.348 79.8698 161.252 79.8988L157.054 81.2617C156.873 80.7125 156.693 80.1652 156.494 79.6233L163.711 76.9971C163.803 76.9645 163.852 76.8594 163.818 76.767C163.782 76.6709 163.68 76.622 163.588 76.6564L156.374 79.2789C156.177 78.737 155.954 78.2024 155.74 77.6677L159.836 76.0112C159.929 75.9731 159.974 75.8698 159.939 75.7738C159.901 75.6813 159.798 75.6396 159.702 75.6741L155.606 77.3306C155.387 76.7923 155.157 76.2613 154.923 75.7339L158.964 73.936C159.057 73.8943 159.095 73.7874 159.057 73.695C159.015 73.6025 158.908 73.5645 158.816 73.6025L154.774 75.404C154.537 74.8766 154.303 74.3456 154.053 73.8291L158.02 71.8934C158.109 71.8517 158.143 71.7412 158.102 71.6524C158.06 71.56 157.949 71.5255 157.861 71.5672L153.886 73.5065C153.63 72.9863 153.366 72.4734 153.096 71.9623L157.003 69.8853C157.092 69.84 157.123 69.7294 157.078 69.6406C157.029 69.5518 156.922 69.521 156.833 69.5663L152.929 71.6415C152.657 71.1322 152.365 70.632 152.075 70.1336L160.547 65.242C160.635 65.193 160.663 65.0825 160.614 64.9937C160.565 64.9085 160.451 64.8813 160.365 64.9302L151.894 69.8182C151.604 69.3198 151.311 68.8232 151.006 68.3321L154.761 65.9814C154.847 65.9289 154.872 65.8183 154.818 65.7331C154.769 65.6479 154.651 65.6207 154.569 65.6769L150.807 68.0276C150.499 67.5383 150.194 67.0471 149.872 66.5686L153.542 64.0947C153.623 64.0385 153.645 63.9243 153.591 63.8392C153.534 63.7576 153.42 63.7359 153.335 63.7939L149.665 66.2678C149.339 65.7893 149 65.3253 148.659 64.8559L152.255 62.2479C152.336 62.1881 152.355 62.0739 152.293 61.9923C152.231 61.9108 152.119 61.8927 152.037 61.9543L148.449 64.5623C148.106 64.0947 147.755 63.638 147.401 63.1849L150.906 60.4446C150.984 60.3847 150.999 60.2706 150.935 60.1926C150.876 60.1111 150.761 60.0966 150.684 60.16L147.175 62.8967C146.818 62.4436 146.462 61.9869 146.091 61.5447L151.996 56.5896C152.074 56.5262 152.084 56.412 152.021 56.3341C151.958 56.2561 151.84 56.2489 151.766 56.3123L145.854 61.271C145.482 60.8288 145.103 60.3902 144.721 59.9606L148.019 56.9865C148.094 56.9195 148.101 56.8053 148.034 56.731C147.967 56.6567 147.853 56.6494 147.778 56.7165L144.483 59.6834C144.094 59.2593 143.69 58.8442 143.291 58.431L146.491 55.3372C146.562 55.2666 146.566 55.1524 146.495 55.0781C146.428 55.0074 146.314 55.0074 146.24 55.0744L143.039 58.1646C142.635 57.7495 142.229 57.3436 141.814 56.943L144.904 53.7423C144.974 53.668 144.971 53.5538 144.9 53.4832C144.826 53.4161 144.712 53.4161 144.641 53.4868L141.551 56.6911C141.134 56.2906 140.723 55.8846 140.295 55.4985L143.262 52.2C143.329 52.1257 143.322 52.0115 143.247 51.9444C143.173 51.8774 143.059 51.8846 142.992 51.9589L140.018 55.2611C139.59 54.8751 139.149 54.4999 138.711 54.1247L143.666 48.2127C143.729 48.1384 143.722 48.0242 143.644 47.9572C143.566 47.8937 143.454 47.9046 143.389 47.9826L138.434 53.8873C137.991 53.5158 137.535 53.1624 137.082 52.8035L139.822 49.2983C139.882 49.2168 139.867 49.1044 139.789 49.0428C139.711 48.9794 139.599 48.9939 139.534 49.0754L136.797 52.577C136.34 52.2235 135.884 51.8719 135.416 51.5294L138.024 47.9409C138.084 47.8593 138.066 47.7469 137.986 47.6889C137.904 47.6291 137.792 47.6473 137.73 47.727L135.122 51.3192C134.651 50.9784 134.187 50.6395 133.71 50.3133L136.188 46.6432C136.241 46.558 136.221 46.4456 136.139 46.3913C136.054 46.3351 135.945 46.355 135.887 46.4366L133.41 50.1067C132.931 49.7877 132.44 49.4796 131.951 49.1715L134.301 45.409C134.354 45.3238 134.33 45.215 134.245 45.1607C134.16 45.1045 134.051 45.1317 133.997 45.2168L131.646 48.9757C131.157 48.6713 130.662 48.3777 130.16 48.084L135.052 39.6129C135.101 39.5277 135.073 39.419 134.985 39.3646C134.899 39.3157 134.787 39.3465 134.736 39.4317L129.848 47.9028C129.346 47.6164 128.846 47.3265 128.337 47.0492L130.412 43.1489C130.461 43.0601 130.426 42.9514 130.338 42.9006C130.252 42.8589 130.14 42.8897 130.093 42.9785L128.016 46.8861C127.507 46.6142 126.994 46.3478 126.475 46.0922L128.411 42.1213C128.453 42.0288 128.418 41.9201 128.329 41.8766C128.237 41.8349 128.128 41.8694 128.085 41.9618L126.149 45.9273C125.633 45.6754 125.102 45.4416 124.574 45.206L126.376 41.1643C126.414 41.0719 126.376 40.9668 126.283 40.9233C126.191 40.8852 126.086 40.9233 126.042 41.0157L124.244 45.0574C123.717 44.8236 123.186 44.5934 122.651 44.3777L124.304 40.2781C124.342 40.1856 124.297 40.0805 124.204 40.0443C124.112 40.0062 124.007 40.0515 123.967 40.144L122.311 44.2436C121.776 44.0279 121.241 43.8086 120.699 43.6056L123.325 36.3941C123.358 36.2981 123.311 36.1966 123.215 36.1603C123.122 36.1241 123.017 36.1748 122.981 36.2709L120.355 43.4842C119.813 43.2903 119.264 43.109 118.717 42.9278L120.079 38.7267C120.112 38.6306 120.058 38.5291 119.963 38.5001C119.871 38.4711 119.77 38.5219 119.737 38.6125L118.374 42.81C117.825 42.6324 117.27 42.4693 116.714 42.308L117.932 38.0597C117.961 37.9636 117.903 37.8658 117.809 37.8368C117.709 37.8114 117.611 37.8658 117.582 37.96L116.364 42.2083C115.808 42.0488 115.257 41.8893 114.693 41.7479L115.759 37.4725C115.784 37.3764 115.722 37.2786 115.628 37.2532C115.529 37.2278 115.434 37.2894 115.409 37.3837L114.34 41.6664C113.78 41.5286 113.218 41.3981 112.65 41.2731L113.568 36.9578C113.589 36.8617 113.526 36.7675 113.43 36.7457C113.33 36.724 113.236 36.7874 113.214 36.8835L112.301 41.1915C111.735 41.0755 111.164 40.9795 110.595 40.8762L111.929 33.304C111.947 33.2043 111.88 33.1101 111.781 33.0919C111.681 33.0738 111.59 33.1409 111.572 33.2406L110.238 40.8127C109.669 40.713 109.102 40.6188 108.529 40.5372L109.142 36.1658C109.156 36.0661 109.089 35.9773 108.989 35.9646C108.89 35.9573 108.799 36.0171 108.785 36.1168L108.168 40.4919C107.596 40.414 107.025 40.3361 106.448 40.2726L106.909 35.8866C106.92 35.787 106.849 35.6982 106.749 35.6891C106.639 35.6746 106.561 35.7489 106.552 35.8486L106.091 40.231C105.519 40.1711 104.937 40.1385 104.361 40.0968L104.672 35.6855C104.68 35.5858 104.602 35.497 104.502 35.4915C104.395 35.5024 104.317 35.5622 104.308 35.6619L104 40.0733C103.427 40.0352 102.849 40.0026 102.269 39.9808L102.425 35.5622C102.429 35.4625 102.351 35.3774 102.247 35.3737H102.244C102.144 35.3737 102.062 35.4517 102.059 35.5477L101.918 39.979C101.339 39.9609 100.765 39.9373 100.183 39.9373V30.1812C100.183 30.0816 100.101 30 100 30C99.9003 30 99.8188 30.0816 99.8188 30.1812V39.9373C99.2388 39.9373 98.6625 39.9627 98.0879 39.979L97.9321 35.5586C97.9284 35.4625 97.8469 35.3846 97.7508 35.3846C97.7472 35.3846 97.7454 35.3846 97.7436 35.3846C97.6439 35.3882 97.5641 35.4734 97.5678 35.5731L97.7236 39.9917C97.1455 40.0135 96.5673 40.0443 95.991 40.0841L95.6847 35.6728C95.6774 35.5731 95.5886 35.5024 95.4926 35.5024C95.3911 35.5097 95.315 35.5985 95.3222 35.6963L95.6303 40.1077C95.054 40.1494 94.474 40.182 93.9031 40.2418L93.4428 35.8595C93.4319 35.7598 93.3431 35.6891 93.2452 35.7C93.1473 35.7108 93.073 35.7997 93.0839 35.8975L93.5424 40.2835C92.9661 40.3469 92.3952 40.4249 91.8243 40.5028L91.2099 36.1277C91.1954 36.028 91.1012 35.961 91.0051 35.9755C90.9054 35.99 90.8365 36.0788 90.851 36.1766L91.4655 40.5481C90.8909 40.6297 90.3218 40.7257 89.7546 40.8236L88.4188 33.2514C88.4007 33.1518 88.3083 33.0811 88.2104 33.1028C88.1107 33.1209 88.0455 33.2152 88.0636 33.3149L89.3975 40.887C88.8302 40.9903 88.2575 41.0846 87.6939 41.2024L86.7786 36.8943C86.7569 36.7983 86.6644 36.7348 86.5629 36.7566C86.4651 36.7783 86.4016 36.8726 86.4234 36.9686L87.3423 41.2839C86.7768 41.4072 86.2113 41.5395 85.6513 41.6772L84.5856 37.3946C84.5602 37.2985 84.4624 37.2351 84.3663 37.2641C84.2684 37.2894 84.2104 37.3873 84.234 37.4834L85.2979 41.7588C84.736 41.9002 84.1833 42.0597 83.6269 42.2191L82.4107 37.9709C82.3836 37.8748 82.2857 37.8187 82.186 37.8477C82.0899 37.8767 82.0338 37.9745 82.0628 38.0706L83.2807 42.3188C82.7225 42.4819 82.1697 42.6451 81.6205 42.8209L80.2576 38.627C80.225 38.5309 80.1253 38.482 80.0293 38.511C79.9332 38.54 79.8825 38.6415 79.9133 38.7375L81.278 42.9387C80.727 43.1199 80.1779 43.2993 79.636 43.4951L77.0116 36.2818C76.9754 36.1857 76.8721 36.1404 76.7796 36.1712C76.6836 36.2074 76.6365 36.3089 76.6691 36.405L79.2934 43.6165C78.7497 43.8177 78.2169 44.037 77.6822 44.2545L76.0239 40.1548C75.9858 40.0624 75.8825 40.0171 75.7883 40.0551C75.6958 40.0914 75.6505 40.1965 75.6868 40.2889L77.3433 44.385C76.8068 44.6043 76.2776 44.8344 75.7502 45.0682L73.9505 41.0266C73.9106 40.9342 73.8019 40.8961 73.7113 40.9342C73.6188 40.9758 73.579 41.0828 73.6188 41.1752L75.4185 45.2168C74.8911 45.4543 74.3619 45.6881 73.8417 45.9382L71.9061 41.9727C71.8626 41.8802 71.7539 41.8458 71.6651 41.8875C71.5744 41.9292 71.5382 42.0397 71.5799 42.1321L73.5191 46.1031C73.0008 46.3623 72.4879 46.6233 71.975 46.8969L69.898 42.9894C69.8509 42.9006 69.7403 42.8698 69.6515 42.9115C69.5627 42.9604 69.5319 43.071 69.5772 43.1598L71.6524 47.06C71.1431 47.3355 70.6447 47.6255 70.1445 47.9137L65.2546 39.4426C65.2057 39.3574 65.0933 39.3266 65.0063 39.3755C64.9193 39.4281 64.8922 39.5386 64.9411 39.6238L69.8291 48.0949C69.3307 48.3885 68.8341 48.6821 68.3448 48.9866L65.9941 45.2277C65.9415 45.1425 65.8274 45.1153 65.744 45.1715C65.6588 45.2241 65.6334 45.3346 65.6878 45.4198L68.0403 49.1824C67.5509 49.4905 67.0616 49.7986 66.5813 50.1175L64.1038 46.4475C64.0476 46.3659 63.9352 46.3442 63.8518 46.4021C63.7685 46.4547 63.7467 46.5689 63.8047 46.6541L66.2823 50.3242C65.8038 50.6504 65.338 50.9893 64.8704 51.33L62.2588 47.7379C62.1989 47.6563 62.0848 47.6382 62.005 47.6998C61.9253 47.756 61.9072 47.8702 61.967 47.9517L64.575 51.5403C64.1092 51.8828 63.6507 52.2344 63.1958 52.5915L60.4572 49.0863C60.3956 49.0047 60.2814 48.9939 60.2035 49.0537C60.1238 49.1135 60.1093 49.2277 60.1709 49.3092L62.9094 52.8144C62.4545 53.1714 62.0014 53.5267 61.5574 53.8982L56.6023 47.9934C56.5388 47.9155 56.4229 47.9046 56.3467 47.9681C56.2688 48.0351 56.2597 48.1493 56.3232 48.2236L61.2819 54.1356C60.8415 54.5108 60.4029 54.886 59.9715 55.272L56.9974 51.9698C56.9321 51.8955 56.8161 51.8883 56.7418 51.9553C56.6675 52.0224 56.6603 52.1366 56.7273 52.2109L59.6978 55.5094C59.2701 55.8955 58.8569 56.3032 58.4419 56.702L55.3481 53.4977C55.2792 53.427 55.1632 53.427 55.0907 53.494C55.0201 53.5647 55.0183 53.6789 55.0871 53.7532L58.1772 56.9539C57.764 57.3544 57.3562 57.7604 56.9539 58.1754L53.7532 55.0853C53.6807 55.0183 53.5647 55.0183 53.4958 55.0889C53.427 55.1632 53.4288 55.2774 53.4995 55.3481L56.702 58.4382C56.3014 58.8551 55.8973 59.2701 55.5094 59.6978L52.2127 56.7273C52.1384 56.6603 52.0242 56.6675 51.9553 56.7418C51.8864 56.8161 51.8955 56.9303 51.9698 56.9974L55.272 59.9715C54.8859 60.4029 54.5108 60.8397 54.1374 61.2819L48.2254 56.3232C48.1493 56.2597 48.0351 56.267 47.9699 56.3449C47.9046 56.4229 47.9155 56.5352 47.9934 56.6005L53.8982 61.5556C53.5303 62.0014 53.1732 62.4545 52.8144 62.9076L49.3092 60.1709C49.2277 60.1075 49.1153 60.122 49.0537 60.2035C48.9921 60.2814 49.0065 60.3938 49.0863 60.4554L52.5915 63.1958C52.238 63.6489 51.8828 64.1092 51.5439 64.5732L47.9536 61.9652C47.872 61.909 47.7596 61.9271 47.6998 62.0032C47.64 62.0848 47.6581 62.1971 47.7379 62.2588L51.3318 64.8704C50.9929 65.338 50.6522 65.802 50.326 66.2786L46.6541 63.8047C46.5707 63.7485 46.4583 63.7685 46.4021 63.85C46.346 63.9352 46.3659 64.0476 46.4493 64.1056L50.1212 66.5795C49.7986 67.058 49.4941 67.5491 49.1842 68.0385L45.4216 65.6878C45.3365 65.6316 45.2259 65.6588 45.1715 65.744C45.1172 65.8292 45.1425 65.9379 45.2277 65.9923L48.9866 68.343C48.6821 68.8341 48.3885 69.3307 48.0967 69.8291L39.6274 64.9411C39.5404 64.8922 39.4299 64.9194 39.3791 65.0045C39.3302 65.0933 39.3574 65.2021 39.4444 65.2528L47.9155 70.1445C47.6273 70.6429 47.3373 71.1431 47.0637 71.6524L43.1598 69.5772C43.071 69.5319 42.9622 69.5627 42.9133 69.6515C42.8644 69.7403 42.9006 69.8491 42.9894 69.8962L46.8969 71.9732C46.6269 72.4825 46.3623 72.9954 46.1049 73.5173L42.1321 71.5781C42.0397 71.5364 41.9328 71.5708 41.8875 71.6633C41.8458 71.7521 41.882 71.8608 41.9727 71.9043L45.94 73.8399C45.6862 74.3565 45.4543 74.8875 45.2187 75.4149L41.1734 73.6134C41.081 73.5753 40.9758 73.6134 40.9342 73.7058C40.8925 73.7983 40.9342 73.9034 41.0266 73.9469L45.0682 75.7448C44.8344 76.2722 44.6061 76.8032 44.3868 77.3415L40.2889 75.685C40.1947 75.6487 40.0914 75.6922 40.0533 75.7846C40.0153 75.8807 40.0606 75.9822 40.153 76.0221L44.2526 77.6786C44.0388 78.2132 43.8177 78.7479 43.6165 79.2898L36.405 76.6673C36.3089 76.631 36.2074 76.6818 36.1712 76.7778C36.1368 76.8703 36.1857 76.9754 36.2817 77.008L43.4969 79.6342C43.3011 80.1761 43.1199 80.7252 42.9387 81.2762L38.7375 79.9096C38.6433 79.8843 38.5418 79.9314 38.5092 80.0256C38.4784 80.1217 38.5309 80.2232 38.6252 80.2558L42.8209 81.6187C42.6432 82.1679 42.4801 82.7225 42.3206 83.2789L38.0742 82.0573C37.9763 82.032 37.8785 82.0863 37.8495 82.1806C37.8223 82.2803 37.8785 82.3781 37.9727 82.4071L42.2191 83.625C42.0633 84.1814 41.902 84.7324 41.7588 85.2961L37.4852 84.2304C37.3891 84.205 37.2913 84.2666 37.2659 84.3609C37.2423 84.4606 37.3021 84.5548 37.3982 84.5802L41.6772 85.6495C41.5395 86.2095 41.4108 86.7714 41.2876 87.3386L36.9723 86.4216C36.8726 86.4034 36.7783 86.4632 36.7566 86.5593C36.7348 86.659 36.7983 86.7532 36.8961 86.775L41.206 87.6921C41.0882 88.2557 40.9903 88.8248 40.887 89.3939L33.3149 88.06C33.2134 88.0418 33.1246 88.1089 33.1064 88.2086C33.0883 88.3083 33.1536 88.3989 33.2532 88.417L40.8236 89.7509C40.7257 90.32 40.6315 90.8873 40.5499 91.4636L36.1784 90.8474C36.0769 90.8366 35.9881 90.9036 35.9736 91.0033C35.9591 91.103 36.028 91.1936 36.1277 91.2081L40.5046 91.8207C40.4249 92.3934 40.3469 92.9643 40.2853 93.5406L35.8993 93.0803C35.7942 93.0622 35.7108 93.1401 35.7018 93.2398C35.6927 93.3395 35.7634 93.4301 35.8631 93.4373L40.2418 93.9013C40.1838 94.4704 40.1512 95.0522 40.1113 95.6285L35.6963 95.3204C35.6039 95.3277 35.5079 95.3875 35.5024 95.4908C35.4952 95.5905 35.5713 95.6756 35.6728 95.6811L40.0841 95.9892C40.0461 96.5619 40.0153 97.1401 39.9917 97.72L35.5731 97.5641C35.4807 97.5678 35.3882 97.6385 35.3846 97.7418C35.381 97.8414 35.4589 97.9266 35.5604 97.9303L39.9827 98.0861C39.9627 98.6625 39.941 99.237 39.9373 99.8169H30.1812C30.0816 99.8169 30 99.8985 30 99.9982C30 100.098 30.0816 100.179 30.1812 100.179H39.9373C39.941 100.759 39.9645 101.338 39.9827 101.914L35.5604 102.066C35.4589 102.07 35.381 102.155 35.3846 102.255C35.3882 102.354 35.4698 102.432 35.5659 102.432C35.5695 102.432 35.5713 102.432 35.5731 102.432L39.9917 102.28C40.0135 102.856 40.0425 103.434 40.0823 104.007L35.6692 104.319C35.5695 104.326 35.4934 104.411 35.5006 104.509C35.5079 104.605 35.5876 104.68 35.6818 104.68C35.6873 104.68 35.6909 104.68 35.6963 104.68L40.1113 104.368C40.1512 104.944 40.1838 105.526 40.2418 106.099L35.8631 106.559C35.7634 106.57 35.6909 106.659 35.7018 106.757C35.7108 106.849 35.7906 106.92 35.8812 106.92C35.8885 106.92 35.8957 106.92 35.9011 106.92L40.2871 106.456C40.3488 107.032 40.4267 107.607 40.5064 108.176L36.1295 108.792C36.0298 108.806 35.961 108.899 35.9755 108.997C35.9881 109.086 36.0661 109.153 36.1549 109.153C36.1639 109.153 36.173 109.153 36.1821 109.149L40.5536 108.536C40.6351 109.109 40.7312 109.676 40.8272 110.245L33.2569 111.579C33.1572 111.597 33.0919 111.692 33.1101 111.791C33.1246 111.877 33.2025 111.94 33.2877 111.94C33.2986 111.94 33.3094 111.94 33.3203 111.936L40.8925 110.602C40.9958 111.172 41.0918 111.742 41.2115 112.304L36.9016 113.221C36.8037 113.243 36.7403 113.337 36.762 113.437C36.7802 113.522 36.8563 113.578 36.9396 113.578C36.9541 113.578 36.965 113.578 36.9777 113.575L41.293 112.658C41.4126 113.223 41.5449 113.787 41.6827 114.347L37.4036 115.416C37.3058 115.442 37.2478 115.539 37.2713 115.636C37.2931 115.717 37.3656 115.773 37.4471 115.773C37.4634 115.773 37.4779 115.77 37.4906 115.766L41.7642 114.7C41.9074 115.264 42.0687 115.815 42.2246 116.371L37.9781 117.589C37.8821 117.618 37.8277 117.72 37.8549 117.816C37.8785 117.894 37.951 117.946 38.0307 117.946C38.047 117.946 38.0633 117.943 38.0796 117.939L42.3261 116.721C42.4874 117.278 42.6505 117.828 42.8263 118.381L38.6306 119.741C38.5345 119.773 38.4838 119.875 38.5146 119.971C38.54 120.049 38.6107 120.094 38.6868 120.094C38.7067 120.094 38.7249 120.094 38.743 120.087L42.9441 118.724C43.1253 119.273 43.3048 119.82 43.5023 120.362L36.2872 122.988C36.1911 123.025 36.144 123.126 36.1766 123.222C36.2056 123.293 36.2745 123.338 36.347 123.338C36.3687 123.338 36.3887 123.335 36.4104 123.327L43.6219 120.705C43.8231 121.247 44.0442 121.781 44.2599 122.316L40.1603 123.973C40.0678 124.011 40.0225 124.117 40.0606 124.21C40.0896 124.281 40.1566 124.322 40.2273 124.322C40.2509 124.322 40.2726 124.319 40.2962 124.308L44.394 122.651C44.6133 123.19 44.8399 123.721 45.0737 124.248L41.0338 126.046C40.9414 126.084 40.9015 126.194 40.9414 126.283C40.9722 126.354 41.0375 126.394 41.1063 126.394C41.1317 126.394 41.1553 126.387 41.1806 126.376L45.2241 124.578C45.4633 125.105 45.6953 125.636 45.9472 126.153L41.9799 128.088C41.8893 128.134 41.853 128.241 41.8947 128.333C41.9273 128.397 41.9926 128.433 42.0578 128.433C42.0868 128.433 42.1122 128.429 42.1394 128.415L46.1122 126.479C46.3695 126.996 46.6323 127.508 46.9042 128.02L42.9967 130.097C42.9079 130.142 42.8734 130.252 42.9205 130.341C42.955 130.401 43.0166 130.437 43.0818 130.437C43.1108 130.437 43.138 130.43 43.167 130.416L47.0691 128.34C47.3428 128.85 47.6346 129.35 47.9227 129.848L39.4516 134.74C39.3646 134.789 39.3374 134.899 39.3864 134.988C39.4208 135.044 39.4806 135.077 39.5422 135.077C39.5749 135.077 39.6057 135.07 39.6347 135.052L48.104 130.164C48.3958 130.662 48.6894 131.159 48.9939 131.65L45.235 134C45.1498 134.053 45.1244 134.164 45.1788 134.249C45.2132 134.305 45.2712 134.334 45.331 134.334C45.3655 134.334 45.3981 134.327 45.4289 134.309L49.1914 131.954C49.4995 132.444 49.8058 132.935 50.1284 133.413L46.4565 135.891C46.3731 135.943 46.3514 136.058 46.4094 136.143C46.4456 136.192 46.5018 136.221 46.558 136.221C46.5943 136.221 46.6287 136.21 46.6613 136.192L50.3332 133.714C50.6595 134.193 50.9984 134.657 51.3373 135.126L47.7451 137.734C47.6636 137.794 47.6454 137.908 47.7071 137.99C47.7433 138.038 47.7977 138.064 47.8521 138.064C47.8901 138.064 47.9264 138.053 47.9608 138.028L51.5511 135.42C51.8919 135.887 52.2453 136.344 52.5987 136.801L49.0935 139.537C49.0138 139.601 48.9993 139.715 49.0609 139.793C49.0972 139.838 49.1497 139.864 49.2023 139.864C49.2403 139.864 49.282 139.849 49.3147 139.825L52.8198 137.085C53.1769 137.538 53.5357 137.995 53.9054 138.437L47.9989 143.392C47.9209 143.456 47.9119 143.57 47.9753 143.648C48.0115 143.69 48.0623 143.711 48.1149 143.711C48.1547 143.711 48.1964 143.697 48.229 143.67L54.1411 138.715C54.5144 139.153 54.8896 139.592 55.2756 140.021L51.9734 142.995C51.8991 143.062 51.8919 143.177 51.9589 143.251C51.9952 143.293 52.0441 143.311 52.0931 143.311C52.1366 143.311 52.1819 143.296 52.2145 143.265L55.5112 140.299C55.8991 140.726 56.305 141.138 56.7038 141.555L53.5013 144.645C53.4306 144.715 53.4288 144.83 53.4977 144.904C53.5339 144.94 53.581 144.956 53.6263 144.956C53.6716 144.956 53.7188 144.942 53.7532 144.907L56.9521 141.817C57.3544 142.232 57.7622 142.638 58.1772 143.042L55.0871 146.243C55.0183 146.314 55.0201 146.428 55.0907 146.499C55.127 146.535 55.1723 146.548 55.2158 146.548C55.2629 146.548 55.3119 146.53 55.3463 146.495L58.44 143.294C58.8551 143.695 59.2683 144.097 59.696 144.487L56.7255 147.778C56.6585 147.853 56.6657 147.969 56.74 148.037C56.7763 148.066 56.818 148.083 56.8596 148.083C56.9086 148.083 56.9593 148.061 56.9938 148.023L59.9679 144.724C60.3974 145.107 60.836 145.486 61.2783 145.857L56.3195 151.769C56.2561 151.843 56.2652 151.959 56.3431 152.025C56.3775 152.054 56.4174 152.066 56.4573 152.066C56.5098 152.066 56.5624 152.045 56.5968 152.003L61.5519 146.095C61.9941 146.466 62.4491 146.82 62.9022 147.178L60.1654 150.684C60.1038 150.761 60.1183 150.877 60.1981 150.939C60.2307 150.964 60.2687 150.977 60.3086 150.977C60.363 150.977 60.4174 150.952 60.4518 150.906L63.1885 147.405C63.6452 147.758 64.102 148.11 64.5696 148.452L61.9615 152.045C61.9035 152.123 61.9217 152.235 61.9996 152.297C62.034 152.322 62.0685 152.333 62.1083 152.333C62.1627 152.333 62.2189 152.307 62.2533 152.259L64.8632 148.663C65.3326 149.003 65.7984 149.342 66.275 149.669L63.7993 153.339C63.7431 153.424 63.763 153.536 63.8464 153.594C63.879 153.612 63.9135 153.623 63.9479 153.623C64.0059 153.623 64.0639 153.594 64.1001 153.545L66.5759 149.875C67.0562 150.198 67.5437 150.502 68.033 150.81L65.6824 154.573C65.6298 154.658 65.6534 154.77 65.7385 154.825C65.7694 154.843 65.802 154.85 65.8346 154.85C65.8944 154.85 65.9542 154.821 65.9887 154.765L68.3393 151.006C68.8305 151.314 69.3271 151.608 69.8255 151.898L64.9357 160.369C64.8867 160.458 64.9139 160.567 65.0009 160.617C65.0317 160.635 65.0607 160.643 65.0915 160.643C65.155 160.643 65.2148 160.61 65.2492 160.55L70.139 152.079C70.6393 152.369 71.1377 152.659 71.6469 152.933L69.5718 156.837C69.5264 156.925 69.5573 157.034 69.6461 157.081C69.6751 157.096 69.7023 157.103 69.7312 157.103C69.7965 157.103 69.8581 157.067 69.8926 157.007L71.9696 153.099C72.4788 153.368 72.9917 153.634 73.5137 153.89L71.5744 157.864C71.5328 157.953 71.569 158.062 71.6596 158.105C71.685 158.12 71.7104 158.123 71.7376 158.123C71.8046 158.123 71.8699 158.087 71.9007 158.024L73.8363 154.056C74.3547 154.308 74.8857 154.542 75.4131 154.778L73.6134 158.819C73.5735 158.912 73.6134 159.017 73.7058 159.057C73.7312 159.068 73.7548 159.075 73.7801 159.075C73.849 159.075 73.9142 159.037 73.9451 158.964L75.7429 154.925C76.2722 155.158 76.8014 155.389 77.3379 155.608L75.6813 159.704C75.6433 159.796 75.6904 159.901 75.7828 159.941C75.8064 159.948 75.8281 159.952 75.8517 159.952C75.9224 159.952 75.9894 159.91 76.0184 159.84L77.675 155.744C78.2114 155.956 78.7443 156.179 79.288 156.378L76.6636 163.591C76.6292 163.684 76.6781 163.789 76.7742 163.822C76.7941 163.829 76.8141 163.832 76.834 163.832C76.9083 163.832 76.979 163.787 77.0062 163.716L79.6305 156.503C80.1724 156.697 80.7234 156.878 81.2707 157.06L79.9078 161.257C79.877 161.353 79.9296 161.455 80.0238 161.487C80.0438 161.494 80.0619 161.494 80.0782 161.494C80.1561 161.494 80.2268 161.449 80.2522 161.371L81.6151 157.177C82.1643 157.355 82.717 157.518 83.2752 157.676L82.0573 161.924C82.0283 162.02 82.0863 162.118 82.1806 162.147C82.1987 162.151 82.215 162.154 82.2295 162.154C82.3092 162.154 82.3817 162.102 82.4053 162.024L83.6214 157.775C84.1778 157.935 84.7306 158.094 85.2924 158.239L84.2286 162.511C84.205 162.607 84.2648 162.705 84.3609 162.73C84.3754 162.734 84.3899 162.734 84.4026 162.734C84.4841 162.734 84.5584 162.682 84.5802 162.596L85.6459 158.321C86.2059 158.459 86.7677 158.589 87.335 158.711L86.4179 163.022C86.3962 163.122 86.4596 163.216 86.5575 163.238C86.5702 163.242 86.5847 163.242 86.5956 163.242C86.6807 163.242 86.755 163.185 86.775 163.1L87.6902 158.792C88.2557 158.908 88.8266 159.008 89.3939 159.111L88.06 166.683C88.0418 166.783 88.1071 166.874 88.2068 166.892C88.2176 166.895 88.2285 166.895 88.2394 166.895C88.3246 166.895 88.4025 166.832 88.417 166.747L89.7527 159.175C90.32 159.271 90.8891 159.365 91.4618 159.45L90.8492 163.818C90.8347 163.918 90.9036 164.008 91.0033 164.023C91.0123 164.023 91.0214 164.023 91.0305 164.023C91.1193 164.023 91.1972 163.959 91.2099 163.867L91.8225 159.492C92.3952 159.573 92.9661 159.651 93.5424 159.711L93.0839 164.097C93.073 164.197 93.1455 164.287 93.2452 164.298C93.2525 164.298 93.2579 164.298 93.2652 164.298C93.3558 164.298 93.4355 164.228 93.4446 164.135L93.9049 159.756C94.474 159.813 95.0558 159.845 95.6321 159.887L95.324 164.298C95.3168 164.398 95.3929 164.487 95.4944 164.492C95.498 164.492 95.5016 164.492 95.5053 164.492C95.6013 164.492 95.6811 164.418 95.6883 164.322L95.9946 159.914C96.5691 159.952 97.1491 159.981 97.7273 160.006L97.5714 164.421C97.5678 164.525 97.6475 164.606 97.7472 164.61C97.749 164.61 97.7508 164.61 97.7544 164.61C97.8505 164.61 97.9321 164.536 97.9357 164.436L98.0915 160.016C98.6661 160.034 99.2424 160.057 99.8224 160.061V167.738V169.815C99.8224 169.915 99.9039 169.996 100.004 169.996C100.105 169.996 100.187 169.915 100.187 169.815V167.716V160.039C100.767 160.035 101.343 160.01 101.921 159.994L102.073 164.414C102.077 164.514 102.159 164.588 102.258 164.588H102.262C102.365 164.585 102.443 164.503 102.439 164.4L102.284 159.985C102.864 159.959 103.442 159.932 104.014 159.892L104.323 164.3C104.33 164.396 104.411 164.47 104.507 164.47C104.511 164.47 104.515 164.47 104.518 164.47C104.618 164.463 104.696 164.374 104.689 164.276L104.377 159.865C104.953 159.823 105.535 159.791 106.108 159.735L106.568 164.113C106.575 164.206 106.657 164.276 106.746 164.276C106.753 164.276 106.76 164.276 106.767 164.276C106.867 164.266 106.938 164.173 106.927 164.075L106.467 159.689C107.043 159.63 107.617 159.552 108.187 159.47L108.803 163.845C108.814 163.938 108.892 164.001 108.98 164.001C108.991 164.001 108.999 164.001 109.009 164.001C109.109 163.986 109.176 163.894 109.162 163.796L108.549 159.428C109.122 159.343 109.689 159.247 110.258 159.153L111.592 166.725C111.61 166.81 111.684 166.874 111.773 166.874C111.781 166.874 111.791 166.874 111.802 166.87C111.902 166.852 111.969 166.759 111.951 166.662L110.617 159.089C111.186 158.986 111.757 158.888 112.322 158.77L113.236 163.078C113.254 163.164 113.328 163.22 113.414 163.22C113.428 163.22 113.439 163.22 113.452 163.216C113.548 163.194 113.611 163.1 113.589 163.001L112.676 158.689C113.24 158.569 113.801 158.437 114.361 158.299L115.431 162.578C115.452 162.66 115.527 162.712 115.608 162.712C115.623 162.712 115.637 162.712 115.65 162.709C115.746 162.683 115.806 162.586 115.78 162.489L114.715 158.218C115.278 158.073 115.833 157.913 116.389 157.754L117.604 162.002C117.629 162.08 117.7 162.132 117.781 162.132C117.796 162.132 117.814 162.129 117.83 162.125C117.926 162.096 117.983 161.998 117.954 161.902L116.736 157.654C117.292 157.494 117.847 157.331 118.396 157.156L119.759 161.349C119.784 161.427 119.855 161.473 119.933 161.473C119.951 161.473 119.969 161.473 119.985 161.465C120.081 161.433 120.134 161.331 120.101 161.235L118.738 157.038C119.287 156.857 119.835 156.677 120.377 156.481L123.003 163.695C123.032 163.765 123.103 163.811 123.177 163.811C123.195 163.811 123.215 163.807 123.237 163.8C123.333 163.767 123.378 163.662 123.347 163.57L120.721 156.356C121.263 156.159 121.798 155.936 122.336 155.718L123.989 159.818C124.018 159.889 124.085 159.93 124.159 159.93C124.181 159.93 124.201 159.927 124.226 159.919C124.319 159.881 124.364 159.774 124.326 159.682L122.673 155.586C123.208 155.367 123.739 155.137 124.266 154.903L126.064 158.943C126.097 159.013 126.16 159.053 126.231 159.053C126.256 159.053 126.28 159.046 126.305 159.035C126.397 158.997 126.436 158.89 126.397 158.798L124.596 154.756C125.123 154.519 125.654 154.285 126.171 154.035L128.107 158.002C128.139 158.065 128.203 158.102 128.27 158.102C128.299 158.102 128.322 158.098 128.351 158.084C128.44 158.042 128.474 157.931 128.433 157.842L126.497 153.868C127.014 153.612 127.527 153.348 128.038 153.078L130.115 156.985C130.147 157.045 130.211 157.081 130.274 157.081C130.303 157.081 130.33 157.074 130.359 157.06C130.448 157.014 130.483 156.904 130.434 156.815L128.358 152.911C128.868 152.639 129.368 152.347 129.87 152.057L134.758 160.528C134.794 160.588 134.854 160.621 134.918 160.621C134.947 160.621 134.977 160.614 135.006 160.596C135.095 160.547 135.122 160.436 135.073 160.347L130.182 151.876C130.68 151.586 131.18 151.292 131.668 150.984L134.019 154.743C134.051 154.799 134.111 154.828 134.171 154.828C134.203 154.828 134.238 154.821 134.267 154.803C134.352 154.751 134.377 154.636 134.323 154.551L131.972 150.789C132.462 150.481 132.953 150.176 133.431 149.853L135.9 153.529C135.932 153.578 135.992 153.607 136.048 153.607C136.085 153.607 136.119 153.596 136.152 153.578C136.233 153.522 136.255 153.408 136.201 153.326L133.723 149.652C134.202 149.326 134.667 148.987 135.135 148.646L137.743 152.242C137.779 152.291 137.835 152.316 137.892 152.316C137.928 152.316 137.966 152.306 137.999 152.28C138.08 152.22 138.098 152.106 138.037 152.028L135.429 148.436C135.896 148.094 136.353 147.742 136.81 147.389L139.546 150.89C139.583 150.935 139.635 150.961 139.691 150.961C139.729 150.961 139.769 150.946 139.802 150.923C139.88 150.863 139.894 150.745 139.835 150.667L137.094 147.162C137.551 146.805 138.004 146.45 138.446 146.078L143.401 151.987C143.438 152.028 143.487 152.05 143.539 152.05C143.581 152.05 143.621 152.036 143.655 152.008C143.733 151.945 143.74 151.827 143.677 151.753L138.722 145.841C139.16 145.469 139.599 145.094 140.028 144.708L143.003 148.007C143.039 148.045 143.088 148.066 143.137 148.066C143.178 148.066 143.226 148.048 143.256 148.021C143.331 147.954 143.338 147.836 143.271 147.762L140.304 144.471C140.732 144.081 141.143 143.677 141.56 143.274L144.65 146.479C144.686 146.515 144.735 146.531 144.781 146.531C144.826 146.531 144.873 146.517 144.907 146.482C144.978 146.412 144.982 146.298 144.911 146.227L141.821 143.026C142.236 142.622 142.642 142.216 143.046 141.801L146.247 144.891C146.283 144.927 146.328 144.94 146.374 144.94C146.419 144.94 146.466 144.922 146.501 144.888C146.571 144.813 146.568 144.699 146.497 144.628L143.296 141.538C143.697 141.121 144.099 140.71 144.489 140.282L147.784 143.249C147.82 143.282 147.862 143.294 147.903 143.294C147.952 143.294 148.003 143.276 148.037 143.235C148.104 143.16 148.097 143.046 148.023 142.979L144.724 140.005C145.107 139.577 145.486 139.137 145.857 138.698L151.769 143.653C151.802 143.682 151.843 143.695 151.885 143.695C151.934 143.695 151.988 143.673 152.023 143.632C152.086 143.554 152.075 143.441 151.998 143.376L146.093 138.421C146.464 137.979 146.821 137.526 147.18 137.069L150.685 139.809C150.718 139.835 150.756 139.847 150.796 139.847C150.848 139.847 150.903 139.822 150.937 139.777C151.001 139.699 150.986 139.586 150.908 139.521L147.403 136.784C147.757 136.328 148.108 135.871 148.451 135.403L152.039 138.011C152.075 138.037 152.11 138.048 152.15 138.048C152.202 138.048 152.26 138.022 152.295 137.973C152.355 137.892 152.336 137.779 152.257 137.718L148.661 135.11C149.002 134.642 149.341 134.174 149.667 133.698L153.337 136.175C153.369 136.193 153.404 136.204 153.44 136.204C153.496 136.204 153.556 136.175 153.592 136.126C153.645 136.041 153.625 135.929 153.543 135.874L149.873 133.397C150.196 132.918 150.5 132.427 150.809 131.938L154.571 134.292C154.6 134.31 154.635 134.318 154.667 134.318C154.727 134.318 154.787 134.289 154.819 134.232C154.872 134.147 154.848 134.039 154.763 133.984L151.008 131.633C151.312 131.142 151.606 130.646 151.896 130.147L160.367 135.035C160.396 135.053 160.427 135.061 160.46 135.061C160.519 135.061 160.579 135.028 160.615 134.972C160.664 134.883 160.637 134.774 160.548 134.724L152.077 129.832C152.367 129.334 152.657 128.833 152.931 128.324L156.835 130.399C156.86 130.414 156.887 130.421 156.92 130.421C156.983 130.421 157.047 130.385 157.079 130.325C157.125 130.236 157.094 130.127 157.005 130.08L153.098 128.003C153.366 127.494 153.632 126.981 153.888 126.463L157.862 128.398C157.888 128.413 157.911 128.416 157.94 128.416C158.007 128.416 158.071 128.38 158.103 128.317C158.145 128.224 158.111 128.119 158.022 128.072L154.055 126.14C154.306 125.62 154.54 125.089 154.776 124.562L158.818 126.359C158.843 126.37 158.866 126.378 158.892 126.378C158.963 126.378 159.026 126.339 159.059 126.267C159.097 126.178 159.059 126.069 158.966 126.03L154.925 124.232C155.158 123.704 155.388 123.173 155.608 122.635L159.704 124.291C159.726 124.302 159.749 124.306 159.771 124.306C159.842 124.306 159.909 124.264 159.941 124.194C159.977 124.101 159.93 123.996 159.838 123.956L155.742 122.3C155.954 121.765 156.177 121.23 156.376 120.688L163.59 123.311C163.608 123.318 163.628 123.322 163.649 123.322C163.724 123.322 163.794 123.277 163.82 123.206C163.856 123.11 163.805 123.008 163.713 122.972L156.496 120.346C156.693 119.804 156.875 119.255 157.056 118.708L161.253 120.07C161.275 120.078 161.291 120.078 161.31 120.078C161.387 120.078 161.458 120.032 161.484 119.954C161.513 119.858 161.462 119.757 161.368 119.724L157.174 118.365C157.351 117.816 157.514 117.261 157.672 116.705L161.92 117.923C161.938 117.926 161.953 117.93 161.969 117.93C162.047 117.93 162.122 117.877 162.143 117.799C162.172 117.703 162.114 117.602 162.02 117.573L157.772 116.355C157.931 115.799 158.091 115.248 158.232 114.684L162.506 115.755C162.52 115.759 162.535 115.762 162.551 115.762C162.633 115.762 162.703 115.706 162.725 115.625C162.75 115.529 162.689 115.431 162.595 115.405L158.316 114.336C158.453 113.776 158.584 113.214 158.705 112.647L163.02 113.564C163.035 113.568 163.046 113.568 163.059 113.568C163.14 113.568 163.218 113.511 163.236 113.426C163.258 113.327 163.194 113.232 163.095 113.211L158.787 112.293C158.903 111.73 159.002 111.161 159.106 110.592L166.678 111.926C166.689 111.929 166.7 111.929 166.711 111.929C166.796 111.929 166.874 111.866 166.888 111.781C166.906 111.681 166.839 111.587 166.74 111.568L159.171 110.235C159.267 109.665 159.361 109.098 159.443 108.525L163.814 109.138C163.822 109.142 163.832 109.142 163.84 109.142C163.928 109.142 164.006 109.075 164.021 108.986C164.035 108.886 163.965 108.796 163.865 108.781L159.49 108.165C159.571 107.596 159.649 107.021 159.709 106.445L164.095 106.909C164.102 106.909 164.11 106.909 164.117 106.909C164.206 106.909 164.287 106.838 164.295 106.746C164.305 106.646 164.235 106.557 164.135 106.548L159.756 106.088C159.813 105.515 159.845 104.933 159.887 104.357L164.298 104.669C164.305 104.669 164.309 104.669 164.313 104.669C164.409 104.669 164.487 104.594 164.494 104.498C164.501 104.399 164.427 104.313 164.327 104.308L159.916 103.996C159.954 103.424 159.983 102.845 160.005 102.269L164.423 102.421C164.427 102.421 164.427 102.421 164.431 102.421C164.53 102.421 164.608 102.343 164.612 102.244C164.615 102.144 164.537 102.059 164.438 102.055L160.017 101.903C160.035 101.327 160.059 100.749 160.063 100.169H169.819C169.918 100.169 170 100.087 170 99.9873C170 99.8876 169.911 99.8061 169.812 99.8061ZM120.42 156.081C120.417 156.081 120.417 156.081 120.417 156.081C115.922 157.723 111.17 158.837 106.244 159.352C106.24 159.352 106.24 159.352 106.24 159.352C104.19 159.564 102.11 159.678 100.002 159.678C97.8958 159.678 95.8152 159.566 93.7672 159.352C93.7654 159.352 93.7654 159.352 93.7636 159.352C88.8375 158.839 84.0872 157.725 79.5888 156.081C63.0743 150.049 49.9436 136.92 43.9119 120.406C43.9101 120.402 43.9119 120.402 43.9119 120.402C43.9101 120.398 43.9101 120.398 43.9101 120.398C41.5848 114.026 40.3125 107.152 40.3125 99.9837C40.3125 92.8157 41.5848 85.9413 43.9101 79.5689C43.9101 79.5689 43.9101 79.5689 43.9119 79.5689C43.9119 79.5653 43.9101 79.5653 43.9119 79.5653C49.9417 63.0526 63.0635 49.9254 79.5762 43.8938C79.5798 43.8902 79.5834 43.8938 79.5888 43.8902C79.5888 43.8902 79.5888 43.8902 79.5907 43.8865C85.963 41.5612 92.8392 40.2908 100.004 40.2908C107.173 40.2908 114.048 41.5612 120.418 43.8865C120.418 43.8865 120.418 43.8902 120.422 43.8902C120.426 43.8938 120.429 43.8938 120.433 43.8938C136.946 49.9254 150.069 63.0508 156.097 79.5653C156.101 79.5653 156.097 79.5653 156.097 79.5689C156.101 79.5689 156.101 79.5689 156.101 79.5689C158.426 85.9413 159.697 92.8157 159.697 99.9837C159.697 107.152 158.426 114.026 156.101 120.398C156.101 120.398 156.101 120.398 156.097 120.402C156.097 120.402 156.101 120.402 156.097 120.406C150.065 136.92 136.937 150.049 120.42 156.081Z" fill="#FBFBFB"/>
</svg>
