<svg width="24" height="24" viewBox="0 0 24 24" fill="none" xmlns="http://www.w3.org/2000/svg">
<path d="M20.9975 9.4694C20.9967 9.4639 20.9971 9.45798 20.9952 9.45288C20.9952 9.45227 20.9952 9.45186 20.9952 9.45146C20.995 9.45105 20.9946 9.45064 20.9944 9.45003C20.9928 9.44513 20.9892 9.44085 20.9868 9.43616C20.9832 9.43004 20.9808 9.42352 20.976 9.41801C20.9752 9.41699 20.9746 9.41597 20.9737 9.41515C20.9733 9.41475 20.9733 9.41414 20.9729 9.41373L17.1735 5.34165C17.171 5.3392 17.1684 5.33838 17.1659 5.33655C17.1636 5.3343 17.1615 5.33226 17.1591 5.33063C17.1549 5.32737 17.1506 5.32472 17.146 5.32207C17.144 5.32105 17.1427 5.31921 17.1407 5.31819L12.043 3.00959C12.0426 3.00938 12.0422 3.00959 12.0418 3.00918C12.0403 3.00877 12.0389 3.00816 12.0376 3.00775C12.0318 3.0053 12.0256 3.0051 12.0194 3.00387C12.0132 3.00265 12.0073 3.0002 12.0011 3.0002C12.0006 3.0002 12.0004 3 12 3C11.9994 3 11.999 3.00041 11.9984 3.00041C11.994 3.00041 11.9897 3.00224 11.9856 3.00286C11.9775 3.00408 11.9694 3.00469 11.962 3.00755C11.9608 3.00816 11.9595 3.00857 11.9583 3.00897C11.9579 3.00938 11.9575 3.00918 11.957 3.00938L6.85937 5.31799C6.8573 5.31901 6.85586 5.32084 6.854 5.32207C6.84945 5.32451 6.84532 5.32676 6.84119 5.33002C6.83809 5.33206 6.83561 5.33451 6.83292 5.33696C6.83086 5.33879 6.82838 5.33961 6.82652 5.34144L3.02671 9.41393C3.0263 9.41434 3.0263 9.41495 3.02588 9.41536C3.02506 9.41617 3.02423 9.41719 3.02341 9.41821C3.01886 9.42352 3.01617 9.43025 3.01287 9.43636C3.01039 9.44106 3.00688 9.44534 3.00502 9.45023C3.00502 9.45084 3.0046 9.45125 3.0044 9.45166C3.0044 9.45207 3.0044 9.45248 3.0044 9.45309C3.00274 9.45819 3.00316 9.4641 3.00233 9.46961C3.00151 9.47634 2.99965 9.48266 3.00006 9.48959C3.00006 9.49102 3.00006 9.49245 3.00027 9.49367C3.00027 9.49408 3.00027 9.49469 3.00027 9.4951L3.64899 14.9937C3.64899 14.9946 3.64961 14.9956 3.64982 14.9966C3.65003 14.9982 3.65085 14.9997 3.65127 15.0013C3.65209 15.0056 3.65292 15.0097 3.65437 15.0137C3.65581 15.0178 3.65705 15.0213 3.6587 15.0249C3.65974 15.0272 3.66015 15.0292 3.66118 15.0315C3.66139 15.0319 3.66139 15.0323 3.6616 15.0327L6.41084 19.8577C6.41104 19.8581 6.41166 19.8583 6.41187 19.8587C6.41249 19.86 6.41332 19.861 6.41414 19.8622C6.41848 19.8689 6.42447 19.874 6.43026 19.8793C6.43377 19.883 6.43604 19.8873 6.44038 19.8904C6.44059 19.8906 6.44121 19.8906 6.44142 19.8908C6.44327 19.892 6.44534 19.8928 6.4472 19.894C6.45092 19.8963 6.45464 19.8971 6.45856 19.8987C6.46579 19.9022 6.47241 19.9063 6.48067 19.9079L11.9796 20.998C11.9864 20.9994 11.993 21 11.9996 21H12C12.0066 21 12.0132 20.9994 12.0201 20.998L17.519 19.9079C17.5272 19.9063 17.5336 19.9022 17.5409 19.8987C17.545 19.8969 17.5485 19.8961 17.5522 19.894C17.5543 19.8928 17.5564 19.892 17.5582 19.8908C17.5584 19.8906 17.559 19.8906 17.5592 19.8904C17.5636 19.8873 17.5659 19.883 17.5696 19.8793C17.5752 19.874 17.5814 19.8687 17.5853 19.8622C17.5861 19.861 17.5869 19.86 17.5878 19.8587C17.588 19.8583 17.5886 19.8581 17.5886 19.8577L20.3378 15.0323C20.3382 15.0319 20.3382 15.0315 20.3382 15.0311C20.3395 15.0288 20.3399 15.0268 20.3409 15.0245C20.3428 15.0209 20.344 15.0174 20.3453 15.0133C20.3467 15.0092 20.3477 15.0052 20.3486 15.0009C20.349 14.999 20.3498 14.9976 20.35 14.9962C20.3502 14.9952 20.3506 14.9942 20.3508 14.9933L21 9.49469C21 9.49428 20.9996 9.49367 20.9998 9.49326C21 9.49204 21 9.49061 21 9.48919C21.0002 9.48266 20.9985 9.47634 20.9975 9.4694ZM11.8965 12.1965L6.62632 10.506L11.8965 6.72661V12.1965ZM12.1031 6.7264L17.3733 10.5058L12.1031 12.1963V6.7264ZM11.8327 12.3904L8.57561 16.8158L6.56269 10.7L11.8327 12.3904ZM11.9998 12.5104L15.2573 16.9357H8.74254L11.9998 12.5104ZM12.1672 12.3904L17.4371 10.7L15.4244 16.8158L12.1672 12.3904ZM12.2463 6.57691L17.006 5.53539L17.4731 10.3257L12.2463 6.57691ZM6.52654 10.3257L6.99387 5.53539L11.7538 6.57691L6.52654 10.3257ZM8.37066 16.8537L3.89981 14.9346L6.37427 10.7879L8.37066 16.8537ZM15.2306 17.1396L11.9998 20.7441L8.76919 17.1396H15.2306ZM17.6252 10.7879L20.0996 14.9346L15.6288 16.8537L17.6252 10.7879ZM17.2297 5.70303L20.712 9.43534L17.6884 10.4051L17.2297 5.70303ZM12.1031 6.39928V3.26104L16.775 5.37693L12.1031 6.39928ZM11.8965 6.39928L7.22464 5.37693L11.8965 3.26104V6.39928ZM6.31126 10.4049L3.28785 9.43514L6.76991 5.70282L6.31126 10.4049ZM6.24742 10.599L3.81861 14.6691L3.22401 9.62929L6.24742 10.599ZM8.38057 17.0807L6.51207 19.6191L3.99257 15.1969L8.38057 17.0807ZM8.54792 17.2004L11.7188 20.7381L6.67921 19.7392L8.54792 17.2004ZM15.4517 17.2004L17.3204 19.739L12.2808 20.7379L15.4517 17.2004ZM17.4878 19.6191L15.6193 17.0807L20.0071 15.1971L17.4878 19.6191ZM20.181 14.6693L17.7522 10.599L20.7758 9.62929L20.181 14.6693Z" fill="#FBFBFB"/>
</svg>
