<svg width="24" height="24" viewBox="0 0 24 24" fill="none" xmlns="http://www.w3.org/2000/svg">
<path d="M10.4925 4H5.36487C5.00301 4.00041 4.65609 4.14434 4.40021 4.40021C4.14434 4.65609 4.00041 5.00301 4 5.36487V10.4925C4.00041 10.8543 4.14434 11.2012 4.40021 11.4571C4.65609 11.713 5.00301 11.8569 5.36487 11.8573H10.4925C10.8543 11.8569 11.2012 11.713 11.4571 11.4571C11.713 11.2012 11.8569 10.8543 11.8573 10.4925V5.36487C11.8569 5.00301 11.713 4.65609 11.4571 4.40021C11.2012 4.14434 10.8543 4.00041 10.4925 4ZM11.1062 10.4925C11.106 10.6552 11.0413 10.8112 10.9263 10.9263C10.8112 11.0413 10.6552 11.106 10.4925 11.1062H5.36487C5.20214 11.106 5.04613 11.0413 4.93107 10.9263C4.816 10.8112 4.75128 10.6552 4.7511 10.4925V5.36487C4.75128 5.20214 4.816 5.04613 4.93107 4.93107C5.04613 4.816 5.20214 4.75128 5.36487 4.7511H10.4925C10.6552 4.75128 10.8112 4.816 10.9263 4.93107C11.0413 5.04613 11.106 5.20214 11.1062 5.36487V10.4925ZM10.4925 12.1427H5.36487C5.00301 12.1431 4.65609 12.287 4.40021 12.5429C4.14434 12.7988 4.00041 13.1457 4 13.5075V18.6351C4.00041 18.997 4.14434 19.3439 4.40021 19.5998C4.65609 19.8557 5.00301 19.9996 5.36487 20H10.4925C10.8543 19.9996 11.2012 19.8557 11.4571 19.5998C11.713 19.3439 11.8569 18.997 11.8573 18.6351V13.5075C11.8569 13.1457 11.713 12.7988 11.4571 12.5429C11.2012 12.287 10.8543 12.1431 10.4925 12.1427ZM18.6599 12.1427H13.5324C13.1705 12.1431 12.8236 12.287 12.5677 12.5429C12.3118 12.7988 12.1679 13.1457 12.1675 13.5075V18.6351C12.1679 18.997 12.3118 19.344 12.5678 19.5998C12.8237 19.8557 13.1706 19.9996 13.5325 20H18.6599C19.0218 19.9996 19.3687 19.8557 19.6246 19.5998C19.8805 19.3439 20.0244 18.997 20.0248 18.6351V13.5075C20.0244 13.1457 19.8805 12.7988 19.6246 12.5429C19.3687 12.287 19.0218 12.1431 18.6599 12.1427ZM19.2737 18.6351C19.2735 18.7979 19.2088 18.9539 19.0937 19.0689C18.9787 19.184 18.8227 19.2487 18.6599 19.2489H13.5324C13.3696 19.2487 13.2136 19.184 13.0986 19.0689C12.9835 18.9539 12.9188 18.7979 12.9186 18.6351V13.5075C12.9188 13.3448 12.9835 13.1888 13.0986 13.0737C13.2136 12.9587 13.3696 12.894 13.5324 12.8938H18.6599C18.8227 12.894 18.9787 12.9587 19.0937 13.0737C19.2088 13.1888 19.2735 13.3448 19.2737 13.5075V18.6351ZM14.0029 11.205H18.1892C18.5029 11.2046 18.8037 11.0798 19.0255 10.858C19.2473 10.6362 19.3721 10.3354 19.3724 10.0217V5.83562C19.3721 5.52191 19.2473 5.22116 19.0255 4.99933C18.8037 4.77751 18.5029 4.65273 18.1892 4.65236H14.0029C13.6892 4.65273 13.3885 4.77751 13.1666 4.99933C12.9448 5.22116 12.82 5.52191 12.8197 5.83562V10.0217C12.82 10.3354 12.9448 10.6362 13.1666 10.858C13.3885 11.0798 13.6892 11.2046 14.0029 11.205Z" fill="#BFBFBF"/>
</svg>
