<svg width="55" height="55" viewBox="0 0 55 55" fill="none" xmlns="http://www.w3.org/2000/svg">
<path d="M37.5093 3C37.5093 3 24.0405 10.3215 18.3441 11.3921C12.6476 12.4626 7.63822 26.4955 8.02055 28.7895C8.33444 30.6723 11.2493 37.4174 14.7774 40.8354C16.2896 38.7088 18.7676 37.318 21.5749 37.318C21.7968 37.318 19.4237 31.9696 16.6238 30.052C16.6238 30.052 20.906 26.8014 20.5242 22.5957C20.5242 22.5957 25.6517 25.6929 28.4029 24.3165C28.4029 24.3165 26.4591 29.5927 26.9479 33.4936C26.9479 33.4936 24.3972 36.2111 22.6567 38.2789L22.207 38.2537C22.107 38.2462 22.007 38.2404 21.9054 38.2404C17.8361 38.2404 14.5255 41.5498 14.5255 45.6202C14.5255 49.689 17.8361 53 21.9054 53C25.9747 53 29.2847 49.6895 29.2847 45.6202C29.2847 45.2485 29.251 44.8577 29.1804 44.4267L29.1312 44.1299C30.3739 42.9749 31.4279 41.8915 32.0711 41.4466C34.117 40.0312 39.4895 35.3282 39.3365 29.1339C39.1836 22.9396 47.604 16.3062 47.604 16.3062L37.5093 3ZM21.9054 52.0813C18.3419 52.0813 15.4431 49.1831 15.4431 45.6196C15.4431 42.2482 18.0387 39.4713 21.3364 39.182C21.1113 39.4788 20.9429 39.72 20.8284 39.9098C20.7648 40.0162 20.6931 40.1312 20.6167 40.2552C19.598 41.9033 17.4773 45.3341 20.9578 47.7864C21.4936 48.1634 22.107 48.3553 22.7802 48.3553C24.64 48.3553 26.6752 46.9003 28.3644 45.4362C28.3671 45.4977 28.3676 45.5592 28.3676 45.6191C28.3676 49.1831 25.4683 52.0813 21.9054 52.0813Z" fill="#898989"/>
</svg>
