<svg width="24" height="24" viewBox="0 0 24 24" fill="none" xmlns="http://www.w3.org/2000/svg">
<path d="M17.4332 8.78221V9.48378H6.78129C6.46326 9.48378 6.17176 9.66118 6.02534 9.94355L2.04725 17.4892C2.01961 17.4034 2 17.3118 2 17.2171V7.04879C2 6.46957 2.48005 6 3.05926 6H7.20673C7.48464 6 7.75163 6.11054 7.94797 6.3071L9.42332 7.78245H16.4439C16.996 7.78245 17.4332 8.23018 17.4332 8.78221Z" fill="#BFBFBF"/>
<path d="M7.63193 10.4965H21.1474C21.7857 10.4965 22.1971 11.1729 21.9034 11.7396L18.7349 17.8545C18.5885 18.1369 18.297 18.3143 17.979 18.3143H2.94202L6.87598 10.956C7.0224 10.6737 7.3139 10.4965 7.63193 10.4965Z" fill="#BFBFBF"/>
</svg>
