<svg width="24" height="24" viewBox="0 0 24 24" fill="none" xmlns="http://www.w3.org/2000/svg">
<path d="M20.8889 2H3.11111C2.81643 2 2.53381 2.11706 2.32544 2.32544C2.11706 2.53381 2 2.81643 2 3.11111V20.8889C2 21.1836 2.11706 21.4662 2.32544 21.6746C2.53381 21.8829 2.81643 22 3.11111 22H20.8889C21.1836 22 21.4662 21.8829 21.6746 21.6746C21.8829 21.4662 22 21.1836 22 20.8889V3.11111C22 2.81643 21.8829 2.53381 21.6746 2.32544C21.4662 2.11706 21.1836 2 20.8889 2ZM20.4963 19.4556C20.4963 19.7316 20.3866 19.9963 20.1915 20.1915C19.9963 20.3866 19.7316 20.4963 19.4556 20.4963H4.54444C4.26842 20.4963 4.00371 20.3866 3.80853 20.1915C3.61335 19.9963 3.5037 19.7316 3.5037 19.4556V17.1852H3.07037C2.98295 17.1852 2.8991 17.1505 2.83729 17.0886C2.77547 17.0268 2.74074 16.943 2.74074 16.8556V16.0333C2.74074 15.9459 2.77547 15.8621 2.83729 15.8002C2.8991 15.7384 2.98295 15.7037 3.07037 15.7037H3.5037V8.2963H3.07037C2.98295 8.2963 2.8991 8.26157 2.83729 8.19975C2.77547 8.13793 2.74074 8.05409 2.74074 7.96667V7.14444C2.74074 7.05702 2.77547 6.97318 2.83729 6.91136C2.8991 6.84954 2.98295 6.81481 3.07037 6.81481H3.5037V4.54444C3.5037 4.26842 3.61335 4.00371 3.80853 3.80853C4.00371 3.61335 4.26842 3.5037 4.54444 3.5037H19.4556C19.7316 3.5037 19.9963 3.61335 20.1915 3.80853C20.3866 4.00371 20.4963 4.26842 20.4963 4.54444V19.4556Z" fill="#BFBFBF"/>
<path d="M19.4556 4.2H4.54446C4.4531 4.2 4.36549 4.23629 4.3009 4.30088C4.2363 4.36548 4.20001 4.45309 4.20001 4.54444V6.81481H5.74446C5.83188 6.81481 5.91572 6.84954 5.97754 6.91136C6.03936 6.97318 6.07409 7.05702 6.07409 7.14444V7.96666C6.07409 8.05409 6.03936 8.13793 5.97754 8.19975C5.91572 8.26156 5.83188 8.29629 5.74446 8.29629H4.20001V15.7037H5.74446C5.83188 15.7037 5.91572 15.7384 5.97754 15.8002C6.03936 15.8621 6.07409 15.9459 6.07409 16.0333V16.8556C6.07409 16.943 6.03936 17.0268 5.97754 17.0886C5.91572 17.1505 5.83188 17.1852 5.74446 17.1852H4.20001V19.4556C4.20001 19.5469 4.2363 19.6345 4.3009 19.6991C4.36549 19.7637 4.4531 19.8 4.54446 19.8H19.4556C19.5469 19.8 19.6345 19.7637 19.6991 19.6991C19.7637 19.6345 19.8 19.5469 19.8 19.4556V4.54444C19.8 4.45309 19.7637 4.36548 19.6991 4.30088C19.6345 4.23629 19.5469 4.2 19.4556 4.2ZM15.6556 15.1333L14.0963 13.5704L13.5704 14.0963L15.1333 15.6556C14.2607 16.4035 13.1493 16.8146 12 16.8146C10.8507 16.8146 9.73932 16.4035 8.86668 15.6556L10.4296 14.0963L9.90372 13.5704L8.34446 15.1333C7.59653 14.2607 7.18541 13.1493 7.18541 12C7.18541 10.8507 7.59653 9.7393 8.34446 8.86666L9.90372 10.4296L10.4296 9.9037L8.86668 8.34444C9.73932 7.59651 10.8507 7.1854 12 7.1854C13.1493 7.1854 14.2607 7.59651 15.1333 8.34444L13.5704 9.9037L14.0963 10.4296L15.6556 8.86666C16.4035 9.7393 16.8146 10.8507 16.8146 12C16.8146 13.1493 16.4035 14.2607 15.6556 15.1333Z" fill="#BFBFBF"/>
<path d="M12 13.4815C12.8182 13.4815 13.4815 12.8182 13.4815 12C13.4815 11.1818 12.8182 10.5185 12 10.5185C11.1818 10.5185 10.5185 11.1818 10.5185 12C10.5185 12.8182 11.1818 13.4815 12 13.4815Z" fill="#BFBFBF"/>
</svg>
