<svg width="24" height="24" viewBox="0 0 24 24" fill="none" xmlns="http://www.w3.org/2000/svg">
<path d="M16.6674 7.32694L17.9519 3.96539C16.2445 2.69724 14.1357 2 11.9983 2C9.86242 2 7.83242 2.66025 6.11778 3.91063L7.48032 7.48402L3.90693 6.12148C1.34397 9.63795 1.36655 14.466 3.96241 17.9568L7.323 16.6711L6.0402 20.0339C7.74788 21.3025 9.85666 22 11.994 22C11.9943 22 11.9943 22 11.9945 22C14.1669 21.9998 16.3031 21.2821 18.0254 19.9762L16.8231 16.827L19.9723 18.0296C22.6546 14.4949 22.6782 9.60481 20.0304 6.0439L16.6674 7.32694ZM16.2608 16.1567H7.60137V13.9934C7.60137 12.9032 10.3416 12.0102 11.0482 11.7981V11.4167C10.1622 11.0118 9.57517 10.0369 9.57517 8.94864C9.57517 7.4797 10.632 6.28432 11.9311 6.28432C13.2302 6.28432 14.2873 7.4797 14.2873 8.94864C14.2873 10.0369 13.7003 11.0118 12.8142 11.4167V11.7981C13.5208 12.0102 16.261 12.9032 16.261 13.9934L16.2608 16.1567Z" fill="#BFBFBF"/>
<path d="M5.69927 18.2958L2.84425 19.3879L2.84233 19.3858L1.24249 19.9978L3.99831 22.7538L4.60717 21.1581L4.60693 21.1578L5.69927 18.2958Z" fill="#BFBFBF"/>
<path d="M21.1539 4.61062L21.1541 4.6111L22.7499 4.00225L19.9941 1.24619L19.3763 2.86139L19.3379 2.96851L18.2919 5.70296L21.1539 4.61062Z" fill="#BFBFBF"/>
<path d="M19.4575 21.0975L20.1499 22.9111L22.9072 20.1541L18.4471 18.451L19.4575 21.0975Z" fill="#BFBFBF"/>
<path d="M4.15585 1.40253L1.39835 4.15955L5.85704 5.86098L4.15585 1.40253Z" fill="#BFBFBF"/>
</svg>
