<svg width="24" height="24" viewBox="0 0 24 24" fill="none" xmlns="http://www.w3.org/2000/svg">
<path d="M20.7 15.8H18V15.2H20.1C20.2659 15.2 20.4 15.0656 20.4 14.9C20.4 10.1258 16.866 6.36618 12.3 6.20748V5.59997H13.5C13.6659 5.59997 13.8 5.46558 13.8 5.29998C13.8 5.13439 13.6659 5 13.5 5H10.5C10.3344 5 10.2 5.13439 10.2 5.29998C10.2 5.46558 10.3344 5.59997 10.5 5.59997H11.7V6.20748C7.1343 6.36618 3.6 10.1258 3.6 14.9C3.6 14.9795 3.63182 15.056 3.68789 15.1121C3.7443 15.1685 3.8205 15.2 3.89999 15.2H5.99999V15.8H3.29998C3.13439 15.8 3 15.9344 3 16.1V17.9C3 18.0656 3.13439 18.2 3.29998 18.2H20.7C20.8659 18.2 21 18.0656 21 17.9V16.1C21 15.9344 20.8659 15.8 20.7 15.8ZM5.67541 12.8816C5.63821 13.0139 5.5179 13.1003 5.38712 13.1003C5.36013 13.1003 5.33282 13.0964 5.30552 13.0889C5.14593 13.0439 5.05321 12.878 5.09853 12.7187C5.87103 9.98182 8.03615 7.98562 10.7485 7.5086C10.911 7.47919 11.0667 7.5887 11.0959 7.7519C11.1241 7.9151 11.0152 8.07079 10.852 8.0996C8.3688 8.53637 6.3855 10.3688 5.67541 12.8816Z" fill="#898989"/>
</svg>
