<svg width="14" height="14" viewBox="0 0 14 14" fill="none" xmlns="http://www.w3.org/2000/svg">
<path fill-rule="evenodd" clip-rule="evenodd" d="M6.84467 13.3621C10.4965 13.3621 13.4569 10.4017 13.4569 6.74988C13.4569 3.09802 10.4965 0.137634 6.84467 0.137634C3.19281 0.137634 0.232422 3.09802 0.232422 6.74988C0.232422 10.4017 3.19281 13.3621 6.84467 13.3621ZM9.94385 9.48615C10.1636 9.44806 10.4067 9.37482 10.6733 9.26642L10.6074 9.06866C10.5225 9.10382 10.4434 9.12579 10.3701 9.13458C10.2998 9.14337 10.2441 9.14777 10.2031 9.14777C10.0889 9.1507 9.98633 9.13019 9.89551 9.08624C9.80469 9.0423 9.72119 8.9837 9.64502 8.91046C9.57178 8.83722 9.50439 8.75372 9.44287 8.65997C9.38428 8.56622 9.32861 8.47101 9.27588 8.37433C8.98291 7.83527 8.70898 7.28888 8.4541 6.73517C8.19922 6.17853 7.94287 5.62335 7.68506 5.06964C7.64697 4.98761 7.60156 4.89093 7.54883 4.7796C7.49902 4.66534 7.44189 4.54523 7.37744 4.41925C7.31592 4.29327 7.24854 4.1673 7.17529 4.04132C7.10498 3.91534 7.02881 3.79816 6.94678 3.68976C6.86475 3.57843 6.77832 3.48322 6.6875 3.40411C6.59668 3.32208 6.50293 3.26349 6.40625 3.22833C6.29492 3.18732 6.1792 3.15948 6.05908 3.14484C5.93896 3.12726 5.81738 3.11847 5.69434 3.11847C5.43652 3.11847 5.17578 3.14923 4.91211 3.21075C4.65137 3.26935 4.39355 3.34113 4.13867 3.42609L4.2002 3.60626C4.30273 3.56818 4.40967 3.53595 4.521 3.50958C4.63525 3.48322 4.75098 3.47003 4.86816 3.47003C5.03516 3.47003 5.17432 3.51105 5.28564 3.59308C5.3999 3.67511 5.49805 3.77765 5.58008 3.9007C5.66504 4.02081 5.73828 4.15265 5.7998 4.2962C5.86133 4.43683 5.92285 4.56573 5.98438 4.68292C6.02832 4.78253 6.07373 4.88214 6.12061 4.98175C6.17041 5.07843 6.22021 5.17365 6.27002 5.2674C6.08838 5.367 5.92578 5.49005 5.78223 5.63654C5.6416 5.78009 5.51562 5.93536 5.4043 6.10236C5.2959 6.26642 5.20215 6.43634 5.12305 6.61212C5.04688 6.7879 4.98535 6.9549 4.93848 7.1131C4.85645 7.38849 4.7627 7.6507 4.65723 7.89972C4.55176 8.14581 4.42432 8.36847 4.2749 8.56769C4.12549 8.76398 3.94678 8.9295 3.73877 9.06427C3.53369 9.19904 3.28906 9.28986 3.00488 9.33673L3.04883 9.5257C3.29492 9.5257 3.52051 9.50812 3.72559 9.47296C3.93066 9.43781 4.1167 9.388 4.28369 9.32355C4.45068 9.25616 4.60156 9.1756 4.73633 9.08185C4.87109 8.9881 4.99268 8.88116 5.10107 8.76105C5.15674 8.72003 5.25195 8.65558 5.38672 8.56769C5.52441 8.47687 5.69287 8.37872 5.89209 8.27325C6.09131 8.16486 6.31836 8.05646 6.57324 7.94806C6.83105 7.83673 7.10791 7.73859 7.40381 7.65363L7.51367 7.88654C7.57227 8.01251 7.63232 8.14728 7.69385 8.29083C7.75537 8.43439 7.82422 8.57355 7.90039 8.70831C7.97949 8.84308 8.06738 8.96906 8.16406 9.08624C8.26074 9.20343 8.37354 9.29865 8.50244 9.37189C8.56396 9.40411 8.63721 9.43341 8.72217 9.45978C8.79541 9.48322 8.8833 9.50226 8.98584 9.51691C9.08838 9.53448 9.20996 9.54327 9.35059 9.54327C9.52637 9.54327 9.72412 9.52423 9.94385 9.48615ZM6.30518 6.15509C6.36963 6.02325 6.43994 5.89581 6.51611 5.77277L7.26318 7.3504C6.92627 7.45001 6.60986 7.57013 6.31396 7.71075C6.01807 7.85138 5.76025 7.98615 5.54053 8.11505C5.60498 7.99493 5.66211 7.87189 5.71191 7.74591C5.76465 7.617 5.81299 7.48517 5.85693 7.3504C5.90088 7.22736 5.94482 7.09845 5.98877 6.96368C6.03271 6.82892 6.08105 6.69415 6.13379 6.55939C6.18652 6.42169 6.24365 6.28693 6.30518 6.15509Z" fill="#EDDF99"/>
</svg>
