<svg width="24" height="24" viewBox="0 0 24 24" fill="none" xmlns="http://www.w3.org/2000/svg">
<path d="M9.22144 17.9917C9.31022 18.0533 9.4257 18.0604 9.52135 18.0105C9.617 17.9605 9.67714 17.8616 9.67727 17.7537V13.3988C10.2255 14.1298 11.086 14.5601 11.9999 14.5601C12.9137 14.5601 13.7742 14.1298 14.3224 13.3988V17.7537C14.3226 17.8616 14.3827 17.9605 14.4784 18.0105C14.574 18.0604 14.6895 18.0533 14.7783 17.9917L18.5525 15.3788C18.6234 15.33 18.669 15.2521 18.6768 15.1663C18.6847 15.0805 18.6539 14.9956 18.593 14.9347C17.5624 13.904 16.1486 10.7132 16.0644 7.30201H16.3547C16.515 7.30201 16.645 7.17201 16.645 7.01169C16.645 6.85136 16.515 6.72136 16.3547 6.72136H16.0499C15.9341 5.35569 15.1379 4.14035 13.9322 3.48866C12.7263 2.83711 11.2734 2.83711 10.0674 3.48866C8.86167 4.14035 8.06548 5.35569 7.94975 6.72136H7.64491C7.48459 6.72136 7.35459 6.85136 7.35459 7.01169C7.35459 7.17201 7.48459 7.30201 7.64491 7.30201H7.93524C7.85682 10.7132 6.4459 13.9041 5.41527 14.9347C5.35436 14.9956 5.32364 15.0805 5.33155 15.1663C5.33945 15.2521 5.38494 15.33 5.45584 15.3788L9.22144 17.9917ZM14.0322 11.7238C13.8549 12.4729 13.3828 13.1187 12.7229 13.5151C12.6824 13.5358 12.6376 13.5467 12.5922 13.547C12.4732 13.5471 12.3662 13.4746 12.3221 13.3641L12.0928 12.8183H11.907L11.6892 13.3641C11.6589 13.4396 11.5984 13.499 11.5222 13.5278C11.446 13.5564 11.3612 13.5519 11.2886 13.5151C10.6243 13.1211 10.1477 12.4749 9.96766 11.7238C9.92411 11.5725 10.0091 11.4141 10.1592 11.3667C10.7519 11.1662 11.3743 11.0681 11.9999 11.0764C12.6255 11.0681 13.2479 11.1662 13.8406 11.3667C13.9907 11.4141 14.0758 11.5725 14.0322 11.7238L14.0322 11.7238ZM9.67733 7.30223H14.3225V10.5946C13.5794 10.3206 12.7917 10.1886 11.9999 10.2055C11.2081 10.1886 10.4204 10.3206 9.67733 10.5946V7.30223Z" fill="#898989"/>
<path d="M10.6265 11.8309C10.7601 12.2091 10.9856 12.5483 11.2825 12.818L11.4394 12.4202C11.4833 12.3097 11.5904 12.2372 11.7093 12.2374H12.29C12.409 12.2372 12.516 12.3097 12.56 12.4202L12.7168 12.818C13.0127 12.548 13.2372 12.2088 13.37 11.8309C12.4694 11.6058 11.5271 11.6058 10.6265 11.8309Z" fill="#898989"/>
<path d="M18.4683 16.1423L15.1065 18.4649C14.9319 18.585 14.7195 18.6373 14.5092 18.612C14.2987 18.5867 14.1047 18.4856 13.9635 18.3276C13.8222 18.1696 13.7436 17.9655 13.742 17.7536V15.3788L12.5023 15.7213C12.3731 15.7575 12.2855 15.8775 12.2904 16.0117V19.4955C12.2904 19.6558 12.1604 19.7858 12.0001 19.7858C11.8398 19.7858 11.7098 19.6558 11.7098 19.4955V16.0117C11.7147 15.8775 11.6271 15.7575 11.4979 15.7213L10.2582 15.3788V17.7536C10.2585 17.9668 10.1807 18.1727 10.0394 18.3324C9.89797 18.4921 9.70303 18.5943 9.49125 18.6198C9.2796 18.6453 9.06588 18.5923 8.89076 18.4707L5.53165 16.1481C4.50682 16.9058 3 18.4097 3 20.6569C3 20.7339 3.03059 20.8078 3.08502 20.8622C3.13946 20.9166 3.21334 20.9472 3.29032 20.9472H20.7097C20.7867 20.9472 20.8605 20.9166 20.915 20.8622C20.9694 20.8078 21 20.7339 21 20.6569C21 18.4098 19.4932 16.9059 18.4684 16.1425L18.4683 16.1423Z" fill="#898989"/>
</svg>
