<svg width="24" height="24" viewBox="0 0 24 24" fill="none" xmlns="http://www.w3.org/2000/svg">
<path d="M20.2105 2H3.78947C2.8 2 2 2.8 2 3.78947V20.2105C2 21.2 2.8 22 3.78947 22H20.2105C21.2 22 22 21.2 22 20.2105V3.78947C22 2.8 21.2 2 20.2105 2ZM15.0105 7.01052L16.2105 6.84211C16.2526 6.84211 16.2737 6.82106 16.2947 6.77895L16.8421 5.68421C16.8842 5.6 16.9895 5.6 17.0105 5.68421L17.5579 6.77895C17.579 6.8 17.6 6.82105 17.6421 6.84211L18.8421 7.01052C18.9263 7.03158 18.9474 7.11578 18.9053 7.17894L18.0421 8.02105C18.0211 8.0421 18 8.08421 18.021 8.10526L18.2316 9.30527C18.2526 9.38948 18.1684 9.45263 18.0842 9.41053L17.0105 8.84211C16.9895 8.82105 16.9474 8.82105 16.9263 8.84211L15.8526 9.41053C15.7895 9.45263 15.6842 9.38948 15.7053 9.30527L15.9158 8.10526C15.9158 8.06316 15.9158 8.0421 15.8947 8.02105L15.0316 7.17894C14.9053 7.11578 14.9263 7.03158 15.0105 7.01052ZM10.0842 7.01052L11.2842 6.84211C11.3263 6.84211 11.3474 6.82106 11.3684 6.77895L11.9158 5.68421C11.9579 5.6 12.0632 5.6 12.0842 5.68421L12.6316 6.77895C12.6526 6.8 12.6737 6.82105 12.7158 6.84211L13.9158 7.01052C14 7.03158 14.0211 7.11578 13.979 7.17894L13.1158 8.02105C13.0947 8.0421 13.0737 8.08421 13.0947 8.10526L13.3053 9.30527C13.3263 9.38948 13.2421 9.45263 13.1579 9.41053L12.0842 8.84211C12.0632 8.82105 12.0211 8.82105 12 8.84211L10.9263 9.41053C10.8632 9.45263 10.7579 9.38948 10.779 9.30527L10.9895 8.10526C10.9895 8.06316 10.9895 8.0421 10.9684 8.02105L10.1053 7.17894C9.97895 7.11578 10 7.03158 10.0842 7.01052ZM9.83158 13.3474C9.83158 14.1895 9.15789 14.8632 8.31579 14.8632C7.47368 14.8632 6.8 14.1895 6.8 13.3474C6.8 12.5053 7.47368 11.8316 8.31579 11.8316C9.13684 11.8316 9.83158 12.5053 9.83158 13.3474ZM5.15789 7.01052L6.3579 6.84211C6.4 6.84211 6.42105 6.82106 6.4421 6.77895L6.98948 5.68421C7.03158 5.6 7.13684 5.6 7.15789 5.68421L7.70526 6.77895C7.72631 6.8 7.74737 6.82105 7.78947 6.84211L8.98948 7.01052C9.07369 7.03158 9.09474 7.11578 9.05263 7.17894L8.18948 8.02105C8.16843 8.0421 8.14737 8.08421 8.16842 8.10526L8.37894 9.30527C8.4 9.38948 8.31578 9.45263 8.23157 9.41053L7.15789 8.84211C7.13684 8.82105 7.09473 8.82105 7.07368 8.84211L6 9.41053C5.93684 9.45263 5.83158 9.38948 5.85263 9.30527L6.06316 8.10526C6.06316 8.06316 6.06316 8.0421 6.04211 8.02105L5.17894 7.17894C5.05263 7.11578 5.07368 7.03158 5.15789 7.01052ZM19.0947 18.1895C19.0947 18.2737 19.0105 18.3579 18.9263 18.3579H17.9368C17.8526 18.3579 17.7684 18.2737 17.7684 18.1895V16.7368H6.21053V18.1895C6.21053 18.2737 6.12632 18.3579 6.04211 18.3579H5.05263C4.96842 18.3579 4.88421 18.2737 4.88421 18.1895V10.8C4.88421 10.7158 4.96842 10.6316 5.05263 10.6316H6.04211C6.12632 10.6316 6.21053 10.7158 6.21053 10.8V15.4316H19.0947V18.1895ZM19.0947 14.8632H10.3789V12.5474C10.3789 12 10.8842 11.5789 11.4316 11.6842L17.6842 13.0316C18.5053 13.2 19.0947 13.9368 19.0947 14.779V14.8632Z" fill="#BFBFBF"/>
</svg>
