<svg width="24" height="24" viewBox="0 0 24 24" fill="none" xmlns="http://www.w3.org/2000/svg">
<path d="M20.7 20.4H20.4V8.69999C20.4 8.5344 20.2659 8.4 20.1 8.4H15.6V3.29999C15.6 3.1344 15.4659 3 15.3 3H8.69999C8.5344 3 8.4 3.1344 8.4 3.29999V8.4H3.9C3.73441 8.4 3.60001 8.5344 3.60001 8.69999V20.4H3.29999C3.1344 20.4 3 20.5344 3 20.7C3 20.8656 3.1344 21 3.29999 21H3.9H8.69999H10.2H13.8H15.3H20.1H20.7C20.8659 21 21 20.8656 21 20.7C21 20.5344 20.8659 20.4 20.7 20.4ZM8.4 20.4H4.19999V9.00001H8.4V20.4ZM13.5 20.4V18H12.3V20.4H11.7V18H10.5V20.4H9.89998V17.7C9.89998 17.5344 10.0344 17.4 10.2 17.4H13.8C13.9659 17.4 14.1 17.5344 14.1 17.7V20.4H13.5ZM10.5 12.6H13.5C13.6659 12.6 13.8 12.7344 13.8 12.9V14.1C13.8 14.2656 13.6659 14.4 13.5 14.4H10.5C10.3344 14.4 10.2 14.2656 10.2 14.1V12.9C10.2 12.7344 10.3344 12.6 10.5 12.6ZM10.2 11.7V10.5C10.2 10.3344 10.3344 10.2 10.5 10.2H13.5C13.6659 10.2 13.8 10.3344 13.8 10.5V11.7C13.8 11.8656 13.6659 12 13.5 12H10.5C10.3344 12 10.2 11.8656 10.2 11.7ZM10.5 15H13.5C13.6659 15 13.8 15.1344 13.8 15.3V16.5C13.8 16.6656 13.6659 16.8 13.5 16.8H10.5C10.3344 16.8 10.2 16.6656 10.2 16.5V15.3C10.2 15.1344 10.3344 15 10.5 15ZM14.1 9.59999H12.9C12.7344 9.59999 12.6 9.46559 12.6 9.3V7.79999H11.4V9.3C11.4 9.46559 11.2659 9.59999 11.1 9.59999H9.90005C9.73446 9.59999 9.60006 9.46559 9.60006 9.3V4.50001C9.60006 4.33443 9.73446 4.20002 9.90005 4.20002H11.1C11.2659 4.20002 11.4 4.33443 11.4 4.50001V6.00002H12.6V4.50001C12.6 4.33443 12.7344 4.20002 12.9 4.20002H14.1C14.2659 4.20002 14.3999 4.33443 14.3999 4.50001V9.3H14.4C14.4 9.46559 14.2659 9.59999 14.1 9.59999ZM19.8 20.4H15.6V9.00001H19.8V20.4Z" fill="#898989"/>
<path d="M7.50014 9.59998H5.10016C4.93457 9.59998 4.80017 9.73438 4.80017 9.89996V11.1C4.80017 11.2656 4.93457 11.4 5.10016 11.4H7.50017C7.66576 11.4 7.80016 11.2656 7.80016 11.1V9.9C7.80016 9.73438 7.66576 9.59998 7.50014 9.59998Z" fill="#898989"/>
<path d="M7.50014 12H5.10016C4.93457 12 4.80017 12.1344 4.80017 12.3V13.5C4.80017 13.6656 4.93457 13.8 5.10016 13.8H7.50017C7.66576 13.8 7.80016 13.6656 7.80016 13.5V12.3C7.80016 12.1344 7.66576 12 7.50014 12Z" fill="#898989"/>
<path d="M7.50014 14.4H5.10016C4.93457 14.4 4.80017 14.5344 4.80017 14.7V15.9C4.80017 16.0656 4.93457 16.2 5.10016 16.2H7.50017C7.66576 16.2 7.80016 16.0656 7.80016 15.9V14.7C7.80016 14.5344 7.66576 14.4 7.50014 14.4Z" fill="#898989"/>
<path d="M7.50014 16.8H5.10016C4.93457 16.8 4.80017 16.9344 4.80017 17.1V18.3C4.80017 18.4656 4.93457 18.6 5.10016 18.6H7.50017C7.66576 18.6 7.80016 18.4656 7.80016 18.3V17.1C7.80016 16.9344 7.66576 16.8 7.50014 16.8Z" fill="#898989"/>
<path d="M18.9001 9.59998H16.5001C16.3345 9.59998 16.2001 9.73438 16.2001 9.89996V11.1C16.2001 11.2656 16.3345 11.4 16.5001 11.4H18.9001C19.0657 11.4 19.2001 11.2656 19.2001 11.1V9.9C19.2001 9.73438 19.0658 9.59998 18.9001 9.59998Z" fill="#898989"/>
<path d="M18.9001 12H16.5001C16.3345 12 16.2001 12.1344 16.2001 12.3V13.5C16.2001 13.6656 16.3345 13.8 16.5001 13.8H18.9001C19.0657 13.8 19.2001 13.6656 19.2001 13.5V12.3C19.2001 12.1344 19.0658 12 18.9001 12Z" fill="#898989"/>
<path d="M18.9001 14.4H16.5001C16.3345 14.4 16.2001 14.5344 16.2001 14.7V15.9C16.2001 16.0656 16.3345 16.2 16.5001 16.2H18.9001C19.0657 16.2 19.2001 16.0656 19.2001 15.9V14.7C19.2001 14.5344 19.0658 14.4 18.9001 14.4Z" fill="#898989"/>
<path d="M18.9001 16.8H16.5001C16.3345 16.8 16.2001 16.9344 16.2001 17.1V18.3C16.2001 18.4656 16.3345 18.6 16.5001 18.6H18.9001C19.0657 18.6 19.2001 18.4656 19.2001 18.3V17.1C19.2001 16.9344 19.0658 16.8 18.9001 16.8Z" fill="#898989"/>
<path d="M13.2 13.2H10.8V13.8H13.2V13.2Z" fill="#898989"/>
<path d="M13.2 15.6H10.8V16.2H13.2V15.6Z" fill="#898989"/>
<path d="M13.2001 4.80005V6.30006C13.2001 6.46565 13.0657 6.60005 12.9001 6.60005H11.1001C10.9345 6.60005 10.8001 6.46565 10.8001 6.30006V4.80005H10.2001V9.00006H10.8001V7.50005C10.8001 7.33446 10.9345 7.20006 11.1001 7.20006H12.9001C13.0657 7.20006 13.2001 7.33446 13.2001 7.50005V9.00006H13.8001V4.80005H13.2001Z" fill="#898989"/>
<path d="M13.2 10.8H10.8V11.4H13.2V10.8Z" fill="#898989"/>
</svg>
