<svg width="24" height="24" viewBox="0 0 24 24" fill="none" xmlns="http://www.w3.org/2000/svg">
<path d="M11.5556 6.2938C11.5556 6.23269 11.5129 6.15669 11.4604 6.12492C11.4604 6.12492 9.894 5.17292 8 4.60847C6.106 4.04403 4.33333 4.00003 4.33333 4.00003C4.27222 3.99869 4.22222 4.04758 4.22222 4.10869V15.442C4.22222 15.5031 4.27222 15.5574 4.33289 15.5625C4.33289 15.5625 6.18533 15.7198 9.33333 16.8036C10.1736 17.0929 11.4549 17.6756 11.4549 17.6756C11.5104 17.7009 11.556 17.6716 11.556 17.6105L11.5556 6.2938ZM12.444 17.6105C12.444 17.6716 12.4896 17.7009 12.5451 17.6756C12.5451 17.6756 13.8264 17.0929 14.6667 16.8036C17.8147 15.7198 19.6671 15.5625 19.6671 15.5625C19.7278 15.5574 19.7778 15.5031 19.7778 15.442V4.10869C19.7778 4.04758 19.7278 3.99869 19.6667 4.00025C19.6667 4.00025 17.894 4.04425 16 4.60869C14.106 5.17314 12.5396 6.12514 12.5396 6.12514C12.4871 6.15692 12.4444 6.23292 12.4444 6.2938L12.444 17.6105ZM3.33333 15.442C3.33333 15.5031 3.33333 15.6031 3.33356 15.6642L3.33444 16.256C3.33467 16.3171 3.38467 16.3716 3.44533 16.3769L4.03489 16.4289C4.09578 16.4342 4.19533 16.4431 4.25622 16.4489C4.25622 16.4489 6.05844 16.6162 9.04378 17.644C9.73956 17.8834 10.9776 18.4334 10.9776 18.4334C11.0333 18.458 11.0378 18.5067 10.9873 18.5409L9.66 19.4414C9.61044 19.4774 9.56978 19.5067 9.56978 19.5067C9.56978 19.5067 9.52311 19.4882 9.46622 19.4656C9.46622 19.4656 8.88556 19.2347 8.53756 19.1149C5.78444 18.1671 4.11333 17.9989 4.11333 17.9989C4.05267 17.9929 3.95289 17.9836 3.89222 17.978L2.11044 17.8207C2.05 17.8154 2 17.7611 2 17.6998V7.2198C2 7.15869 2.03111 7.06958 2.06911 7.02158C2.06911 7.02158 2.25644 6.78469 2.59911 6.44203C2.94178 6.09936 3.24778 5.84625 3.24778 5.84625C3.29467 5.80736 3.33333 5.82536 3.33333 5.88647V15.442ZM13.4033 19.9391C13.4636 19.9287 13.4713 19.892 13.4204 19.858L12.094 19.0311C12.0422 18.9987 11.9576 18.9987 11.9056 19.0311L10.5793 19.858C10.5284 19.892 10.5364 19.9287 10.5964 19.9391C10.5964 19.9391 10.9716 20.0045 11.9996 20.0045C13.0276 20.0045 13.4033 19.9391 13.4033 19.9391ZM20.6667 5.88647C20.6667 5.82536 20.7053 5.80736 20.7524 5.84625C20.7524 5.84625 21.0584 6.09936 21.4011 6.44203C21.7438 6.78469 21.9311 7.02158 21.9311 7.02158C21.9689 7.06958 22 7.15869 22 7.2198V17.6998C22 17.7609 21.95 17.8154 21.8893 17.8207L20.1076 17.978C20.0469 17.9834 19.9471 17.9927 19.8864 17.9989C19.8864 17.9989 18.2151 18.1674 15.4622 19.1149C15.1144 19.2347 14.5336 19.4656 14.5336 19.4656C14.4767 19.4882 14.43 19.5067 14.43 19.5067C14.43 19.5067 14.3891 19.4774 14.3398 19.4414L13.0124 18.5409C12.9618 18.5067 12.9664 18.458 13.0222 18.4334C13.0222 18.4334 14.2602 17.8834 14.956 17.644C17.9413 16.6162 19.7436 16.4489 19.7436 16.4489C19.8044 16.4434 19.904 16.4345 19.9649 16.4289L20.5544 16.3769C20.6151 16.3716 20.6651 16.3171 20.6653 16.256L20.6662 15.6642C20.6667 15.6031 20.6667 15.5031 20.6667 15.442V5.88647Z" fill="#BFBFBF"/>
</svg>
