<svg width="24" height="24" viewBox="0 0 24 24" fill="none" xmlns="http://www.w3.org/2000/svg">
<path d="M21.9188 16.8141L21.4302 7.168C21.4272 7.11018 21.4099 7.05401 21.3799 7.00451C21.3499 6.95501 21.3081 6.91373 21.2582 6.88436C20.9208 6.68501 20.5896 6.50653 20.2707 6.35148L20.24 5.66744C20.2376 5.61348 20.2228 5.56079 20.1967 5.51352C20.1706 5.46625 20.1339 5.42567 20.0894 5.39498C18.7493 4.4703 17.355 4 15.9454 4C14.5346 4.02206 13.1619 4.46087 12 5.26122C10.8381 4.46093 9.46547 4.02213 8.05482 4C6.64522 4 5.25088 4.46922 3.91074 5.39498C3.86635 5.42572 3.82967 5.4663 3.80355 5.51357C3.77744 5.56083 3.76261 5.61349 3.76021 5.66744L3.72946 6.35148C3.41034 6.50674 3.07918 6.68523 2.74177 6.88436C2.6919 6.91374 2.65008 6.95503 2.62005 7.00452C2.59003 7.05402 2.57275 7.11019 2.56974 7.168L2.08117 16.8126L2.00052 18.2689C1.99668 18.3391 2.01406 18.4089 2.05042 18.4691C2.08678 18.5293 2.14042 18.5772 2.20436 18.6065C2.26831 18.6358 2.3396 18.6452 2.40895 18.6334C2.47829 18.6216 2.54249 18.5893 2.59318 18.5405C2.70485 18.4345 2.82393 18.3365 2.9495 18.2474L2.90929 19.0086C2.9057 19.0751 2.92113 19.1412 2.95377 19.1992C2.9864 19.2573 3.03489 19.3048 3.09356 19.3362C3.15223 19.3677 3.21864 19.3818 3.28503 19.3769C3.35142 19.3719 3.41502 19.3482 3.4684 19.3084C4.64554 18.4356 7.67763 16.9677 10.7613 17.6238L10.7994 17.6453C10.8585 17.6799 10.9265 17.6965 10.9949 17.693L12 17.641L13.0051 17.6934C13.0734 17.6969 13.1413 17.6803 13.2003 17.6457L13.2386 17.6242C16.3223 16.9677 19.3544 18.4356 20.5324 19.3084C20.5926 19.3532 20.6657 19.3773 20.7408 19.3772C20.7883 19.3773 20.8354 19.3677 20.8791 19.3489C20.9228 19.3302 20.9622 19.3027 20.995 19.2682C21.0277 19.2337 21.053 19.1929 21.0695 19.1483C21.0859 19.1036 21.093 19.0561 21.0904 19.0086L21.0504 18.2474C21.1758 18.3367 21.2948 18.4348 21.4063 18.5409C21.457 18.5899 21.5213 18.6224 21.5908 18.6343C21.6603 18.6461 21.7317 18.6367 21.7957 18.6074C21.8598 18.578 21.9135 18.53 21.9498 18.4696C21.9862 18.4092 22.0035 18.3393 21.9994 18.2689L21.9188 16.8141ZM11.6499 16.4445H11.4862C10.3227 15.7049 9.01364 15.2243 7.64796 15.0353C6.63855 14.8973 5.25067 14.8835 4.01891 15.4869L4.45157 5.87452C6.80951 4.31246 9.29152 4.31095 11.6499 5.86936V16.4445ZM16.3518 15.0353C14.9862 15.2244 13.6772 15.705 12.5137 16.4445H12.3501V5.86936C14.7095 4.31095 17.1904 4.31267 19.5479 5.87452L19.9806 15.4869C18.7493 14.8835 17.3614 14.8973 16.3518 15.0353Z" fill="#BFBFBF"/>
</svg>
