<svg width="24" height="24" viewBox="0 0 24 24" fill="none" xmlns="http://www.w3.org/2000/svg">
<path d="M18.8484 3H5.98974C5.4434 3 5 3.58856 5 4.31437V18.015C5.35894 17.7589 5.78651 17.6164 6.24047 17.6164H19.8408V4.31173C19.8381 3.58856 19.3947 3 18.8484 3Z" fill="#BFBFBF"/>
<path d="M6.24047 18.5191C5.90792 18.5191 5.59912 18.6484 5.36686 18.8806C5.12933 19.1182 5 19.4296 5 19.7595C5 20.4431 5.55689 21 6.24047 21H18.851H19.3499C19.0965 20.6437 18.9487 20.2135 18.9487 19.7595C18.9487 19.3029 19.0965 18.8727 19.3499 18.5164H6.24047V18.5191Z" fill="#BFBFBF"/>
</svg>
