<svg width="24" height="24" viewBox="0 0 24 24" fill="none" xmlns="http://www.w3.org/2000/svg">
<path d="M17.85 12.15L15.85 10.15C15.7572 10.0572 15.6313 10.005 15.5 10.005C15.3687 10.005 15.2428 10.0572 15.15 10.15C15.0572 10.2428 15.005 10.3687 15.005 10.5C15.005 10.6313 15.0572 10.7572 15.15 10.85L16.29 12H11.5C11.3674 12 11.2402 12.0527 11.1464 12.1464C11.0527 12.2402 11 12.3674 11 12.5C11 12.6326 11.0527 12.7598 11.1464 12.8535C11.2402 12.9473 11.3674 13 11.5 13H16.29L15.15 14.15C15.1022 14.1949 15.064 14.2491 15.038 14.3093C15.0119 14.3695 14.9985 14.4344 14.9985 14.5C14.9985 14.5656 15.0119 14.6305 15.038 14.6907C15.064 14.7509 15.1022 14.8051 15.15 14.85C15.1949 14.8978 15.2491 14.9359 15.3093 14.962C15.3695 14.9881 15.4344 15.0015 15.5 15.0015C15.5656 15.0015 15.6305 14.9881 15.6907 14.962C15.7509 14.9359 15.8051 14.8978 15.85 14.85L17.85 12.85C17.8978 12.8051 17.936 12.7509 17.962 12.6907C17.9881 12.6305 18.0015 12.5656 18.0015 12.5C18.0015 12.4344 17.9881 12.3695 17.962 12.3093C17.936 12.2491 17.8978 12.1949 17.85 12.15Z" fill="#BFBFBF"/>
<path d="M14 19.5V17H13.7C12.5624 17.0256 11.4551 16.6322 10.5885 15.8947C9.722 15.1572 9.15666 14.127 9 13C8.931 12.3687 8.99609 11.73 9.191 11.1257C9.38591 10.5213 9.70624 9.96494 10.131 9.49294C10.5558 9.02094 11.0755 8.64397 11.6561 8.38669C12.2366 8.12942 12.865 7.99765 13.5 8H14V4.5C14 4.36739 13.9473 4.24021 13.8536 4.14645C13.7598 4.05268 13.6326 4 13.5 4H5.5C5.36739 4 5.24021 4.05268 5.14645 4.14645C5.05268 4.24021 5 4.36739 5 4.5V19.5C5 19.6326 5.05268 19.7598 5.14645 19.8536C5.24021 19.9473 5.36739 20 5.5 20H13.5C13.6326 20 13.7598 19.9473 13.8536 19.8536C13.9473 19.7598 14 19.6326 14 19.5Z" fill="#BFBFBF"/>
</svg>
