<svg width="376" height="97" viewBox="0 0 376 97" fill="none" xmlns="http://www.w3.org/2000/svg">
<path d="M91.2283 91.5629C88.0567 92.8525 85.1639 93.7238 82.5499 94.1769C79.9359 94.63 77.5833 94.8565 75.4921 94.8565C73.8192 94.8565 72.3727 94.752 71.1529 94.5428C69.933 94.3686 68.8874 94.142 68.0161 93.8632C67.0053 93.5495 66.134 93.201 65.4021 92.8176C63.8686 91.9463 62.5267 90.8136 61.3765 89.4194C60.2264 88.0253 59.1808 86.5266 58.2398 84.9234C57.3336 83.3201 56.5145 81.6646 55.7826 79.9568C55.0507 78.249 54.3362 76.6457 53.6391 75.147L52.3321 72.3762C48.812 73.3869 45.5183 74.5545 42.4512 75.8789C39.419 77.1685 36.7179 78.4581 34.3479 79.7477C31.9778 81.0024 29.9738 82.17 28.3357 83.2504C26.7324 84.296 25.5997 85.0628 24.9375 85.5507C23.6479 86.9797 22.2015 88.2518 20.5983 89.3671C18.995 90.4824 17.2001 91.4409 15.2134 92.2425C13.2268 93.0093 11.0136 93.6018 8.5739 94.0201C6.13417 94.4383 3.45047 94.6474 0.522799 94.6474L0 92.3994C3.38076 91.8417 6.29101 90.7613 8.73074 89.158C11.2053 87.5548 13.3314 85.5856 15.1089 83.2504C16.8864 80.8804 18.4025 78.2315 19.6572 75.3039C20.9119 72.3413 22.0272 69.222 23.0031 65.9458C23.5608 64.0637 24.2927 62.0771 25.1989 59.9859C26.1399 57.8947 27.2552 55.8732 28.5448 53.9214C29.8692 51.9348 31.3679 50.0875 33.0409 48.3797C34.7487 46.6371 36.683 45.1732 38.8439 43.9882C38.2514 42.8729 37.6589 41.7402 37.0664 40.59C36.5088 39.405 35.9685 38.22 35.4457 37.035C34.7138 35.6409 33.9819 34.1073 33.25 32.4344C32.5181 30.7266 31.6467 29.1582 30.636 27.7292C29.6601 26.2654 28.4925 25.0455 27.1332 24.0696C25.8088 23.0937 24.1533 22.6058 22.1667 22.6058C20.7725 22.6058 19.3958 22.7626 18.0365 23.0763C16.7121 23.39 15.44 23.7734 14.2201 24.2264L13.4882 22.083C16.5204 21.0722 19.5875 20.2183 22.6895 19.5213C25.8262 18.7893 28.9282 18.4234 31.9953 18.4234C33.4591 18.4234 34.9055 18.5279 36.3345 18.7371C37.7635 18.9113 39.1402 19.2424 40.4646 19.7304C41.6148 20.1486 42.7301 20.8457 43.8105 21.8216C44.891 22.7626 45.9191 23.8953 46.895 25.2198C47.8709 26.5093 48.7771 27.9035 49.6136 29.4022C50.4849 30.9008 51.2865 32.3995 52.0185 33.8982C52.7852 35.3969 53.4649 36.8259 54.0574 38.1852C54.6847 39.5096 55.225 40.6597 55.678 41.6356C58.7451 48.2229 61.7948 54.8276 64.827 61.4497C67.8593 68.037 71.118 74.5371 74.6033 80.9501C75.2307 82.1002 75.8929 83.233 76.59 84.3483C77.3219 85.4636 78.1235 86.4569 78.9949 87.3282C79.901 88.1996 80.8944 88.8966 81.9748 89.4194C83.0553 89.9422 84.2751 90.1862 85.6344 90.1513C86.1223 90.1513 86.7846 90.0991 87.621 89.9945C88.4924 89.8899 89.4334 89.6285 90.4441 89.2103L91.2283 91.5629ZM41.7716 50.0004C40.8654 51.4642 40.0289 52.9804 39.2622 54.5488C38.5303 56.1172 37.8506 57.7204 37.2233 59.3585C36.5959 60.9618 36.0208 62.565 35.498 64.1683C34.9752 65.7715 34.4524 67.305 33.9296 68.7689C33.4068 70.3721 32.8317 71.9405 32.2044 73.4741C31.6119 74.9728 30.9322 76.4366 30.1655 77.8656C32.7795 76.332 35.8466 74.7288 39.3667 73.0558C42.8869 71.3829 46.6511 69.9539 50.6592 68.7689L41.7716 50.0004Z" fill="#FBFBFB"/>
<path d="M166.934 35.9894L164.581 36.094C163.57 33.8982 162.246 31.9464 160.608 30.2386C159.005 28.5308 157.192 27.0844 155.171 25.8994C153.184 24.7144 151.076 23.8256 148.845 23.2331C146.614 22.6058 144.401 22.2921 142.205 22.2921C139.557 22.2921 137.065 22.8149 134.729 23.8605C132.394 24.9061 130.251 26.3351 128.299 28.1474C126.347 29.9598 124.587 32.0859 123.019 34.5256C121.485 36.9305 120.178 39.5096 119.098 42.263C118.052 44.9815 117.25 47.8047 116.693 50.7323C116.135 53.66 115.856 56.518 115.856 59.3062C115.856 62.1293 116.187 64.9002 116.85 67.6187C117.512 70.3373 118.453 72.9338 119.673 75.4084C120.893 77.8482 122.391 80.0962 124.169 82.1525C125.946 84.2089 127.933 86.0038 130.129 87.5373C132.324 89.036 134.729 90.2036 137.343 91.0401C139.957 91.8766 142.728 92.2948 145.656 92.2948C148.305 92.2948 150.64 92.0508 152.661 91.5629C154.683 91.0401 156.426 90.3953 157.889 89.6285C159.388 88.8618 160.643 88.0253 161.654 87.1191C162.664 86.1781 163.501 85.2893 164.163 84.4528C164.825 83.6164 165.313 82.8844 165.627 82.2571C165.975 81.5949 166.237 81.1592 166.411 80.9501L165.574 88.3215C164.668 89.5414 163.414 90.6741 161.81 91.7197C160.242 92.7305 158.395 93.6192 156.269 94.386C154.143 95.1876 151.773 95.7976 149.159 96.2158C146.579 96.6689 143.843 96.8954 140.951 96.8954C137.117 96.8954 133.388 96.5121 129.763 95.7453C126.173 94.9785 122.792 93.8806 119.62 92.4517C116.449 91.0227 113.539 89.2626 110.89 87.1714C108.276 85.0453 106.01 82.6579 104.093 80.009C102.211 77.3602 100.73 74.4325 99.6496 71.226C98.5691 68.0195 98.0115 64.5865 97.9766 60.9269C98.0812 55.2807 99.0571 50.2095 100.904 45.7135C102.786 41.1825 105.278 37.2441 108.38 33.8982C111.517 30.5175 115.159 27.7292 119.307 25.5334C123.454 23.3028 127.881 21.6473 132.586 20.5669C135.06 19.9744 137.901 19.591 141.108 19.4167C144.314 19.2424 147.538 19.1553 150.779 19.1553C153.916 19.1553 156.861 19.1902 159.615 19.2599C162.403 19.3296 164.738 19.3644 166.62 19.3644C166.237 21.0025 165.958 22.4664 165.784 23.7559C165.644 25.0106 165.574 26.1957 165.574 27.311C165.574 28.8794 165.696 30.3432 165.94 31.7025C166.184 33.0269 166.516 34.4559 166.934 35.9894Z" fill="#FBFBFB"/>
<path d="M262.715 93.7064C259.543 94.9959 256.685 95.8673 254.141 96.3204C251.596 96.7735 249.348 97 247.397 97C244.957 97 242.517 96.3552 240.077 95.0657C237.673 93.7761 235.337 92.138 233.072 90.1513C230.841 88.1299 228.733 85.8992 226.746 83.4595C224.759 81.0198 222.965 78.6323 221.361 76.2972C219.793 73.962 218.451 71.836 217.336 69.919C216.255 68.0021 215.488 66.5731 215.035 65.6321C219.462 64.9002 223.418 63.5757 226.903 61.6588C228.402 60.8223 229.865 59.829 231.294 58.6789C232.723 57.5287 233.996 56.1694 235.111 54.601C236.226 53.0326 237.115 51.2377 237.777 49.2162C238.474 47.1947 238.823 44.8944 238.823 42.3153C238.823 39.9801 238.526 37.8715 237.934 35.9894C237.341 34.0725 236.557 32.3821 235.581 30.9183C234.605 29.4196 233.473 28.1474 232.183 27.1018C230.894 26.0214 229.552 25.1326 228.158 24.4356C226.764 23.7385 225.352 23.2331 223.923 22.9195C222.529 22.5709 221.222 22.3967 220.002 22.3967C218.155 22.3967 216.621 22.5883 215.401 22.9717C214.216 23.3551 213.275 23.8779 212.578 24.5401C211.881 25.1675 211.393 25.9168 211.114 26.7882C210.87 27.6246 210.748 28.5134 210.748 29.4544V85.1325C210.748 85.8295 210.853 86.5963 211.062 87.4328C211.306 88.2693 211.742 89.0535 212.369 89.7854C213.031 90.5173 213.972 91.1447 215.192 91.6675C216.412 92.1554 218.015 92.3994 220.002 92.3994V94.3337H184.974V92.3994C186.822 92.3994 188.338 92.2251 189.523 91.8766C190.708 91.4932 191.649 90.9878 192.346 90.3605C193.043 89.6982 193.514 88.9489 193.758 88.1124C194.036 87.2759 194.176 86.3872 194.176 85.4462V28.1474C194.176 27.4504 194.036 26.701 193.758 25.8994C193.514 25.0978 193.043 24.3659 192.346 23.7036C191.684 23.0066 190.76 22.4315 189.575 21.9784C188.39 21.5253 186.857 21.2988 184.974 21.2988V19.3644H220.002C224.951 19.3644 229.621 19.8001 234.013 20.6714C238.404 21.5427 242.238 22.9195 245.515 24.8015C248.826 26.6487 251.44 29.0362 253.357 31.9639C255.308 34.8567 256.284 38.342 256.284 42.4198C256.284 45.8703 255.57 48.8851 254.141 51.4642C252.747 54.0434 250.882 56.2566 248.547 58.1038C246.246 59.951 243.615 61.4846 240.653 62.7044C237.725 63.8894 234.727 64.8305 231.66 65.5275C232.845 67.6884 234.152 69.8493 235.581 72.0102C237.01 74.1711 238.509 76.2449 240.077 78.2315C241.646 80.2182 243.214 82.0654 244.783 83.7732C246.386 85.481 247.937 86.9797 249.436 88.2693C250.934 89.524 252.328 90.5173 253.618 91.2492C254.942 91.9463 256.11 92.2948 257.121 92.2948C257.609 92.2948 258.271 92.2425 259.107 92.138C259.979 92.0334 260.92 91.772 261.93 91.3538L262.715 93.7064Z" fill="#FBFBFB"/>
<path d="M363.201 91.5629C360.029 92.8525 357.136 93.7238 354.522 94.1769C351.908 94.63 349.556 94.8565 347.464 94.8565C345.792 94.8565 344.345 94.752 343.125 94.5428C341.905 94.3686 340.86 94.142 339.988 93.8632C338.978 93.5495 338.106 93.201 337.374 92.8176C335.841 91.9463 334.499 90.8136 333.349 89.4194C332.199 88.0253 331.153 86.5266 330.212 84.9234C329.306 83.3201 328.487 81.6646 327.755 79.9568C327.023 78.249 326.309 76.6457 325.612 75.147L324.305 72.3762C320.784 73.3869 317.491 74.5545 314.424 75.8789C311.391 77.1685 308.69 78.4581 306.32 79.7477C303.95 81.0024 301.946 82.17 300.308 83.2504C298.705 84.296 297.572 85.0628 296.91 85.5507C295.62 86.9797 294.174 88.2518 292.571 89.3671C290.967 90.4824 289.172 91.4409 287.186 92.2425C285.199 93.0093 282.986 93.6018 280.546 94.0201C278.107 94.4383 275.423 94.6474 272.495 94.6474L271.972 92.3994C275.353 91.8417 278.263 90.7613 280.703 89.158C283.178 87.5548 285.304 85.5856 287.081 83.2504C288.859 80.8804 290.375 78.2315 291.63 75.3039C292.884 72.3413 294 69.222 294.975 65.9458C295.533 64.0637 296.265 62.0771 297.171 59.9859C298.112 57.8947 299.228 55.8732 300.517 53.9214C301.842 51.9348 303.34 50.0875 305.013 48.3797C306.721 46.6371 308.655 45.1732 310.816 43.9882C310.224 42.8729 309.631 41.7402 309.039 40.59C308.481 39.405 307.941 38.22 307.418 37.035C306.686 35.6409 305.954 34.1073 305.222 32.4344C304.49 30.7266 303.619 29.1582 302.608 27.7292C301.632 26.2654 300.465 25.0455 299.106 24.0696C297.781 23.0937 296.126 22.6058 294.139 22.6058C292.745 22.6058 291.368 22.7626 290.009 23.0763C288.684 23.39 287.412 23.7734 286.192 24.2264L285.461 22.083C288.493 21.0722 291.56 20.2183 294.662 19.5213C297.799 18.7893 300.901 18.4234 303.968 18.4234C305.431 18.4234 306.878 18.5279 308.307 18.7371C309.736 18.9113 311.113 19.2424 312.437 19.7304C313.587 20.1486 314.702 20.8457 315.783 21.8216C316.863 22.7626 317.892 23.8953 318.867 25.2198C319.843 26.5093 320.749 27.9035 321.586 29.4022C322.457 30.9008 323.259 32.3995 323.991 33.8982C324.758 35.3969 325.437 36.8259 326.03 38.1852C326.657 39.5096 327.197 40.6597 327.65 41.6356C330.717 48.2229 333.767 54.8276 336.799 61.4497C339.832 68.037 343.09 74.5371 346.576 80.9501C347.203 82.1002 347.865 83.233 348.562 84.3483C349.294 85.4636 350.096 86.4569 350.967 87.3282C351.873 88.1996 352.867 88.8966 353.947 89.4194C355.028 89.9422 356.247 90.1862 357.607 90.1513C358.095 90.1513 358.757 90.0991 359.593 89.9945C360.465 89.8899 361.406 89.6285 362.417 89.2103L363.201 91.5629ZM313.744 50.0004C312.838 51.4642 312.001 52.9804 311.235 54.5488C310.503 56.1172 309.823 57.7204 309.196 59.3585C308.568 60.9618 307.993 62.565 307.47 64.1683C306.948 65.7715 306.425 67.305 305.902 68.7689C305.379 70.3721 304.804 71.9405 304.177 73.4741C303.584 74.9728 302.905 76.4366 302.138 77.8656C304.752 76.332 307.819 74.7288 311.339 73.0558C314.859 71.3829 318.623 69.9539 322.632 68.7689L313.744 50.0004Z" fill="#FBFBFB"/>
<path d="M366.341 0L369.605 4.80065L372.678 0H375.865V10.8303H373.753V1.76664L370.105 7.45062H369.068L365.266 1.76664V10.8303H363.115V0H366.341ZM361.003 0V1.76664H357.2V10.8303H355.05V1.76664H351.286V0H361.003Z" fill="#FBFBFB"/>
</svg>
