<svg width="281" height="235" viewBox="0 0 281 235" fill="none" xmlns="http://www.w3.org/2000/svg">
<path d="M281 224.873C271.231 228.838 262.32 231.517 254.269 232.91C246.217 234.303 238.971 235 232.53 235C227.377 235 222.921 234.679 219.164 234.036C215.407 233.5 212.186 232.803 209.502 231.946C206.389 230.982 203.705 229.91 201.45 228.731C196.727 226.052 192.594 222.57 189.051 218.283C185.508 213.997 182.288 209.389 179.389 204.46C176.598 199.53 174.075 194.44 171.821 189.189C169.566 183.939 167.365 179.009 165.218 174.401L161.193 165.882C150.35 168.99 140.205 172.58 130.758 176.652C121.418 180.617 113.098 184.582 105.798 188.547C98.4976 192.404 92.3247 195.994 87.2791 199.316C82.3408 202.531 78.8518 204.888 76.812 206.389C72.8399 210.782 68.3847 214.693 63.4464 218.122C58.5081 221.552 52.9794 224.498 46.8602 226.963C40.741 229.321 33.924 231.142 26.4092 232.428C18.8944 233.714 10.6281 234.357 1.61032 234.357L0 227.445C10.4134 225.731 19.3775 222.409 26.8923 217.479C34.5144 212.55 41.063 206.496 46.5381 199.316C52.0132 192.029 56.6831 183.885 60.5479 174.884C64.4126 165.775 67.8479 156.184 70.8539 146.111C72.5715 140.325 74.826 134.217 77.6172 127.787C80.5158 121.358 83.9511 115.142 87.9232 109.142C92.0027 103.034 96.6189 97.3541 101.772 92.1033C107.032 86.7453 112.99 82.2446 119.646 78.6012C117.821 75.1721 115.996 71.6895 114.171 68.1532C112.454 64.5098 110.79 60.8664 109.179 57.223C106.925 52.9366 104.67 48.2216 102.416 43.078C100.162 37.8272 97.4778 33.005 94.3645 28.6115C91.3586 24.1108 87.7622 20.3602 83.5754 17.3598C79.4959 14.3593 74.3966 12.8591 68.2774 12.8591C63.9832 12.8591 59.7427 13.3413 55.5559 14.3057C51.4764 15.2702 47.558 16.4489 43.8006 17.842L41.5461 11.2517C50.886 8.14409 60.3331 5.5187 69.8877 3.37551C79.5496 1.12517 89.1041 0 98.5513 0C103.06 0 107.515 0.321477 111.917 0.964432C116.318 1.50023 120.559 2.51824 124.638 4.01847C128.181 5.30438 131.616 7.44756 134.944 10.448C138.272 13.3413 141.439 16.824 144.445 20.896C147.451 24.8609 150.242 29.1473 152.819 33.7551C155.503 38.363 157.972 42.9708 160.226 47.5787C162.588 52.1865 164.682 56.58 166.507 60.7592C168.439 64.8313 170.103 68.3675 171.499 71.368C180.946 91.6211 190.339 111.928 199.679 132.288C209.019 152.541 219.057 172.526 229.792 192.243C231.724 195.78 233.764 199.262 235.911 202.692C238.166 206.121 240.635 209.175 243.319 211.854C246.11 214.533 249.169 216.676 252.497 218.283C255.825 219.891 259.583 220.641 263.77 220.534C265.273 220.534 267.312 220.373 269.889 220.051C272.573 219.73 275.471 218.926 278.585 217.64L281 224.873ZM128.664 97.0862C125.873 101.587 123.296 106.248 120.935 111.07C118.68 115.893 116.587 120.822 114.654 125.858C112.722 130.788 110.951 135.717 109.34 140.646C107.73 145.576 106.12 150.291 104.509 154.791C102.899 159.721 101.128 164.543 99.1954 169.258C97.3704 173.866 95.277 178.366 92.9152 182.76C100.967 178.045 110.414 173.116 121.257 167.972C132.1 162.828 143.694 158.435 156.04 154.791L128.664 97.0862Z" fill="white"/>
</svg>
