<svg width="210" height="210" viewBox="0 0 210 210" fill="none" xmlns="http://www.w3.org/2000/svg">
<path fill-rule="evenodd" clip-rule="evenodd" d="M110.331 82.1598L55.5079 97.1961V81.6949L110.331 59.7215V82.1598ZM110.331 150.395L55.5079 140.231V101.353L110.331 86.3256V150.395ZM154.779 140.231L114.176 150.395V86.3256L154.779 101.353V140.231ZM154.779 97.1961L114.176 82.1598V59.7215L154.779 81.6949V97.1961ZM88.8934 30.6501C92.0407 29.9693 95.2279 29.4886 98.436 29.2108C99.545 25.2148 101.119 19.4309 102.094 15.8015L101.682 9.5438L91.5407 15.0237C91.1348 15.1334 90.7177 15.1964 90.2976 15.2115L79.1005 13.1643L80.594 18.984L88.8934 30.6054V30.6501ZM77.6337 34.0292C80.5231 32.9059 83.4802 31.9654 86.4877 31.2133L79.6549 23.5163C78.859 22.8011 78.1167 23.123 78.0273 24.0437L77.6337 34.0292ZM66.8302 39.2231C69.5937 37.6072 72.4586 36.1709 75.4068 34.9232C75.228 30.7752 74.906 24.8215 74.754 21.0401L72.5003 15.2562L64.4512 23.5789C64.1214 23.8034 63.7636 23.9837 63.387 24.1153L52.1362 25.5813L55.3379 30.668L66.8302 39.2231ZM57.1445 45.9099C59.5556 43.9664 62.0855 42.1751 64.7195 40.5462L55.8745 35.2986C54.8908 34.8606 54.2826 35.388 54.4883 36.2999L57.1713 45.9546L57.1445 45.9099ZM48.2637 54.3846C50.4538 51.9164 52.8051 49.5959 55.3022 47.4385C53.8623 43.5498 51.7248 37.9626 50.4101 34.3957L46.4393 29.5952L41.422 39.983C41.104 40.3862 40.7442 40.7547 40.3488 41.0825L30.0729 45.9814L34.7056 49.8254L48.2637 54.3846ZM41.109 63.7175C42.7896 61.1181 44.6295 58.6252 46.6181 56.2529L36.6373 54.0181C35.5731 53.9018 35.1527 54.5991 35.6267 55.3947L41.1359 63.7175H41.109ZM35.3763 74.3734C36.6788 71.4072 38.1725 68.5285 39.848 65.7557C37.2723 62.5017 33.5161 57.8799 31.1729 54.9031L25.9053 51.5776L24.367 63.0023C24.1905 63.4132 23.9685 63.803 23.7052 64.1644L15.4416 71.9955L21.0312 74.2572L35.3406 74.4181L35.3763 74.3734ZM31.477 85.4763C32.2717 82.4735 33.2544 79.5236 34.4194 76.6441L24.2061 77.6095C23.1507 77.8241 22.9629 78.6286 23.6695 79.2365L31.5128 85.4942L31.477 85.4763ZM29.2948 97.5715C29.6125 94.2829 30.1473 91.0188 30.8957 87.8006C27.4436 85.5121 22.4084 82.2492 19.2693 80.1305L13.2236 78.5929L15.2627 89.9372C15.2378 90.4645 15.1629 90.9883 15.0391 91.5016L9.62836 101.505L15.6294 101.889L29.2948 97.5715ZM29.0534 109.336C28.9729 107.924 28.9282 106.493 28.9282 105.063C28.9282 103.373 28.9908 101.693 29.0981 100.03L19.6718 104.133C18.7327 104.67 18.7774 105.474 19.6718 105.841L29.0534 109.336ZM30.7258 121.547C30.0134 118.305 29.5115 115.021 29.2233 111.714C25.2256 110.605 19.4392 109.032 15.8082 108.058L9.54787 108.469L15.0302 118.606C15.1762 119.117 15.2691 119.641 15.3074 120.171L13.2951 131.381L19.1173 129.87L30.7437 121.547H30.7258ZM34.1421 132.775C33.0083 129.901 32.0584 126.956 31.2981 123.961L23.6516 130.755C22.9361 131.56 23.2581 132.302 24.1792 132.382L34.1421 132.775ZM39.5082 143.753C37.8369 140.932 36.3434 138.009 35.0365 135.001C30.8957 135.198 24.9484 135.538 21.1743 135.69L15.3968 138.023L23.7589 145.952C23.9925 146.373 24.2044 146.806 24.3939 147.249L25.9321 158.521L31.003 155.294L39.4813 143.753H39.5082ZM46.2604 153.39C44.2908 150.992 42.4661 148.478 40.796 145.863L35.5999 154.713C35.1617 155.697 35.6983 156.313 36.6016 156.099L46.2425 153.417L46.2604 153.39ZM54.846 162.258C52.3553 160.062 50.0073 157.709 47.8166 155.214C43.9351 156.68 38.3545 158.861 34.795 160.184L30.0192 164.189L40.4383 169.142C40.8622 169.491 41.2488 169.884 41.592 170.313L46.5645 180.548L50.3654 175.882L54.8371 162.258H54.846ZM64.2634 169.329C61.6418 167.66 59.1241 165.833 56.7241 163.858C55.9968 167.214 55.2753 170.569 54.5599 173.924C54.4615 174.988 55.1501 175.408 55.9461 174.925L64.2634 169.329ZM74.9239 174.97C71.9617 173.697 69.0849 172.234 66.3114 170.59C63.0829 173.182 58.4592 176.999 55.49 179.368L52.2077 184.661L63.6374 186.118C64.0501 186.241 64.4398 186.432 64.7911 186.681L72.6791 194.887L74.8702 189.282L74.9239 174.979V174.97ZM86.0316 178.787C83.0336 178.015 80.0857 177.059 77.2045 175.927C77.5443 179.324 77.8901 182.724 78.2419 186.127C78.4744 187.173 79.2614 187.351 79.8696 186.645L86.0316 178.787ZM98.436 180.906C95.0453 180.613 91.6781 180.093 88.3568 179.351C86.0852 182.819 82.8656 187.852 80.7818 191.017L79.2972 197.069L90.6106 194.941C90.9136 194.95 91.2142 194.998 91.5049 195.084L101.647 200.564L102.058 194.306C101.039 190.659 99.5092 184.875 98.4002 180.897L98.436 180.906ZM110.134 181.031C108.47 181.138 106.789 181.201 105.099 181.201C103.668 181.201 102.246 181.201 100.833 181.076L104.321 190.453C104.687 191.347 105.492 191.392 106.029 190.453L110.134 181.031ZM122.1 179.297C118.967 180.012 115.792 180.525 112.593 180.835L108.274 194.494L108.649 200.493L118.657 195.084C119.064 194.978 119.48 194.909 119.9 194.879L131.231 196.979L129.711 190.927C127.618 187.781 124.39 182.757 122.091 179.306L122.1 179.297ZM133.315 175.819C130.435 176.968 127.487 177.938 124.488 178.725L130.686 186.556C131.294 187.262 132.09 187.083 132.314 186.028L133.315 175.819ZM144.128 170.456C141.381 172.098 138.531 173.561 135.596 174.836L135.694 189.139L137.903 194.736L145.764 186.511C146.093 186.283 146.451 186.099 146.829 185.966L158.258 184.482L154.958 179.19C151.989 176.83 147.365 173.039 144.128 170.447V170.456ZM153.688 163.715C151.297 165.692 148.788 167.522 146.176 169.195L154.484 174.756C155.28 175.238 155.978 174.827 155.87 173.754C155.137 170.411 154.41 167.065 153.688 163.715ZM162.488 155.142C160.331 157.608 158.019 159.934 155.566 162.106L160.038 175.712L163.857 180.361L168.802 170.116C169.126 169.731 169.489 169.381 169.885 169.07L180.295 164.118L175.519 160.113C171.942 158.781 166.352 156.608 162.462 155.142H162.488ZM169.473 145.774C167.803 148.4 165.975 150.923 164 153.328L173.668 156.009C174.562 156.224 175.116 155.616 174.678 154.633C172.934 151.674 171.208 148.715 169.473 145.747V145.774ZM175.152 135.046C173.873 138.022 172.403 140.912 170.752 143.7L179.266 155.25L184.337 158.495L185.857 147.213C186.008 146.791 186.196 146.384 186.421 145.997L194.792 138.068L189.006 135.734C185.231 135.574 179.293 135.234 175.152 135.046ZM178.908 123.997C178.142 126.993 177.192 129.94 176.064 132.82L186.018 132.418C186.913 132.346 187.271 131.595 186.546 130.791C183.994 128.532 181.448 126.268 178.908 123.997ZM180.983 111.741C180.698 115.048 180.196 118.333 179.481 121.574L191.107 129.897L196.929 131.408L194.89 120.206C194.941 119.669 195.037 119.137 195.176 118.615L200.659 108.478L194.398 108.067C190.749 109.086 184.972 110.614 180.983 111.723V111.741ZM181.109 100.048C181.225 101.711 181.278 103.391 181.278 105.081C181.278 106.511 181.278 107.941 181.162 109.345L190.544 105.858C191.438 105.492 191.438 104.687 190.544 104.151C187.396 102.792 184.283 101.416 181.109 100.048ZM179.32 87.8542C180.061 91.0614 180.593 94.3133 180.912 97.5894L194.586 101.907L200.578 101.523L195.168 91.5195C195.046 91.0149 194.971 90.5002 194.944 89.9819L197.01 78.6465L190.964 80.1841C187.807 82.2938 182.781 85.5478 179.338 87.8542H179.32ZM175.805 76.6709C176.963 79.5521 177.943 82.5017 178.739 85.5032L186.582 79.2455C187.288 78.6465 187.101 77.8509 186.054 77.6274L175.805 76.6709ZM170.305 65.6663C172.003 68.4756 173.52 71.3898 174.848 74.3913L189.158 74.2393L194.747 72.0223L186.492 64.1913C186.214 63.7764 185.974 63.3364 185.777 62.8771L184.292 51.4613L179.025 54.7869C176.682 57.7727 172.925 62.4212 170.35 65.6663H170.305ZM163.49 56.1635C165.483 58.5424 167.331 61.038 169.026 63.637L174.535 55.2875C175.018 54.4918 174.598 53.7946 173.525 53.9108L163.49 56.1635ZM154.779 47.3223C157.315 49.4869 159.705 51.8163 161.934 54.2952L175.519 49.7092L180.143 45.8652L169.804 40.9842C169.377 40.6393 168.982 40.2563 168.624 39.8399L163.571 29.479L159.609 34.2885C158.321 37.8643 156.192 43.4336 154.761 47.3223H154.779ZM145.371 40.4031C147.996 42.0361 150.52 43.8273 152.928 45.7668L155.611 36.1211C155.808 35.2271 155.2 34.6818 154.216 35.1288L145.416 40.3763L145.371 40.4031ZM134.576 34.8248C137.556 36.0771 140.453 37.5163 143.251 39.1337L154.699 30.5607L157.892 25.4651L146.605 24.0259C146.198 23.8821 145.813 23.6836 145.46 23.4359L137.465 15.131L135.175 20.9328C135.041 24.7142 134.746 30.6769 134.576 34.8248ZM123.477 31.1507C126.484 31.8921 129.441 32.8206 132.331 33.9309L131.866 23.9543C131.786 23.0604 131.035 22.7118 130.239 23.4359L123.477 31.1507ZM112.602 29.2823C115.444 29.5612 118.269 29.9969 121.063 30.5875L129.326 18.9035L130.793 13.0749L119.605 15.1757C119.302 15.1655 119.002 15.1175 118.711 15.0327L108.658 9.62425L108.274 15.6227L112.584 29.2823H112.602ZM105.108 28.9158C106.798 28.9158 108.479 28.9784 110.143 29.0857L106.038 19.6634C105.501 18.7247 104.696 18.7694 104.33 19.6634L100.842 29.041C102.255 28.9605 103.677 28.9158 105.108 28.9158ZM204.969 72.362C204.733 71.6467 204.245 71.0414 203.596 70.6584C202.948 70.2754 202.182 70.1407 201.441 70.2794C200.7 70.4181 200.035 70.8207 199.569 71.4125C199.103 72.0043 198.867 72.7451 198.906 73.4973C198.629 72.6443 198.294 71.811 197.904 71.0032L188.201 62.6358C188.169 62.6059 188.133 62.5817 188.093 62.5643C188.098 62.5376 188.098 62.5105 188.093 62.4838L186.922 49.7092C186.468 48.8779 185.96 48.0776 185.401 47.3134C185.975 47.8002 186.707 48.0612 187.46 48.0473C188.213 48.0334 188.935 47.7457 189.491 47.2381C190.046 46.7304 190.398 46.0376 190.479 45.2894C190.561 44.5413 190.367 43.7891 189.933 43.1738C189.5 42.5585 188.857 42.1223 188.125 41.9469C187.392 41.7715 186.621 41.8689 185.956 42.2209C185.29 42.5728 184.776 43.1553 184.509 43.859C184.243 44.5628 184.242 45.3396 184.507 46.044C183.975 45.318 183.395 44.6282 182.772 43.9789L170.877 38.937C170.812 38.9096 170.742 38.8944 170.672 38.8923C170.679 38.833 170.679 38.7729 170.672 38.7135L165.511 26.9402C164.823 26.2943 164.091 25.6969 163.32 25.1522C164.032 25.418 164.816 25.4153 165.526 25.1445C166.235 24.8737 166.822 24.3534 167.175 23.6812C167.529 23.0091 167.625 22.2311 167.446 21.4932C167.266 20.7553 166.824 20.1081 166.201 19.6729C165.579 19.2378 164.819 19.0445 164.064 19.1293C163.309 19.2142 162.611 19.5713 162.101 20.1338C161.59 20.6963 161.303 21.4256 161.292 22.1849C161.281 22.9442 161.547 23.6814 162.041 24.2583C161.31 23.7392 160.549 23.2646 159.761 22.8369L146.99 21.782L138.502 12.1541C137.648 11.7566 136.77 11.4132 135.873 11.1261C136.626 11.1643 137.367 10.9274 137.958 10.4595C138.548 9.99159 138.949 9.32475 139.084 8.58347C139.219 7.84219 139.079 7.07715 138.691 6.4312C138.303 5.78525 137.693 5.30255 136.975 5.07322C136.257 4.84389 135.48 4.88362 134.789 5.18499C134.098 5.48636 133.541 6.02876 133.221 6.71092C132.901 7.39308 132.84 8.16836 133.05 8.892C133.26 9.61564 133.726 10.2382 134.362 10.6434C133.506 10.3714 132.633 10.1535 131.75 9.99077L119.453 12.8782L108.649 6.31662C107.759 6.20257 106.863 6.14287 105.966 6.13783C106.7 5.94552 107.339 5.4926 107.763 4.86375C108.187 4.23491 108.367 3.4732 108.27 2.72106C108.173 1.96891 107.806 1.27782 107.236 0.777024C106.666 0.276225 105.934 0 105.175 0C104.416 0 103.683 0.276225 103.114 0.777024C102.544 1.27782 102.176 1.96891 102.079 2.72106C101.982 3.4732 102.163 4.23491 102.587 4.86375C103.011 5.4926 103.649 5.94552 104.383 6.13783C103.438 6.13646 102.494 6.19918 101.557 6.32556L90.5748 12.8961L78.0541 10.0176C77.1696 10.1746 76.297 10.3927 75.4426 10.6702C76.0758 10.261 76.5383 9.63529 76.7437 8.91007C76.9491 8.18486 76.8833 7.40971 76.5586 6.72945C76.2339 6.0492 75.6725 5.51038 74.9794 5.21366C74.2862 4.91695 73.5087 4.88263 72.7921 5.11714C72.0755 5.35164 71.4688 5.83892 71.0854 6.48792C70.702 7.13693 70.5681 7.90326 70.7088 8.64375C70.8494 9.38423 71.2549 10.0482 71.8496 10.5116C72.4443 10.975 73.1874 11.2062 73.9401 11.1619C73.0438 11.4548 72.1657 11.801 71.3108 12.1988L62.9487 21.8357L50.2044 22.9174C49.4158 23.3472 48.6542 23.8249 47.9239 24.3477C48.4119 23.7751 48.6745 23.0443 48.6624 22.2922C48.6503 21.54 48.3644 20.8181 47.8583 20.2614C47.3521 19.7047 46.6603 19.3515 45.9124 19.2679C45.1645 19.1842 44.4118 19.3759 43.7951 19.807C43.1783 20.2381 42.7399 20.8791 42.5619 21.61C42.3838 22.3408 42.4783 23.1115 42.8277 23.7778C43.1771 24.444 43.7574 24.9602 44.46 25.2296C45.1626 25.4991 45.9394 25.5034 46.645 25.2416C45.8767 25.7896 45.1448 26.3868 44.4538 27.0296L39.4098 38.8655C39.4057 38.9131 39.4057 38.961 39.4098 39.0086H39.3025L27.4793 44.0147C26.8618 44.6667 26.2853 45.3564 25.7533 46.0797C26.0164 45.3725 26.0127 44.5935 25.7427 43.8888C25.4726 43.1841 24.9549 42.602 24.2864 42.2514C23.6179 41.9008 22.8444 41.8058 22.1109 41.9842C21.3774 42.1626 20.734 42.6022 20.3014 43.2206C19.8688 43.839 19.6765 44.5939 19.7606 45.3438C19.8446 46.0937 20.1993 46.7873 20.7582 47.2946C21.317 47.802 22.0417 48.0883 22.7966 48.1C23.5514 48.1117 24.2846 47.8479 24.8589 47.3581C24.3061 48.1235 23.7984 48.9204 23.3386 49.745L22.0865 62.5196H22.0149L12.3203 70.9764C11.9346 71.786 11.6001 72.619 11.3187 73.4705C11.3791 72.715 11.1623 71.9633 10.7088 71.3559C10.2553 70.7484 9.59603 70.3268 8.85422 70.1697C8.11241 70.0126 7.33876 70.1308 6.67778 70.5023C6.0168 70.8737 5.5137 71.4729 5.26244 72.1881C5.01119 72.9032 5.02897 73.6853 5.31246 74.3883C5.59596 75.0913 6.12578 75.6671 6.80295 76.0081C7.48013 76.3491 8.25835 76.4321 8.99226 76.2415C9.72616 76.0509 10.3656 75.5998 10.791 74.9724C10.4961 75.8709 10.2601 76.7876 10.0845 77.7168L12.9285 90.2322C12.9399 90.289 12.961 90.3435 12.9911 90.3931L12.9016 90.5004L6.31932 101.514C6.20522 102.403 6.14549 103.299 6.14045 104.196C5.94806 103.462 5.49495 102.824 4.86583 102.4C4.23672 101.976 3.47469 101.796 2.72222 101.893C1.96975 101.99 1.27837 102.357 0.777356 102.927C0.276343 103.496 0 104.229 0 104.987C0 105.745 0.276343 106.478 0.777356 107.047C1.27837 107.617 1.96975 107.984 2.72222 108.081C3.47469 108.178 4.23672 107.998 4.86583 107.574C5.49495 107.15 5.94806 106.512 6.14045 105.778C6.14567 106.722 6.20539 107.666 6.31932 108.603L12.9195 119.616C12.9483 119.669 12.9879 119.715 13.0358 119.751C13.0066 119.793 12.991 119.842 12.9911 119.894L10.1381 132.409C10.3107 133.288 10.5347 134.157 10.8089 135.01C10.3979 134.373 9.76859 133.907 9.03873 133.699C8.30886 133.492 7.52841 133.557 6.84333 133.883C6.15825 134.21 5.61546 134.774 5.31649 135.471C5.01751 136.168 4.98282 136.95 5.2189 137.671C5.45498 138.392 5.94567 139.002 6.59919 139.387C7.25271 139.773 8.0243 139.907 8.76967 139.765C9.51503 139.623 10.1831 139.214 10.649 138.616C11.1148 138.017 11.3465 137.269 11.3008 136.512C11.5971 137.408 11.9465 138.286 12.3471 139.14L22.0865 147.562C22.0774 147.597 22.0774 147.634 22.0865 147.669L23.3117 160.47C23.7369 161.262 24.2119 162.027 24.7337 162.759C24.1458 162.287 23.4061 162.045 22.6527 162.078C21.8994 162.111 21.1839 162.418 20.6401 162.94C20.0963 163.462 19.7613 164.165 19.6978 164.916C19.6343 165.667 19.8465 166.415 20.2948 167.021C20.7432 167.627 21.397 168.05 22.134 168.209C22.8711 168.368 23.641 168.254 24.2998 167.887C24.9587 167.521 25.4614 166.927 25.7141 166.216C25.9667 165.506 25.9521 164.728 25.6728 164.028C26.2215 164.79 26.8189 165.516 27.4614 166.2L39.2846 171.207C39.3469 171.215 39.4101 171.215 39.4724 171.207C39.4599 171.278 39.4599 171.35 39.4724 171.421L44.5791 183.195C45.2305 183.811 45.9238 184.381 46.6539 184.902C45.9414 184.64 45.1576 184.646 44.4493 184.919C43.741 185.193 43.1568 185.715 42.8061 186.389C42.4554 187.062 42.3623 187.84 42.5442 188.577C42.7261 189.314 43.1705 189.959 43.7942 190.392C44.4179 190.825 45.1782 191.016 45.9325 190.929C46.6869 190.842 47.3836 190.483 47.8922 189.919C48.4008 189.355 48.6865 188.626 48.6956 187.867C48.7047 187.108 48.4367 186.372 47.9418 185.796C48.7103 186.341 49.5107 186.839 50.3386 187.289L63.1365 188.353L71.597 197.954C72.4085 198.34 73.2451 198.672 74.1011 198.946C73.348 198.911 72.6081 199.152 72.0195 199.623C71.431 200.094 71.0341 200.763 70.9029 201.505C70.7718 202.247 70.9153 203.012 71.3068 203.656C71.6983 204.3 72.3109 204.779 73.0303 205.005C73.7496 205.23 74.5265 205.186 75.2158 204.881C75.9051 204.576 76.4597 204.03 76.776 203.346C77.0923 202.662 77.1486 201.886 76.9345 201.164C76.7204 200.441 76.2505 199.821 75.6125 199.42C76.5109 199.712 77.4283 199.942 78.3582 200.108L90.6553 197.23L101.486 203.711C102.422 203.837 103.367 203.9 104.312 203.899C103.583 204.091 102.949 204.542 102.528 205.167C102.107 205.792 101.929 206.55 102.026 207.297C102.123 208.044 102.488 208.731 103.055 209.228C103.621 209.726 104.349 210 105.103 210C105.857 210 106.585 209.726 107.152 209.228C107.718 208.731 108.084 208.044 108.181 207.297C108.278 206.55 108.099 205.792 107.679 205.167C107.258 204.542 106.624 204.091 105.895 203.899C106.792 203.894 107.688 203.834 108.578 203.72L119.569 197.14L132.036 200.019C132.965 199.843 133.882 199.61 134.782 199.321C134.146 199.727 133.68 200.349 133.47 201.073C133.26 201.796 133.321 202.572 133.641 203.254C133.961 203.936 134.519 204.479 135.209 204.78C135.9 205.081 136.677 205.121 137.395 204.892C138.113 204.662 138.723 204.18 139.111 203.534C139.499 202.888 139.639 202.123 139.504 201.381C139.369 200.64 138.969 199.973 138.378 199.505C137.787 199.037 137.046 198.801 136.293 198.839C137.144 198.559 137.978 198.228 138.789 197.846L147.195 188.219L159.922 187.137C160.755 186.689 161.556 186.185 162.319 185.626C161.828 186.199 161.562 186.931 161.572 187.685C161.582 188.439 161.866 189.164 162.372 189.724C162.878 190.284 163.571 190.64 164.32 190.726C165.07 190.812 165.825 190.623 166.445 190.192C167.065 189.762 167.507 189.121 167.688 188.389C167.869 187.656 167.777 186.883 167.429 186.214C167.081 185.545 166.501 185.025 165.797 184.752C165.094 184.48 164.315 184.472 163.606 184.732C164.332 184.21 165.023 183.639 165.672 183.025L170.752 171.233C170.756 171.207 170.756 171.18 170.752 171.153C170.793 171.162 170.836 171.162 170.877 171.153L182.7 166.147C183.345 165.464 183.943 164.738 184.489 163.975C184.202 164.681 184.182 165.469 184.433 166.189C184.685 166.91 185.19 167.514 185.855 167.889C186.52 168.264 187.298 168.384 188.045 168.226C188.792 168.069 189.456 167.644 189.913 167.033C190.369 166.422 190.587 165.665 190.526 164.904C190.465 164.144 190.128 163.431 189.58 162.901C189.031 162.37 188.308 162.058 187.545 162.022C186.783 161.986 186.033 162.229 185.437 162.705C185.964 161.977 186.442 161.216 186.868 160.426L188.031 147.651C188.035 147.621 188.035 147.591 188.031 147.562L197.681 139.185C198.09 138.333 198.442 137.455 198.736 136.557C198.687 137.311 198.915 138.058 199.377 138.656C199.838 139.255 200.502 139.665 201.244 139.811C201.987 139.956 202.756 139.826 203.41 139.445C204.063 139.064 204.555 138.458 204.794 137.741C205.033 137.024 205.003 136.244 204.709 135.548C204.415 134.851 203.877 134.286 203.197 133.957C202.516 133.628 201.738 133.558 201.01 133.76C200.281 133.962 199.651 134.422 199.237 135.055C199.51 134.202 199.731 133.333 199.899 132.454L197.064 119.938C197.051 119.88 197.026 119.826 196.992 119.777C197.05 119.742 197.099 119.693 197.135 119.634L203.726 108.621C203.853 107.685 203.915 106.741 203.914 105.796C204.106 106.522 204.556 107.154 205.18 107.573C205.804 107.991 206.559 108.169 207.305 108.072C208.05 107.975 208.735 107.61 209.23 107.046C209.726 106.482 210 105.756 210 105.005C210 104.254 209.726 103.528 209.23 102.964C208.735 102.399 208.05 102.034 207.305 101.938C206.559 101.841 205.804 102.018 205.18 102.437C204.556 102.856 204.106 103.487 203.914 104.214C203.914 103.317 203.854 102.421 203.735 101.532L197.144 90.5182C197.123 90.4834 197.099 90.4505 197.072 90.4199C197.101 90.3769 197.119 90.328 197.126 90.2769L199.97 77.7615C199.789 76.8336 199.553 75.9172 199.264 75.0171C199.659 75.6857 200.292 76.1816 201.036 76.4066C201.779 76.6317 202.581 76.5696 203.281 76.2325C203.981 75.8954 204.529 75.308 204.817 74.5863C205.105 73.8647 205.112 73.0614 204.835 72.3352L204.969 72.362Z" fill="white"/>
</svg>
