<svg width="24" height="24" viewBox="0 0 24 24" fill="none" xmlns="http://www.w3.org/2000/svg">
<path d="M16.0945 8.82007C15.0619 8.14322 13.8269 7.74959 12.5 7.74959C11.1731 7.74959 9.93812 8.14322 8.90548 8.82007L12.0128 3.28524C12.2263 2.90492 12.7737 2.90492 12.9872 3.28524L16.0945 8.82007ZM19.0624 14.1065L21.9277 19.2103C22.1368 19.5828 21.8676 20.0427 21.4404 20.0427H15.7123C17.7136 18.9178 19.0656 16.7744 19.0656 14.3152C19.0656 14.2454 19.0645 14.1758 19.0624 14.1065ZM9.28769 20.0427H3.55959C3.13243 20.0427 2.86323 19.5828 3.07234 19.2103L5.93764 14.1065C5.93548 14.1758 5.93439 14.2454 5.93439 14.3152C5.93439 16.7744 7.28641 18.9178 9.28769 20.0427ZM12.5 20.0427C9.33682 20.0427 6.77255 17.4784 6.77255 14.3152C6.77255 11.152 9.33682 8.58776 12.5 8.58776C15.6632 8.58776 18.2275 11.152 18.2275 14.3152C18.2275 17.4784 15.6632 20.0427 12.5 20.0427Z" fill="#BFBFBF"/>
</svg>
