<svg width="24" height="24" viewBox="0 0 24 24" fill="none" xmlns="http://www.w3.org/2000/svg">
<path fill-rule="evenodd" clip-rule="evenodd" d="M11.4584 11.4001V6.00041C11.4584 5.66917 11.7272 5.40039 12.0583 5.40039C12.3895 5.40039 12.6583 5.66918 12.6583 6.00041V12.0003C12.6583 12.3317 12.3897 12.6002 12.0583 12.6002H6.05876C5.72752 12.6002 5.45874 12.3314 5.45874 12.0003C5.45874 11.6691 5.72753 11.4003 6.05876 11.4003L11.4584 11.4001Z" fill="#FBFBFB"/>
<path fill-rule="evenodd" clip-rule="evenodd" d="M13.258 12C13.258 12.6626 12.7208 13.1999 12.0581 13.1999C11.3953 13.1999 10.8582 12.6626 10.8582 12C10.8582 11.3372 11.3953 10.8 12.0581 10.8C12.7208 10.8 13.258 11.3372 13.258 12Z" fill="#FBFBFB"/>
<path fill-rule="evenodd" clip-rule="evenodd" d="M12.0001 19.7999C7.69509 19.7999 4.20018 16.305 4.20018 12C4.20018 7.69537 7.69509 4.20011 12.0001 4.20011C16.3047 4.20011 19.8 7.69502 19.8 12C19.8 12.3312 20.0687 12.6 20.4 12.6C20.7312 12.6 21 12.3312 21 12C21 7.03312 16.9672 3 12 3C7.03277 3 3 7.03277 3 12C3 16.9672 7.03277 21 12 21C12.3311 21 12.5999 20.7312 12.5999 20.4001C12.5999 20.0689 12.3311 19.8001 12 19.8001L12.0001 19.7999Z" fill="#FBFBFB"/>
<path fill-rule="evenodd" clip-rule="evenodd" d="M17.2597 13.1484C16.9795 13.1156 16.6963 13.1156 16.4159 13.1484L16.2248 13.7049C15.9876 13.7526 15.7568 13.8274 15.537 13.9284L15.0552 13.5904C14.8091 13.7286 14.5799 13.8951 14.3725 14.0865L14.5451 14.6491C14.3813 14.8269 14.2386 15.0234 14.1202 15.2342L13.5317 15.244C13.4139 15.5004 13.3265 15.7697 13.271 16.0465L13.7413 16.4003C13.7133 16.6406 13.7133 16.8831 13.7413 17.1235L13.271 17.4772C13.3266 17.754 13.4139 18.0233 13.5317 18.2798L14.1202 18.2895C14.2386 18.5004 14.3813 18.6968 14.5451 18.8746L14.3725 19.4373C14.5801 19.6286 14.8091 19.7951 15.0552 19.9333L15.537 19.5954C15.7568 19.6963 15.9876 19.7713 16.2248 19.8188L16.4159 20.3755C16.6963 20.4082 16.9794 20.4082 17.2597 20.3755L17.4509 19.8188C17.6881 19.7713 17.9188 19.6963 18.1387 19.5954L18.6206 19.9333C18.8665 19.7951 19.0955 19.6286 19.3032 19.4373L19.1305 18.8746C19.2946 18.6968 19.4371 18.5006 19.5556 18.2895L20.144 18.2798C20.2617 18.0233 20.3493 17.7539 20.4047 17.4772L19.9343 17.1235C19.9625 16.8831 19.9625 16.6406 19.9343 16.4003L20.4047 16.0465C20.3491 15.7697 20.2617 15.5004 20.144 15.244L19.5556 15.2342C19.4371 15.0234 19.2945 14.8269 19.1305 14.6491L19.3032 14.0865C19.0955 13.8951 18.8664 13.7286 18.6206 13.5904L18.1387 13.9284C17.9188 13.8274 17.6881 13.7526 17.4509 13.7049L17.2597 13.1484ZM16.8377 15.8655C17.3325 15.8655 17.7341 16.2671 17.7341 16.7619C17.7341 17.2565 17.3325 17.6582 16.8377 17.6582C16.3431 17.6582 15.9414 17.2565 15.9414 16.7619C15.9414 16.2671 16.3431 15.8655 16.8377 15.8655Z" fill="#FBFBFB"/>
</svg>
