<svg width="24" height="24" viewBox="0 0 24 24" fill="none" xmlns="http://www.w3.org/2000/svg">
<path d="M12.008 19.7119C12.1295 19.7119 12.243 19.6513 12.3105 19.5501C12.5407 19.2062 17.9447 11.089 17.9447 7.93679C17.9447 4.66318 15.2816 2 12.008 2C8.73435 2 6.07117 4.66318 6.07117 7.93679C6.07117 11.089 11.4752 19.2062 11.7054 19.5501C11.773 19.6513 11.8864 19.7119 12.008 19.7119ZM9.22532 8.02531C9.22532 6.49072 10.4735 5.24232 12.008 5.24232C13.5424 5.24232 14.7906 6.49072 14.7906 8.02531C14.7906 9.55955 13.5424 10.8076 12.008 10.8076C10.4735 10.8076 9.22532 9.55955 9.22532 8.02531Z" fill="#BFBFBF"/>
<path d="M15.0624 18.4185C15.7878 18.6228 16.236 18.899 16.236 19.2039C16.236 19.8322 14.3428 20.3417 12.008 20.3417C9.6731 20.3417 7.77997 19.8322 7.77997 19.2039C7.77997 18.899 8.2281 18.6228 8.95353 18.4185C6.61565 18.7243 5 19.3674 5 20.114C5 21.1556 8.13762 22 12.008 22C15.8783 22 19.0159 21.1556 19.0159 20.114C19.0159 19.3674 17.4003 18.7243 15.0624 18.4185Z" fill="#BFBFBF"/>
</svg>
