<svg width="100" height="36" viewBox="0 0 100 36" fill="none" xmlns="http://www.w3.org/2000/svg">
<path d="M77.9806 22.8123V19.8598H79.6812L80.1044 20.283V22.3891L79.6812 22.8123H77.9806ZM78.4884 20.3676V22.3045H79.4253L79.5966 22.1332V20.5389L79.4253 20.3676H78.4884ZM82.0915 19.8598H84.0579V20.3676H82.5993V21.0821H83.737V21.59H82.5993V22.3045H84.0579V22.8123H82.0915V19.8598ZM86.0488 22.3891V21.897H86.5567V22.1332L86.7279 22.3045H87.4936L87.6668 22.1313V21.7632L87.4956 21.59H86.472L86.0488 21.1668V20.283L86.472 19.8598H87.7495L88.1727 20.283V20.7751H87.6648V20.5389L87.4936 20.3656H86.7299L86.5586 20.5389V20.9109L86.7279 21.0821H87.7495L88.1727 21.5053V22.3891L87.7495 22.8123H86.472L86.0488 22.3891ZM90.1597 19.8598H90.6676V22.8123H90.1597V19.8598ZM92.6526 22.3891V20.283L93.0758 19.8598H94.3533L94.7765 20.283V20.8184H94.2686V20.5389L94.0974 20.3656H93.3337L93.1624 20.5389V22.1332L93.3317 22.3045H94.0974L94.2686 22.1332V21.7277H93.871V21.2199H94.7765V22.3891L94.3533 22.8123H93.0758L92.6526 22.3891ZM96.7635 22.8123V19.8598H97.5056L98.3795 22.0132V19.8598H98.8874V22.8123H98.1492L97.2714 20.6629V22.8123H96.7635Z" fill="#9D9D9D"/>
<path d="M21.0778 4.57045H21.127C21.4485 4.57045 21.6782 4.68527 21.816 4.91491C21.816 5.1708 20.4906 8.35627 17.8399 14.4713C15.6747 19.2807 14.1328 23.1125 13.2142 25.9666V26.2127C13.7785 25.55 16.813 21.669 22.3179 14.5698C23.827 12.7195 25.1884 11.2104 26.4023 10.0425H26.6975C26.8944 10.0622 26.9928 10.1114 26.9928 10.1901C26.9009 10.6166 25.7396 13.0902 23.5088 17.6109C21.2911 22.6433 20.1822 26.0585 20.1822 27.8562C20.1822 28.4271 20.4283 29.1094 20.9204 29.9033V29.9526C20.7695 30.1822 20.4906 30.297 20.0838 30.297C19.5195 30.297 19.2374 30.0313 19.2374 29.4998C19.4933 27.0656 19.7918 25.3564 20.133 24.3722C21.0385 21.6624 22.4458 18.3129 24.3552 14.3237C24.6898 13.6676 25.1884 12.6047 25.8511 11.135H25.8019C24.2469 12.7818 22.0915 15.3866 19.3358 18.9494C16.3898 22.8533 14.264 25.5565 12.9583 27.0591C12.7812 27.164 12.6335 27.2165 12.5154 27.2165C12.5154 27.1968 12.417 27.0787 12.2202 26.8622V26.7146C12.4105 24.4313 14.7495 17.9947 19.2374 7.4049H19.1784C10.1764 18.2703 4.55338 25.8026 2.30944 30.0018C1.9945 30.9728 1.83047 31.7175 1.81735 32.2359C1.68613 32.3802 1.4368 32.4819 1.06937 32.541C0.537912 32.4491 0.272182 32.331 0.272182 32.1867V31.8914C0.272182 29.9952 2.97541 24.4542 8.38186 15.2685L9.7794 12.7785C10.1009 12.6801 10.2977 12.6309 10.3699 12.6309C10.8554 12.6309 11.1376 12.7818 11.2163 13.0836C10.5471 14.35 8.65743 17.7159 5.54741 23.1814L5.39978 23.4766H5.4982C9.59897 17.8208 14.5429 11.568 20.3299 4.71807C20.6448 4.61965 20.8941 4.57045 21.0778 4.57045ZM28.9985 17.8963C29.5038 17.8963 30.1993 18.2539 31.085 18.9691C31.5181 18.5491 31.7707 18.3392 31.8428 18.3392H32.0397C32.1512 18.3392 32.2332 18.3917 32.2857 18.4966C32.2857 18.6344 31.8658 19.307 31.026 20.5142C30.5601 21.2097 30.3272 21.7576 30.3272 22.1578V22.2267C30.3272 22.5023 30.5372 22.6401 30.9571 22.6401C32.0266 22.6401 33.5028 21.4492 35.3859 19.0675H35.5729C35.6057 19.0675 35.6385 19.097 35.6713 19.1561C33.8276 21.6034 32.2365 22.8271 30.898 22.8271C30.2222 22.8271 29.8843 22.5416 29.8843 21.9708C29.9302 21.4394 30.2255 20.734 30.7701 19.8548C30.7438 19.8548 30.6389 19.845 30.4551 19.8253C28.3884 21.9315 27.0072 22.9845 26.3117 22.9845H26.1936C25.9377 22.932 25.8098 22.8041 25.8098 22.6007V22.3842C25.8426 21.6165 26.6234 20.2583 28.1521 18.3097C28.3687 18.0341 28.6508 17.8963 28.9985 17.8963ZM29.3824 18.9395C28.3129 20.0156 27.4895 20.9932 26.9121 21.8724C26.748 22.1873 26.666 22.3678 26.666 22.4137H26.7251C27.2697 22.0856 28.3884 21.0752 30.0812 19.3824C29.8449 19.1659 29.612 19.0183 29.3824 18.9395ZM41.9189 17.788H42.1256C42.3093 17.788 42.4274 17.8471 42.4799 17.9652V18.0144C42.4799 18.0538 42.4176 18.4343 42.2929 19.1561C42.2732 19.307 42.2634 19.4349 42.2634 19.5399C42.2634 20.2026 42.5619 20.5339 43.159 20.5339C43.6904 20.5339 44.4319 20.2354 45.3832 19.6383C45.6457 19.4415 45.8852 19.2479 46.1017 19.0576C46.1279 19.038 46.1509 19.0281 46.1706 19.0281C46.2756 19.0544 46.3281 19.0839 46.3281 19.1167V19.1561C46.3281 19.2348 46.082 19.4546 45.5899 19.8155C44.5795 20.4388 43.6872 20.7504 42.9129 20.7504C42.2831 20.7504 41.8763 20.5044 41.6926 20.0123C41.5941 19.6974 41.5449 19.3988 41.5449 19.1167C41.5515 19.0708 41.5548 19.0347 41.5548 19.0084V18.9297C41.5548 18.7722 41.5712 18.5787 41.604 18.349H41.5941C41.2267 18.5262 40.6592 18.9363 39.8915 19.5793C38.9139 20.5175 38.2512 21.1933 37.9034 21.6067C37.3654 22.2169 36.8635 22.7516 36.3976 23.2109C36.3058 23.2831 36.2008 23.3192 36.0827 23.3192H35.9941C35.6923 23.3192 35.502 23.2142 35.4233 23.0042V22.8763C35.4233 22.6204 36.1221 21.2327 37.5196 18.7132C37.7558 18.3129 37.9198 18.0964 38.0117 18.0636C38.202 17.9914 38.3791 17.9553 38.5432 17.9553C39.0024 17.9947 39.2321 18.1161 39.2321 18.3195C39.2124 18.3851 39.0451 18.6738 38.7302 19.1856C38.3759 19.8417 38.0544 20.4388 37.7657 20.9768H37.7853C38.8089 19.9664 39.593 19.2479 40.1375 18.8214C41.0102 18.1325 41.604 17.788 41.9189 17.788ZM49.1507 17.8963C49.6559 17.8963 50.3514 18.2539 51.2372 18.9691C51.6702 18.5491 51.9228 18.3392 51.995 18.3392H52.1918C52.3034 18.3392 52.3854 18.3917 52.4379 18.4966C52.4379 18.6344 52.018 19.307 51.1781 20.5142C50.7123 21.2097 50.4793 21.7576 50.4793 22.1578V22.2267C50.4793 22.5023 50.6893 22.6401 51.1092 22.6401C52.1787 22.6401 53.655 21.4492 55.5381 19.0675H55.725C55.7579 19.0675 55.7907 19.097 55.8235 19.1561C53.9798 21.6034 52.3887 22.8271 51.0502 22.8271C50.3744 22.8271 50.0365 22.5416 50.0365 21.9708C50.0824 21.4394 50.3776 20.734 50.9222 19.8548C50.896 19.8548 50.791 19.845 50.6073 19.8253C48.5405 21.9315 47.1594 22.9845 46.4639 22.9845H46.3458C46.0899 22.932 45.9619 22.8041 45.9619 22.6007V22.3842C45.9947 21.6165 46.7755 20.2583 48.3043 18.3097C48.5208 18.0341 48.803 17.8963 49.1507 17.8963ZM49.5345 18.9395C48.4651 20.0156 47.6416 20.9932 47.0642 21.8724C46.9002 22.1873 46.8182 22.3678 46.8182 22.4137H46.8772C47.4218 22.0856 48.5405 21.0752 50.2333 19.3824C49.9971 19.1659 49.7642 19.0183 49.5345 18.9395ZM67.3266 9.20595H67.6809C68.2321 9.27813 68.5076 9.51433 68.5076 9.91456C68.5076 11.0103 66.7755 13.0836 63.3111 16.1346C61.2903 17.788 59.7287 18.8116 58.6264 19.2053C57.6554 21.0162 57.1698 22.3547 57.1698 23.2207V23.4569C57.1698 24.0474 57.406 24.428 57.8784 24.5986H57.9572C59.7418 24.5986 62.2351 22.7614 65.437 19.0872H65.6338C65.6863 19.0872 65.7125 19.1265 65.7125 19.2053C65.5354 19.5793 64.5775 20.6028 62.8387 22.2759C60.8441 23.9818 59.2038 24.8348 57.9178 24.8348H57.721C57.032 24.8348 56.5465 24.3755 56.2644 23.4569C56.2316 23.0436 56.2053 22.8205 56.1856 22.7877C56.1856 20.9571 57.406 18.3457 59.8468 14.9536C60.4636 14.1006 61.5002 12.9721 62.9568 11.568C64.794 9.9933 66.2506 9.20595 67.3266 9.20595ZM59.0988 18.4179C59.1251 18.4179 59.1382 18.431 59.1382 18.4573C60.1158 18.0308 61.953 16.5873 64.6496 14.1269C66.6967 12.0338 67.7203 10.6691 67.7203 10.0327V9.79646C67.6612 9.66524 67.5431 9.59963 67.366 9.59963C65.9488 9.86864 63.836 11.8501 61.0278 15.5441C60.3586 16.4233 59.7156 17.3812 59.0988 18.4179ZM68.1907 18.477C68.6435 18.5229 68.8698 18.6574 68.8698 18.8805C68.7976 19.0051 68.5516 19.2906 68.1317 19.7367C67.259 20.8456 66.8227 21.6034 66.8227 22.0102V22.1775C66.8555 22.499 67.0163 22.6597 67.305 22.6597H67.4427C68.3613 22.6597 69.9459 21.646 72.1964 19.6186C72.1964 19.5924 72.3505 19.4415 72.6589 19.1659H72.8853C72.9247 19.1725 72.9443 19.1889 72.9443 19.2151V19.2446C72.3604 19.8811 71.7699 20.4322 71.1728 20.8981C69.5063 22.23 68.2268 22.896 67.3345 22.896C66.8424 22.896 66.4422 22.6204 66.1338 22.0692C66.101 21.879 66.0846 21.7084 66.0846 21.5575C66.0846 20.8554 66.4914 19.9729 67.305 18.91C67.5084 18.6213 67.8036 18.477 68.1907 18.477ZM69.48 16.6464H69.5095C69.772 16.6464 69.9655 16.7284 70.0902 16.8924C70.123 16.9515 70.1394 17.0073 70.1394 17.0597V17.0991C70.1394 17.2894 70.0279 17.4928 69.8048 17.7093C69.5948 17.9061 69.3619 18.0046 69.106 18.0046H69.0174C68.7353 18.0046 68.5549 17.9061 68.4761 17.7093C68.463 17.6896 68.4565 17.6568 68.4565 17.6109V17.5715C68.4565 17.4469 68.5254 17.2894 68.6631 17.0991C68.9321 16.7973 69.2044 16.6464 69.48 16.6464Z" fill="#BFBFBF"/>
</svg>
