<svg width="24" height="24" viewBox="0 0 24 24" fill="none" xmlns="http://www.w3.org/2000/svg">
<path d="M21.9867 7.64437C21.9848 7.63727 20.2921 3.04336 20.2921 3.04336C20.0616 2.41934 19.46 2 18.7946 2H5.20542C4.54005 2 3.93835 2.41935 3.70792 3.04336L2.01576 7.62287C2.01406 7.65239 1.99994 7.67923 2 7.71018V10.0631C1.99863 10.8034 2.61762 11.4001 3.35668 11.3768C3.79398 11.3768 4.17938 11.1599 4.41826 10.8304C4.6637 11.1718 5.07361 11.3907 5.52285 11.3768C5.96014 11.3768 6.34554 11.1599 6.58443 10.8304C6.82986 11.1718 7.23977 11.3907 7.68901 11.3768C8.12633 11.3768 8.51176 11.1599 8.75065 10.8303C8.99613 11.1716 9.40599 11.3906 9.85517 11.3768C10.2925 11.3768 10.6779 11.1599 10.9168 10.8303C11.1623 11.1716 11.5722 11.3906 12.0213 11.3768C12.4587 11.3768 12.8442 11.1599 13.0832 10.8303C13.3286 11.1716 13.7383 11.3906 14.1875 11.3768C14.6248 11.3768 15.0104 11.1599 15.2493 10.8303C15.4948 11.1717 15.9047 11.3907 16.354 11.3768C16.7913 11.3768 17.1767 11.1599 17.4156 10.8304C17.661 11.1718 18.0709 11.3907 18.5202 11.3768C18.9575 11.3768 19.3428 11.1599 19.5817 10.8304C19.8272 11.1718 20.2371 11.3907 20.6863 11.3768C21.4108 11.3768 22 10.7874 22 10.0631V7.71018C22 7.68684 21.9927 7.66582 21.9867 7.64437ZM4.16617 10.0631C4.16617 10.5096 3.80311 10.8726 3.35669 10.8726C2.89575 10.8948 2.50287 10.5261 2.50421 10.0631V7.96228H4.16617L4.16617 10.0631ZM8.49849 10.0631C8.49849 10.5096 8.13544 10.8726 7.68901 10.8726C7.22808 10.8948 6.8352 10.5261 6.83653 10.0631V7.96228H8.4985L8.49849 10.0631ZM12.8311 10.0631C12.8311 10.5096 12.4678 10.8726 12.0213 10.8726C11.5605 10.8947 11.1675 10.5259 11.1689 10.0631V7.96228H12.8311V10.0631ZM17.1635 10.0631C17.1635 10.5096 16.8004 10.8726 16.354 10.8726C15.8931 10.8948 15.5002 10.5261 15.5015 10.0631V7.96228H17.1635L17.1635 10.0631ZM21.4958 10.0631C21.4958 10.5096 21.1327 10.8726 20.6863 10.8726C20.2254 10.8948 19.8325 10.5261 19.8338 10.0631V7.96228H21.4958L21.4958 10.0631Z" fill="#2A2A2A"/>
<path d="M21.0756 16.2442H3.17055C2.66004 16.2442 2.24619 16.658 2.24619 17.1686V21.0756C2.24619 21.5861 2.66004 22 3.17055 22H21.0756C21.5861 22 22 21.5861 22 21.0756V17.1686C22 16.658 21.5861 16.2442 21.0756 16.2442Z" fill="#2A2A2A"/>
<path d="M4.41828 11.5381C4.14554 11.7349 3.82381 11.8464 3.48767 11.8707V15.74H5.33641V11.8698C5.00483 11.8435 4.68765 11.7325 4.41828 11.5381Z" fill="#898989"/>
<path d="M19.5817 11.5381C19.3107 11.7337 18.9912 11.8449 18.6574 11.8703V15.74H20.5061V11.8703C20.1723 11.8449 19.8528 11.7337 19.5817 11.5381Z" fill="#898989"/>
</svg>
