<svg width="24" height="24" viewBox="0 0 24 24" fill="none" xmlns="http://www.w3.org/2000/svg">
<path d="M17.8981 15.4193C17.7168 15.4193 17.54 15.4451 17.3698 15.4908C17.399 15.3083 17.4186 15.1235 17.4186 14.935C17.4186 14.7292 17.3971 14.5287 17.363 14.3328C18.1163 13.5881 18.5484 12.5678 18.5484 11.4921C18.5484 9.26405 16.736 7.45142 14.5081 7.45142C13.201 7.45142 11.9789 8.09166 11.2302 9.14302C10.5311 8.74198 9.73147 8.52272 8.91104 8.52272C6.34383 8.52272 4.25486 10.6115 4.25486 13.1789C4.25486 13.2393 4.25751 13.302 4.25998 13.3655C2.93214 13.7421 2 14.9507 2 16.3622C2 18.0898 3.40558 19.4954 5.13323 19.4954H5.13341H5.13359H17.8991H17.9001C19.0243 19.4942 19.9384 18.5795 19.9384 17.4554C19.9384 16.3325 19.0232 15.4191 17.898 15.4191L17.8981 15.4193ZM14.5082 8.21088C16.3169 8.21088 17.7886 9.68272 17.7886 11.4916C17.7886 12.2248 17.541 12.9255 17.1011 13.4889C16.5491 12.2824 15.332 11.4404 13.919 11.4404C13.6978 11.4404 13.4775 11.4634 13.2593 11.5047C13.0485 10.9533 12.7339 10.4459 12.3366 10.0249C12.1869 9.86184 12.023 9.71556 11.8532 9.57688C12.4609 8.72782 13.4501 8.21088 14.5082 8.21088Z" fill="#FBFBFB"/>
<path d="M14.509 6.13134C14.7187 6.13134 14.8888 5.96139 14.8888 5.7515V4.37984C14.8888 4.16996 14.7187 4 14.509 4C14.2993 4 14.1292 4.16996 14.1292 4.37984V5.7515C14.129 5.96139 14.2991 6.13134 14.509 6.13134Z" fill="#FBFBFB"/>
<path d="M18.5669 7.81176C18.6641 7.81176 18.7616 7.77466 18.8358 7.70028L19.8054 6.73001C19.9536 6.58161 19.9536 6.34116 19.8052 6.19276C19.6568 6.04453 19.4162 6.04435 19.2677 6.19293L18.2982 7.1632C18.1499 7.3116 18.1499 7.55205 18.2983 7.70046C18.3725 7.77466 18.4697 7.81176 18.5669 7.81176Z" fill="#FBFBFB"/>
<path d="M21.6205 11.1101H20.249C20.0393 11.1101 19.8691 11.2801 19.8691 11.4899C19.8691 11.6998 20.0393 11.8698 20.249 11.8698H21.6205C21.8302 11.8698 22.0003 11.6998 22.0003 11.4899C22.0003 11.2802 21.8302 11.1101 21.6205 11.1101Z" fill="#FBFBFB"/>
<path d="M10.1814 7.70043C10.2556 7.77463 10.3528 7.81173 10.45 7.81173C10.5471 7.81173 10.6443 7.77463 10.7185 7.70043C10.8669 7.55221 10.8669 7.31158 10.7185 7.16317L9.74841 6.19309C9.60001 6.04469 9.35956 6.04469 9.21115 6.19309C9.06275 6.34131 9.06275 6.58194 9.21115 6.73035L10.1814 7.70043Z" fill="#FBFBFB"/>
</svg>
