<svg width="24" height="24" viewBox="0 0 24 24" fill="none" xmlns="http://www.w3.org/2000/svg">
<path d="M20.6197 5.3182H19.2394V4.34508C19.2394 4.25356 19.203 4.16579 19.1383 4.10107C19.0736 4.03636 18.9858 4 18.8943 4C18.8028 4 18.715 4.03636 18.6503 4.10107C18.5856 4.16579 18.5492 4.25356 18.5492 4.34508V5.3182H16.5029V4.34508C16.5029 4.25356 16.4665 4.16579 16.4018 4.10107C16.3371 4.03636 16.2493 4 16.1578 4C16.0663 4 15.9785 4.03636 15.9138 4.10107C15.8491 4.16579 15.8127 4.25356 15.8127 4.34508V5.3182H13.763V4.34508C13.763 4.25356 13.7266 4.16579 13.6619 4.10107C13.5972 4.03636 13.5094 4 13.4179 4C13.3264 4 13.2386 4.03636 13.1739 4.10107C13.1092 4.16579 13.0728 4.25356 13.0728 4.34508V5.3182H11.0265V4.34508C11.0265 4.25356 10.9901 4.16579 10.9254 4.10107C10.8607 4.03636 10.7729 4 10.6814 4C10.5899 4 10.5021 4.03636 10.4374 4.10107C10.3727 4.16579 10.3363 4.25356 10.3363 4.34508V5.3182H8.29003V4.34508C8.29003 4.25356 8.25367 4.16579 8.18896 4.10107C8.12424 4.03636 8.03647 4 7.94495 4C7.85343 4 7.76566 4.03636 7.70094 4.10107C7.63623 4.16579 7.59987 4.25356 7.59987 4.34508V5.3182H6.32653C5.96045 5.3182 5.60936 5.46363 5.3505 5.72248C5.09164 5.98134 4.94622 6.33243 4.94622 6.69851V17.3752C2.39954 17.0302 1.73699 15.2806 4.4148 14.4214C4.45807 14.4078 4.49825 14.3858 4.53303 14.3567C4.56781 14.3275 4.59651 14.2919 4.6175 14.2516C4.63849 14.2114 4.65135 14.1675 4.65535 14.1223C4.65936 14.0771 4.65442 14.0316 4.64082 13.9883C4.62723 13.945 4.60524 13.9048 4.57612 13.8701C4.547 13.8353 4.51131 13.8066 4.4711 13.7856C4.43088 13.7646 4.38693 13.7517 4.34174 13.7477C4.29656 13.7437 4.25103 13.7487 4.20775 13.7623C0.622383 14.9355 1.7922 17.7652 4.94622 18.0654V18.4312C4.94622 18.7973 5.09164 19.1484 5.3505 19.4072C5.60936 19.6661 5.96045 19.8115 6.32653 19.8115H20.6197C20.9858 19.8115 21.3369 19.6661 21.5957 19.4072C21.8546 19.1484 22 18.7973 22 18.4312V6.69851C22 6.51725 21.9643 6.33776 21.8949 6.17029C21.8256 6.00282 21.7239 5.85066 21.5957 5.72248C21.4675 5.59431 21.3154 5.49264 21.1479 5.42327C20.9804 5.3539 20.801 5.3182 20.6197 5.3182ZM21.3098 18.4312C21.3098 18.6142 21.2371 18.7898 21.1077 18.9192C20.9783 19.0486 20.8027 19.1213 20.6197 19.1213H6.32653C6.14349 19.1213 5.96795 19.0486 5.83852 18.9192C5.70909 18.7898 5.63637 18.6142 5.63637 18.4312V18.1172C7.13402 18.1172 8.65581 17.5685 9.51161 16.6678C9.57476 16.6015 9.60896 16.5128 9.6067 16.4212C9.60443 16.3296 9.56588 16.2427 9.49953 16.1795C9.43318 16.1164 9.34446 16.0822 9.25288 16.0845C9.16131 16.0867 9.07439 16.1253 9.01124 16.1916C8.29003 16.9508 6.94077 17.4201 5.63637 17.4236V9.18308H21.3098V18.4312Z" fill="#BFBFBF"/>
<path d="M8.14509 14.2868L11.6269 16.7368C11.6585 16.7564 11.6921 16.7726 11.727 16.7852C11.8034 16.8161 11.8887 16.8161 11.9651 16.7852L19.9295 13.2861C20.1167 13.2028 20.2757 13.067 20.3873 12.8953C20.4989 12.7235 20.5583 12.523 20.5583 12.3181C20.5583 12.1133 20.4989 11.9128 20.3873 11.741C20.2757 11.5692 20.1167 11.4334 19.9295 11.3502C19.7909 11.2913 19.6419 11.261 19.4913 11.261C19.3407 11.261 19.1916 11.2913 19.053 11.3502L17.5209 12.0403L12.5345 10.3736C12.4545 10.3428 12.366 10.3428 12.286 10.3736L11.1197 10.8878C11.0603 10.914 11.0096 10.9565 10.9733 11.0103C10.937 11.0641 10.9166 11.127 10.9144 11.1918C10.9122 11.2567 10.9284 11.3208 10.9611 11.3769C10.9937 11.433 11.0415 11.4788 11.099 11.5089L14.5981 13.3033L11.9927 14.4662L9.48745 13.2619C9.44249 13.2414 9.39365 13.2308 9.34424 13.2308C9.29483 13.2308 9.24599 13.2414 9.20103 13.2619L8.19685 13.6898C8.14162 13.7153 8.09412 13.755 8.05915 13.8047C8.02419 13.8545 8.003 13.9127 7.99775 13.9733C7.99249 14.0339 8.00336 14.0948 8.02923 14.1499C8.05511 14.2049 8.09508 14.2522 8.14509 14.2868Z" fill="#BFBFBF"/>
</svg>
