<svg width="24" height="24" viewBox="0 0 24 24" fill="none" xmlns="http://www.w3.org/2000/svg">
<path d="M19.8239 10.7724C19.84 10.4687 19.84 10.1643 19.8239 9.86063C20.7642 9.52385 20.5096 8.13394 19.5205 8.13879C19.4343 7.84707 19.3303 7.5609 19.2091 7.2819C19.9751 6.64254 19.2641 5.42611 18.3344 5.76822C18.153 5.52309 17.9568 5.2892 17.747 5.06786C17.852 4.8876 17.89 4.67602 17.8541 4.47051C17.8182 4.265 17.7108 4.07879 17.5509 3.94478C17.391 3.81077 17.1889 3.73759 16.9803 3.73816C16.7717 3.73874 16.57 3.81304 16.4109 3.94793C16.1567 3.77947 15.8927 3.62643 15.6201 3.48963C15.7997 2.51252 14.4684 2.02792 13.979 2.89255C13.6826 2.82276 13.3825 2.76996 13.0801 2.73441C12.9099 1.75487 11.5008 1.75552 11.3308 2.73441C11.0285 2.76996 10.7284 2.82276 10.432 2.89255C9.94207 2.02759 8.61123 2.51317 8.79084 3.48963C8.51832 3.62643 8.25427 3.77947 8.00011 3.94793C7.84097 3.81304 7.63927 3.73874 7.43065 3.73816C7.22203 3.73759 7.01993 3.81077 6.86004 3.94478C6.70016 4.07879 6.59279 4.265 6.5569 4.47051C6.52102 4.67602 6.55893 4.8876 6.66394 5.06786C6.45361 5.28974 6.25691 5.52416 6.07493 5.76983C5.14462 5.42917 4.43684 6.64254 5.2019 7.2819C5.08069 7.5609 4.97668 7.84707 4.89045 8.13879C3.90059 8.13362 3.64788 9.52417 4.58707 9.86063C4.57094 10.1643 4.57094 10.4687 4.58707 10.7724C3.64546 11.1093 3.90221 12.4991 4.89045 12.4942C4.97651 12.7862 5.08108 13.0724 5.20352 13.3511C4.43296 13.9882 5.14865 15.2069 6.07655 14.8648C6.25834 15.1087 6.45392 15.342 6.66233 15.5636C6.16062 16.4233 7.24198 17.3265 8.00172 16.6867C8.25538 16.8541 8.51889 17.0061 8.79084 17.1418C8.75377 17.3478 8.7907 17.5603 8.89511 17.7417C8.99952 17.9231 9.16469 18.0618 9.36144 18.1332C9.55819 18.2047 9.77385 18.2043 9.97034 18.1321C10.1668 18.0599 10.3315 17.9207 10.4352 17.7389C10.9628 17.8634 11.5021 17.9316 12.0441 17.9422V18.6313L11.1162 20.1643C11.0807 20.2226 11.0618 20.2895 11.0615 20.3577C11.0613 20.426 11.0796 20.493 11.1146 20.5516L11.886 21.8232C11.9199 21.8773 11.967 21.9219 12.0229 21.9529C12.0788 21.9838 12.1416 22 12.2055 22C12.2694 22 12.3322 21.9838 12.3881 21.9529C12.444 21.9219 12.4911 21.8773 12.525 21.8232L13.2964 20.5516C13.3312 20.493 13.3496 20.4261 13.3496 20.3579C13.3496 20.2898 13.3312 20.2229 13.2964 20.1643L12.3669 18.6345V17.9422C12.9089 17.9317 13.4482 17.8635 13.9757 17.7389C14.0795 17.9207 14.2441 18.0599 14.4406 18.1321C14.6371 18.2043 14.8528 18.2047 15.0495 18.1332C15.2463 18.0618 15.4115 17.9231 15.5159 17.7417C15.6203 17.5603 15.6572 17.3478 15.6201 17.1418C15.8921 17.0061 16.1556 16.8541 16.4093 16.6867C17.1725 17.3274 18.246 16.4221 17.747 15.5652C17.9564 15.3435 18.1526 15.1096 18.3344 14.8648C19.263 15.2079 19.9777 13.9876 19.2075 13.3511C19.3299 13.0724 19.4345 12.7862 19.5205 12.4942C20.5094 12.4996 20.765 11.1097 19.8239 10.7724ZM19.5028 10.7208C19.2998 10.7289 19.1057 10.8062 18.9528 10.9399C18.7999 11.0737 18.6974 11.2557 18.6623 11.4558C18.6272 11.6559 18.6617 11.862 18.76 12.0397C18.8583 12.2175 19.0145 12.3562 19.2026 12.4329C19.1243 12.6912 19.0316 12.945 18.9251 13.193C18.7316 13.13 18.5224 13.1354 18.3324 13.2082C18.1424 13.2811 17.9832 13.417 17.8815 13.5932C17.7798 13.7694 17.7417 13.9752 17.7736 14.1761C17.8056 14.3771 17.9056 14.561 18.0569 14.697C17.8955 14.9137 17.722 15.1211 17.5372 15.3183C16.7873 14.7263 15.7547 15.5942 16.2043 16.435C15.9786 16.583 15.7448 16.7182 15.5039 16.84C14.9993 16.0241 13.7366 16.4913 13.8709 17.4322C12.7749 17.684 11.6361 17.684 10.5401 17.4322C10.6742 16.4903 9.41051 16.0246 8.90703 16.84C8.66565 16.7176 8.43129 16.5819 8.20505 16.4334C8.65787 15.591 7.6204 14.7276 6.87373 15.3183C6.68994 15.1208 6.5165 14.914 6.35411 14.6986C6.50476 14.5622 6.60416 14.3784 6.63574 14.1776C6.66732 13.9769 6.62918 13.7714 6.52768 13.5954C6.42617 13.4194 6.26742 13.2834 6.07787 13.2102C5.88832 13.137 5.67941 13.1309 5.48592 13.193C5.37936 12.945 5.28669 12.6912 5.20836 12.4329C6.09494 12.0779 5.86337 10.7516 4.90821 10.7224C4.89368 10.452 4.89368 10.181 4.90821 9.91066C5.86289 9.88097 6.0951 8.55271 5.20836 8.20011C5.28669 7.94126 5.37935 7.68698 5.48592 7.43843C5.67904 7.50062 5.88764 7.49477 6.07697 7.42185C6.2663 7.34893 6.42494 7.21334 6.52645 7.03768C6.62796 6.86201 6.66622 6.65687 6.63487 6.45642C6.60351 6.25597 6.50442 6.07232 6.35411 5.93605C6.51566 5.71902 6.6897 5.51158 6.87534 5.31476C7.03587 5.43898 7.23407 5.50453 7.437 5.50054C7.63994 5.49654 7.8354 5.42323 7.99091 5.29279C8.14642 5.16235 8.25263 4.98262 8.29188 4.78348C8.33112 4.58433 8.30106 4.37775 8.20667 4.19806C8.43216 4.04973 8.666 3.91449 8.90703 3.79301C9.40906 4.60698 10.675 4.14368 10.5401 3.19916C10.8025 3.13776 11.0681 3.09089 11.3357 3.05877C11.3789 3.25734 11.4887 3.43516 11.6469 3.56268C11.8052 3.6902 12.0023 3.75973 12.2055 3.75973C12.4087 3.75973 12.6058 3.6902 12.764 3.56268C12.9223 3.43516 13.0321 3.25734 13.0753 3.05877C13.3429 3.09089 13.6084 3.13776 13.8709 3.19916C13.7359 4.14432 15.0024 4.60649 15.5039 3.79301C15.745 3.91449 15.9788 4.04973 16.2043 4.19806C16.1099 4.37775 16.0798 4.58433 16.1191 4.78348C16.1583 4.98262 16.2645 5.16235 16.4201 5.29279C16.5756 5.42323 16.771 5.49654 16.974 5.50054C17.1769 5.50453 17.3751 5.43898 17.5356 5.31476C17.7208 5.51143 17.8948 5.71831 18.0569 5.93443C17.3468 6.56669 18.0125 7.74019 18.9251 7.43843C19.0316 7.68698 19.1243 7.94126 19.2026 8.20011C18.3151 8.55303 18.5486 9.88113 19.5028 9.91066C19.5173 10.1805 19.5173 10.4509 19.5028 10.7208Z" fill="#BFBFBF"/>
</svg>
