<svg width="24" height="24" viewBox="0 0 24 24" fill="none" xmlns="http://www.w3.org/2000/svg">
<path fill-rule="evenodd" clip-rule="evenodd" d="M7.75022 4.00644C8.66525 3.96721 9.60332 4.10644 10.5161 4.44483C11.5305 4.82134 12.4267 5.41713 13.1668 6.18889C12.7547 6.33522 12.3598 6.51412 11.9759 6.72259C11.4409 6.24244 10.8083 5.85315 10.0936 5.58848C9.43478 5.34597 8.76162 5.22896 8.09595 5.22632C5.71859 5.21693 3.46609 6.65511 2.59293 8.99083C1.47612 11.9784 3.01181 15.3147 6.0119 16.4245C9.02235 17.5439 12.3939 16.0189 13.5125 13.0317C13.8092 11.982 13.9511 10.8577 13.7814 9.94387C13.7784 9.93106 13.7753 9.91836 13.7719 9.90575C14.1378 9.7105 14.5271 9.56833 14.934 9.47689C15.2221 10.7548 15.1652 12.1243 14.6651 13.4415C12.756 17.8095 8.5011 18.5377 5.59914 17.5682C5.59914 17.568 5.58992 17.5683 5.58961 17.5682C1.9261 16.213 0.0851395 12.1979 1.45036 8.56197C2.73027 5.41512 5.29116 4.16658 7.75022 4.00644Z" fill="#2A2A2A"/>
<path fill-rule="evenodd" clip-rule="evenodd" d="M7.85584 6.44623C8.45345 6.4207 9.06399 6.51222 9.66136 6.73213C10.1181 6.9014 10.5323 7.12973 10.9003 7.41833C9.71072 8.3255 8.75061 9.56505 8.19198 11.0589C7.62974 12.5543 7.52596 14.1099 7.82704 15.5668C7.36516 15.5432 6.90159 15.4511 6.44408 15.2809C4.06577 14.4018 2.85875 11.7915 3.74539 9.4197C4.40991 7.64212 6.06303 6.52285 7.85584 6.44623Z" fill="#898989"/>
<path fill-rule="evenodd" clip-rule="evenodd" d="M15.9808 6.92274C16.7858 6.9276 17.6118 7.07453 18.4105 7.37066C22.0747 8.7255 23.9145 12.7332 22.5498 16.3578C21.1069 20.0584 17.435 21.9428 13.4933 20.4844C12.4443 20.0901 11.549 19.4893 10.8331 18.7404C11.2456 18.5938 11.6493 18.4155 12.0336 18.2066C12.5668 18.685 13.1954 19.0782 13.9159 19.3408C16.6356 20.2928 19.9644 19.5264 21.4069 15.948C22.5241 12.9594 20.9903 9.61451 17.9879 8.50476C17.3292 8.26224 16.656 8.14523 15.9903 8.1426C13.613 8.13321 11.3605 9.57139 10.4873 11.9071C10.1003 12.9418 10.0272 14.0247 10.228 15.033C9.866 15.2253 9.47779 15.3715 9.07556 15.4619C8.7805 14.1811 8.84328 12.8104 9.34447 11.4783C10.4023 8.64768 13.1054 6.90534 15.9808 6.92274Z" fill="#2A2A2A"/>
<path fill-rule="evenodd" clip-rule="evenodd" d="M16.1632 9.36251C16.6283 9.38413 17.0951 9.47891 17.5558 9.64843C19.9323 10.5273 21.1408 13.1481 20.2545 15.5191C19.3684 17.8892 16.7251 19.0853 14.3481 18.1971C13.8886 18.0302 13.4821 17.7931 13.1188 17.511C14.3043 16.6044 15.2504 15.364 15.8078 13.8704C16.3744 12.3763 16.4633 10.8184 16.1632 9.36251Z" fill="#898989"/>
<path fill-rule="evenodd" clip-rule="evenodd" d="M12.6482 10.7444C12.6855 11.3511 12.5936 11.9873 12.3601 12.6028C12.1318 13.2136 11.7883 13.7456 11.3613 14.1849C11.3257 13.576 11.4093 12.9522 11.6398 12.336C11.8696 11.7211 12.217 11.1856 12.6482 10.7444Z" fill="#898989"/>
</svg>
