<svg width="24" height="24" viewBox="0 0 24 24" fill="none" xmlns="http://www.w3.org/2000/svg">
<path d="M17.6479 3H6.35244C5.60682 3 5 3.60682 5 4.35244V20.5184C5 21.2645 5.60682 21.8708 6.35244 21.8708H17.6476C18.3936 21.8708 19 21.2643 19 20.5184V4.35244C19.0001 3.60682 18.3933 3 17.6479 3H17.6479ZM13.7506 11.8337C13.8555 11.5091 13.9241 11.1698 13.9538 10.8216C13.9599 10.7474 13.9644 10.6731 13.9669 10.5991H15.1996C15.1661 11.2263 14.9509 11.8062 14.6066 12.2874C14.3337 12.1049 14.0471 11.9535 13.7506 11.8337ZM14.3886 12.559C13.9568 13.0422 13.3813 13.3935 12.73 13.5459C13.1175 13.14 13.4214 12.671 13.6314 12.1594C13.8933 12.2659 14.1468 12.3991 14.3886 12.559ZM15.1991 10.2529H13.9656C13.9488 9.8311 13.8724 9.41763 13.7414 9.02217C14.0403 8.90224 14.3295 8.74998 14.604 8.56582C14.9495 9.04729 15.1655 9.62708 15.1991 10.2529ZM14.3867 8.29527C14.1418 8.45674 13.8843 8.59129 13.6191 8.69822C13.4442 8.28329 13.2055 7.89247 12.907 7.53853C12.8369 7.45575 12.7632 7.37545 12.6874 7.29764C13.3545 7.44492 13.9454 7.80178 14.3867 8.29527ZM12.1734 7.28976C12.3416 7.43397 12.4992 7.59252 12.6418 7.76172C12.9165 8.087 13.1321 8.44256 13.2906 8.81507C12.9269 8.92872 12.5511 8.99307 12.1735 9.00813L12.1734 7.28976ZM12.1734 9.35491C12.5921 9.33941 13.0091 9.26789 13.4129 9.14006C13.5319 9.50263 13.5996 9.87733 13.6165 10.2531H12.1733L12.1734 9.35491ZM12.1734 10.5993H13.6181C13.6036 10.9775 13.5378 11.3532 13.4217 11.7154C13.0153 11.5856 12.5953 11.5132 12.1735 11.4974L12.1734 10.5993ZM12.1734 11.8442C12.5549 11.8593 12.9351 11.9249 13.3029 12.0411C13.0617 12.6236 12.6834 13.1595 12.1734 13.5971V11.8442ZM11.8272 7.29014V9.00865C11.4498 8.99329 11.0742 8.92923 10.7105 8.81574C10.9524 8.2446 11.3261 7.71997 11.8272 7.29014ZM10.369 12.1595C10.5449 12.5855 10.7879 12.9867 11.0938 13.3487C11.1507 13.4158 11.21 13.4816 11.2708 13.5454C10.6202 13.3927 10.0449 13.0411 9.61298 12.558C9.85416 12.3988 10.1075 12.2655 10.369 12.1595ZM9.39535 12.2871C9.05018 11.8061 8.83503 11.2262 8.8014 10.5995H10.0336V10.5993C10.0475 11.0225 10.1205 11.4373 10.2489 11.8341C9.95332 11.9536 9.6671 12.1048 9.39535 12.2872V12.2871ZM10.3821 10.5992H11.827V11.4975C11.4048 11.5133 10.9841 11.5858 10.5774 11.7156C10.4608 11.3515 10.396 10.9758 10.3821 10.5992ZM10.6966 12.0412C11.065 11.925 11.4453 11.8594 11.8271 11.844V13.597C11.6589 13.4528 11.5011 13.2943 11.3585 13.1249C11.0764 12.791 10.8564 12.425 10.6965 12.0412L10.6966 12.0412ZM10.3842 10.2529C10.4016 9.87551 10.4702 9.50094 10.5883 9.14027C10.9916 9.2678 11.4086 9.33918 11.8272 9.35483V10.2528L10.3842 10.2529ZM11.3133 7.2967C10.913 7.70474 10.5986 8.17935 10.3814 8.69815C10.115 8.5908 9.85718 8.4558 9.6119 8.29333C10.0524 7.79984 10.6439 7.44328 11.3133 7.29674L11.3133 7.2967ZM9.39428 8.56474C9.66954 8.74961 9.95999 8.90231 10.2595 9.02255C10.1493 9.3566 10.0773 9.70586 10.0469 10.0655C10.0416 10.1279 10.0378 10.1907 10.0353 10.2531H8.80089C8.83453 9.62614 9.04954 9.04595 9.39428 8.56474ZM15.7867 18.0319H8.21374C7.93365 18.0319 7.70681 17.8051 7.70681 17.525C7.70681 17.2449 7.93395 17.0181 8.21374 17.0181H15.7867C16.0668 17.0181 16.2937 17.2449 16.2937 17.525C16.2941 17.8051 16.0668 18.0319 15.7866 18.0319H15.7867Z" fill="#898989"/>
</svg>
