<svg width="24" height="24" viewBox="0 0 24 24" fill="none" xmlns="http://www.w3.org/2000/svg">
<path d="M21.7577 5.87345L12.1423 2.0273C12.0509 1.9909 11.9491 1.9909 11.8577 2.0273L2.24231 5.87345C2.17074 5.90195 2.10939 5.95128 2.06619 6.01506C2.02298 6.07883 1.99993 6.15411 2 6.23114V17.7696C1.99993 17.8466 2.02298 17.9219 2.06619 17.9857C2.10939 18.0495 2.17074 18.0988 2.24231 18.1273L11.8577 21.9735C11.9491 22.0098 12.0509 22.0098 12.1423 21.9735L21.7577 18.1273C21.8293 18.0988 21.8906 18.0495 21.9338 17.9857C21.977 17.9219 22.0001 17.8466 22 17.7696V6.23114C22.0001 6.15411 21.977 6.07883 21.9338 6.01506C21.8906 5.95128 21.8293 5.90195 21.7577 5.87345ZM2.76923 10.585V9.49268L11.6154 13.0311V14.1234L2.76923 10.585ZM5.84615 16.8773V18.7388L4.69231 18.2773V16.4158L5.84615 16.8773ZM6.61538 17.185L7.76923 17.6465V19.5081L6.61538 19.0465V17.185ZM8.53846 17.9542L9.69231 18.4158V20.2773L8.53846 19.8158V17.9542ZM10.4615 18.7234L11.6154 19.185V21.0465L10.4615 20.585V18.7234ZM12.3846 19.185L13.5385 18.7234V20.585L12.3846 21.0465V19.185ZM14.3077 18.4158L15.4615 17.9542V19.8158L14.3077 20.2773V18.4158ZM16.2308 17.6465L17.3846 17.185V19.0465L16.2308 19.5081V17.6465ZM18.1538 16.8773L19.3077 16.4158V18.2773L18.1538 18.7388V16.8773ZM21.2308 10.585L12.3846 14.1234V13.0311L21.2308 9.49268V10.585ZM12 2.80037L20.5808 6.23114L12 9.66191L3.41923 6.23114L12 2.80037ZM2.76923 15.6465L3.92308 16.1081V17.9696L2.76923 17.5081V15.6465ZM20.0769 17.9542V16.1081L21.2308 15.6465V17.5081L20.0769 17.9542Z" fill="#2A2A2A"/>
<path d="M17.7692 6.23114L12 3.92345L6.23077 6.23114L12 8.53883L17.7692 6.23114Z" fill="#898989"/>
</svg>
