<svg width="57" height="52" viewBox="0 0 57 52" fill="none" xmlns="http://www.w3.org/2000/svg">
<path d="M10.7806 41.2512L10.7416 41.2856C10.3061 41.7074 9.99685 42.2553 9.85216 42.8615C8.99192 45.8172 9.15098 46.5295 9.26136 46.8839C9.29918 47.0401 9.35591 47.1905 9.43016 47.3312C10.2028 48.7076 12.4199 47.5514 16.4322 47.9575C16.4322 47.9575 20.1524 48.336 21.3729 47.579C21.4683 47.527 21.5415 47.4384 21.5774 47.3312C21.7235 46.7979 20.4835 45.9824 20.227 45.8104C17.5976 44.0521 14.887 45.2116 14.1534 43.8456C13.5658 42.7514 14.8318 41.1445 14.1858 40.6078C14.056 40.4976 14.043 40.6078 12.5627 40.7144C11.9038 40.766 11.3162 40.8004 10.7806 41.2512Z" fill="#D8A482"/>
<path d="M4.21966 45.1686L4.18071 45.1995C3.74613 45.6235 3.43712 46.1722 3.29125 46.7789C2.44075 49.7346 2.59657 50.4434 2.71018 50.8013C2.7522 50.956 2.80875 51.1059 2.87898 51.2486C3.65483 52.625 5.86873 51.4654 9.88104 51.8749C9.88104 51.8749 13.6044 52.2499 14.8218 51.4929C14.9172 51.4416 14.9912 51.3545 15.0295 51.2486C15.1756 50.7153 13.9355 49.8998 13.6791 49.7277C11.0075 47.9419 8.18652 49.074 7.60545 47.763C7.32628 47.1368 7.86515 46.6757 7.43665 45.7948C7.2904 45.503 7.08652 45.2481 6.83892 45.0474C6.59131 44.8467 6.3058 44.705 6.00183 44.6318C5.68582 44.5788 5.36271 44.5994 5.05496 44.6921C4.7472 44.7848 4.46217 44.9474 4.21966 45.1686Z" fill="#E8B897"/>
<path d="M19.5355 24.8363C18.9665 24.8823 18.4139 25.0602 17.9169 25.3575C17.4199 25.6548 16.9906 26.0642 16.6594 26.5568C16.0815 27.4273 16.0458 28.2772 16.0101 29.8393C15.9874 30.6101 15.8641 34.4501 16.6594 34.6084C17.2729 34.7323 18.5194 32.7572 18.6493 30.6996C18.7597 28.9791 18.0195 28.3426 18.5032 27.2587C19.1525 25.8273 21.0353 25.6036 20.9379 25.146C20.8729 24.8535 20.0387 24.7847 19.5355 24.8363Z" fill="#D8A482"/>
<path d="M21.9377 10.6145C19.2791 9.53064 15.9355 9.85408 13.8222 11.5986C12.6309 12.5827 12.0173 13.8661 11.0954 19.3303C10.0696 25.4034 10.4462 26.0503 9.83912 29.1024C8.26471 36.9372 4.42121 39.2013 5.84304 41.6134C7.26488 44.0255 13.2346 45.1265 16.2309 42.8074C21.9572 38.3962 13.8157 24.2266 20.0679 19.6812C22.6324 17.8197 25.9111 18.8348 26.635 16.87C27.3589 14.9053 24.869 11.8119 21.9377 10.6145Z" fill="#673030"/>
<path d="M17.6915 11.3159C16.7404 10.5796 15.7039 9.97598 14.6076 9.51973C12.3028 8.58381 8.9852 8.02983 6.85894 8.89349C4.73268 9.75715 3.5121 12.1486 1.09368 29.6936C-0.386583 40.4291 -0.503447 43.6773 1.60983 45.8004C3.14204 47.3419 5.82989 48.2571 8.02757 47.4451C15.3315 44.7406 16.0944 23.7512 13.413 18.9787C13.2962 18.7723 12.8644 18.0497 13.1176 17.5714C13.9876 15.9439 21.3565 19.9456 22.4115 18.2768C23.1679 17.0828 20.4248 13.4286 17.6915 11.3159Z" fill="#773636"/>
<path d="M44.5604 3.91421C44.4078 3.85916 41.7297 4.43378 40.6649 4.71249C39.6002 4.9912 39.7203 13.1874 39.8112 13.153L48.7707 9.86349C48.7707 9.86349 51.939 6.44326 44.5604 3.91421Z" fill="#E8B897"/>
<path d="M47.5501 5.30136C44.9888 9.48891 44.3039 7.61707 42.1614 11.2885C41.5998 12.2416 40.7331 11.8459 40.5967 12.8644L48.7674 9.86396C48.7674 9.86396 50.8093 7.53449 47.5501 5.30136Z" fill="#D8A482"/>
<path d="M55.5096 7.01085C55.9284 9.2956 51.6629 12.7399 51.3642 12.8603C50.715 13.0943 50.5592 12.7674 50.0268 13.0117C49.9294 13.0565 48.9848 14.567 48.4946 14.7322C48.0044 14.8974 47.7123 14.044 47.4915 13.9029C47.3974 13.8513 47.2708 13.9029 47.0435 14.0406C46.8981 14.101 46.7411 14.1234 46.5858 14.1059C46.4138 14.1059 46.4462 14.1059 46.3521 14.1644C46.1404 14.267 45.9096 14.3176 45.6769 14.3124C45.4756 14.3399 45.2419 14.4432 45.1965 14.4122C44.9595 14.2642 43.5734 15.1657 43.3299 13.7412C43.0864 12.3167 43.5734 9.57431 45.7061 8.37344C46.4982 7.92269 45.4464 3.36352 50.8286 2.62717C53.682 2.23491 55.1266 4.95665 55.5096 7.01085Z" fill="#E8B897"/>
<path d="M48.1865 1.94665C51.9391 1.31009 54.8607 6.81894 54.8964 8.36389C54.9321 9.90885 53.3479 11.2301 53.3479 11.2301C52.1955 11.1785 51.8449 10.6245 51.4684 8.77336C50.8191 9.5854 49.696 9.97078 48.7221 10.1497C47.9885 10.394 46.427 10.8138 46.1446 11.0684C45.5213 11.619 44.9013 11.9906 45.1286 13.0435C45.1935 13.3394 44.9403 13.8383 45.0084 14.1583C45.0178 14.2218 45.0438 14.2812 45.0833 14.3299C45.1229 14.3785 45.1746 14.4145 45.2324 14.4336C45.0602 14.483 44.8806 14.497 44.7033 14.4749C44.2034 14.5988 43.0802 14.8706 42.9114 13.8899C42.8367 13.4805 43.0218 13.1364 43.1386 12.6822C43.2555 12.228 43.3107 11.6499 43.4081 11.2714C43.4937 10.8186 43.7313 10.4139 44.0768 10.1325C44.3008 9.98799 45.187 11.0615 46.1966 10.5007C46.6397 10.243 47.1035 10.0277 47.5827 9.85723C48.0791 9.45519 48.4813 8.93707 48.7578 8.34325C49.1279 7.52432 48.9721 6.8327 48.2222 6.47829C47.5243 6.15141 45.7324 6.65034 44.7877 6.08603C43.908 5.56302 43.46 4.0972 43.46 4.0972C43.7026 4.02271 43.9251 3.88828 44.1093 3.70494C44.5662 3.29965 45.137 3.06613 45.7324 3.04085C45.7324 3.04085 46.4205 2.35612 48.1865 1.94665Z" fill="#2D2929"/>
<path d="M47.5567 2.00911C47.5567 2.00911 51.9748 8.13387 54.3348 9.98851C55.0847 9.63653 55.6793 8.99395 55.9968 8.19237C56.3214 7.41817 55.1301 1.88524 50.8029 0.0512502C50.4166 -0.110471 49.7998 0.116627 49.235 0.646522C48.6701 1.17642 47.5567 2.00911 47.5567 2.00911Z" fill="#673030"/>
<path d="M43.0642 3.83927C43.3244 4.49626 43.4834 5.19333 43.5349 5.9038C43.5874 6.48487 43.5546 7.07106 43.4375 7.64144C43.3167 8.15527 43.1436 8.65368 42.9213 9.1279C42.6519 9.76791 42.6292 9.69909 42.2721 10.5352C41.8403 11.5056 41.5969 12.1352 41.5969 12.1352C41.5041 12.423 41.3834 12.6998 41.2365 12.961C40.9898 13.3152 40.6758 13.6106 40.3146 13.8281C39.6329 14.217 29.8164 19.6019 26.5183 21.7422C24.7357 22.8951 23.073 24.2446 21.5581 25.768C20.0133 25.7398 18.4766 25.5251 16.9777 25.128C9.9594 23.2974 2.11008 16.9353 2.84048 11.8393C3.70397 5.81434 16.2635 3.53303 20.6946 2.72787C28.0245 1.38592 34.7734 2.32184 37.1301 2.65905C39.1257 2.94542 41.1063 3.33934 43.0642 3.83927Z" fill="#773636"/>
<g style="mix-blend-mode:multiply">
<g style="mix-blend-mode:multiply">
<path d="M43.1222 3.88477C43.3882 4.53992 43.5484 5.23783 43.5961 5.9493C43.652 6.59765 43.5981 7.25137 43.4371 7.87963C43.3916 8.05168 43.3494 8.17211 43.291 8.34759C43.0634 8.96819 42.7922 9.56975 42.4794 10.1472C42.1742 10.7818 41.9032 11.4343 41.6679 12.1016C41.4536 12.6797 41.2978 13.1717 40.8563 13.5089C40.6914 13.626 40.519 13.7306 40.3402 13.822C40.0798 13.9538 39.808 14.0586 39.5286 14.1351C40.7497 10.6909 41.3018 7.02058 41.1517 3.34455L43.1222 3.88477Z" fill="#EAEAEA"/>
</g>
</g>
<path d="M47.9783 8.31931C47.9783 8.31931 49.3871 7.51758 48.3289 6.45779C47.2706 5.398 45.1541 7.93049 45.6767 8.90082C45.9592 9.42383 47.9783 8.31931 47.9783 8.31931Z" fill="#D8A482"/>
<path d="M18.3573 25.7862C17.7882 25.8337 17.2357 26.0123 16.7384 26.3094C16.2411 26.6066 15.8109 27.0151 15.4779 27.5066C14.9033 28.3806 14.8644 29.227 14.8286 30.7926C14.8027 31.5634 14.6826 35.4034 15.4779 35.5617C16.0947 35.6856 17.338 33.7105 17.4711 31.6529C17.5814 29.9324 16.8413 29.2959 17.3217 28.212C17.971 26.7806 19.857 26.5569 19.7564 26.1027C19.6947 25.8171 18.8604 25.7483 18.3573 25.7862Z" fill="#E8B897"/>
<g style="mix-blend-mode:multiply">
<g style="mix-blend-mode:multiply">
<path d="M15.4582 26.0237C15.1336 22.6448 17.5617 20.4116 20.4703 16.5922C26.6057 8.52683 27.612 2.82873 31.0595 2.6911C31.4977 2.6911 33.2734 2.59131 34.2277 3.8025C34.6405 4.34631 34.8691 5.02119 34.877 5.71907C34.9289 7.60123 31.4555 13.6744 30.1895 16.4581C21.626 28.1089 18.2629 29.7811 16.7924 29.0241C15.7049 28.4633 15.5069 26.5054 15.4582 26.0237Z" fill="#EAEAEA"/>
</g>
</g>
<g style="mix-blend-mode:multiply">
<g style="mix-blend-mode:multiply">
<path d="M16.8086 26.688C16.4645 23.309 18.9089 21.0759 21.8175 17.2531C28.1638 8.91237 28.6702 3.3932 32.4098 3.35535C32.8254 3.35535 33.8187 3.35535 34.5101 4.04353C37.3538 6.93731 31.7184 18.3541 25.054 25.4389C23.4536 27.1387 20.0548 30.6931 18.1395 29.685C17.0521 29.1138 16.88 27.3452 16.8086 26.688Z" fill="#EAEAEA"/>
</g>
</g>
<path d="M16.4938 26.5037C16.153 23.1248 18.5974 20.8882 21.5027 17.0689C26.82 10.0839 29.3747 3.22276 32.0951 3.17115C32.8318 3.15392 33.5565 3.37083 34.1759 3.79395C34.4823 4.0409 34.746 4.34245 34.955 4.68514C35.8704 6.23009 33.8318 15.899 24.7392 25.2719C19.8926 30.2543 18.2987 29.7519 17.828 29.5042C16.7373 28.9296 16.5555 27.161 16.4938 26.5037Z" fill="#773636"/>
</svg>
