<svg width="24" height="24" viewBox="0 0 24 24" fill="none" xmlns="http://www.w3.org/2000/svg">
<path fill-rule="evenodd" clip-rule="evenodd" d="M11.9596 2.00062C11.8306 2.01478 11.7132 2.08147 11.6348 2.18505C10.7056 3.36511 9.60489 3.68213 8.57319 4.20644C8.05727 4.4686 7.55172 4.79385 7.18631 5.32789C6.82089 5.86194 6.61816 6.57515 6.61816 7.53371C6.61816 7.70448 6.63183 7.87591 6.65505 8.04271C6.31977 8.1873 5.96422 8.34193 5.57048 8.50741H5.57064C5.39839 8.58053 5.28559 8.74833 5.28295 8.93539L5.19436 19.1015H4.52296C4.26228 19.1015 4.05085 19.313 4.05085 19.5736V20.4664H2.47212C2.21127 20.4664 2 20.6778 2 20.9385V22.3033C2 22.5641 2.21128 22.7754 2.47212 22.7754H21.5279C21.7887 22.7754 22 22.5641 22 22.3033V20.9385C22 20.6778 21.7887 20.4664 21.5279 20.4664H19.9491V19.5736C19.9491 19.313 19.7377 19.1015 19.477 19.1015H18.8131L18.7245 8.93539C18.7218 8.74832 18.609 8.58051 18.4368 8.50741C18.0434 8.34191 17.6817 8.18778 17.345 8.04271C17.3681 7.87623 17.3819 7.70397 17.3819 7.53371C17.3819 6.57515 17.1866 5.86177 16.8212 5.32789C16.4557 4.79385 15.9499 4.46878 15.4343 4.20644C14.4029 3.68209 13.3008 3.36511 12.3726 2.18505H12.3725C12.2844 2.07027 12.1483 2.00227 12.0036 2.00062C11.9889 1.99979 11.9741 1.99979 11.9595 2.00062H11.9596ZM12.0039 7.25337C13.6302 7.34756 14.5931 7.89887 17.7878 9.2527L17.869 19.1014H14.4828C14.48 17.2111 14.4607 15.3012 14.4607 13.4427C14.4607 12.4597 13.8751 11.6049 13.0295 11.222L12.8968 10.9933L12.4321 10.1892H12.4318C12.3476 10.0425 12.1913 9.95205 12.0222 9.95205C11.8533 9.95205 11.697 10.0425 11.6128 10.1892L11.1554 10.9933L11.0226 11.222C10.177 11.6047 9.59144 12.4595 9.59144 13.4427C9.59144 15.1597 9.53315 17.1841 9.52508 19.1014H6.13887L6.22005 9.2527C7.7802 8.59151 8.83247 8.11017 9.66541 7.79205C10.5403 7.45776 11.1702 7.30164 12.0041 7.25358L12.0039 7.25337ZM4.99528 20.0459H19.0049V20.4665H4.99528V20.0459ZM2.94443 21.4107H21.0559V21.8313H2.94443V21.4107Z" fill="#FBFBFB"/>
</svg>
