<svg width="24" height="24" viewBox="0 0 24 24" fill="none" xmlns="http://www.w3.org/2000/svg">
<path d="M10.6404 22H4.24378C3.99946 22 3.79957 21.8001 3.79957 21.5558V11.7832H10.6404V22ZM13.3056 11.7832V22H19.7022C19.9465 22 20.1464 21.8001 20.1464 21.5558V11.7832H13.3056ZM20.9459 7.03024V10.6061C20.9459 10.8504 20.7461 11.0503 20.5017 11.0503H13.3056V6.67487H13.1279H10.7736H10.6404V11.0503H3.44421C3.19989 11.0503 3 10.8504 3 10.6061V7.03024C3 6.78592 3.19989 6.58603 3.44421 6.58603H8.24164C7.28659 6.47498 6.30934 6.18624 5.77629 5.49772C5.50977 5.14236 5.24324 4.54268 5.48756 3.63206C5.66524 2.98796 6.06503 2.49933 6.6647 2.2328C7.77522 1.74418 9.2411 2.09954 10.2628 2.61038C11.1956 3.0768 11.8175 3.78753 12.2395 4.43163C12.6393 3.943 13.1723 3.36553 13.8386 2.8769C14.7493 2.16617 16.1485 1.92186 17.2146 2.27723C18.0142 2.54375 18.5694 3.09901 18.7693 3.87637C19.0136 4.74257 18.7471 5.32004 18.5028 5.6532C18.0364 6.25287 17.2368 6.49719 16.3706 6.60824H20.524C20.7461 6.60824 20.9459 6.80813 20.9459 7.03024ZM11.2178 5.36446C10.9069 4.83141 10.4183 4.18731 9.6631 3.80974C9.06342 3.49879 8.39711 3.34332 7.86406 3.34332C7.59754 3.34332 7.37544 3.38774 7.19775 3.45437C6.97565 3.56542 6.82018 3.7209 6.75355 3.98742C6.64249 4.40942 6.73134 4.5871 6.82018 4.69815C6.99786 4.94247 7.61975 5.34225 9.6631 5.34225H11.2178V5.36446ZM13.1723 5.36446H14.5494C15.4156 5.36446 17.0147 5.36446 17.4145 4.85362C17.4589 4.8092 17.57 4.65373 17.4589 4.23173C17.3701 3.89858 17.148 3.67648 16.7704 3.54321C16.1263 3.32111 15.1935 3.49879 14.616 3.943C14.0163 4.38721 13.5499 4.92025 13.1723 5.36446Z" fill="#BFBFBF"/>
</svg>
