<svg width="24" height="24" viewBox="0 0 24 24" fill="none" xmlns="http://www.w3.org/2000/svg">
<path d="M2.16049 12.186C2.07701 11.3225 2.18379 10.4511 2.47332 9.63325C2.76285 8.8154 3.22809 8.07094 3.83631 7.45225L5.17162 6.11694C5.56161 5.87654 5.89793 5.5584 6.1596 5.18235C6.62519 4.23155 6.87854 3.19091 6.90212 2.13249C6.90212 2.13249 7.70508 2.13427 8.88532 3.31451C9.53736 3.89175 9.98898 4.66136 10.1749 5.51212C8.96959 5.37709 7.75941 5.72041 6.80455 6.46826C6.01944 7.25336 5.4852 7.85628 5.20905 8.17998C5.06257 8.3518 4.98875 8.44489 4.98875 8.44489C4.98875 8.44489 3.0096 8.81542 2.16049 12.186Z" fill="#BFBFBF"/>
<path d="M2.15583 12.7454L2.03188 12.2156C1.94061 11.3323 2.04591 10.4398 2.34021 9.60206C2.63452 8.76429 3.11054 8.00202 3.73415 7.36989L5.10499 6.00378C5.47675 5.77396 5.79771 5.4707 6.04823 5.11257C6.51221 4.21085 6.75777 3.2127 6.7651 2.19864L6.77928 2H6.90201C7.72115 2.13848 8.46068 2.57357 8.97959 3.22234C9.65408 3.8196 10.1193 4.61739 10.3069 5.49856L10.324 5.6613L10.1606 5.6424C8.99498 5.5127 7.82475 5.84258 6.89851 6.56196C6.10003 7.36044 5.56075 7.97158 5.31007 8.26491L5.09247 8.52601L5.06222 8.56578L5.01398 8.57333C4.99508 8.57713 3.10387 8.98202 2.28838 12.2176L2.15583 12.7454ZM5.25423 6.22132L3.92972 7.54583C2.97432 8.61959 2.38754 9.97086 2.25518 11.402C3.11706 8.89875 4.61775 8.40126 4.91555 8.32541L5.10947 8.09456C5.41881 7.73127 5.94766 7.14094 6.7111 6.37633C7.63705 5.62174 8.82141 5.25923 10.0111 5.36625C9.78541 4.61712 9.36492 3.94132 8.79255 3.4079C8.32328 2.87081 7.70949 2.47995 7.02431 2.28191C6.9962 3.31565 6.73899 4.33026 6.27124 5.25254C6.00319 5.64261 5.65683 5.9725 5.25423 6.22132Z" fill="#BFBFBF"/>
<path d="M6.06616 6.56288L19.6156 19.7196L18.0999 21.2353L4.94318 7.68587" fill="#BFBFBF"/>
<path d="M18.0936 21.4501L17.9893 21.3397L4.83868 7.7902L5.05346 7.58156L18.0997 21.0206L19.4068 19.7196L5.96167 6.67335L6.17031 6.45857L19.8241 19.7135L18.0936 21.4501Z" fill="#BFBFBF"/>
<path d="M4.63004 7.36681L4.02252 6.75929L5.13937 5.64244L5.79598 6.29291" fill="#BFBFBF"/>
<path d="M4.52574 7.47106L3.8139 6.76536L5.14553 5.43373L5.90032 6.18852L5.69168 6.39717L5.14553 5.85101L4.23119 6.76536L4.73438 7.26855L4.52574 7.47106Z" fill="#BFBFBF"/>
<path d="M21.8395 12.186C21.923 11.3225 21.8162 10.4511 21.5267 9.63325C21.2371 8.8154 20.7719 8.07094 20.1637 7.45225L18.8284 6.11694C18.4384 5.87654 18.1021 5.5584 17.8404 5.18235C17.3748 4.23155 17.1214 3.19091 17.0979 2.13249C17.0979 2.13249 16.2949 2.13427 15.1147 3.31451C14.4626 3.89175 14.011 4.66136 13.8251 5.51212C15.0304 5.37709 16.2406 5.72041 17.1954 6.46826C17.9805 7.25336 18.5148 7.85628 18.7909 8.17998C18.9374 8.3518 19.0112 8.44489 19.0112 8.44489C19.0112 8.44489 20.9902 8.81542 21.8395 12.186Z" fill="#BFBFBF"/>
<path d="M21.8444 12.7454L21.7119 12.2177C20.8958 8.98214 19.0043 8.57719 18.9854 8.57345L18.9371 8.5659L18.9068 8.52595L18.6902 8.26484C18.4413 7.97532 17.9047 7.36609 17.1008 6.5619C16.1734 5.84561 15.0047 5.51609 13.8397 5.6424L13.676 5.6613L13.6931 5.49856C13.8802 4.61719 14.3455 3.81925 15.0204 3.22234C15.5389 2.57356 16.2781 2.13843 17.097 2H17.219L17.2344 2.20594C17.2585 3.21543 17.5033 4.20739 17.9515 5.11226C18.2027 5.47008 18.5239 5.77326 18.8956 6.00347L18.9221 6.02427L20.257 7.36014C20.8829 7.99298 21.3609 8.75651 21.6568 9.59595C21.9527 10.4354 22.0591 11.3299 21.9684 12.2154L21.8444 12.7454ZM19.0837 8.32541C19.3817 8.40108 20.8822 8.90065 21.745 11.402C21.6096 9.96703 21.0197 8.61273 20.061 7.53638L18.746 6.22132C18.3432 5.97238 17.9966 5.64248 17.728 5.25254C17.2615 4.32979 17.0044 3.31546 16.975 2.28191C16.2903 2.48045 15.677 2.87117 15.2076 3.40772C14.6349 3.94084 14.2144 4.61675 13.9891 5.36607C15.1787 5.25715 16.3635 5.62001 17.288 6.37645C18.0981 7.18647 18.64 7.79933 18.8907 8.09468L19.0837 8.32541Z" fill="#BFBFBF"/>
<path d="M17.9342 6.56288L4.3847 19.7196L5.90043 21.2353L19.0571 7.68587" fill="#BFBFBF"/>
<path d="M5.90638 21.4501L4.16974 19.7135L4.2802 19.6092L17.8297 6.45857L18.0383 6.67335L4.59316 19.7196L5.90024 21.0206L18.9465 7.58156L19.1613 7.7902L5.90638 21.4501Z" fill="#BFBFBF"/>
<path d="M19.3702 7.36681L19.9777 6.75929L18.8548 5.64244L18.2043 6.29291" fill="#BFBFBF"/>
<path d="M19.4744 7.47106L19.2657 7.26855L19.7689 6.76536L18.8607 5.85101L18.3084 6.39717L18.0998 6.18852L18.8607 5.43373L20.1862 6.76536L19.4744 7.47106Z" fill="#BFBFBF"/>
</svg>
