<svg width="24" height="24" viewBox="0 0 24 24" fill="none" xmlns="http://www.w3.org/2000/svg">
<path d="M19.873 5.66819H15.9253V5.12098C15.9241 3.95017 14.9753 3.00135 13.8045 3H10.1945C9.02364 3.00135 8.07486 3.95017 8.07356 5.12098V5.66819H4.12695C2.95286 5.66951 2.00138 6.62094 2 7.79503V17.9837C2.00138 19.1578 2.95286 20.1092 4.12695 20.1106H19.873C21.0471 20.1092 21.9986 19.1578 22 17.9837V7.79503C21.9986 6.62094 21.0471 5.66951 19.873 5.66819ZM9.62913 5.12098C9.62949 4.8089 9.88237 4.55598 10.1945 4.55556H13.8045C14.1166 4.55598 14.3694 4.8089 14.3698 5.12098V5.66819H9.62914L9.62913 5.12098ZM20.8889 17.9837C20.8882 18.5445 20.4338 18.9989 19.8731 18.9995H4.12695C3.56621 18.9989 3.11178 18.5445 3.11112 17.9837V15.1115H20.8889L20.8889 17.9837ZM20.8889 10.6671H3.11112V7.79503C3.11178 7.23429 3.56622 6.7799 4.12696 6.7793H19.873C20.4338 6.7799 20.8882 7.23429 20.8889 7.79503L20.8889 10.6671Z" fill="#BFBFBF"/>
</svg>
