<svg width="24" height="24" viewBox="0 0 24 24" fill="none" xmlns="http://www.w3.org/2000/svg">
<path d="M10.7909 21.9943L8.80797 21.8621C8.80797 21.8621 7.75042 21.8951 7.41993 20.408C7.25469 19.5487 6.9903 18.6894 6.75896 17.8302C6.65982 17.4006 6.52762 16.9379 6.42848 16.5083C6.32933 16.1778 6.36238 15.8803 5.99885 15.8142C5.99885 15.8142 5.83361 15.9134 5.66837 14.8558C6.23019 14.8228 8.11395 14.7567 10.6256 15.3185C10.6917 15.6159 10.7248 16.0456 10.4273 16.0786C10.3612 16.0786 10.2951 16.0125 10.229 16.0786C10.196 16.1447 10.196 16.2439 10.196 16.31C10.196 16.4752 10.3282 16.5083 10.4604 16.5413C10.6256 16.5744 10.6587 16.5744 10.7248 16.7396C10.7578 16.9048 10.7578 17.1362 10.7909 17.3014C10.8239 17.5989 10.857 17.8632 10.89 18.1607C10.89 18.1607 10.89 18.359 10.7248 18.3259C10.7248 18.3259 10.4273 18.2268 10.4934 18.6564C10.5265 18.9208 10.5926 19.2182 10.6256 19.4826C10.6587 19.6809 10.6587 19.9453 10.7578 20.1105C10.857 20.2758 11.1544 20.441 11.1875 20.6063L11.3527 21.4655C11.3527 21.5316 11.3857 22.0604 10.7909 21.9943Z" fill="#BFBFBF"/>
<path d="M17.5658 4.80913C17.2684 6.39546 17.0701 8.51056 17.0701 10.7248C17.0701 12.9721 17.2353 15.0541 17.5658 16.6405C17.665 17.0701 17.731 17.4336 17.8302 17.7641C11.584 13.567 5.47008 14.261 5.47008 14.261C3.12365 14.5254 2 12.6086 2 10.7248C2 8.80799 3.0906 6.89118 5.47008 7.18862C5.47008 7.18862 11.584 7.88264 17.8632 3.68549C17.7641 3.98292 17.665 4.3795 17.5658 4.80913Z" fill="#BFBFBF"/>
<path d="M21.2011 4.77607C20.8376 2.89231 20.3419 2 19.6478 2C18.9538 2 18.4581 2.89231 18.0946 4.77607C17.7971 6.36239 17.5988 8.47749 17.5988 10.6917C17.5988 12.939 17.7641 15.0211 18.0946 16.6074C18.4581 18.4912 18.9538 19.3835 19.6478 19.3835C20.3419 19.3835 20.8376 18.4912 21.2011 16.6074C21.4986 15.0211 21.6969 12.906 21.6969 10.6917C21.6969 8.47749 21.4986 6.36239 21.2011 4.77607ZM20.408 16.2439C20.1105 17.8963 19.78 18.4251 19.6148 18.5242C19.4826 18.4251 19.1191 17.8632 18.8216 16.2439C18.6894 15.5829 18.5903 14.8228 18.5242 14.0296C18.6564 14.0957 18.7555 14.1288 18.9208 14.1288C19.3504 14.1288 19.6478 13.7983 19.8792 13.0382C20.0775 12.4103 20.1766 11.584 20.1766 10.7248C20.1766 9.86552 20.0775 9.00627 19.8792 8.41139C19.6478 7.68433 19.3504 7.3208 18.9208 7.3208C18.7886 7.3208 18.6564 7.35384 18.5242 7.41994C18.5903 6.62678 18.6894 5.86667 18.8216 5.2057C19.1191 3.55328 19.4496 3.0245 19.6148 2.92536C19.747 3.0245 20.1105 3.58632 20.408 5.2057C20.6723 6.69288 20.8376 8.67578 20.8376 10.7248C20.8376 12.7738 20.6723 14.7236 20.408 16.2439Z" fill="#BFBFBF"/>
</svg>
