<svg width="24" height="24" viewBox="0 0 24 24" fill="none" xmlns="http://www.w3.org/2000/svg">
<path d="M19.4838 6.39787H17.9278L17.1759 7.1497C18.2745 8.47652 18.8198 10.1755 18.6986 11.8937C18.5775 13.612 17.7992 15.2177 16.5253 16.3772C15.2515 17.5368 13.58 18.1612 11.858 18.1207C10.1359 18.0803 8.49552 17.3782 7.27749 16.1602C6.05946 14.9422 5.35734 13.3018 5.31693 11.5797C5.27652 9.85763 5.90091 8.18615 7.06047 6.91232C8.22002 5.6385 9.82564 4.86021 11.5439 4.73906C13.2622 4.61791 14.9612 5.16322 16.288 6.26174L17.0398 5.50991V3.95388C15.1822 2.70367 12.9255 2.19 10.7098 2.51301C8.49406 2.83601 6.478 3.97255 5.0546 5.70107C3.63121 7.4296 2.90249 9.62623 3.01049 11.8628C3.1185 14.0993 4.05549 16.2155 5.63881 17.7989C7.22214 19.3822 9.33833 20.3192 11.5749 20.4272C13.8114 20.5352 16.0081 19.8065 17.7366 18.3831C19.4651 16.9597 20.6017 14.9436 20.9247 12.7279C21.2477 10.5121 20.734 8.2555 19.4838 6.39787Z" fill="#BFBFBF"/>
<path d="M12.0136 12.0523C11.8893 12.0523 11.7679 12.0155 11.6645 11.9465C11.5612 11.8774 11.4807 11.7793 11.4331 11.6645C11.3856 11.5497 11.3731 11.4234 11.3974 11.3015C11.4216 11.1796 11.4815 11.0677 11.5693 10.9798C11.6572 10.8919 11.7691 10.8321 11.891 10.8079C12.0129 10.7836 12.1392 10.7961 12.254 10.8436C12.3688 10.8912 12.4669 10.9717 12.536 11.075C12.605 11.1783 12.6419 11.2998 12.6419 11.4241C12.6417 11.5906 12.5754 11.7503 12.4576 11.8681C12.3399 11.9859 12.1802 12.0522 12.0136 12.0523ZM12.0136 11.2146C11.9722 11.2146 11.9317 11.2269 11.8972 11.2499C11.8628 11.2729 11.836 11.3057 11.8201 11.3439C11.8043 11.3822 11.8001 11.4243 11.8082 11.4649C11.8163 11.5055 11.8362 11.5429 11.8655 11.5722C11.8948 11.6014 11.9321 11.6214 11.9727 11.6295C12.0134 11.6375 12.0555 11.6334 12.0937 11.6175C12.132 11.6017 12.1647 11.5749 12.1877 11.5404C12.2107 11.506 12.223 11.4655 12.223 11.4241C12.223 11.3685 12.2009 11.3153 12.1616 11.276C12.1224 11.2368 12.0691 11.2147 12.0136 11.2146Z" fill="#BFBFBF"/>
<path d="M21.4218 3.59518C21.4059 3.55692 21.3791 3.52422 21.3446 3.50122C21.3102 3.47821 21.2697 3.46593 21.2283 3.46593H19.9718V2.20938C19.9718 2.16797 19.9595 2.12748 19.9365 2.09305C19.9134 2.05862 19.8807 2.03179 19.8425 2.01594C19.8042 2.00009 19.7621 1.99594 19.7215 2.00402C19.6809 2.0121 19.6436 2.03204 19.6143 2.06132L17.52 4.15556C17.5006 4.175 17.4851 4.19808 17.4746 4.22349C17.4641 4.24889 17.4587 4.27612 17.4587 4.30363V5.68298L11.8656 11.276C11.8456 11.2953 11.8296 11.3184 11.8186 11.344C11.8077 11.3695 11.8019 11.397 11.8016 11.4248C11.8014 11.4526 11.8067 11.4802 11.8172 11.5059C11.8278 11.5317 11.8433 11.5551 11.863 11.5747C11.8826 11.5944 11.906 11.6099 11.9318 11.6205C11.9575 11.631 11.9851 11.6363 12.0129 11.6361C12.0407 11.6358 12.0682 11.63 12.0937 11.6191C12.1193 11.6081 12.1424 11.5921 12.1617 11.5721L17.7549 5.97902H19.1341C19.1896 5.97901 19.2429 5.95694 19.2821 5.91766L21.3764 3.82342C21.4057 3.79413 21.4256 3.75681 21.4337 3.71619C21.4418 3.67556 21.4376 3.63345 21.4218 3.59518ZM19.0473 5.56017H18.1738L18.8256 4.90838C18.8454 4.88903 18.8612 4.86592 18.8721 4.84041C18.8829 4.8149 18.8886 4.78748 18.8888 4.75976C18.889 4.73203 18.8836 4.70455 18.8731 4.6789C18.8626 4.65325 18.8471 4.62995 18.8275 4.61035C18.8079 4.59074 18.7845 4.57522 18.7589 4.56469C18.7333 4.55417 18.7058 4.54883 18.678 4.54901C18.6503 4.54919 18.6229 4.55486 18.5974 4.56572C18.5719 4.57657 18.5488 4.59238 18.5294 4.61223L17.8775 5.26413V4.39035L19.5529 2.71495V3.67535C19.5529 3.73089 19.575 3.78416 19.6143 3.82344C19.6535 3.86271 19.7068 3.88478 19.7623 3.88478H20.7227L19.0473 5.56017Z" fill="#BFBFBF"/>
<path d="M4.99766 22C4.95964 22 4.92236 21.9896 4.8898 21.97C4.85724 21.9503 4.83064 21.9222 4.81284 21.8887C4.79504 21.8551 4.78671 21.8173 4.78876 21.7793C4.7908 21.7414 4.80314 21.7047 4.82444 21.6732L6.79303 18.7664C6.80837 18.7434 6.8281 18.7237 6.85108 18.7084C6.87405 18.6931 6.89983 18.6825 6.92692 18.6772C6.95401 18.6719 6.98188 18.672 7.00893 18.6776C7.03598 18.6831 7.06168 18.6939 7.08454 18.7093C7.1074 18.7248 7.12697 18.7447 7.14214 18.7677C7.1573 18.7908 7.16776 18.8166 7.1729 18.8437C7.17804 18.8709 7.17777 18.8987 7.17211 18.9258C7.16644 18.9528 7.15549 18.9784 7.13988 19.0012L5.17129 21.908C5.15208 21.9364 5.12621 21.9596 5.09594 21.9756C5.06566 21.9917 5.03192 22 4.99766 22Z" fill="#BFBFBF"/>
<path d="M19.1343 22C19.1 22 19.0663 21.9917 19.036 21.9756C19.0057 21.9596 18.9798 21.9363 18.9606 21.908L16.9585 18.9509C16.9274 18.9049 16.9158 18.8484 16.9263 18.7939C16.9368 18.7393 16.9686 18.6912 17.0146 18.6601C17.0606 18.6289 17.1171 18.6173 17.1716 18.6278C17.2261 18.6383 17.2743 18.6701 17.3054 18.7161L19.3075 21.6732C19.3288 21.7046 19.3412 21.7413 19.3432 21.7793C19.3453 21.8173 19.3369 21.8551 19.3191 21.8887C19.3013 21.9222 19.2747 21.9503 19.2421 21.97C19.2096 21.9896 19.1723 22 19.1343 22Z" fill="#BFBFBF"/>
<path d="M15.5361 8.78951L13.8691 10.4565C14.0266 10.7547 14.1086 11.0869 14.1078 11.4241C14.1078 11.8383 13.985 12.2432 13.7549 12.5876C13.5248 12.932 13.1977 13.2004 12.815 13.3589C12.4324 13.5174 12.0113 13.5589 11.605 13.4781C11.1988 13.3973 10.8256 13.1978 10.5327 12.9049C10.2399 12.612 10.0404 12.2389 9.95959 11.8326C9.87879 11.4264 9.92026 11.0053 10.0788 10.6226C10.2373 10.24 10.5057 9.91289 10.8501 9.68277C11.1945 9.45265 11.5994 9.32982 12.0136 9.32982C12.3508 9.32907 12.683 9.41105 12.9811 9.56857L14.6482 7.90155C13.7581 7.236 12.649 6.93229 11.5441 7.05152C10.4391 7.17076 9.42036 7.70409 8.6928 8.5442C7.96523 9.3843 7.58288 10.4688 7.6227 11.5794C7.66251 12.6901 8.12153 13.7444 8.90738 14.5303C9.69323 15.3161 10.7476 15.7752 11.8582 15.815C12.9689 15.8548 14.0534 15.4724 14.8935 14.7449C15.7336 14.0173 16.2669 12.9985 16.3861 11.8936C16.5054 10.7886 16.2017 9.67955 15.5361 8.78951Z" fill="#BFBFBF"/>
</svg>
