<svg width="24" height="24" viewBox="0 0 24 24" fill="none" xmlns="http://www.w3.org/2000/svg">
<path d="M21.2857 2H17.7143C17.3214 2 17 2.32143 17 2.71429C17 3.10714 17.3214 3.42857 17.7143 3.42857H20.5714V6.28571C20.5714 6.67857 20.8929 7 21.2857 7C21.6786 7 22 6.67857 22 6.28571V2.71429C22 2.32143 21.6786 2 21.2857 2Z" fill="#BFBFBF"/>
<path d="M2.71429 7C3.10714 7 3.42857 6.67857 3.42857 6.28571V3.42857H6.28571C6.67857 3.42857 7 3.10714 7 2.71429C7 2.32143 6.67857 2 6.28571 2H2.71429C2.32143 2 2 2.32143 2 2.71429V6.28571C2 6.67857 2.32143 7 2.71429 7Z" fill="#BFBFBF"/>
<path d="M21.2857 17C20.8929 17 20.5714 17.3214 20.5714 17.7143V20.5714H17.7143C17.3214 20.5714 17 20.8929 17 21.2857C17 21.6786 17.3214 22 17.7143 22H21.2857C21.6786 22 22 21.6786 22 21.2857V17.7143C22 17.3214 21.6786 17 21.2857 17Z" fill="#BFBFBF"/>
<path d="M6.28571 20.5714H3.42857V17.7143C3.42857 17.3214 3.10714 17 2.71429 17C2.32143 17 2 17.3214 2 17.7143V21.2857C2 21.6786 2.32143 22 2.71429 22H6.28571C6.67857 22 7 21.6786 7 21.2857C7 20.8929 6.67857 20.5714 6.28571 20.5714Z" fill="#BFBFBF"/>
<path d="M17.9178 8.20713C17.9178 6.94642 16.9 5.92856 15.6428 5.92856C15.2464 5.92856 14.8714 6.02856 14.5464 6.21427C15.2857 6.89999 15.75 7.87856 15.75 8.96427C15.75 9.49999 15.6357 10.0107 15.4321 10.4714C15.5 10.4786 15.5714 10.4821 15.6428 10.4821C16.9 10.4821 17.9178 9.46427 17.9178 8.20713Z" fill="#BFBFBF"/>
<path d="M18.8286 15.0357V12.625C18.8286 11.4429 17.8714 10.4821 16.6857 10.4821H15.425C15.25 10.8786 15.0107 11.2357 14.7143 11.5429C16.0322 12.0714 16.9643 13.3571 16.9643 14.8571V15.0357H18.8286Z" fill="#BFBFBF"/>
<path d="M8.25001 8.96427C8.25001 7.87499 8.7143 6.89642 9.45715 6.2107C9.13215 6.03213 8.75715 5.92856 8.35715 5.92856C7.10001 5.92856 6.08215 6.94642 6.08215 8.20356C6.08215 9.4607 7.10001 10.4821 8.35715 10.4821C8.42858 10.4821 8.50001 10.4786 8.56787 10.4714C8.3643 10.0107 8.25001 9.49999 8.25001 8.96427Z" fill="#BFBFBF"/>
<path d="M9.2857 11.5429C8.98928 11.2357 8.74999 10.8786 8.57499 10.4821H7.31428C6.12856 10.4821 5.16785 11.4429 5.16785 12.625V15.0357H7.0357V14.8571C7.0357 13.3571 7.96785 12.0714 9.2857 11.5429Z" fill="#BFBFBF"/>
<path d="M12 12C13.6766 12 15.0357 10.6409 15.0357 8.96427C15.0357 7.28769 13.6766 5.92856 12 5.92856C10.3234 5.92856 8.96429 7.28769 8.96429 8.96427C8.96429 10.6409 10.3234 12 12 12Z" fill="#BFBFBF"/>
<path d="M13.3929 12H10.6071C9.02857 12 7.75 13.2786 7.75 14.8571V18.0714H16.25V14.8571C16.25 13.2786 14.9714 12 13.3929 12Z" fill="#BFBFBF"/>
</svg>
