<svg width="24" height="24" viewBox="0 0 24 24" fill="none" xmlns="http://www.w3.org/2000/svg">
<path d="M13.68 6.29999C13.68 5.79999 13.74 5.31999 13.9 4.85999H5.4C4.08 4.85999 3 5.93999 3 7.25999V19.6C3 20.92 4.08 21.98 5.4 21.98H17.72C19.04 21.98 20.12 20.92 20.12 19.6V11.12C19.66 11.26 19.18 11.32 18.68 11.32C15.94 11.32 13.68 9.05999 13.68 6.29999Z" fill="#BFBFBF"/>
<path d="M18.7 3C16.88 3 15.4 4.48 15.4 6.3C15.4 8.12 16.88 9.6 18.7 9.6C20.52 9.6 22 8.12 22 6.3C22 4.48 20.52 3 18.7 3Z" fill="#BFBFBF"/>
</svg>
