<svg width="24" height="24" viewBox="0 0 24 24" fill="none" xmlns="http://www.w3.org/2000/svg">
<path d="M12.2241 17.7882C11.0776 17.7882 10.1182 18.7241 10.1182 19.8941C10.1182 21.0406 11.0542 22 12.2241 22C13.3707 22 14.33 21.064 14.33 19.8941C14.3066 18.7475 13.3707 17.7882 12.2241 17.7882ZM11.569 3C8.50369 3 6 5.50369 6 8.56897H8.57389C8.57389 6.93103 9.90764 5.57389 11.569 5.57389C13.2069 5.57389 14.564 6.90764 14.564 8.56897C14.564 9.90271 13.6749 11.0493 12.4581 11.4236H10.9138V16.2906H13.4877V13.7869C15.617 12.9914 17.1379 10.9557 17.1379 8.56897C17.1379 5.50369 14.6342 3 11.569 3Z" fill="#BFBFBF"/>
</svg>
