<svg width="24" height="24" viewBox="0 0 24 24" fill="none" xmlns="http://www.w3.org/2000/svg">
<path d="M12 2C6.48625 2 2 6.48625 2 12C2 17.5137 6.48625 22 12 22C17.5137 22 22 17.5137 22 12C22 6.48625 17.5137 2 12 2ZM3.01063 12C3.01063 10.4725 3.39375 9.03312 4.06875 7.77187C4.19562 7.83687 4.32125 7.88188 4.44125 7.89375C5.28375 7.97813 5.115 9.41 5.7825 9.83125C6.45125 10.2525 6.715 10.815 6.715 10.815C6.715 10.815 6.79938 12.9462 7.64125 13.3675C8.4825 13.7887 8.81937 14.6306 8.56625 15.5563C8.31375 16.4825 8.31375 17.6619 8.90313 18.42C9.4925 19.1775 11.0931 19.0931 10.7563 18.42C10.4194 17.7462 9.91375 17.6619 10.0944 17.2406C10.2738 16.8194 11.43 16.1456 11.6825 15.4725C11.935 14.7987 13.7025 13.8725 14.2925 12.8619C14.8825 11.8512 13.0294 11.2613 12.0425 11.3463C11.0575 11.43 10.5031 10.7569 9.66062 9.85375C8.81812 8.95062 8.48125 9.66188 7.55625 9.83063C6.63125 10 6.29438 9.24188 5.87313 8.23125C5.45188 7.22063 6.63125 7.89438 6.96813 6.785C7.305 5.67563 8.06187 6.54688 8.71125 6.71563C9.36062 6.88438 9.74625 6.79938 9.99937 5.87313C10.2525 4.94688 11.7681 5.2 12.0206 4.61C12.2731 4.02 10.5044 4.69437 9.0725 4.02063C8.83687 3.90938 8.72687 3.77875 8.7025 3.64C9.72437 3.235 10.835 3.01 11.9994 3.01C15.0606 3.01 17.7675 4.54938 19.3919 6.89313C19.2456 7.1525 19.0612 7.34125 18.8475 7.24688C18.3125 7.01063 18.4444 7.7625 17.9019 7.58187C17.3575 7.40062 16.2725 7.49125 16 8.30562C15.7287 9.12125 15.5144 9.49 16.2175 10.2C16.9206 10.91 16.99 11.2581 16.99 11.7106C16.9912 12.1631 17.3675 12.3231 18.0631 12.1838C18.7588 12.0444 19.3513 11.835 19.33 12.455C19.3094 13.075 18.7319 13.1719 19.185 13.6244C19.6369 14.0775 20.2444 14.7181 19.0006 15.1294C17.7581 15.5394 17.6394 16.0344 17.765 16.8419C17.8881 17.6356 17.3694 17.9125 18.19 18.5094C16.5762 20.0438 14.3975 20.99 12 20.99C7.0425 20.99 3.01063 16.9569 3.01063 12Z" fill="#BFBFBF"/>
</svg>
