<svg width="24" height="24" viewBox="0 0 24 24" fill="none" xmlns="http://www.w3.org/2000/svg">
<path d="M2.68986 11.2126H4.54298C4.81678 6.64302 8.6282 3.00002 13.2609 3.00002C18.0832 3.02102 21.9999 6.93783 21.9999 11.7601C21.9999 16.5823 18.0832 20.4991 13.2609 20.4991C11.6606 20.4991 10.1022 20.0568 8.73349 19.2355C8.20704 18.9197 8.03858 18.2248 8.35452 17.7194C8.67033 17.1929 9.36526 17.0244 9.87068 17.3404C10.8813 17.9722 12.0605 18.2881 13.2608 18.2881C16.8618 18.2881 19.7888 15.3611 19.7888 11.7602C19.7886 8.15922 16.8406 5.23226 13.2608 5.23226C9.84951 5.23226 7.06984 7.86448 6.79609 11.2127H8.56491C9.09136 11.2127 9.42832 11.8023 9.15453 12.2656L6.2275 17.0667C5.9537 17.509 5.32208 17.509 5.04829 17.0667L2.10028 12.2656C1.82648 11.8023 2.14244 11.2127 2.6899 11.2127L2.68986 11.2126Z" fill="#BFBFBF"/>
</svg>
