<svg width="24" height="24" viewBox="0 0 24 24" fill="none" xmlns="http://www.w3.org/2000/svg">
<path d="M15.8877 14.7713L17.842 13.6487C16.2204 14.2724 14.1829 14.6466 11.9792 14.6466C11.3139 14.6466 10.6486 14.605 9.94178 14.5218L9.0686 15.894L10.5239 19.3867L12.894 16.3929L12.395 15.3119L14.6819 14.5634L13.3098 16.4761L14.6403 19.3451L16.4699 15.7692L15.8877 14.7713Z" fill="#BFBFBF"/>
<path d="M14.8066 19.6362C16.1788 19.4283 17.3014 19.0956 18.2162 18.6798L16.6362 16.0603L14.8066 19.6362Z" fill="#BFBFBF"/>
<path d="M6.69855 18.8877C7.69647 19.262 8.90229 19.5114 10.316 19.6778L8.86071 16.185L6.69855 18.8877Z" fill="#BFBFBF"/>
<path d="M12.8108 15.4782L13.1434 16.1435L14.0998 14.8961L12.8108 15.4782Z" fill="#BFBFBF"/>
<path d="M3.24739 12.3181L2.70685 12.1102L2.87317 12.8586L3.24739 12.3181Z" fill="#BFBFBF"/>
<path d="M17.0935 14.4387L16.3451 14.896L16.6362 15.395L17.0935 14.4387Z" fill="#BFBFBF"/>
<path d="M2.16632 14.605L2 14.3971C2 14.8129 2 15.1455 2 15.1871C2 15.1871 2 15.1871 2 15.2287C2.08316 15.4366 2.54054 16.3098 3.70478 17.2661L2.74844 13.6487L2.16632 14.605Z" fill="#BFBFBF"/>
<path d="M8.40329 15.104L9.94176 14.5634C8.77751 14.4387 7.61327 14.1892 6.53219 13.815L5.45111 15.5198L6.61535 18.5135L8.77751 15.8524L8.40329 15.104Z" fill="#BFBFBF"/>
<path d="M4.95215 14.2724L5.28479 15.1455L6.15797 14.0229L4.95215 14.2724Z" fill="#BFBFBF"/>
<path d="M19.3804 13.5239L19.9626 14.0229L20.4199 12.7755L19.3804 13.5239Z" fill="#BFBFBF"/>
<path d="M21.6258 11.736V11.4449L21.501 11.6528L21.6258 11.736Z" fill="#BFBFBF"/>
<path d="M9.48443 14.9792L8.81915 15.2703L8.94389 15.6029L9.48443 14.9792Z" fill="#BFBFBF"/>
<path d="M21.9584 9.98961C21.7921 7.16216 17.4678 5 12.0208 5C6.82327 5 2.66527 6.95426 2.12472 9.53223C2.12472 9.82329 2.04156 12.8586 2.04156 14.3555L2.66527 13.2328L2.24947 11.6528L3.70477 12.1102L2.95633 13.2744L3.87109 16.9335L5.03533 15.4366L4.49479 14.0229L6.44905 13.7734C5.40955 13.3992 4.49479 12.9002 3.70477 12.1933C5.07691 10.8212 7.57171 9.53222 11.9792 9.82329C16.1372 10.1143 18.5488 11.3202 20.0041 12.526C19.422 12.9418 18.7152 13.3576 17.8836 13.6486L16.8441 15.7277L18.3825 18.264L19.8794 14.3555L18.9231 13.5239L21.1684 11.9023L20.2536 14.2723L21.6673 15.4782V12.1933L21.1268 11.736L21.9584 10.1559V12.027V12.1102V12.2765L21.8752 15.8524C21.9584 15.7277 22 15.6861 22 15.6861C21.9584 14.605 21.9584 9.61539 21.9584 9.98961Z" fill="#BFBFBF"/>
<path d="M18.5073 18.5551C20.5031 17.5987 21.501 16.3513 21.8337 15.8524L20.0873 14.5218L18.5073 18.5551Z" fill="#BFBFBF"/>
<path d="M3.87109 17.3908C4.49479 17.8898 5.3264 18.3472 6.3659 18.763L5.20166 15.7692L3.87109 17.3908Z" fill="#BFBFBF"/>
<path d="M10.6902 19.7193C11.0229 19.7609 11.3555 19.7609 11.6882 19.7609C12.6861 19.8025 13.6424 19.7609 14.474 19.6778L13.1019 16.7256L10.6902 19.7193Z" fill="#BFBFBF"/>
</svg>
