<svg width="12" height="14" viewBox="0 0 12 14" fill="none" xmlns="http://www.w3.org/2000/svg">
<path d="M4.85497 2.92856H1.58392C1.30589 2.94637 1.04247 3.07787 0.840936 3.29945L0.821637 3.34025C0.633291 3.57994 0.520047 3.8855 0.5 4.20812L0.5 5.81406C0.519341 6.13798 0.632631 6.44498 0.821637 6.68565L0.857018 6.73015C1.05948 6.95011 1.32236 7.08134 1.6 7.10104H4.85497C6.17047 7.09733 7.57602 7.64995 8.86257 8.36206C9.64906 8.8384 10.4095 9.36976 11.1398 9.95316C11.336 10.1089 11.5 10.0125 11.5 9.73434V0.291558C11.5 0.0133929 11.336 -0.0793289 11.1398 0.0727348C10.4102 0.654991 9.64959 1.18392 8.86257 1.65642C7.59532 2.37965 6.17368 2.92856 4.85497 2.92856Z" fill="#EDDF99"/>
<path d="M6.63627 13.0391C6.65368 13.0927 6.6591 13.1505 6.65204 13.2072C6.64498 13.2639 6.62566 13.3176 6.59587 13.3634C6.56607 13.4092 6.52675 13.4457 6.48154 13.4694C6.43632 13.493 6.38667 13.5032 6.33714 13.499H4.72896C4.61064 13.4928 4.49669 13.4456 4.40201 13.3635C4.30733 13.2815 4.23632 13.1684 4.19825 13.0391L2.96638 8.16561C2.94876 8.11218 2.9432 8.05447 2.95021 7.99788C2.95723 7.94129 2.97659 7.88769 3.00649 7.84209C3.03639 7.79649 3.07584 7.7604 3.12114 7.73719C3.16645 7.71399 3.21612 7.70443 3.2655 7.70942L3.27271 4.62854L4.87369 7.70942C4.99186 7.71432 5.10594 7.76059 5.20074 7.84208C5.29554 7.92357 5.36658 8.03642 5.40439 8.16561L6.63627 13.0391Z" fill="#EDDF99"/>
</svg>
