<svg width="24" height="24" viewBox="0 0 24 24" fill="none" xmlns="http://www.w3.org/2000/svg">
<path fill-rule="evenodd" clip-rule="evenodd" d="M3.24629 4H19.1513C19.8635 4 20.3976 4.53412 20.3976 5.24629V5.48368H4.1365C3.83976 5.48368 3.60237 5.72107 3.60237 6.0178C3.60237 6.31454 3.83976 6.55193 4.1365 6.55193H20.3976V8.33234C20.3976 8.98516 19.8635 9.57864 19.1513 9.57864H17.0742C16.362 9.57864 15.8279 10.1128 15.8279 10.7656V13.1395C15.8279 13.7923 16.362 14.3264 17.0742 14.3264H19.1513C19.8635 14.3264 20.3976 14.9199 20.3976 15.5727V18.6588C20.3976 19.3709 19.8635 19.905 19.1513 19.905H3.24629C2.53412 19.905 2 19.3709 2 18.6588V5.24629C2 4.53412 2.53412 4 3.24629 4Z" fill="#2A2A2A"/>
<path fill-rule="evenodd" clip-rule="evenodd" d="M17.2522 9.81602H20.9318C21.5252 9.81602 22 10.2908 22 10.8843V13.0208C22 13.6142 21.5252 14.089 20.9318 14.089H17.2522C16.6588 14.089 16.184 13.6142 16.184 13.0208V10.8843C16.184 10.2908 16.6588 9.81602 17.2522 9.81602ZM18.0238 11.181C18.4392 11.181 18.7359 11.5371 18.7359 11.9525C18.7359 12.368 18.4392 12.6647 18.0238 12.6647C17.6083 12.6647 17.2522 12.368 17.2522 11.9525C17.2522 11.5371 17.6083 11.181 18.0238 11.181Z" fill="#898989"/>
</svg>
