<svg width="24" height="24" viewBox="0 0 24 24" fill="none" xmlns="http://www.w3.org/2000/svg">
<path d="M20.88 6H3.12004C2.50146 6 2 6.50146 2 7.12004V7.73957H22V7.12004C22 6.50146 21.4985 6 20.88 6Z" fill="#BFBFBF"/>
<path d="M2 17.1362C2 17.7548 2.50146 18.2563 3.12004 18.2563H20.88C21.4985 18.2563 22 17.7548 22 17.1362V9.79211H2V17.1362ZM12.2245 16.6016C12.2245 16.6741 12.1657 16.7329 12.0932 16.7329H4.41017C4.33763 16.7329 4.27882 16.6741 4.27882 16.6016V16.4154C4.27882 16.3429 4.33763 16.2841 4.41017 16.2841H12.0932C12.1657 16.2841 12.2245 16.3429 12.2245 16.4154V16.6016ZM19.2926 10.8836C19.6896 11.1554 19.9507 11.6118 19.9507 12.1281C19.9507 12.6445 19.6896 13.1009 19.2926 13.3727L19.0784 13.0831C19.387 12.8772 19.5907 12.5261 19.5907 12.1281C19.5907 11.7302 19.387 11.379 19.0784 11.1731L19.2926 10.8836ZM18.9341 11.3682C19.1832 11.5297 19.3484 11.8099 19.3484 12.1281C19.3484 12.4464 19.1832 12.7266 18.9341 12.8881L18.7192 12.5975C18.88 12.5026 18.9884 12.328 18.9884 12.1281C18.9884 11.9283 18.88 11.7537 18.7192 11.6588L18.9341 11.3682ZM18.5752 11.8535C18.6775 11.9028 18.7482 12.007 18.7482 12.1281C18.7482 12.2492 18.6775 12.3535 18.5752 12.4028L18.3721 12.1281L18.5752 11.8535ZM17.4371 14.8296C17.7385 14.8296 18.0105 14.9476 18.2163 15.1364C18.4222 14.9476 18.6942 14.8296 18.9955 14.8296C19.6345 14.8296 20.1524 15.3476 20.1524 15.9865C20.1524 16.6254 19.6345 17.1434 18.9955 17.1434C18.6942 17.1434 18.4222 17.0254 18.2163 16.8366C18.0105 17.0254 17.7385 17.1434 17.4371 17.1434C16.7982 17.1434 16.2802 16.6254 16.2802 15.9865C16.2802 15.3476 16.7982 14.8296 17.4371 14.8296ZM13.8152 15.2211V15.4073C13.8152 15.4798 13.7563 15.5386 13.6838 15.5386H4.41017C4.33763 15.5386 4.27882 15.4798 4.27882 15.4073V15.2211C4.27882 15.1485 4.33763 15.0897 4.41017 15.0897H13.6838C13.7563 15.0897 13.8152 15.1485 13.8152 15.2211ZM7.22398 12.5876V12.8596C7.22398 13.0446 7.074 13.1945 6.88902 13.1945H6.31275L5.97934 12.8611V12.5876H7.22398ZM6.25729 12.4441V11.7931H7.22398V12.4441H6.25729ZM6.88902 11.0493C7.074 11.0493 7.22398 11.1993 7.22398 11.3843V11.6496H5.98543V11.4153L6.35143 11.0493H6.88902ZM6.14836 11.0493L5.8419 11.356V11.7931H6.11376V12.4441H5.83582V12.9205L6.10986 13.1945H5.37339L5.64729 12.9205V12.4441H5.38993V11.7931H5.64729V11.356L5.3409 11.0493H6.14836ZM4.27879 11.3843C4.27879 11.1993 4.42876 11.0493 4.61375 11.0493H5.13786L5.50377 11.4153V11.6496H4.27879V11.3843ZM4.27879 11.7931H5.2464V12.4441H4.27879V11.7931ZM4.27879 12.5876H5.50377V12.8611L5.17036 13.1945H4.61375C4.42876 13.1945 4.27879 13.0446 4.27879 12.8596V12.5876Z" fill="#BFBFBF"/>
</svg>
