<svg width="13" height="15" viewBox="0 0 13 15" fill="none" xmlns="http://www.w3.org/2000/svg">
<path fill-rule="evenodd" clip-rule="evenodd" d="M3.66579 7.77414C3.39245 7.5789 3.25578 7.48128 3.12012 7.46925C3.00115 7.45871 2.88233 7.4911 2.78517 7.56057C2.67439 7.63978 2.60617 7.79326 2.46975 8.10022L0.325254 12.9253C0.0817097 13.4733 -0.0400625 13.7473 0.0117947 13.9236C0.0567984 14.0765 0.17207 14.1989 0.322104 14.2529C0.494983 14.3151 0.775715 14.2099 1.33717 13.9993L1.3372 13.9993L1.3372 13.9993L5.72171 12.3551C5.82566 12.3161 5.87763 12.2966 5.9311 12.2889C5.97853 12.2821 6.02669 12.2821 6.07412 12.2889C6.12759 12.2966 6.17956 12.3161 6.28351 12.3551L10.668 13.9993C11.2295 14.2099 11.5102 14.3151 11.6831 14.2529C11.8331 14.1989 11.9484 14.0765 11.9934 13.9236C12.0453 13.7473 11.9235 13.4733 11.68 12.9253L9.53726 8.10424C9.40083 7.79728 9.33262 7.6438 9.22184 7.56459C9.12468 7.49512 9.00586 7.46273 8.88688 7.47327C8.75123 7.4853 8.61456 7.58292 8.34122 7.77816L6.58755 9.03078C6.23986 9.27913 5.77278 9.27913 5.42508 9.03078L3.66579 7.77414ZM3.73077 5.26291C3.71117 5.30702 3.72529 5.35884 3.76457 5.38689L5.54133 6.656C5.70864 6.77551 5.79229 6.83526 5.88353 6.85838C5.96412 6.87879 6.04852 6.87879 6.1291 6.85838C6.22034 6.83526 6.304 6.77551 6.47131 6.656L8.24806 5.38689C8.28406 5.36118 8.29701 5.31368 8.27904 5.27325L6.73366 1.79614C6.50213 1.27519 6.38636 1.01472 6.22504 0.934588C6.08492 0.864984 5.9203 0.864984 5.78017 0.934588C5.61886 1.01472 5.50309 1.27519 5.27156 1.79614L3.73077 5.26291Z" fill="#D9D9D9"/>
</svg>
