<svg width="24" height="24" viewBox="0 0 24 24" fill="none" xmlns="http://www.w3.org/2000/svg">
<path d="M10.7097 2L11.3952 4.40927C7.65077 4.64605 4.65568 7.66008 4.45968 11.4153L2 10.7097L2.64516 12L2 13.2903L4.4899 12.5746C4.863 16.189 7.8359 19.0317 11.506 19.2077L10.7097 22L12 21.3548L13.2903 22L12.4839 19.1875C16.0598 18.8938 18.9245 16.0676 19.2581 12.504L22 13.2903L21.3548 12L22 10.7097L19.2883 11.4858C19.1299 7.78377 16.2429 4.78583 12.5947 4.42938L13.2903 2L12 2.64516L10.7097 2ZM11.5716 5.03173C11.6965 5.46619 11.8624 6.0346 12 6.51615L12.4234 5.04437C15.8636 5.32205 18.5726 8.17171 18.6431 11.6674L17.4839 12L18.623 12.3226C18.3732 15.6828 15.6823 18.3469 12.3125 18.5625L12 17.4839L11.6875 18.5726C8.22335 18.4799 5.41432 15.804 5.125 12.3932L6.51613 12L5.10484 11.5968C5.21194 8.06483 7.98016 5.22441 11.5716 5.03173ZM11.8689 8.90522C13.4762 8.90522 14.7722 10.2012 14.7722 11.8084C14.7722 13.4157 13.4762 14.7117 11.8689 14.7117C10.2617 14.7117 8.96571 13.4157 8.96571 11.8084C8.96571 10.2012 10.2617 8.90522 11.8689 8.90522Z" fill="#BFBFBF"/>
</svg>
