<svg width="24" height="24" viewBox="0 0 24 24" fill="none" xmlns="http://www.w3.org/2000/svg">
<path d="M5.0022 5.9542C5.0022 5.9564 5 5.95772 5 5.9597V18.1368C5 18.139 5.0022 18.1403 5.00242 18.1423C5.00308 18.148 5.00572 18.1522 5.00858 18.157C5.01167 18.1621 5.01365 18.1665 5.01849 18.1703C5.02025 18.1716 5.02025 18.174 5.02223 18.1749L6.3625 18.9453C6.36932 18.9492 6.37681 18.951 6.38451 18.951C6.39221 18.951 6.39992 18.949 6.40696 18.9448L6.53045 18.8715L7.42454 19.3851L7.88216 19.654C7.88238 19.6543 7.8826 19.6543 7.8826 19.6543L8.62548 20.0786L9.36198 20.5083C9.36198 20.5083 9.36198 20.5083 9.3622 20.5083C9.3622 20.5083 9.3622 20.5085 9.36242 20.5085L10.1049 20.9327L10.8414 21.363C10.8416 21.363 10.8418 21.363 10.8418 21.3632L11.9342 21.9941C11.941 21.9982 11.9485 21.9998 11.9562 22C11.9637 22 11.9714 21.998 11.9787 21.9941L18.1753 18.4159C18.1773 18.4148 18.1775 18.4124 18.179 18.4113C18.1837 18.4075 18.1861 18.4034 18.189 18.3983C18.192 18.3932 18.1945 18.389 18.1951 18.3833C18.1956 18.3811 18.1975 18.3798 18.1975 18.3778L18.2008 16.2859L18.4141 16.1626C18.4159 16.1615 18.4159 16.1591 18.4176 16.158C18.4223 16.1542 18.4245 16.1501 18.4276 16.145C18.4306 16.1399 18.4331 16.1357 18.4339 16.13C18.4342 16.1278 18.4361 16.1265 18.4361 16.1245L18.4515 5.07727C18.4515 5.07507 18.4496 5.07375 18.4493 5.07199C18.4489 5.06803 18.4478 5.06516 18.4463 5.06142C18.4454 5.05922 18.4467 5.05724 18.4454 5.05548C18.4445 5.0535 18.4421 5.0535 18.4408 5.05174C18.4383 5.04866 18.4361 5.04645 18.4333 5.04403C18.4315 5.04271 18.4315 5.04029 18.4295 5.03941L18.3241 4.97756C18.3221 4.97646 18.3197 4.97756 18.3179 4.97668C18.3129 4.97448 18.308 4.97448 18.3028 4.97448C18.2966 4.97426 18.2913 4.97426 18.2858 4.97668C18.284 4.97734 18.2818 4.97624 18.2801 4.97734L18.1348 5.06076L17.8106 4.87565V4.70616C17.8106 4.70396 17.8086 4.70286 17.8084 4.70088C17.8077 4.69691 17.8068 4.69405 17.8053 4.69031C17.8046 4.68833 17.8055 4.68613 17.8046 4.68437C17.8033 4.68239 17.8011 4.68239 17.8 4.68063C17.7974 4.67733 17.7954 4.67534 17.7923 4.67292C17.7908 4.6716 17.7905 4.6694 17.7888 4.6683L17.69 4.60931C17.6878 4.60799 17.6856 4.60931 17.6838 4.60843C17.6785 4.60601 17.6737 4.60601 17.6682 4.60601C17.662 4.60579 17.6569 4.60579 17.6514 4.60821C17.6497 4.60909 17.6475 4.60799 17.6455 4.60909L13.8041 6.82519L13.7616 6.80098V6.63479C13.7616 6.63259 13.7596 6.63149 13.7594 6.62951C13.759 6.62555 13.7579 6.62268 13.7563 6.61894C13.7554 6.61696 13.7568 6.61476 13.7554 6.613C13.7546 6.61102 13.7519 6.61102 13.7508 6.60926C13.7486 6.60595 13.7464 6.60397 13.7433 6.60155C13.7418 6.60023 13.7418 6.59803 13.74 6.59693L13.6408 6.53794C13.639 6.53662 13.6364 6.53794 13.6346 6.53706C13.6293 6.53464 13.6247 6.53464 13.6192 6.53464C13.6132 6.53442 13.6082 6.53442 13.6027 6.53684C13.6007 6.53772 13.5983 6.53662 13.5967 6.53772L13.2201 6.75607V2.81209C13.2201 2.80967 13.2179 2.80835 13.2177 2.80636C13.217 2.80218 13.2164 2.79932 13.2148 2.79558C13.214 2.79382 13.2151 2.79184 13.214 2.7903C13.2131 2.78831 13.2104 2.78831 13.2093 2.78655C13.2067 2.78325 13.2045 2.78127 13.2012 2.77863C13.1994 2.77731 13.1992 2.77467 13.1972 2.77379L13.0918 2.7148C13.0898 2.7137 13.0876 2.7148 13.0861 2.71414C13.0803 2.71194 13.0757 2.71216 13.07 2.71216C13.0645 2.71238 13.0599 2.71216 13.0546 2.71414C13.0526 2.71502 13.0504 2.71392 13.0487 2.71502L12.8616 2.82243L12.7737 2.79228L12.6591 2.74891L12.5494 2.70621L12.4502 2.65537L12.35 2.60408L12.2606 2.54729L12.1739 2.48544H12.1733L12.0958 2.42579L12.0242 2.3635L11.9815 2.31815V2.10002C11.9815 2.09782 11.9796 2.09672 11.9793 2.09474C11.9789 2.09078 11.9778 2.08792 11.9763 2.08417C11.9754 2.08219 11.9767 2.07999 11.9754 2.07823C11.9745 2.07625 11.9719 2.07625 11.9708 2.07449C11.9686 2.07119 11.9664 2.06921 11.9633 2.06678C11.9617 2.06546 11.9617 2.06326 11.96 2.06216L11.8607 2.00339C11.8589 2.00229 11.8567 2.00339 11.8548 2.00251C11.8495 2.00009 11.8446 2.00009 11.8389 2.00009C11.833 1.99987 11.8281 1.99987 11.8226 2.00229C11.8204 2.00317 11.8182 2.00207 11.8167 2.00317L5.02201 5.92184C5.02025 5.92294 5.02025 5.92537 5.01849 5.92647C5.01519 5.92911 5.01299 5.93109 5.01079 5.93439C5.00946 5.93615 5.00682 5.93615 5.00616 5.93813C5.00484 5.93989 5.00616 5.94209 5.00528 5.94386C5.00352 5.94738 5.00286 5.95046 5.0022 5.9542ZM11.8935 2.22262C11.8917 2.22108 11.8891 2.22086 11.8876 2.21976C11.8825 2.21668 11.8785 2.21382 11.873 2.21294C11.8673 2.21206 11.8627 2.21382 11.8572 2.21514C11.8528 2.21624 11.8486 2.21448 11.8444 2.2169L5.35108 5.96477L5.33875 5.9575L11.8935 2.17618V2.22262ZM17.7219 4.82392L17.7203 4.82304C17.7181 4.82194 17.7159 4.82304 17.7144 4.82216C17.7089 4.81974 17.704 4.81974 17.6983 4.81974C17.6924 4.81952 17.6873 4.81952 17.6818 4.82194C17.6798 4.82282 17.6776 4.82172 17.6759 4.82282L9.70249 9.42538L9.69281 9.4201L17.7221 4.78276L17.7219 4.82392ZM12.0003 21.88L12.0216 12.9188L18.1271 9.39171L18.1121 16.261L18.1088 18.3529L12.0003 21.88ZM10.973 12.2618L17.0811 8.73489L17.0919 8.74149L11.0672 12.2208C11.0637 12.223 11.0628 12.227 11.0604 12.2298C11.0573 12.2327 11.0533 12.2334 11.0513 12.2369C11.05 12.2386 11.0513 12.2408 11.0505 12.2426C11.0483 12.2479 11.0483 12.253 11.0483 12.2587C11.0483 12.2644 11.0483 12.2695 11.0505 12.2747C11.0513 12.2767 11.05 12.2789 11.0513 12.2805C11.0527 12.2831 11.056 12.2822 11.0577 12.2844C11.0613 12.2886 11.0624 12.2939 11.0672 12.2968L11.1695 12.3557L11.9558 12.8079C11.9626 12.8118 11.9701 12.8136 11.9778 12.8136C11.9855 12.8136 11.9928 12.8116 11.9998 12.8076L17.9182 9.39038L18.0663 9.30454L18.0844 9.31511L11.9778 12.8426L10.973 12.2618ZM17.132 8.85925C17.1302 8.85815 17.1278 8.85925 17.126 8.85837C17.1207 8.85617 17.1159 8.85617 17.1102 8.85617C17.1045 8.85617 17.0994 8.85617 17.0941 8.85837C17.0921 8.85925 17.0899 8.85815 17.0879 8.85925L11.1913 12.267L11.1773 12.2589L17.1339 8.81897V8.86035L17.132 8.85925ZM10.9076 21.2998L10.9261 13.6022V13.4816L10.9292 12.9738V12.8622V12.7478V12.3379L11.9333 12.9186L11.912 21.88L10.9076 21.2998ZM10.8411 12.2618V12.7227L10.1795 13.1039L10.1834 9.87265L18.3628 5.15387L18.3474 16.0997L18.2004 16.1846L18.2158 9.31533C18.2158 9.31313 18.2136 9.3118 18.2134 9.31004C18.2129 9.30608 18.2118 9.30322 18.2105 9.29948C18.2096 9.29728 18.2107 9.2953 18.2096 9.29354C18.2085 9.29177 18.2061 9.29155 18.205 9.28979C18.2028 9.28671 18.2006 9.28451 18.1975 9.28209C18.196 9.28077 18.1958 9.27835 18.1938 9.27747L18.0886 9.21562C18.0866 9.21451 18.0844 9.21561 18.0824 9.21473C18.0774 9.21253 18.0725 9.21253 18.0668 9.21253C18.0608 9.21231 18.0558 9.21231 18.0503 9.21473C18.0483 9.21561 18.0461 9.21451 18.0443 9.21562L17.896 9.3019L17.222 8.9123V8.74281C17.222 8.74083 17.22 8.73951 17.2198 8.73775C17.2194 8.73379 17.2183 8.73115 17.2169 8.7274C17.2161 8.7252 17.2172 8.723 17.2161 8.72102C17.2147 8.71904 17.2125 8.71904 17.2114 8.71728C17.209 8.7142 17.207 8.71222 17.2042 8.7098C17.2026 8.70847 17.2026 8.70627 17.2009 8.70517L17.1047 8.64618C17.1027 8.64486 17.1003 8.64596 17.0983 8.64508C17.093 8.64266 17.0879 8.64266 17.082 8.64266C17.0765 8.64266 17.0717 8.64266 17.0666 8.64486C17.0644 8.64574 17.062 8.64442 17.06 8.64574L10.8629 12.2239C10.8612 12.225 10.8612 12.2274 10.8594 12.2285C10.8561 12.2312 10.8541 12.2331 10.8517 12.2364C10.8504 12.2382 10.8477 12.2382 10.8471 12.2402C10.8458 12.2419 10.8471 12.2442 10.8462 12.2459C10.8444 12.2497 10.8438 12.2525 10.8431 12.2565C10.8431 12.2585 10.8411 12.2598 10.8411 12.2618ZM10.8411 12.9485L10.4425 13.1799L10.4308 13.173L10.8409 12.9386L10.8411 12.9485ZM10.8381 13.5309L10.2272 13.1779L10.8411 12.8241V12.8369L10.3219 13.1338C10.3181 13.136 10.3175 13.14 10.3148 13.1429C10.312 13.1455 10.3078 13.1462 10.3058 13.1495C10.3047 13.1515 10.3056 13.1537 10.3049 13.1554C10.3023 13.1607 10.3023 13.1658 10.3023 13.1715C10.3023 13.1774 10.3021 13.1823 10.3045 13.1876C10.3052 13.1895 10.3041 13.192 10.3052 13.1937C10.3067 13.1964 10.31 13.1957 10.312 13.1979C10.3153 13.2019 10.3164 13.2069 10.3208 13.2098L10.4198 13.2688C10.4201 13.2688 10.4201 13.2688 10.4201 13.2688C10.4203 13.269 10.4203 13.2692 10.4205 13.2692L10.8378 13.5089L10.8381 13.5309ZM10.1709 20.8695L10.1832 13.254L10.835 13.6306L10.8196 21.2485L10.1709 20.8695ZM9.48766 9.4234L13.8259 6.91411L17.6666 4.69846L17.6789 4.70594L9.58143 9.38246C9.57769 9.38466 9.57703 9.38884 9.57417 9.39193C9.57153 9.39479 9.56734 9.39545 9.56514 9.39897C9.56426 9.40073 9.56536 9.40271 9.5647 9.40447C9.56228 9.40975 9.5625 9.41482 9.5625 9.42076C9.5625 9.42648 9.5625 9.43155 9.5647 9.43661C9.56558 9.43859 9.56448 9.44057 9.56558 9.44211C9.5669 9.44475 9.57021 9.44387 9.57197 9.44607C9.57549 9.45048 9.57703 9.45598 9.58209 9.45884L9.68114 9.51431L10.117 9.76788C10.1238 9.77206 10.1315 9.77382 10.139 9.77382C10.1467 9.77382 10.1539 9.77184 10.1612 9.76788L18.1557 5.14991C18.1559 5.14969 18.1562 5.14969 18.1564 5.14969L18.3012 5.06648L18.3193 5.07727L10.1392 9.79649L9.48766 9.4234ZM9.42801 20.4449L9.44056 12.748V12.6271V12.1288V12.0111V11.8966L9.44364 9.86913V9.74543V9.49956L10.0954 9.87287L10.0828 20.8189L9.42801 20.4449ZM8.22267 9.87133L8.21277 9.86561L13.6733 6.71117V6.75255L13.6703 6.75079C13.6685 6.74991 13.6667 6.75101 13.6652 6.75035C13.6597 6.74793 13.6542 6.74837 13.648 6.74859C13.6425 6.74859 13.6377 6.74837 13.6326 6.75079C13.6309 6.75145 13.6291 6.75035 13.6275 6.75145L8.22267 9.87133ZM9.35229 12.6527V12.6716L8.74764 12.321L9.35229 11.9732V11.986L8.84185 12.2798C8.83855 12.2818 8.83789 12.2855 8.83547 12.2884C8.83239 12.291 8.82821 12.2917 8.826 12.2952C8.8249 12.2972 8.826 12.2996 8.82512 12.3014C8.82292 12.3067 8.82292 12.3115 8.82292 12.3172C8.8227 12.3232 8.8227 12.328 8.82512 12.3335C8.82578 12.3355 8.82468 12.3377 8.82578 12.3395C8.82733 12.3421 8.83063 12.3412 8.83239 12.3434C8.83569 12.3476 8.83679 12.3527 8.84141 12.3555L8.94046 12.4145C8.94068 12.4147 8.9409 12.4147 8.9409 12.4147L9.35229 12.6527ZM8.96335 12.3256L8.95081 12.3183L9.35207 12.0872V12.1033L8.96335 12.3256ZM8.7012 12.2459L8.70362 10.3188L9.35538 9.94551L9.35229 11.8713L8.7012 12.2459ZM8.6913 20.0155L8.7034 12.3971L9.35229 12.7735L9.33975 20.3941L8.6913 20.0155ZM8.00806 9.86913L12.9342 7.01955L13.1972 6.87075C13.1974 6.87075 13.1974 6.87053 13.1977 6.87053L13.6176 6.62687L13.6302 6.63435L8.10183 9.82797C8.09831 9.83017 8.09743 9.83413 8.09501 9.83721C8.09193 9.84008 8.08774 9.84074 8.08554 9.84426C8.08466 9.84624 8.08576 9.84822 8.08488 9.84998C8.08268 9.85526 8.0829 9.86033 8.0829 9.86605C8.0829 9.87177 8.0829 9.87683 8.0851 9.88212C8.08598 9.88388 8.08466 9.88608 8.08598 9.88762C8.08731 9.89026 8.09061 9.88938 8.09259 9.89158C8.09611 9.89598 8.09743 9.90127 8.10227 9.90413L8.20066 9.9596L8.20088 9.95982L8.63715 10.2134C8.64419 10.2176 8.65167 10.2193 8.65938 10.2193C8.66708 10.2193 8.67435 10.2173 8.68161 10.2134L9.35538 9.82203V9.84382L8.6596 10.2427L8.00806 9.86913ZM7.94841 19.5906L7.95766 12.3421V12.2184V12.0421C7.95766 12.0421 7.95744 12.0421 7.95744 12.0419L7.96052 11.9287C7.96052 11.9285 7.96052 11.9285 7.96052 11.9283C7.96052 11.9281 7.96074 11.9278 7.96074 11.9276V11.8158L7.96382 9.94529L8.61558 10.3186L8.60325 19.9644L7.94841 19.5906ZM7.87578 9.86935L7.87247 11.7905L7.49938 12.0025L7.50268 9.384L12.8686 6.28371V6.95593L7.89779 9.83127C7.89603 9.83237 7.89581 9.83479 7.89427 9.83589C7.89074 9.83853 7.88876 9.84052 7.88634 9.84382C7.88502 9.84558 7.8826 9.84558 7.88172 9.84756C7.88084 9.84954 7.88172 9.85152 7.88106 9.85328C7.8793 9.85702 7.87842 9.85989 7.87798 9.86385C7.87754 9.86605 7.87578 9.86737 7.87578 9.86935ZM7.87247 11.9025L7.644 12.0353C7.64048 12.0372 7.63982 12.0412 7.63717 12.0438C7.63453 12.0467 7.63035 12.0474 7.62815 12.0507C7.62683 12.0527 7.62815 12.0551 7.62727 12.0571C7.62485 12.0621 7.62485 12.0672 7.62485 12.0727C7.62485 12.0786 7.62463 12.0835 7.62705 12.089C7.62793 12.091 7.62683 12.0934 7.62793 12.0951C7.62947 12.0978 7.63277 12.0969 7.63453 12.0991C7.63783 12.1031 7.63893 12.1081 7.64356 12.111L7.74239 12.17C7.74239 12.17 7.74261 12.1702 7.74283 12.1702L7.86939 12.2439V12.2657L7.54649 12.0769L7.87225 11.892L7.87247 11.9025ZM7.87027 12.017L7.76484 12.0806L7.75273 12.0736L7.87049 12.0053L7.87027 12.017ZM7.49014 19.3221L7.50268 12.153L7.86961 12.3679L7.86037 19.5396L7.49014 19.3221ZM6.42853 6.75893L13.1316 2.88825V6.80692L12.9566 6.90575V6.20733C12.9566 6.20491 12.9544 6.20337 12.954 6.20139C12.9536 6.19743 12.9529 6.19456 12.9514 6.19082C12.9505 6.18906 12.9516 6.18708 12.9505 6.18554C12.9496 6.18356 12.947 6.18356 12.9459 6.1818C12.9434 6.1785 12.9412 6.17629 12.9377 6.17387C12.936 6.17233 12.9357 6.16969 12.9338 6.16881L12.8314 6.1129C12.8296 6.1118 12.8274 6.1129 12.8259 6.11224C12.8208 6.11026 12.816 6.1107 12.8107 6.11048C12.8045 6.11048 12.7993 6.11026 12.7938 6.11268C12.792 6.11334 12.7902 6.11246 12.7887 6.11334L12.6406 6.19721L12.0031 5.82609V5.65969C12.0031 5.65551 11.9998 5.65287 11.9987 5.6489C11.9978 5.64516 11.9992 5.6412 11.9972 5.63768C11.9961 5.6357 11.9937 5.6357 11.9925 5.63394C11.9888 5.62931 11.9846 5.62689 11.9793 5.62381C11.9745 5.62095 11.9703 5.61853 11.9648 5.61787C11.9626 5.61743 11.9613 5.61545 11.9593 5.61545C11.9549 5.61545 11.952 5.61897 11.9481 5.62007C11.9443 5.62117 11.9406 5.61963 11.9371 5.62161L6.58834 8.70759C6.58481 8.70957 6.58415 8.71354 6.58173 8.71618C6.57887 8.71882 6.57491 8.71948 6.57293 8.72256C6.57183 8.72454 6.57271 8.72696 6.57183 8.72872C6.56941 8.73423 6.56919 8.73907 6.56919 8.74501C6.56919 8.75074 6.56919 8.75558 6.57139 8.76086C6.57227 8.76306 6.57095 8.76526 6.57227 8.76724C6.57359 8.76967 6.57689 8.76901 6.57865 8.77121C6.58195 8.77517 6.58305 8.78023 6.58723 8.78309L6.68342 8.84208C6.68364 8.8423 6.68408 8.84208 6.68452 8.8423V8.84252L7.43665 9.27593C7.44347 9.28011 7.45096 9.28187 7.45866 9.28187C7.46637 9.28187 7.47363 9.27989 7.48089 9.27593L12.6619 6.28613L12.8109 6.20183L12.823 6.20843L7.45844 9.30784L6.52406 8.76636C6.50315 8.75404 6.4763 8.76152 6.46397 8.78221C6.45187 8.80334 6.45913 8.83042 6.48004 8.8423L7.41442 9.38378L7.40231 19.271L6.55202 18.7826C6.5518 18.7826 6.55158 18.7826 6.55136 18.7826C6.55136 18.7824 6.55136 18.7822 6.55114 18.7822L6.51086 18.7602C6.48994 18.7483 6.46309 18.7562 6.4512 18.7778C6.44438 18.7905 6.44614 18.804 6.45165 18.8163L6.42875 18.8299L6.42853 6.75893ZM11.9098 5.77283C11.9078 5.77173 11.9058 5.77283 11.9041 5.77217C11.8988 5.76975 11.8937 5.76997 11.888 5.76997C11.8821 5.76997 11.8772 5.76997 11.8717 5.77217C11.8699 5.77305 11.8677 5.77195 11.8662 5.77305L6.70742 8.75338L6.69663 8.74677L11.9151 5.73585V5.77591L11.9098 5.77283ZM5.13207 5.95992L11.838 2.0921L11.8506 2.09936L5.22958 5.91876C5.22584 5.92074 5.22518 5.92471 5.22275 5.92757C5.21989 5.93021 5.21593 5.93087 5.21373 5.93417C5.21241 5.93615 5.21373 5.93835 5.21285 5.94033C5.21043 5.94562 5.21043 5.95046 5.21043 5.9564C5.21043 5.96212 5.21021 5.96697 5.21241 5.97225C5.21329 5.97445 5.21219 5.97665 5.21329 5.97841C5.21483 5.98105 5.21835 5.98017 5.22011 5.98237C5.22319 5.98656 5.22451 5.99162 5.22914 5.99448L5.32797 6.05347C5.32819 6.05369 5.32841 6.05391 5.32841 6.05391L6.36228 6.648C6.3691 6.65196 6.37659 6.65372 6.38429 6.65372C6.39199 6.65372 6.39926 6.65174 6.4063 6.64778L12.8877 2.90894C12.888 2.90872 12.888 2.90872 12.8882 2.90872L13.0707 2.80372L13.0865 2.81253L6.38451 6.68299L5.13207 5.95992ZM5.08827 6.03608L6.34027 6.75893V18.8313L5.08827 18.1113V6.03608Z" fill="#FBFBFB"/>
</svg>
