<svg width="24" height="24" viewBox="0 0 24 24" fill="none" xmlns="http://www.w3.org/2000/svg">
<path d="M21.9162 11.4407L17.227 3.31262C17.1724 3.21812 17.0941 3.13955 16.9997 3.0847C16.9054 3.02986 16.7984 3.00066 16.6893 3H7.31073C7.20162 3.00066 7.09458 3.02986 7.00025 3.0847C6.90592 3.13955 6.82759 3.21812 6.77303 3.31262L2.08377 11.4407C2.02889 11.5357 2 11.6435 2 11.7533C2 11.863 2.02889 11.9709 2.08377 12.0659L6.77303 20.194C6.82759 20.2885 6.90592 20.367 7.00025 20.4219C7.09458 20.4767 7.20162 20.5059 7.31073 20.5066H16.6893C16.7984 20.5059 16.9054 20.4767 16.9997 20.4219C17.0941 20.367 17.1724 20.2885 17.227 20.194L21.9162 12.0659C21.9711 11.9709 22 11.863 22 11.7533C22 11.6435 21.9711 11.5357 21.9162 11.4407ZM12 16.7552C11.0107 16.7552 10.0437 16.4618 9.2211 15.9122C8.39855 15.3626 7.75744 14.5814 7.37886 13.6674C7.00028 12.7535 6.90123 11.7477 7.09423 10.7775C7.28722 9.80721 7.76361 8.91596 8.46313 8.21643C9.16266 7.5169 10.0539 7.04052 11.0242 6.84752C11.9945 6.65452 13.0002 6.75358 13.9141 7.13216C14.8281 7.51074 15.6093 8.15184 16.1589 8.9744C16.7085 9.79695 17.0019 10.764 17.0019 11.7533C17.0019 13.0799 16.4749 14.3521 15.5369 15.2902C14.5988 16.2282 13.3266 16.7552 12 16.7552Z" fill="#BFBFBF"/>
</svg>
