<svg width="24" height="24" viewBox="0 0 24 24" fill="none" xmlns="http://www.w3.org/2000/svg">
<path d="M16.4 3V5.44063C12.7817 6.3599 7.62516 8.82037 5.95 14C10.1359 10.3265 16.0545 10.7267 16.4 10.743V13.1836L23 8.09609L16.4 3ZM2.1 4.65C1.52407 4.65006 1.00005 5.17406 1 5.75V20.05C1.00005 20.6259 1.52407 21.1499 2.1 21.15H16.95C17.5259 21.1499 18.0499 20.6259 18.05 20.05V13.2953L17.0703 14.0515L15.85 14.9969V18.95H3.2V6.85H10.3758C11.985 5.81989 13.6931 5.11171 15.2227 4.65H2.1Z" fill="#BFBFBF"/>
</svg>
