<svg width="24" height="24" viewBox="0 0 24 24" fill="none" xmlns="http://www.w3.org/2000/svg">
<path d="M14.5056 2V2.00058L14.5058 2H14.5056Z" fill="#BFBFBF"/>
<path d="M14.5064 2H14.5059L14.5064 2.00058V2Z" fill="#BFBFBF"/>
<path d="M20.6143 6.91184L20.601 6.73581L20.4243 6.72973C14.6865 6.53864 11.9985 2.9068 11.9725 2.87003L11.8123 2.64883L11.6525 2.87003C11.6262 2.9068 8.93878 6.53864 3.20063 6.72973L3.02402 6.73581L3.0107 6.91184C3.00346 7.00767 2.38677 16.5569 11.7139 21.9433L11.8126 22L11.9111 21.9433C21.2385 16.5569 20.6218 7.00767 20.6143 6.91184ZM3.39664 7.11654C8.42632 6.88405 11.1511 4.07707 11.8126 3.29911C12.4742 4.07707 15.199 6.88405 20.2283 7.11654C20.2356 7.39159 20.2341 7.97904 20.1513 8.77669C19.2535 9.63138 16.2355 12.3283 11.8358 14.441C7.34319 12.2832 4.29273 9.51846 3.46844 8.72689C3.39085 7.95501 3.38969 7.3858 3.39664 7.11654ZM19.5488 11.8069C19.127 13.24 18.4463 14.8519 17.3568 16.4483C16.0064 16.1122 14.7273 15.6808 13.5298 15.1918C15.7053 14.3423 17.9532 13.2195 19.5488 11.8069ZM10.1426 15.1918C8.93357 15.6857 7.64083 16.1211 6.27571 16.4582C5.16652 14.8362 4.48092 13.1981 4.05937 11.7472C5.65814 13.1879 7.93673 14.3307 10.1426 15.1918ZM11.8126 21.5449C9.62988 20.2678 8.01548 18.7564 6.8151 17.1996C7.42223 17.0711 9.45385 16.6157 11.8361 15.8085C14.1622 16.5965 16.1582 17.0502 16.8165 17.1909C15.6159 18.7509 13.9994 20.2654 11.8126 21.5449Z" fill="#BFBFBF"/>
</svg>
