<svg width="24" height="24" viewBox="0 0 24 24" fill="none" xmlns="http://www.w3.org/2000/svg">
<path d="M21.8977 10.6428L16.3576 5.10272C16.3087 5.05369 16.2462 5.02029 16.1783 5.00675C16.1103 4.99321 16.0399 5.00014 15.9759 5.02667C15.9118 5.0532 15.8571 5.09813 15.8187 5.15576C15.7802 5.2134 15.7597 5.28116 15.7598 5.35046V7.44009C11.5171 7.2274 7.67395 8.4306 5.17186 10.7658C4.17583 11.6902 3.38546 12.8138 2.85213 14.0636C2.27282 15.4616 1.98318 16.9626 2.00075 18.4757C2.00069 18.5535 2.0265 18.629 2.07411 18.6905C2.12172 18.7519 2.18843 18.7958 2.26372 18.8151C2.33901 18.8345 2.4186 18.8282 2.48994 18.7973C2.56128 18.7664 2.62031 18.7127 2.65773 18.6446C3.8777 16.4291 5.42347 15.1704 7.66987 14.5668C9.81154 13.9911 12.5704 14.0077 15.7598 14.0485V16.4306C15.7599 16.4999 15.7804 16.5675 15.8189 16.6251C15.8574 16.6826 15.9121 16.7274 15.9761 16.7539C16.0401 16.7804 16.1104 16.7873 16.1783 16.7739C16.2462 16.7604 16.3086 16.7271 16.3576 16.6781L21.8977 11.1389C21.9632 11.0733 22 10.9843 22 10.8916C22 10.7989 21.9632 10.7099 21.8977 10.6443V10.6428ZM21.1549 10.8905C19.6132 10.8677 5.17423 9.25015 2.77278 17.1405C2.9772 14.8988 4.0016 12.8113 5.6497 11.2781C7.83352 9.24004 11.1186 8.11684 14.8022 8.11684C15.225 8.11684 15.6528 8.13183 16.0858 8.16179C16.1337 8.16512 16.1818 8.15856 16.2271 8.14251C16.2724 8.12645 16.3139 8.10125 16.349 8.06847C16.3841 8.03569 16.4121 7.99604 16.4312 7.95197C16.4504 7.90791 16.4602 7.86037 16.4602 7.81233V6.19581L21.1549 10.8905Z" fill="#BFBFBF"/>
</svg>
