<svg width="40" height="40" viewBox="0 0 40 40" fill="none" xmlns="http://www.w3.org/2000/svg">
<path fill-rule="evenodd" clip-rule="evenodd" d="M31 33.5C27.5891 33.5 25 30.9113 25 27.5C25 24.4406 27.0806 21.9912 30 21.5L29.7939 20.3824C29.7939 20.3824 29.7908 15.5742 25.5449 14.4437C24.9604 17.2468 22.4766 19.3534 19.5 19.3534C16.5234 19.3534 14.0396 17.2468 13.4547 14.4441C9.20883 15.5738 9.20572 20.3824 9.20572 20.3824V21.5048C12.1255 21.9959 14.3527 24.5291 14.3527 27.5885C14.3527 30.9995 11.5873 33.7653 8.17633 33.7653C4.76539 33.7653 2 30.9995 2 27.5881C2 24.5288 4.22717 21.9955 7.14694 21.5044C7.14694 21.1322 7.14694 20.7573 7.14694 20.382C7.14694 14.7945 10.9363 12.9998 13.3742 12.4219C13.7472 9.36792 16.3449 6.99998 19.5 6.99998C22.6551 6.99998 25.2532 9.36792 25.6262 12.4223C28.0637 13.0001 31.8531 14.7953 31.8531 20.3824C31.8531 20.7577 31.8531 21.1326 31.8531 21.5048C34.7728 21.9955 37 24.5291 37 27.5881C37 30.9995 34.4113 33.5 31 33.5ZM4.05878 27.5881C4.05878 29.8624 5.9025 31.7061 8.17633 31.7061C10.4502 31.7061 12.2939 29.8624 12.2939 27.5881C12.2939 25.3143 10.4502 23.4706 8.17633 23.4706C5.9025 23.4706 4.05878 25.3147 4.05878 27.5881Z" fill="#2A2A2A"/>
<circle cx="6.25" cy="6.25" r="6.25" transform="matrix(1 0 0 -1 2 33.7653)" fill="#898989"/>
<circle cx="6.25" cy="6.25" r="6.25" transform="matrix(1 0 0 -1 25 33.7653)" fill="#898989"/>
</svg>
