<svg width="24" height="24" viewBox="0 0 24 24" fill="none" xmlns="http://www.w3.org/2000/svg">
<path d="M3 21H6.49714L9.24729 18.2482L6.18311 15.1844L3.00129 18.3514L3 21Z" fill="#BFBFBF"/>
<path d="M21 17.5029L18.2482 14.7527L15.1844 17.8169L18.3514 20.9987L21 21V17.5029Z" fill="#BFBFBF"/>
<path d="M14.1385 6.8041C13.7802 7.16167 13.344 7.43133 12.864 7.59193C12.4782 7.72071 12.1274 7.93712 11.8393 8.22418L8.84356 11.2202L8.84003 11.2234C8.78571 11.2747 8.75067 11.3431 8.74078 11.4171C8.73089 11.4911 8.74675 11.5663 8.78571 11.63C8.81097 11.6656 8.8437 11.6953 8.88163 11.7169C8.91955 11.7386 8.96175 11.7516 9.00526 11.7553C9.04877 11.7589 9.09254 11.7529 9.13351 11.7379C9.17449 11.7228 9.21167 11.6989 9.24246 11.668L10.7786 10.1319C10.8387 10.0715 10.9205 10.0374 11.0057 10.0373C11.091 10.0371 11.1728 10.0709 11.2332 10.1311C11.2936 10.1912 11.3276 10.273 11.3278 10.3582C11.3279 10.4435 11.2942 10.5253 11.234 10.5857L9.69792 12.1215L9.06406 12.7557C9.00853 12.8067 8.97242 12.8754 8.96187 12.9501C8.95132 13.0247 8.96699 13.1008 9.00621 13.1652C9.03143 13.2008 9.06414 13.2304 9.10204 13.2521C9.13994 13.2737 9.18211 13.2868 9.22559 13.2904C9.26908 13.294 9.31283 13.2881 9.35377 13.273C9.39472 13.2579 9.43188 13.2341 9.46263 13.2031L11.6573 11.0087C11.718 10.9502 11.7992 10.9178 11.8834 10.9185C11.9677 10.9192 12.0483 10.953 12.1079 11.0126C12.1675 11.0722 12.2013 11.1528 12.2021 11.2371C12.2028 11.3214 12.1704 11.4026 12.1118 11.4632L9.91746 13.6586L9.50281 14.0729C9.44731 14.124 9.41122 14.1928 9.40067 14.2675C9.39012 14.3422 9.40577 14.4182 9.44496 14.4827C9.47039 14.5185 9.50337 14.5483 9.54159 14.57C9.5798 14.5916 9.62231 14.6046 9.6661 14.6081C9.70941 14.6119 9.75303 14.606 9.79382 14.5909C9.83461 14.5759 9.87156 14.552 9.90203 14.521L10.3408 14.0822L12.5352 11.8875C12.5958 11.8289 12.677 11.7965 12.7613 11.7973C12.8455 11.798 12.9262 11.8318 12.9858 11.8914C13.0454 11.951 13.0792 12.0316 13.0799 12.1159C13.0806 12.2002 13.0482 12.2814 12.9897 12.342L10.7953 14.5367C10.7643 14.5675 10.7405 14.6047 10.7254 14.6457C10.7103 14.6866 10.7044 14.7304 10.708 14.7739C10.7116 14.8174 10.7247 14.8596 10.7463 14.8975C10.7679 14.9355 10.7976 14.9682 10.8332 14.9935C10.8978 15.0326 10.974 15.0481 11.0487 15.0375C11.1235 15.0268 11.1923 14.9906 11.2433 14.935L12.7541 13.4242C12.7563 13.4217 12.7599 13.421 12.7624 13.4185L12.7653 13.414L14.3014 11.8782C14.362 11.8196 14.4432 11.7872 14.5275 11.788C14.6118 11.7887 14.6924 11.8225 14.752 11.8821C14.8116 11.9417 14.8454 12.0223 14.8461 12.1066C14.8469 12.1909 14.8145 12.2721 14.7559 12.3327L13.4381 13.6505C13.5531 13.7609 13.7067 13.8219 13.8661 13.8205C14.0255 13.8191 14.178 13.7555 14.2911 13.6431L15.8202 12.1138C16.0564 11.8768 16.2054 11.5668 16.2429 11.2344L16.3235 10.5108C16.3775 10.0332 16.5916 9.58792 16.931 9.24761L17.1355 9.04318L14.5177 6.42514L14.1385 6.8041Z" fill="#BFBFBF"/>
<path d="M14.7441 5.76011L17.8169 8.81561L20.9988 5.64857L21 3.00096L17.5029 3L14.7441 5.76011Z" fill="#BFBFBF"/>
<path d="M10.5118 7.67806C10.0331 7.62348 9.58695 7.40819 9.24635 7.06734L9.04289 6.86356L6.42517 9.48127L6.80414 9.85831C7.16104 10.2181 7.43076 10.6548 7.5926 11.135C7.62909 11.2383 7.67203 11.3392 7.72117 11.4372C7.72342 11.4349 7.72471 11.4323 7.72696 11.4301L8.38589 10.7712C8.38781 10.7692 8.38942 10.7667 8.39167 10.7644L11.3678 7.78927C11.3234 7.77995 11.2804 7.76484 11.2347 7.7597L10.5118 7.67806Z" fill="#BFBFBF"/>
<path d="M8.61153 12.3002C8.47563 12.2326 8.35792 12.1334 8.26824 12.011C8.2381 11.9691 8.21175 11.9247 8.18949 11.8782L8.18017 11.8875C7.94403 12.1242 7.79494 12.4338 7.75717 12.766L7.67649 13.4892C7.62257 13.9668 7.40843 14.4121 7.06899 14.7524L6.86456 14.9568L9.48228 17.5749L9.86124 17.1959C10.2195 16.8383 10.6557 16.5687 11.1357 16.4081C11.5217 16.2793 11.8725 16.0628 12.1607 15.7755L13.5242 14.4123C13.3208 14.3578 13.1346 14.2523 12.9833 14.1057L11.6976 15.3898C11.5099 15.5774 11.2558 15.6833 10.9904 15.6842C10.7974 15.6854 10.6091 15.625 10.4527 15.512C10.3194 15.4145 10.2137 15.2841 10.1457 15.1336C9.98464 15.2239 9.80033 15.2641 9.61631 15.249C9.45904 15.2375 9.30723 15.1864 9.17503 15.1005C9.04282 15.0145 8.93452 14.8965 8.86022 14.7574C8.78591 14.6183 8.74801 14.4627 8.75005 14.305C8.75209 14.1473 8.794 13.9928 8.87188 13.8556C8.71836 13.7881 8.58533 13.6814 8.48617 13.5461C8.35617 13.3577 8.29711 13.1294 8.31947 12.9016C8.34183 12.6738 8.44417 12.4613 8.60831 12.3018L8.61153 12.3002Z" fill="#BFBFBF"/>
<path d="M3 3V6.49714L5.75175 9.24729L8.81561 6.18311L5.64857 3.00129L3 3Z" fill="#BFBFBF"/>
<path d="M12.766 16.2429L13.4882 16.3229C13.967 16.3774 14.4132 16.5927 14.7537 16.9336L14.9572 17.1371L17.5749 14.5194L17.1959 14.1423C16.839 13.7826 16.5693 13.3458 16.4075 12.8656C16.371 12.7623 16.3281 12.6614 16.2789 12.5635C16.2766 12.5657 16.2754 12.5683 16.2731 12.5705L12.632 16.2107C12.677 16.2213 12.7197 16.2368 12.766 16.2429Z" fill="#BFBFBF"/>
</svg>
