<svg width="24" height="24" viewBox="0 0 24 24" fill="none" xmlns="http://www.w3.org/2000/svg">
<path fill-rule="evenodd" clip-rule="evenodd" d="M5.28397 4.78614C5.09914 4.78662 4.93284 4.89907 4.8638 5.07043C4.79459 5.24196 4.8364 5.43835 4.96928 5.56679L7.23176 7.81897C7.31649 7.90703 7.43306 7.9574 7.55518 7.95835C7.67744 7.95945 7.79497 7.9113 7.88112 7.82467C7.96728 7.73804 8.01496 7.62036 8.01337 7.49825C8.01163 7.37598 7.96079 7.25957 7.87241 7.17531L5.61026 4.92313H5.6101C5.52442 4.83539 5.40672 4.78583 5.28397 4.78614Z" fill="#FBFBFB"/>
<path fill-rule="evenodd" clip-rule="evenodd" d="M16.5255 16.0427C16.3406 16.0424 16.1739 16.1542 16.1042 16.3254C16.0344 16.4966 16.0753 16.693 16.2077 16.8221L18.5058 19.1278H18.5059C18.5902 19.2162 18.7066 19.2669 18.8289 19.2685C18.951 19.27 19.0687 19.2222 19.1551 19.1359C19.2416 19.0497 19.2898 18.9322 19.2887 18.8101C19.2875 18.6878 19.2372 18.5713 19.149 18.4867L16.8512 16.181C16.7656 16.0928 16.6483 16.0429 16.5255 16.0427Z" fill="#FBFBFB"/>
<path fill-rule="evenodd" clip-rule="evenodd" d="M11.9976 2.00007C11.7469 2.00387 11.5467 2.20992 11.5504 2.46062V5.66039C11.5479 5.7825 11.5944 5.90049 11.6799 5.9876C11.7653 6.07487 11.8824 6.12413 12.0045 6.12413C12.1266 6.12413 12.2435 6.07487 12.329 5.9876C12.4144 5.90049 12.4611 5.7825 12.4585 5.66039V2.46062C12.4603 2.33788 12.4123 2.21973 12.3255 2.13293C12.2386 2.04614 12.1204 1.99817 11.9976 2.00007Z" fill="#FBFBFB"/>
<path fill-rule="evenodd" clip-rule="evenodd" d="M11.9976 17.8824C11.7469 17.8862 11.5467 18.0924 11.5504 18.3431V21.5338V21.5337C11.5479 21.6558 11.5944 21.7738 11.6799 21.861C11.7653 21.9483 11.8824 21.9974 12.0045 21.9974C12.1266 21.9974 12.2435 21.9483 12.329 21.861C12.4144 21.7738 12.4611 21.6558 12.4585 21.5337V18.3429V18.3431C12.4603 18.2204 12.4123 18.102 12.3255 18.0152C12.2386 17.9286 12.1204 17.8806 11.9976 17.8824Z" fill="#FBFBFB"/>
<path fill-rule="evenodd" clip-rule="evenodd" d="M7.50533 16.0249C7.38734 16.0289 7.27552 16.0784 7.19348 16.1635L4.92245 18.4513C4.83613 18.5365 4.78751 18.6526 4.78735 18.7739C4.7872 18.8951 4.8355 19.0115 4.9215 19.0969C5.00766 19.1824 5.12423 19.2297 5.24555 19.2286C5.36687 19.2277 5.48265 19.1781 5.56706 19.0912L7.83809 16.8033C7.97193 16.6722 8.01168 16.4725 7.93803 16.3002C7.86438 16.128 7.69254 16.0187 7.50533 16.0249Z" fill="#FBFBFB"/>
<path fill-rule="evenodd" clip-rule="evenodd" d="M18.79 4.72852C18.672 4.73233 18.5602 4.78206 18.4781 4.86695L16.1712 7.19069V7.19085C16.085 7.27606 16.0365 7.39215 16.0364 7.51331C16.0362 7.63447 16.0847 7.75072 16.1707 7.83609C16.2567 7.92146 16.3731 7.96881 16.4944 7.96786C16.6156 7.96675 16.7312 7.9175 16.8158 7.8307L19.1227 5.50696V5.50681C19.2566 5.37582 19.2963 5.17595 19.2227 5.0038C19.1489 4.83164 18.9772 4.72219 18.79 4.72852Z" fill="#FBFBFB"/>
<path fill-rule="evenodd" clip-rule="evenodd" d="M2.46374 11.5431C2.34163 11.5404 2.22363 11.5871 2.13637 11.6726C2.0491 11.758 2 11.875 2 11.9972C2 12.1193 2.0491 12.2362 2.13637 12.3217C2.22363 12.407 2.34163 12.4538 2.46374 12.4511H5.65588C5.77799 12.4538 5.89599 12.407 5.98325 12.3217C6.07052 12.2362 6.11978 12.1193 6.11978 11.9972C6.11978 11.875 6.07052 11.758 5.98325 11.6726C5.89599 11.5871 5.77799 11.5404 5.65588 11.5431H2.46374Z" fill="#FBFBFB"/>
<path fill-rule="evenodd" clip-rule="evenodd" d="M18.3531 11.5431C18.231 11.5404 18.113 11.5871 18.0258 11.6726C17.9385 11.758 17.8894 11.875 17.8894 11.9972C17.8894 12.1193 17.9385 12.2362 18.0258 12.3217C18.113 12.407 18.231 12.4538 18.3531 12.4511H21.5363C21.6584 12.4538 21.7764 12.407 21.8637 12.3217C21.9509 12.2362 22 12.1193 22 11.9972C22 11.875 21.9509 11.758 21.8637 11.6726C21.7764 11.5871 21.6584 11.5404 21.5363 11.5431H18.3531Z" fill="#FBFBFB"/>
<path fill-rule="evenodd" clip-rule="evenodd" d="M12.0043 6.97559C9.22897 6.97559 6.97217 9.23044 6.97217 11.9967C6.97217 14.7711 9.22909 17.0268 12.0043 17.0268C14.7715 17.0268 17.0274 14.7711 17.0274 11.9967C17.0274 9.23044 14.7714 6.97559 12.0043 6.97559Z" fill="#FBFBFB"/>
</svg>
