<svg width="24" height="24" viewBox="0 0 24 24" fill="none" xmlns="http://www.w3.org/2000/svg">
<path d="M11.3077 20.9648C9.78723 20.8515 8.32071 20.3527 7.04647 19.5155C5.77223 18.6783 4.7323 17.5302 4.02479 16.1796C3.31728 14.829 2.96551 13.3205 3.00267 11.7962C3.03983 10.272 3.46469 8.78238 4.23718 7.46788L7.09156 9.44399C6.67751 10.2351 6.46134 11.1148 6.46156 12.0077C6.46177 12.9006 6.67836 13.7802 7.09279 14.5711C7.50722 15.362 8.10714 16.0407 8.84119 16.5491C9.57524 17.0575 10.4216 17.3805 11.3077 17.4903V20.9648ZM7.88342 8.30799C8.40053 7.72727 9.03466 7.26253 9.74414 6.9443C10.4536 6.62607 11.2224 6.46156 12 6.46156C12.7776 6.46156 13.5464 6.62607 14.2559 6.9443C14.9653 7.26253 15.5995 7.72727 16.1166 8.30799L18.9784 6.32668C18.1363 5.28763 17.0727 4.44975 15.8654 3.87421C14.6581 3.29867 13.3375 3 12 3C10.6625 3 9.34191 3.29867 8.1346 3.87421C6.92728 4.44975 5.86372 5.28763 5.02157 6.32668L7.88342 8.30799ZM16.9084 9.44399C17.3225 10.2351 17.5387 11.1148 17.5384 12.0077C17.5382 12.9006 17.3216 13.7802 16.9072 14.5711C16.4928 15.362 15.8929 16.0407 15.1588 16.5491C14.4248 17.0575 13.5784 17.3805 12.6923 17.4903V20.9648C14.2128 20.8515 15.6793 20.3527 16.9535 19.5155C18.2278 18.6783 19.2677 17.5302 19.9752 16.1796C20.6827 14.829 21.0345 13.3205 20.9973 11.7962C20.9602 10.272 20.5353 8.78238 19.7628 7.46788L16.9084 9.44399Z" fill="#BFBFBF"/>
</svg>
