<svg width="24" height="24" viewBox="0 0 24 24" fill="none" xmlns="http://www.w3.org/2000/svg">
<path d="M12 2C10.0222 2 8.08879 2.58649 6.4443 3.6853C4.79981 4.78412 3.51809 6.3459 2.76121 8.17316C2.00433 10.0004 1.8063 12.0111 2.19215 13.9509C2.578 15.8907 3.53041 17.6725 4.92894 19.0711C6.32746 20.4696 8.10929 21.422 10.0491 21.8078C11.9889 22.1937 13.9996 21.9957 15.8268 21.2388C17.6541 20.4819 19.2159 19.2002 20.3147 17.5557C21.4135 15.9112 22 13.9778 22 12C22 10.6868 21.7413 9.38642 21.2388 8.17316C20.7362 6.95991 19.9997 5.85752 19.0711 4.92893C18.1425 4.00035 17.0401 3.26375 15.8268 2.7612C14.6136 2.25866 13.3132 2 12 2ZM12 21.0653C10.2071 21.0653 8.45439 20.5336 6.96361 19.5375C5.47284 18.5414 4.31092 17.1256 3.62479 15.4691C2.93866 13.8127 2.75914 11.9899 3.10893 10.2315C3.45871 8.47296 4.3221 6.85769 5.58989 5.58989C6.85769 4.32209 8.47297 3.45871 10.2315 3.10892C11.9899 2.75914 13.8127 2.93866 15.4691 3.62479C17.1256 4.31092 18.5414 5.47283 19.5375 6.96361C20.5336 8.45438 21.0653 10.2071 21.0653 12C21.0625 14.4034 20.1065 16.7076 18.407 18.407C16.7076 20.1065 14.4034 21.0625 12 21.0653ZM4.61685 11.9074C4.61685 13.8901 5.40447 15.7916 6.80645 17.1935C8.20844 18.5955 10.1099 19.3832 12.0926 19.3832V4.42105C11.11 4.42105 10.137 4.61477 9.22934 4.99112C8.32165 5.36747 7.49706 5.91907 6.80273 6.61438C6.1084 7.30969 5.55796 8.13505 5.18288 9.04327C4.80781 9.95149 4.61546 10.9247 4.61685 11.9074Z" fill="#BFBFBF"/>
</svg>
