<svg width="24" height="24" viewBox="0 0 24 24" fill="none" xmlns="http://www.w3.org/2000/svg">
<path d="M8.74603 10.6747H4.92863C3.86338 10.6747 3 9.81128 3 8.74603V4.92863C3 3.86338 3.86338 3 4.92863 3H8.74603C9.81128 3 10.6747 3.86338 10.6747 4.92863V8.74603C10.6747 9.81063 9.81063 10.6747 8.74603 10.6747Z" fill="white"/>
<path d="M8.74603 21.0001H4.92863C3.86338 21.0001 3 20.1367 3 19.0715V15.2541C3 14.1888 3.86338 13.3254 4.92863 13.3254H8.74603C9.81128 13.3254 10.6747 14.1888 10.6747 15.2541V19.0715C10.6747 20.1367 9.81063 21.0001 8.74603 21.0001Z" fill="white"/>
<path d="M19.0715 10.6747H15.2541C14.1888 10.6747 13.3254 9.81128 13.3254 8.74603V4.92863C13.3254 3.86338 14.1888 3 15.2541 3H19.0715C20.1367 3 21.0001 3.86338 21.0001 4.92863V8.74603C21.0001 9.81063 20.1367 10.6747 19.0715 10.6747Z" fill="white"/>
<path d="M19.0715 21.0001H15.2541C14.1888 21.0001 13.3254 20.1367 13.3254 19.0715V15.2541C13.3254 14.1888 14.1888 13.3254 15.2541 13.3254H19.0715C20.1367 13.3254 21.0001 14.1888 21.0001 15.2541V19.0715C21.0001 20.1367 20.1367 21.0001 19.0715 21.0001Z" fill="white"/>
</svg>
