<svg width="300" height="300" viewBox="0 0 300 300" fill="none" xmlns="http://www.w3.org/2000/svg">
<path fill-rule="evenodd" clip-rule="evenodd" d="M155.331 127.16L100.508 142.196V126.695L155.331 104.721V127.16ZM155.331 195.395L100.508 185.231V146.353L155.331 131.326V195.395ZM199.779 185.231L159.176 195.395V131.326L199.779 146.353V185.231ZM199.779 142.196L159.176 127.16V104.721L199.779 126.695V142.196ZM133.893 75.6501C137.041 74.9693 140.228 74.4886 143.436 74.2108C144.545 70.2148 146.119 64.4309 147.094 60.8015L146.682 54.5438L136.541 60.0237C136.135 60.1334 135.718 60.1964 135.298 60.2115L124.1 58.1643L125.594 63.984L133.893 75.6054V75.6501ZM122.634 79.0292C125.523 77.9059 128.48 76.9654 131.488 76.2133L124.655 68.5163C123.859 67.8011 123.117 68.123 123.027 69.0437L122.634 79.0292ZM111.83 84.2231C114.594 82.6072 117.459 81.1709 120.407 79.9232C120.228 75.7752 119.906 69.8215 119.754 66.0401L117.5 60.2562L109.451 68.5789C109.121 68.8034 108.764 68.9837 108.387 69.1153L97.1362 70.5813L100.338 75.668L111.83 84.2231ZM102.144 90.9099C104.556 88.9664 107.086 87.1751 109.72 85.5462L100.875 80.2986C99.8908 79.8606 99.2826 80.388 99.4883 81.2999L102.171 90.9546L102.144 90.9099ZM93.2637 99.3846C95.4538 96.9164 97.8051 94.5959 100.302 92.4385C98.8623 88.5498 96.7248 82.9626 95.4101 79.3957L91.4393 74.5952L86.422 84.983C86.104 85.3862 85.7442 85.7547 85.3488 86.0825L75.0729 90.9814L79.7056 94.8254L93.2637 99.3846ZM86.109 108.717C87.7896 106.118 89.6295 103.625 91.6181 101.253L81.6373 99.0181C80.5731 98.9018 80.1527 99.5991 80.6267 100.395L86.1359 108.717H86.109ZM80.3763 119.373C81.6788 116.407 83.1725 113.529 84.848 110.756C82.2723 107.502 78.5161 102.88 76.1729 99.9031L70.9053 96.5776L69.367 108.002C69.1905 108.413 68.9685 108.803 68.7052 109.164L60.4416 116.995L66.0312 119.257L80.3406 119.418L80.3763 119.373ZM76.477 130.476C77.2717 127.474 78.2544 124.524 79.4194 121.644L69.2061 122.61C68.1507 122.824 67.9629 123.629 68.6695 124.237L76.5128 130.494L76.477 130.476ZM74.2948 142.572C74.6125 139.283 75.1473 136.019 75.8957 132.801C72.4436 130.512 67.4084 127.249 64.2693 125.13L58.2236 123.593L60.2627 134.937C60.2378 135.465 60.1629 135.988 60.0391 136.502L54.6284 146.505L60.6294 146.889L74.2948 142.572ZM74.0534 154.336C73.9729 152.924 73.9282 151.493 73.9282 150.063C73.9282 148.373 73.9908 146.693 74.0981 145.03L64.6718 149.133C63.7327 149.67 63.7774 150.474 64.6718 150.841L74.0534 154.336ZM75.7258 166.547C75.0134 163.305 74.5115 160.021 74.2233 156.714C70.2256 155.605 64.4392 154.032 60.8082 153.058L54.5479 153.469L60.0302 163.606C60.1762 164.117 60.2691 164.641 60.3074 165.171L58.2951 176.381L64.1173 174.87L75.7437 166.547H75.7258ZM79.1421 177.775C78.0083 174.901 77.0584 171.956 76.2981 168.961L68.6516 175.755C67.9361 176.56 68.2581 177.302 69.1792 177.382L79.1421 177.775ZM84.5082 188.753C82.8369 185.932 81.3434 183.009 80.0365 180.001C75.8957 180.198 69.9484 180.538 66.1743 180.69L60.3968 183.023L68.7589 190.952C68.9925 191.373 69.2044 191.806 69.3939 192.249L70.9321 203.521L76.003 200.294L84.4813 188.753H84.5082ZM91.2604 198.39C89.2908 195.992 87.4661 193.478 85.796 190.863L80.5999 199.713C80.1617 200.697 80.6983 201.313 81.6016 201.099L91.2425 198.417L91.2604 198.39ZM99.846 207.258C97.3553 205.062 95.0073 202.709 92.8166 200.214C88.9351 201.68 83.3545 203.861 79.795 205.184L75.0192 209.189L85.4383 214.142C85.8622 214.491 86.2488 214.884 86.592 215.313L91.5645 225.548L95.3654 220.882L99.8371 207.258H99.846ZM109.263 214.329C106.642 212.66 104.124 210.833 101.724 208.858C100.997 212.214 100.275 215.569 99.5599 218.924C99.4615 219.988 100.15 220.408 100.946 219.925L109.263 214.329ZM119.924 219.97C116.962 218.697 114.085 217.234 111.311 215.59C108.083 218.182 103.459 221.999 100.49 224.368L97.2077 229.661L108.637 231.118C109.05 231.241 109.44 231.432 109.791 231.681L117.679 239.887L119.87 234.282L119.924 219.979V219.97ZM131.032 223.787C128.034 223.015 125.086 222.059 122.204 220.927C122.544 224.324 122.89 227.724 123.242 231.127C123.474 232.173 124.261 232.351 124.87 231.645L131.032 223.787ZM143.436 225.906C140.045 225.613 136.678 225.093 133.357 224.351C131.085 227.819 127.866 232.852 125.782 236.017L124.297 242.069L135.611 239.941C135.914 239.95 136.214 239.998 136.505 240.084L146.647 245.564L147.058 239.306C146.039 235.659 144.509 229.875 143.4 225.897L143.436 225.906ZM155.134 226.031C153.47 226.138 151.789 226.201 150.099 226.201C148.668 226.201 147.246 226.201 145.833 226.076L149.321 235.453C149.687 236.347 150.492 236.392 151.029 235.453L155.134 226.031ZM167.1 224.297C163.967 225.012 160.792 225.525 157.593 225.835L153.274 239.494L153.649 245.493L163.657 240.084C164.064 239.978 164.48 239.909 164.9 239.879L176.231 241.979L174.711 235.927C172.618 232.781 169.39 227.757 167.091 224.306L167.1 224.297ZM178.315 220.819C175.435 221.968 172.487 222.938 169.488 223.725L175.686 231.556C176.294 232.262 177.09 232.083 177.314 231.028L178.315 220.819ZM189.128 215.456C186.381 217.098 183.531 218.561 180.596 219.836L180.694 234.139L182.903 239.736L190.764 231.511C191.093 231.283 191.451 231.099 191.829 230.966L203.258 229.482L199.958 224.19C196.989 221.83 192.365 218.039 189.128 215.447V215.456ZM198.688 208.715C196.297 210.692 193.788 212.522 191.176 214.195L199.484 219.756C200.28 220.238 200.978 219.827 200.87 218.754C200.137 215.411 199.41 212.065 198.688 208.715ZM207.488 200.142C205.331 202.608 203.019 204.934 200.566 207.106L205.038 220.712L208.857 225.361L213.802 215.116C214.126 214.731 214.489 214.381 214.885 214.07L225.295 209.118L220.519 205.113C216.942 203.781 211.352 201.608 207.462 200.142H207.488ZM214.473 190.774C212.803 193.4 210.975 195.923 209 198.328L218.668 201.009C219.562 201.224 220.116 200.616 219.678 199.633C217.934 196.674 216.208 193.715 214.473 190.747V190.774ZM220.152 180.046C218.873 183.022 217.403 185.912 215.752 188.7L224.266 200.25L229.337 203.495L230.857 192.213C231.008 191.791 231.196 191.384 231.421 190.997L239.792 183.068L234.006 180.734C230.231 180.574 224.293 180.234 220.152 180.046ZM223.908 168.997C223.142 171.993 222.192 174.94 221.064 177.82L231.018 177.418C231.913 177.346 232.271 176.595 231.546 175.791C228.994 173.532 226.448 171.268 223.908 168.997ZM225.983 156.741C225.698 160.048 225.196 163.333 224.481 166.574L236.107 174.897L241.929 176.408L239.89 165.206C239.941 164.669 240.037 164.137 240.176 163.615L245.659 153.478L239.398 153.067C235.749 154.086 229.972 155.614 225.983 156.723V156.741ZM226.109 145.048C226.225 146.711 226.278 148.391 226.278 150.081C226.278 151.511 226.278 152.941 226.162 154.345L235.544 150.858C236.438 150.492 236.438 149.687 235.544 149.151C232.396 147.792 229.283 146.416 226.109 145.048ZM224.32 132.854C225.061 136.061 225.593 139.313 225.912 142.589L239.586 146.907L245.578 146.523L240.168 136.519C240.046 136.015 239.971 135.5 239.944 134.982L242.01 123.647L235.964 125.184C232.807 127.294 227.781 130.548 224.338 132.854H224.32ZM220.805 121.671C221.963 124.552 222.943 127.502 223.739 130.503L231.582 124.245C232.288 123.647 232.101 122.851 231.054 122.627L220.805 121.671ZM215.305 110.666C217.003 113.476 218.52 116.39 219.848 119.391L234.158 119.239L239.747 117.022L231.492 109.191C231.214 108.776 230.974 108.336 230.777 107.877L229.292 96.4613L224.025 99.7869C221.682 102.773 217.925 107.421 215.35 110.666H215.305ZM208.49 101.164C210.483 103.542 212.331 106.038 214.026 108.637L219.535 100.287C220.018 99.4918 219.598 98.7946 218.525 98.9108L208.49 101.164ZM199.779 92.3223C202.315 94.4869 204.705 96.8163 206.934 99.2952L220.519 94.7092L225.143 90.8652L214.804 85.9842C214.377 85.6393 213.982 85.2563 213.624 84.8399L208.571 74.479L204.609 79.2885C203.321 82.8643 201.192 88.4336 199.761 92.3223H199.779ZM190.371 85.4031C192.996 87.0361 195.52 88.8273 197.928 90.7668L200.611 81.1211C200.808 80.2271 200.2 79.6818 199.216 80.1288L190.416 85.3763L190.371 85.4031ZM179.576 79.8248C182.556 81.0771 185.453 82.5163 188.251 84.1337L199.699 75.5607L202.892 70.4651L191.605 69.0259C191.198 68.8821 190.813 68.6836 190.46 68.4359L182.465 60.131L180.175 65.9328C180.041 69.7142 179.746 75.6769 179.576 79.8248ZM168.477 76.1507C171.484 76.8921 174.441 77.8206 177.331 78.9309L176.866 68.9543C176.786 68.0604 176.035 67.7118 175.239 68.4359L168.477 76.1507ZM157.602 74.2823C160.444 74.5612 163.269 74.9969 166.063 75.5875L174.326 63.9035L175.793 58.0749L164.605 60.1757C164.302 60.1655 164.002 60.1175 163.711 60.0327L153.658 54.6243L153.274 60.6227L157.584 74.2823H157.602ZM150.108 73.9158C151.798 73.9158 153.479 73.9784 155.143 74.0857L151.038 64.6634C150.501 63.7247 149.696 63.7694 149.33 64.6634L145.842 74.041C147.255 73.9605 148.677 73.9158 150.108 73.9158ZM249.969 117.362C249.733 116.647 249.245 116.041 248.596 115.658C247.948 115.275 247.182 115.141 246.441 115.279C245.7 115.418 245.035 115.821 244.569 116.412C244.103 117.004 243.867 117.745 243.906 118.497C243.629 117.644 243.294 116.811 242.904 116.003L233.201 107.636C233.169 107.606 233.133 107.582 233.093 107.564C233.098 107.538 233.098 107.51 233.093 107.484L231.922 94.7092C231.468 93.8779 230.96 93.0776 230.401 92.3134C230.975 92.8002 231.707 93.0612 232.46 93.0473C233.213 93.0334 233.935 92.7457 234.491 92.2381C235.046 91.7304 235.398 91.0376 235.479 90.2894C235.561 89.5413 235.367 88.7891 234.933 88.1738C234.5 87.5585 233.857 87.1223 233.125 86.9469C232.392 86.7715 231.621 86.8689 230.956 87.2209C230.29 87.5728 229.776 88.1553 229.509 88.859C229.243 89.5628 229.242 90.3396 229.507 91.044C228.975 90.318 228.395 89.6282 227.772 88.9789L215.877 83.937C215.812 83.9096 215.742 83.8944 215.672 83.8923C215.679 83.833 215.679 83.7729 215.672 83.7135L210.511 71.9402C209.823 71.2943 209.091 70.6969 208.32 70.1522C209.032 70.418 209.816 70.4153 210.526 70.1445C211.235 69.8737 211.822 69.3534 212.175 68.6812C212.529 68.0091 212.625 67.2311 212.446 66.4932C212.266 65.7553 211.824 65.1081 211.201 64.6729C210.579 64.2378 209.819 64.0445 209.064 64.1293C208.309 64.2142 207.611 64.5713 207.101 65.1338C206.59 65.6963 206.303 66.4256 206.292 67.1849C206.281 67.9442 206.547 68.6814 207.041 69.2583C206.31 68.7392 205.549 68.2646 204.761 67.8369L191.99 66.782L183.502 57.1541C182.648 56.7566 181.77 56.4132 180.873 56.1261C181.626 56.1643 182.367 55.9274 182.958 55.4595C183.548 54.9916 183.949 54.3247 184.084 53.5835C184.219 52.8422 184.079 52.0772 183.691 51.4312C183.303 50.7853 182.693 50.3025 181.975 50.0732C181.257 49.8439 180.48 49.8836 179.789 50.185C179.098 50.4864 178.541 51.0288 178.221 51.7109C177.901 52.3931 177.84 53.1684 178.05 53.892C178.26 54.6156 178.726 55.2382 179.362 55.6434C178.506 55.3714 177.633 55.1535 176.75 54.9908L164.453 57.8782L153.649 51.3166C152.759 51.2026 151.863 51.1429 150.966 51.1378C151.7 50.9455 152.339 50.4926 152.763 49.8638C153.187 49.2349 153.367 48.4732 153.27 47.7211C153.173 46.9689 152.806 46.2778 152.236 45.777C151.666 45.2762 150.934 45 150.175 45C149.416 45 148.683 45.2762 148.114 45.777C147.544 46.2778 147.176 46.9689 147.079 47.7211C146.982 48.4732 147.163 49.2349 147.587 49.8638C148.011 50.4926 148.649 50.9455 149.383 51.1378C148.438 51.1365 147.494 51.1992 146.557 51.3256L135.575 57.8961L123.054 55.0176C122.17 55.1746 121.297 55.3927 120.443 55.6702C121.076 55.261 121.538 54.6353 121.744 53.9101C121.949 53.1849 121.883 52.4097 121.559 51.7295C121.234 51.0492 120.673 50.5104 119.979 50.2137C119.286 49.9169 118.509 49.8826 117.792 50.1171C117.076 50.3516 116.469 50.8389 116.085 51.4879C115.702 52.1369 115.568 52.9033 115.709 53.6437C115.849 54.3842 116.255 55.0482 116.85 55.5116C117.444 55.975 118.187 56.2062 118.94 56.1619C118.044 56.4548 117.166 56.801 116.311 57.1988L107.949 66.8357L95.2044 67.9174C94.4158 68.3472 93.6542 68.8249 92.9239 69.3477C93.4119 68.7751 93.6745 68.0443 93.6624 67.2922C93.6503 66.54 93.3644 65.8181 92.8583 65.2614C92.3521 64.7047 91.6603 64.3515 90.9124 64.2679C90.1645 64.1842 89.4118 64.3759 88.7951 64.807C88.1783 65.2381 87.7399 65.8791 87.5619 66.61C87.3838 67.3408 87.4783 68.1115 87.8277 68.7778C88.1771 69.444 88.7574 69.9602 89.46 70.2296C90.1626 70.4991 90.9394 70.5034 91.645 70.2416C90.8767 70.7896 90.1448 71.3868 89.4538 72.0296L84.4098 83.8655C84.4057 83.9131 84.4057 83.961 84.4098 84.0086H84.3025L72.4793 89.0147C71.8618 89.6667 71.2853 90.3564 70.7533 91.0797C71.0164 90.3725 71.0127 89.5935 70.7427 88.8888C70.4726 88.1841 69.9549 87.602 69.2864 87.2514C68.6179 86.9008 67.8444 86.8058 67.1109 86.9842C66.3774 87.1626 65.734 87.6022 65.3014 88.2206C64.8688 88.839 64.6765 89.5939 64.7606 90.3438C64.8446 91.0937 65.1993 91.7873 65.7582 92.2946C66.317 92.802 67.0417 93.0883 67.7966 93.1C68.5514 93.1117 69.2846 92.8479 69.8589 92.3581C69.3061 93.1235 68.7984 93.9204 68.3386 94.745L67.0865 107.52H67.0149L57.3203 115.976C56.9346 116.786 56.6001 117.619 56.3187 118.471C56.3791 117.715 56.1623 116.963 55.7088 116.356C55.2553 115.748 54.596 115.327 53.8542 115.17C53.1124 115.013 52.3388 115.131 51.6778 115.502C51.0168 115.874 50.5137 116.473 50.2624 117.188C50.0112 117.903 50.029 118.685 50.3125 119.388C50.596 120.091 51.1258 120.667 51.803 121.008C52.4801 121.349 53.2584 121.432 53.9923 121.242C54.7262 121.051 55.3656 120.6 55.791 119.972C55.4961 120.871 55.2601 121.788 55.0845 122.717L57.9285 135.232C57.9399 135.289 57.961 135.343 57.9911 135.393L57.9016 135.5L51.3193 146.514C51.2052 147.403 51.1455 148.299 51.1405 149.196C50.9481 148.462 50.4949 147.824 49.8658 147.4C49.2367 146.976 48.4747 146.796 47.7222 146.893C46.9697 146.99 46.2784 147.357 45.7774 147.927C45.2763 148.496 45 149.229 45 149.987C45 150.745 45.2763 151.478 45.7774 152.047C46.2784 152.617 46.9697 152.984 47.7222 153.081C48.4747 153.178 49.2367 152.998 49.8658 152.574C50.4949 152.15 50.9481 151.512 51.1405 150.778C51.1457 151.722 51.2054 152.666 51.3193 153.603L57.9195 164.616C57.9483 164.669 57.9879 164.715 58.0358 164.751C58.0066 164.793 57.991 164.842 57.9911 164.894L55.1381 177.409C55.3107 178.288 55.5347 179.157 55.8089 180.01C55.3979 179.373 54.7686 178.907 54.0387 178.699C53.3089 178.492 52.5284 178.557 51.8433 178.883C51.1582 179.21 50.6155 179.774 50.3165 180.471C50.0175 181.168 49.9828 181.95 50.2189 182.671C50.455 183.392 50.9457 184.002 51.5992 184.387C52.2527 184.773 53.0243 184.907 53.7697 184.765C54.515 184.623 55.1831 184.214 55.649 183.616C56.1148 183.017 56.3465 182.269 56.3008 181.512C56.5971 182.408 56.9465 183.286 57.3471 184.14L67.0865 192.562C67.0774 192.597 67.0774 192.634 67.0865 192.669L68.3117 205.47C68.7369 206.262 69.2119 207.027 69.7337 207.759C69.1458 207.287 68.4061 207.045 67.6527 207.078C66.8994 207.111 66.1839 207.418 65.6401 207.94C65.0963 208.462 64.7613 209.165 64.6978 209.916C64.6343 210.667 64.8465 211.415 65.2948 212.021C65.7432 212.627 66.397 213.05 67.134 213.209C67.8711 213.368 68.641 213.254 69.2998 212.887C69.9587 212.521 70.4614 211.927 70.7141 211.216C70.9667 210.506 70.9521 209.728 70.6728 209.028C71.2215 209.79 71.8189 210.516 72.4614 211.2L84.2846 216.207C84.3469 216.215 84.4101 216.215 84.4724 216.207C84.4599 216.278 84.4599 216.35 84.4724 216.421L89.5791 228.195C90.2305 228.811 90.9238 229.381 91.6539 229.902C90.9414 229.64 90.1576 229.646 89.4493 229.919C88.741 230.193 88.1568 230.715 87.8061 231.389C87.4554 232.062 87.3623 232.84 87.5442 233.577C87.7261 234.314 88.1705 234.959 88.7942 235.392C89.4179 235.825 90.1782 236.016 90.9325 235.929C91.6869 235.842 92.3836 235.483 92.8922 234.919C93.4008 234.355 93.6865 233.626 93.6956 232.867C93.7047 232.108 93.4367 231.372 92.9418 230.796C93.7103 231.341 94.5107 231.839 95.3386 232.289L108.137 233.353L116.597 242.954C117.409 243.34 118.245 243.672 119.101 243.946C118.348 243.911 117.608 244.152 117.02 244.623C116.431 245.094 116.034 245.763 115.903 246.505C115.772 247.247 115.915 248.012 116.307 248.656C116.698 249.3 117.311 249.779 118.03 250.005C118.75 250.23 119.527 250.186 120.216 249.881C120.905 249.576 121.46 249.03 121.776 248.346C122.092 247.662 122.149 246.886 121.935 246.164C121.72 245.441 121.251 244.821 120.613 244.42C121.511 244.712 122.428 244.942 123.358 245.108L135.655 242.23L146.486 248.711C147.422 248.837 148.367 248.9 149.312 248.899C148.583 249.091 147.949 249.542 147.528 250.167C147.107 250.792 146.929 251.55 147.026 252.297C147.123 253.044 147.488 253.731 148.055 254.228C148.621 254.726 149.349 255 150.103 255C150.857 255 151.585 254.726 152.152 254.228C152.718 253.731 153.084 253.044 153.181 252.297C153.278 251.55 153.099 250.792 152.679 250.167C152.258 249.542 151.624 249.091 150.895 248.899C151.792 248.894 152.688 248.834 153.578 248.72L164.569 242.14L177.036 245.019C177.965 244.843 178.882 244.61 179.782 244.321C179.146 244.727 178.68 245.349 178.47 246.073C178.26 246.796 178.321 247.572 178.641 248.254C178.961 248.936 179.519 249.479 180.209 249.78C180.9 250.081 181.677 250.121 182.395 249.892C183.113 249.662 183.723 249.18 184.111 248.534C184.499 247.888 184.639 247.123 184.504 246.381C184.369 245.64 183.969 244.973 183.378 244.505C182.787 244.037 182.046 243.801 181.293 243.839C182.144 243.559 182.978 243.228 183.789 242.846L192.195 233.219L204.922 232.137C205.755 231.689 206.556 231.185 207.319 230.626C206.828 231.199 206.562 231.931 206.572 232.685C206.582 233.439 206.866 234.164 207.372 234.724C207.878 235.284 208.571 235.64 209.32 235.726C210.07 235.812 210.825 235.623 211.445 235.192C212.065 234.762 212.507 234.121 212.688 233.389C212.869 232.656 212.777 231.883 212.429 231.214C212.081 230.545 211.501 230.025 210.797 229.752C210.094 229.48 209.315 229.472 208.606 229.732C209.332 229.21 210.023 228.639 210.672 228.025L215.752 216.233C215.756 216.207 215.756 216.18 215.752 216.153C215.793 216.162 215.836 216.162 215.877 216.153L227.7 211.147C228.345 210.464 228.943 209.738 229.489 208.975C229.202 209.681 229.182 210.469 229.433 211.189C229.685 211.91 230.19 212.514 230.855 212.889C231.52 213.264 232.298 213.384 233.045 213.226C233.792 213.069 234.456 212.644 234.913 212.033C235.369 211.422 235.587 210.665 235.526 209.904C235.465 209.144 235.128 208.431 234.58 207.901C234.031 207.37 233.308 207.058 232.545 207.022C231.783 206.986 231.033 207.229 230.437 207.705C230.964 206.977 231.442 206.216 231.868 205.426L233.031 192.651C233.035 192.621 233.035 192.591 233.031 192.562L242.681 184.185C243.09 183.333 243.442 182.455 243.736 181.557C243.687 182.311 243.915 183.058 244.377 183.656C244.838 184.255 245.502 184.665 246.244 184.811C246.987 184.956 247.756 184.826 248.41 184.445C249.063 184.064 249.555 183.458 249.794 182.741C250.033 182.024 250.003 181.244 249.709 180.548C249.415 179.851 248.877 179.286 248.197 178.957C247.516 178.628 246.738 178.558 246.01 178.76C245.281 178.962 244.651 179.422 244.237 180.055C244.51 179.202 244.731 178.333 244.899 177.454L242.064 164.938C242.051 164.88 242.026 164.826 241.992 164.777C242.05 164.742 242.099 164.693 242.135 164.634L248.726 153.621C248.853 152.685 248.915 151.741 248.914 150.796C249.106 151.522 249.556 152.154 250.18 152.573C250.804 152.991 251.559 153.169 252.305 153.072C253.05 152.975 253.735 152.61 254.23 152.046C254.726 151.482 255 150.756 255 150.005C255 149.254 254.726 148.528 254.23 147.964C253.735 147.399 253.05 147.034 252.305 146.938C251.559 146.841 250.804 147.018 250.18 147.437C249.556 147.856 249.106 148.487 248.914 149.214C248.914 148.317 248.854 147.421 248.735 146.532L242.144 135.518C242.123 135.483 242.099 135.45 242.072 135.42C242.101 135.377 242.119 135.328 242.126 135.277L244.97 122.761C244.789 121.834 244.553 120.917 244.264 120.017C244.659 120.686 245.292 121.182 246.036 121.407C246.779 121.632 247.581 121.57 248.281 121.232C248.981 120.895 249.529 120.308 249.817 119.586C250.105 118.865 250.112 118.061 249.835 117.335L249.969 117.362Z" fill="white"/>
</svg>
