<svg width="24" height="24" viewBox="0 0 24 24" fill="none" xmlns="http://www.w3.org/2000/svg">
<path d="M17.2555 2.804L13.3071 9.10173H18.4888C18.6337 9.10397 18.778 9.16365 18.8814 9.28078C19.0732 9.49764 19.053 9.82914 18.8362 10.0209L5.4213 21.8685C5.26313 22.008 5.02912 22.0438 4.83117 21.9404C4.57477 21.8064 4.4753 21.4895 4.60934 21.2331L8.79547 13.2404H4.52503C4.43153 13.2391 4.33703 13.2142 4.25148 13.162C4.00404 13.0111 3.92595 12.6878 4.0769 12.4403L10.255 2.28773C10.3421 2.11688 10.5196 2 10.7243 2H16.8114V2.00274C16.9064 2.00274 17.0024 2.02835 17.0889 2.08232C17.3341 2.23551 17.4087 2.5588 17.2555 2.804Z" fill="#BFBFBF"/>
</svg>
