<svg width="24" height="24" viewBox="0 0 24 24" fill="none" xmlns="http://www.w3.org/2000/svg">
<path d="M20.3077 3H3.69231C3.27692 3 3 3.27692 3 3.69231V14.7692C3 15.1846 3.27692 15.4615 3.69231 15.4615H20.3077C20.7231 15.4615 21 15.1846 21 14.7692V3.69231C21 3.27692 20.7231 3 20.3077 3ZM13.8 9.78462L11.0308 11.8615C10.8923 11.9308 10.7538 12 10.6154 12C10.4769 12 10.4077 12 10.3385 11.9308C10.0615 11.7923 9.92308 11.5846 9.92308 11.3077V7.15385C9.92308 6.87692 10.0615 6.66923 10.3385 6.53077C10.5462 6.39231 10.8231 6.46154 11.0308 6.6L13.8 8.67692C14.0077 8.81538 14.0769 9.02308 14.0769 9.23077C14.0769 9.43846 14.0077 9.64615 13.8 9.78462Z" fill="#898989"/>
<path d="M7.84609 21C6.66917 21 5.76917 20.1 5.76917 18.9231C5.76917 17.7462 6.66917 16.8462 7.84609 16.8462C9.02301 16.8462 9.92301 17.7462 9.92301 18.9231C9.92301 20.1 9.02301 21 7.84609 21Z" fill="#898989"/>
<path d="M6.46154 19.6155H3.69231C3.27692 19.6155 3 19.3385 3 18.9231C3 18.5078 3.27692 18.2308 3.69231 18.2308H6.46154C6.87692 18.2308 7.15385 18.5078 7.15385 18.9231C7.15385 19.3385 6.87692 19.6155 6.46154 19.6155Z" fill="#898989"/>
<path d="M20.3077 19.6155H11.3077C10.8923 19.6155 10.6154 19.3385 10.6154 18.9231C10.6154 18.5078 10.8923 18.2308 11.3077 18.2308H20.3077C20.723 18.2308 21 18.5078 21 18.9231C21 19.3385 20.723 19.6155 20.3077 19.6155Z" fill="#898989"/>
</svg>
