<svg width="24" height="24" viewBox="0 0 24 24" fill="none" xmlns="http://www.w3.org/2000/svg">
<path d="M6.99889 6.96411C6.99889 6.96411 6.73574 6.97006 6.48182 7.09703C6.22804 7.22384 6 7.40989 6 7.96568V20.301C6 20.8568 6.22803 21.0434 6.48182 21.1704C6.73575 21.2973 6.99889 21.3006 6.99889 21.3006H17.0011C17.0011 21.3006 17.2643 21.2973 17.5182 21.1704C17.772 21.0434 18 20.8568 18 20.301V7.96568C18 7.4099 17.772 7.22384 17.5182 7.09703C17.2643 6.97007 17.0011 6.96411 17.0011 6.96411H16.1246C15.5615 8.70454 13.9254 9.96672 11.9998 9.96672C10.0743 9.96672 8.43833 8.70454 7.87512 6.96411H6.99889ZM13.7673 10.6902C13.8557 10.6896 13.9407 10.7243 14.0036 10.7865C14.0663 10.849 14.1015 10.934 14.1015 11.0226C14.1015 11.1112 14.0663 11.1961 14.0036 11.2587L13.1863 12.0759L13.6239 14.2593C13.641 14.3461 13.6229 14.4362 13.5735 14.5095C13.5242 14.5829 13.4477 14.6337 13.3609 14.6506C13.1808 14.6862 13.0058 14.5695 12.9695 14.3896L12.6198 12.6424L10.8727 14.3896L11.2368 15.1183C11.2764 15.1975 11.2829 15.2893 11.2548 15.3734C11.2268 15.4575 11.1664 15.5269 11.0869 15.5663C10.9224 15.6471 10.7234 15.58 10.6415 15.4158L10.2182 14.5719L9.37622 14.1505C9.29674 14.1112 9.23616 14.0419 9.20788 13.9578C9.17975 13.8738 9.18615 13.7818 9.22589 13.7025C9.26518 13.6236 9.33425 13.5633 9.4179 13.5352C9.50244 13.5075 9.59457 13.5148 9.67391 13.5555L10.4033 13.9188L12.1484 12.1723L10.4025 11.8226C10.3152 11.8057 10.2382 11.7545 10.1889 11.6805C10.1395 11.6065 10.1217 11.5159 10.1395 11.4286C10.1571 11.3419 10.2084 11.2658 10.2821 11.2168C10.3559 11.168 10.4461 11.1504 10.5328 11.1682L12.7169 11.6038L13.5334 10.7866C13.5956 10.7251 13.6796 10.6904 13.7673 10.6902ZM8.3329 16.2995H15.6667C15.7557 16.2989 15.8412 16.334 15.9041 16.397C15.9671 16.4598 16.0024 16.5452 16.0021 16.6342C16.0016 16.7228 15.9662 16.8075 15.9032 16.8698C15.8403 16.9321 15.7551 16.9667 15.6667 16.9663H8.3329C8.24449 16.9667 8.15935 16.9321 8.09639 16.8698C8.03343 16.8075 7.99801 16.7228 7.99756 16.6342C7.99726 16.5452 8.03253 16.4598 8.09549 16.397C8.15845 16.334 8.24404 16.2989 8.3329 16.2995ZM8.3329 17.9679H15.6667C15.7553 17.9673 15.8406 18.0021 15.9034 18.0646C15.9663 18.127 16.0019 18.212 16.0021 18.3005C16.0024 18.3895 15.9671 18.475 15.9041 18.5379C15.8412 18.6007 15.7557 18.6359 15.6667 18.6353H8.3329C8.24404 18.6359 8.15845 18.6007 8.09549 18.5379C8.03253 18.475 7.99726 18.3895 7.99755 18.3005C7.9977 18.212 8.03327 18.127 8.09623 18.0646C8.15904 18.0021 8.24434 17.9673 8.3329 17.9679ZM8.3329 19.6341H15.6667C15.7557 19.6337 15.8412 19.6688 15.9041 19.7316C15.9671 19.7944 16.0024 19.8799 16.0021 19.9689C16.0016 20.0574 15.9662 20.1421 15.9032 20.2045C15.8403 20.2669 15.7551 20.3015 15.6667 20.3009H8.3329C8.24449 20.3015 8.15935 20.2669 8.09639 20.2045C8.03343 20.1421 7.99801 20.0574 7.99756 19.9689C7.99726 19.8799 8.03253 19.7944 8.09549 19.7316C8.15845 19.6688 8.24404 19.6337 8.3329 19.6341Z" fill="#898989"/>
<path d="M14.0675 7.64566C14.3033 7.75551 14.5395 7.88336 14.7773 8.02982C14.3851 8.48409 13.8834 8.84055 13.3121 9.05862C13.6292 8.59021 13.881 8.11914 14.0675 7.64551V7.64566Z" fill="#898989"/>
<path d="M9.92981 7.64191C10.1159 8.11626 10.368 8.58825 10.6852 9.05754C10.1141 8.83903 9.61264 8.48209 9.2207 8.0274C9.45855 7.8799 9.69475 7.75174 9.92978 7.64191H9.92981Z" fill="#898989"/>
<path d="M12.3319 7.16968C12.7043 7.19885 13.0769 7.2758 13.4506 7.39949C13.2101 8.01303 12.8398 8.63355 12.3319 9.26448V7.16968Z" fill="#898989"/>
<path d="M11.6651 7.16864V9.26152C11.1574 8.63045 10.787 8.00963 10.5464 7.39593C10.9212 7.27224 11.2936 7.19647 11.6651 7.16864Z" fill="#898989"/>
<path d="M14.4504 5.96533H15.6519C15.6025 6.51814 15.4313 7.0349 15.1649 7.48918C14.8703 7.30699 14.5737 7.15011 14.2754 7.01898C14.3701 6.66845 14.4284 6.31733 14.4506 5.96533H14.4504Z" fill="#898989"/>
<path d="M12.3319 5.96533H13.7827C13.7633 6.23667 13.7199 6.50919 13.6505 6.78262C13.2131 6.6436 12.7729 6.5595 12.3319 6.53063L12.3319 5.96533Z" fill="#898989"/>
<path d="M10.2152 5.96534H11.6654V6.52855C11.2254 6.55549 10.7854 6.63825 10.3468 6.77667C10.2781 6.50519 10.2346 6.23474 10.2152 5.96534Z" fill="#898989"/>
<path d="M8.34816 5.96533H9.54961C9.57164 6.31511 9.62879 6.664 9.72212 7.01242C9.42414 7.1434 9.12736 7.30073 8.8319 7.48457C8.56711 7.03163 8.39729 6.5162 8.34802 5.96533H8.34816Z" fill="#898989"/>
<path d="M10.3524 4.48891C10.7891 4.62644 11.2273 4.70875 11.6652 4.73569V5.29772H10.2169C10.2378 5.02876 10.2829 4.75937 10.3524 4.48891Z" fill="#898989"/>
<path d="M13.6442 4.48425C13.7142 4.75619 13.7594 5.02708 13.7803 5.29754H12.332V4.73433C12.7708 4.7056 13.2089 4.62208 13.6442 4.48425Z" fill="#898989"/>
<path d="M8.83287 3.77911C9.12966 3.96383 9.42824 4.12234 9.72754 4.25377C9.63363 4.60013 9.57468 4.94814 9.55102 5.29762H8.34839C8.39795 4.74721 8.56807 4.23205 8.83287 3.77911Z" fill="#898989"/>
<path d="M15.165 3.77515C15.4311 4.22896 15.6023 4.74546 15.652 5.2975H14.4492C14.4255 4.94594 14.3657 4.59571 14.2709 4.24714C14.5706 4.11556 14.8687 3.95823 15.165 3.77515Z" fill="#898989"/>
<path d="M13.3058 2.20127C13.8797 2.41948 14.3837 2.77774 14.7774 3.23407C14.5381 3.38158 14.2998 3.51047 14.0625 3.6209C13.8744 3.14399 13.6212 2.67025 13.3058 2.20123V2.20127Z" fill="#898989"/>
<path d="M10.6941 2.20123C10.3773 2.67246 10.1232 3.1483 9.93489 3.6273C9.69749 3.51686 9.45875 3.38752 9.21851 3.23868C9.61296 2.7801 10.1182 2.42021 10.6941 2.20123Z" fill="#898989"/>
<path d="M11.665 2.00317V4.09606C11.2956 4.06867 10.9254 3.99425 10.5529 3.87205C10.7955 3.25466 11.1655 2.63219 11.665 2.00317Z" fill="#898989"/>
<path d="M12.3319 2C12.8314 2.62825 13.201 3.25014 13.4435 3.86693C13.072 3.98942 12.7021 4.06578 12.3319 4.09481V2Z" fill="#898989"/>
</svg>
