<svg width="24" height="24" viewBox="0 0 24 24" fill="none" xmlns="http://www.w3.org/2000/svg">
<path d="M20.75 12.6638H3.25C2.56253 12.6638 2 13.2263 2 13.9138V17.8676C2 18.5551 2.56253 19.1176 3.25 19.1176H20.75C21.4375 19.1176 22 18.5551 22 17.8676V13.9138C22 13.2263 21.4375 12.6638 20.75 12.6638ZM4.60751 16.4932C4.26784 16.4932 3.99249 16.2234 3.99249 15.8907C3.99249 15.5579 4.26784 15.2882 4.60751 15.2882C4.94718 15.2882 5.22253 15.5579 5.22253 15.8907C5.22253 16.2234 4.94714 16.4932 4.60751 16.4932ZM6.34249 16.4932C6.00282 16.4932 5.72747 16.2234 5.72747 15.8907C5.72747 15.5579 6.00282 15.2882 6.34249 15.2882C6.68216 15.2882 6.95751 15.5579 6.95751 15.8907C6.95751 16.2234 6.68216 16.4932 6.34249 16.4932ZM8.07751 16.4932C7.73784 16.4932 7.46249 16.2234 7.46249 15.8907C7.46249 15.5579 7.73784 15.2882 8.07751 15.2882C8.41718 15.2882 8.69253 15.5579 8.69253 15.8907C8.69253 16.2234 8.41714 16.4932 8.07751 16.4932ZM17.1727 16.7998H16.732L16.5801 16.0252C16.5453 15.844 16.516 15.6755 16.4946 15.4698H16.4891C16.4568 15.6731 16.4275 15.844 16.3847 16.0252L16.2139 16.7998H15.7683L15.3411 14.9999H15.7763L15.9124 15.7421C15.9527 15.9557 15.9899 16.1882 16.0192 16.3701H16.0247C16.054 16.1748 16.0968 15.9587 16.1419 15.7372L16.2945 14.9999H16.7266L16.8707 15.7585C16.9109 15.9691 16.9402 16.1613 16.9671 16.3621H16.9726C16.9989 16.1613 17.0391 15.9508 17.0764 15.7371L17.2235 14.9998H17.6373L17.1727 16.7998ZM18.1658 16.7998H17.7599V15.4942H18.1658V16.7998ZM17.9601 15.3337C17.8319 15.3337 17.7464 15.2428 17.7489 15.131C17.7464 15.0132 17.8319 14.9254 17.9625 14.9254C18.0938 14.9254 18.1762 15.0132 18.1792 15.131C18.1792 15.2428 18.0938 15.3337 17.9601 15.3337ZM19.6038 15.3337H18.9122V15.7451H19.5586V16.0759H18.9122V16.7998H18.5039V14.9999H19.6038V15.3337ZM20.2483 16.7998H19.8424V15.4942H20.2483V16.7998ZM20.0426 15.3337C19.9144 15.3337 19.829 15.2428 19.8314 15.131C19.829 15.0132 19.9144 14.9254 20.0451 14.9254C20.1763 14.9254 20.2587 15.0132 20.2618 15.131C20.2617 15.2428 20.1763 15.3337 20.0426 15.3337Z" fill="#898989"/>
<path d="M17.9888 7.85957C17.2674 7.85957 16.6808 7.27271 16.6808 6.55157C16.6808 5.83043 17.2674 5.2439 17.9888 5.2439C18.7103 5.2439 19.2968 5.83043 19.2968 6.55157C19.2968 7.27271 18.7103 7.85957 17.9888 7.85957ZM17.9888 5.86892C17.6123 5.86892 17.3059 6.17532 17.3059 6.55161C17.3059 6.92818 17.6123 7.23459 17.9888 7.23459C18.3654 7.23459 18.6718 6.92818 18.6718 6.55161C18.6718 6.17528 18.3654 5.86892 17.9888 5.86892Z" fill="#898989"/>
<path d="M17.9888 9.10347C16.5819 9.10347 15.4375 7.95873 15.4375 6.55159C15.4375 5.14473 16.5819 4 17.9888 4C19.3956 4 20.5406 5.14473 20.5406 6.55159C20.5406 7.95877 19.3956 9.10347 17.9888 9.10347ZM17.9888 4.62502C16.9268 4.62502 16.0625 5.48926 16.0625 6.55159C16.0625 7.6142 16.9267 8.47849 17.9888 8.47849C19.0514 8.47849 19.9156 7.61424 19.9156 6.55159C19.9156 5.48931 19.0514 4.62502 17.9888 4.62502Z" fill="#898989"/>
<path d="M18.3013 7.81232H17.6763V12.6637H18.3013V7.81232Z" fill="#898989"/>
<path d="M7.44337 19.7426H4.5788V20.7504H7.44337V19.7426Z" fill="#898989"/>
<path d="M19.4212 19.7426H16.5566V20.7504H19.4212V19.7426Z" fill="#898989"/>
</svg>
