<svg width="24" height="24" viewBox="0 0 24 24" fill="none" xmlns="http://www.w3.org/2000/svg">
<path d="M14.8413 21.6064C14.8167 21.6064 14.8167 21.6064 14.7921 21.631C14.8167 21.631 14.8413 21.6064 14.8413 21.6064Z" fill="#898989"/>
<path d="M20.278 14.2263L19.417 13.8819L18.2854 13.0701L18.0394 12.3813L17.0308 12.4551L18.2116 14.2263L16.6618 15.1611L16.1698 15.0135L16.1944 14.3247L15.2841 12.9963H14.8905L14.8167 13.8573L15.4071 14.4969L15.4317 15.3825L16.8094 15.7515L17.0062 16.5633L15.9484 17.7196L15.9238 19.7122L14.8413 20.5732L14.8905 21.5818C15.3825 21.4342 15.8746 21.2374 16.342 21.016V20.3764L16.8832 19.5892H17.1538L17.4982 19.8106L17.3752 20.4256C18.9742 19.417 20.278 17.941 21.1144 16.1943L20.155 15.3087L20.278 14.2263Z" fill="#898989"/>
<path d="M12.0123 2C6.47725 2 2 6.50185 2 12.0123C2 17.449 6.35424 21.877 11.7663 22L11.2005 21.1636L11.4711 18.7528L10.6101 18.3838L10.5363 17.2522L9.84748 16.8093H7.85486L6.52645 15.7023V14.4969L6.87085 14.3001L7.06765 12.9963L9.28167 11.2251L10.8069 11.2989L11.1513 12.0123L12.2091 12.4797L14.0049 12.0369L14.1525 11.2989L13.4391 10.5609L12.6027 10.8807L11.8647 9.92128L11.5203 10.0443L11.8401 10.9791L11.1513 11.3235L11.3481 10.7331L10.8069 10.0443L10.2903 10.3887L9.42928 10.3395L9.28167 10.9299H8.42066L8.17466 9.77368H9.10947L8.83887 9.20787L9.18327 8.59287L10.1427 8.32226V7.46126L10.8561 7.58426L11.0283 8.32226L12.5535 7.75646L12.3813 6.35424L11.7663 6.57565L11.5941 7.16605H10.7823L10.3887 6.42804L10.8807 5.09963L12.2583 4.48462L14.2017 5.09963H14.7429H16.2927L16.4895 5.46863L17.6458 5.09963V4.58303L18.2362 4.18942C16.5387 2.83641 14.3739 2 12.0123 2ZM9.35547 7.95326L8.76507 8.15006L8.19926 8.05166V7.51046L8.76507 7.43665L8.88807 6.87085H9.35547V7.95326Z" fill="#2A2A2A"/>
</svg>
