<svg width="24" height="24" viewBox="0 0 24 24" fill="none" xmlns="http://www.w3.org/2000/svg">
<path d="M2.23999 7.78V7.72L2.55999 7.56V7.52L2.47999 7.5V7.42L2.55999 7.22H2.69999L2.97999 7.14L3.03999 6.92L3.35999 6.76H3.59999L3.97999 6.64H4.05999L4.35999 6.82L4.79999 6.92L5.25999 6.9L5.53999 7.12L5.63999 7.14L5.75999 7.08H5.85999L6.23999 7.24L6.47999 7.16V7.12L6.43999 7.02L6.53999 6.94H6.59999L6.61999 6.96L6.63999 7.1L6.85999 7.16V7.1H6.91999L6.97999 7.16V7.22L6.85999 7.34L6.53999 7.36L6.31999 7.5L6.01999 7.58L5.91999 7.72L5.81999 7.9L5.79999 8.04L5.93999 8.12L6.05999 8.24L6.15999 8.26V8.34L6.09999 8.46V8.56L6.21999 8.54L6.37999 8.28L6.53999 8.18L6.55999 8.04L6.79999 7.7L7.01999 7.68L7.11999 7.86V7.92L7.09999 7.98L7.23999 8L7.33999 7.86H7.37999L7.41999 8.14L7.55999 8.46V8.54L7.51999 8.62L7.21999 8.76L7.09999 8.78L7.07999 8.74H6.83999L6.51999 8.94V8.98H6.55999L6.75999 8.86H6.93999V8.9L6.87999 8.96V9.06L7.01999 9.12L6.99999 9.2L6.81999 9.24L6.75999 9.28V9.32L6.71999 9.3V9.26L6.79999 9.22V9.14L6.63999 9.18L6.41999 9.3L6.33999 9.44L6.15999 9.46L5.99999 9.7L5.93999 9.78L5.87999 9.8L5.89999 9.68H5.85999L5.77999 9.94L5.53999 10.12L5.37999 10.3L5.35999 10.48L5.31999 10.72L5.29999 10.8H5.25999L5.19999 10.66V10.4L5.09999 10.36H4.95999L4.83999 10.38V10.46L4.73999 10.48L4.61999 10.42H4.41999L4.21999 10.6L4.09999 10.84L4.05999 11.1L4.11999 11.26L4.17999 11.36H4.39999L4.49999 11.2L4.75999 11.16V11.24L4.57999 11.56L4.55999 11.62L4.89999 11.64L4.85999 11.94V12.08L4.91999 12.12L4.95999 12.2L5.03999 12.24L5.11999 12.2L5.17999 12.18L5.21999 12.2L5.25999 12.24L5.27999 12.28H5.33999L5.39999 12.08L5.49999 12.04L5.61999 11.98L5.69999 11.92L5.73999 11.94V11.98L5.67999 12.02V12.08L5.65999 12.1L5.63999 12.18L5.67999 12.22L5.75999 12.2V12.06L5.79999 11.96H5.85999L6.01999 12.1L6.15999 12.12L6.23999 12.1L6.29999 12.08L6.33999 12.1L6.39999 12.2L6.49999 12.28L6.55999 12.36L6.67999 12.48L6.93999 12.52L7.01999 12.62L7.09999 12.72L7.13999 12.86L7.11999 12.96L7.07999 13.02L7.03999 13.08V13.12H7.07999V13.08L7.17999 13.04L7.19999 13.02H7.27999V13.04V13.08L7.25999 13.12L7.21999 13.14H7.17999V13.16V13.2H7.25999L7.31999 13.14L7.33999 13.06H7.39999L7.45999 13.12L7.53999 13.16L7.73999 13.26H7.89999L8.11999 13.4H8.19999L8.25999 13.7L7.97999 14.06L8.01999 14.24V14.42L7.93999 14.7L7.87999 14.9L7.65999 14.98L7.45999 15.1L7.43999 15.4L7.35999 15.62L7.27999 15.82L7.19999 15.94H7.13999L6.97999 15.86L6.89999 15.84L7.07999 16.06L7.01999 16.18L6.95999 16.26H6.83999L6.77999 16.3V16.34L6.79999 16.36L6.77999 16.44L6.67999 16.48V16.54L6.73999 16.62L6.71999 16.76L6.63999 16.9L6.79999 17V17.08L6.75999 17.14V17.3L6.79999 17.42L6.73999 17.5V17.56H6.69999L6.59999 17.5L6.57999 17.42L6.51999 17.4L6.29999 17.02L6.25999 17L6.21999 16.98V16.94L6.27999 16.9V16.82L6.19999 16.56L6.05999 16.48L6.03999 16.4V16.3L5.99999 16.22L6.01999 16.04L6.03999 16.02V15.78L5.97999 15.7V15.44L5.95999 15.32L5.93999 15.2L5.91999 15.04V14.9L5.89999 14.78L5.85999 14.64L5.83999 14.58L5.67999 14.46L5.59999 14.38L5.41999 14.2L5.33999 14.06L5.25999 13.96L5.17999 13.8L5.15999 13.74L5.11999 13.62L4.97999 13.54V13.36L5.05999 13.28V13.24H4.99999V13.12L5.03999 12.92L5.21999 12.74V12.48V12.38L5.19999 12.3L5.15999 12.28H5.13999L5.09999 12.3L5.07999 12.38H4.99999L4.87999 12.26L4.73999 12.18L4.69999 12.12L4.67999 12.02L4.63999 11.94L4.59999 11.86H4.49999L4.37999 11.76L4.31999 11.72L4.25999 11.68L4.19999 11.6L4.15999 11.56L4.11999 11.6L4.03999 11.64L3.77999 11.48L3.63999 11.4L3.51999 11.3L3.45999 11.22L3.47999 11.14V10.94L3.35999 10.7L3.27999 10.5L3.23999 10.34V10.12V10H3.19999L3.17999 10.08L3.13999 10.24L3.11999 10.34L3.15999 10.44L3.21999 10.66L3.27999 10.88V10.92H3.21999L3.17999 10.8L3.11999 10.7L3.05999 10.56L3.03999 10.48L3.07999 10.36L3.05999 10.28L3.03999 10.16L3.01999 10.08V9.96L2.89999 9.86V9.7L2.93999 9.52L2.99999 9.32L3.19999 8.98L3.31999 8.76L3.41999 8.64H3.49999V8.68L3.53999 8.7V8.62L3.55999 8.46L3.51999 8.36L3.53999 8.24L3.59999 8.02L3.67999 7.84L3.69999 7.74V7.7H3.67999L3.61999 7.72H3.57999L3.55999 7.68L3.53999 7.64L3.51999 7.58L3.43999 7.56L3.33999 7.5L3.29999 7.46H3.25999L3.21999 7.5L3.13999 7.54L3.09999 7.56H3.03999H2.97999L2.95999 7.54L2.99999 7.5L3.05999 7.48L3.09999 7.44L3.15999 7.4V7.36H3.11999L2.99999 7.42L2.53999 7.66L2.35999 7.76L2.27999 7.78H2.23999Z" fill="#BFBFBF"/>
<path d="M2 7.82001V7.76001L2.08 7.74001L2.14 7.76001L2.16 7.80001L2.1 7.82001H2Z" fill="#BFBFBF"/>
<path d="M3.38 8.46001V8.38H3.46L3.48 8.44L3.52 8.5V8.6H3.5L3.44 8.54V8.46001H3.38Z" fill="#BFBFBF"/>
<path d="M5.68001 9.23999H5.72001L5.78001 9.13999L5.82001 9.11999L5.86001 9.15999H5.88001V9.09999L5.82001 8.99999L5.72001 8.97999L5.70001 8.93999L5.68001 8.83999L5.60001 8.75999L5.48001 8.77999L5.32001 8.85999V8.89999L5.38001 8.91999L5.48001 8.89999L5.56001 8.93999L5.64001 8.95999L5.66001 9.01999L5.48001 9.03999L5.42001 9.07999L5.38001 9.17999L5.32001 9.29999L5.34001 9.35999L5.44001 9.27999L5.46001 9.17999L5.54001 9.09999L5.60001 9.07999L5.68001 9.11999V9.23999Z" fill="#BFBFBF"/>
<path d="M5.56 9.4V9.36L5.68 9.34L5.76 9.32L5.86 9.28L5.98 9.26L6.04 9.22H6.1V9.26L6.02 9.3L5.86 9.32L5.82 9.36L5.66 9.4H5.56Z" fill="#BFBFBF"/>
<path d="M7.26001 8.86L7.50001 8.68L7.56001 8.66L7.58001 8.7L7.54001 8.8L7.58001 8.86L7.60001 8.98L7.58001 9.08L7.48001 9.02L7.40001 8.98H7.30001L7.26001 8.9V8.86Z" fill="#BFBFBF"/>
<path d="M8.56 6.07999V6.11999L8.38 6.23999H8.2L8 6.31999L7.8 6.51999L7.7 6.53999H7.56L7.5 6.47999V6.43999L7.6 6.33999L7.76 6.25999L7.92 6.21999V6.17999L7.8 6.15999L7.62 6.17999L7.52 6.15999V6.11999L7.66 6.07999L7.8 6.03999H7.98L8.08 6.09999H8.2H8.34L8.5 6.07999H8.56Z" fill="#BFBFBF"/>
<path d="M6.50002 7.57999L6.46002 7.53999V7.49999L6.60002 7.39999H6.68002L6.70002 7.41999V7.51999L6.74002 7.53999V7.59999H6.70002L6.66002 7.53999H6.60002L6.56002 7.55999V7.59999L6.50002 7.57999Z" fill="#BFBFBF"/>
<path d="M5.39999 6.81999H5.53999L5.63999 6.71999L5.85999 6.65999V6.61999L5.71999 6.53999L5.59999 6.57999L5.47999 6.69999L5.35999 6.77999L5.39999 6.81999Z" fill="#BFBFBF"/>
<path d="M6.06 6.54V6.64H6.3L6.4 6.62L6.46 6.54L6.44 6.46L6.38 6.44L6.32 6.54H6.3L6.28 6.52L6.22 6.46L6.16 6.48L6.06 6.54Z" fill="#BFBFBF"/>
<path d="M5.64 6.88V6.84L5.8 6.74L5.92 6.72L6.08 6.8L6.18 6.82V6.88L6.12 6.94L6.14 6.96L6.16 7.02H6.14L6.06 7.04L6 7.08L5.94 7.06L5.88 7.04H5.74H5.58L5.5 6.98V6.94L5.64 6.92L5.72 6.94V6.9L5.66 6.88" fill="#BFBFBF"/>
<path d="M6.34003 6.75999L6.48003 6.67999L6.62003 6.71999V6.77999L6.58003 6.83999L6.50003 6.91999H6.40003L6.34003 6.85999V6.75999Z" fill="#BFBFBF"/>
<path d="M6.65997 6.8V6.88H6.71997L6.81997 6.84L6.91997 6.78V6.72H6.79997L6.71997 6.74L6.65997 6.8Z" fill="#BFBFBF"/>
<path d="M6.65997 6.54L6.67997 6.66H6.71997L6.81997 6.6V6.54L6.77997 6.5H6.71997H6.65997V6.54Z" fill="#BFBFBF"/>
<path d="M6.96002 6.52L7.00002 6.64L7.18002 6.7H7.50002L7.48002 6.62H7.16002L7.06002 6.5L6.96002 6.52Z" fill="#BFBFBF"/>
<path d="M6.87999 6.99999L6.85999 6.89999L7.05999 6.75999H7.17999H7.25999V6.79999V6.81999L7.29999 6.87999L7.45999 6.85999L7.51999 6.91999L7.63999 6.99999L7.71999 7.07999L7.69999 7.13999L7.65999 7.19999V7.21999L7.85999 7.33999L7.83999 7.39999L7.63999 7.51999L7.57999 7.47999L7.53999 7.41999H7.49999V7.53999L7.39999 7.73999L7.35999 7.75999L7.27999 7.69999L7.11999 7.53999H6.91999L6.87999 7.49999L6.97999 7.41999H7.03999H7.13999L7.33999 7.19999L7.39999 7.13999L7.37999 7.07999L7.17999 7.05999L6.99999 7.03999L6.87999 6.99999Z" fill="#BFBFBF"/>
<path d="M4.94 11.08V11.06L5.02 11L5.3 11.02L5.62 11.24V11.28V11.3H5.38L5.4 11.24L5.36 11.22L5.3 11.16L5.24 11.08H4.94Z" fill="#BFBFBF"/>
<path d="M5.29999 11.4H5.41999L5.39999 11.46H5.33999L5.29999 11.44V11.4Z" fill="#BFBFBF"/>
<path d="M5.56 11.42V11.44H5.66L5.76 11.46L5.78 11.48L5.86 11.44L6 11.42V11.38H5.92L5.84 11.3L5.72 11.32H5.68V11.4H5.58" fill="#BFBFBF"/>
<path d="M6.12002 11.42H6.18002L6.22002 11.46L6.12002 11.48L6.08002 11.46L6.12002 11.42Z" fill="#BFBFBF"/>
<path d="M6.38 11.56L6.42001 11.66L6.48 11.64V11.58L6.44001 11.56H6.38Z" fill="#BFBFBF"/>
<path d="M6.41998 11.68H6.45998L6.47998 11.82H6.41998V11.76V11.68Z" fill="#BFBFBF"/>
<path d="M9.51998 6L10.06 6.02V6.06L9.99998 6.08L9.89998 6.12V6.14L9.95998 6.18L10.04 6.22L10.12 6.26L10.2 6.24L10.28 6.2H10.42L10.52 6.22V6.26L10.46 6.28L10.32 6.34L10.28 6.38L10.14 6.46L9.99998 6.58V6.68L10.12 6.76V6.78L10.04 6.9L9.97998 6.96H9.91998L9.87998 6.94L9.81998 6.96V7.02L9.89998 7.1V7.14H9.81998L9.77998 7.1H9.73998V7.16L9.83998 7.2H9.89998L9.87998 7.28H9.69998L9.43998 7.32L9.15998 7.44L8.91998 7.52L8.57998 7.94L8.49998 7.98L8.39998 7.88L8.27998 7.8V7.5L8.43998 7.28L8.55998 7.08L8.47998 6.92L8.43998 6.7L8.29998 6.6H8.19998H8.11998L8.09998 6.5L8.17998 6.44L8.21998 6.46H8.33998L8.37998 6.42V6.34L8.99998 6.08H9.09998L9.19998 6.14L9.43998 6.12L9.51998 6Z" fill="#BFBFBF"/>
<path d="M9.70001 7.52001L9.76001 7.46001H9.80001L9.86001 7.54001H9.90001L9.98001 7.50001L10.12 7.48001L10.18 7.54001L10.16 7.64001L10.04 7.72001L9.86001 7.70001L9.76001 7.68001V7.62001L9.72001 7.60001L9.70001 7.52001Z" fill="#BFBFBF"/>
<path d="M10.22 8.74L10.26 8.66L10.22 8.64L10.26 8.58L10.32 8.46L10.42 8.42H10.48L10.54 8.44L10.48 8.54L10.44 8.64L10.36 8.74H10.32L10.3 8.72L10.26 8.74H10.22Z" fill="#BFBFBF"/>
<path d="M10.72 8.12V8.13999L10.68 8.17999L10.74 8.19999L10.78 8.26L10.72 8.29999V8.33999L10.76 8.42L10.8 8.52L10.86 8.62H10.94V8.67999L10.88 8.76L10.76 8.77999L10.6 8.82L10.48 8.83999L10.5 8.79999L10.58 8.76V8.72L10.56 8.69999L10.6 8.59999L10.68 8.53999V8.46L10.62 8.43999L10.54 8.33999V8.22L10.6 8.12H10.72Z" fill="#BFBFBF"/>
<path d="M10.22 9.89999V9.49999V9.39999L10.32 9.37999H10.44L10.58 9.41999H10.64L10.72 9.37999L10.7 9.31999L10.74 9.25999L10.72 9.13999L10.64 9.07999L10.56 9.03999L10.54 9.01999V8.95999H10.66L10.68 8.89999L10.66 8.87999L10.72 8.85999L10.74 8.91999H10.82L10.96 8.75999L11.02 8.73999L11.06 8.67999L11.1 8.65999L11.12 8.71999L11.14 8.69999V8.57999L11.22 8.55999L11.32 8.53999L11.34 8.45999V8.31999L11.32 8.25999L11.38 8.21999L11.44 8.19999L11.46 8.25999V8.35999L11.42 8.39999V8.45999L11.48 8.47999L11.58 8.49999H11.64L11.74 8.45999H11.8H11.9L11.96 8.47999L12 8.45999L12.02 8.35999L12.06 8.25999L12.1 8.21999H12.14L12.16 8.23999L12.22 8.21999V8.15999L12.2 8.07999L12.34 8.05999H12.4L12.48 8.01999L12.44 7.97999L12.42 7.95999L12.36 7.97999L12.3 7.99999L12.22 8.01999H12.14L12.04 7.81999V7.75999L12.12 7.67999L12.18 7.61999V7.51999H12.16L12.1 7.49999L12.04 7.55999L11.96 7.63999V7.69999L11.88 7.73999L11.82 7.87999L11.86 7.97999V8.03999L11.8 8.13999L11.76 8.23999V8.29999L11.72 8.33999L11.68 8.35999L11.66 8.39999H11.58V8.31999L11.54 8.25999L11.5 8.21999V8.11999L11.48 8.13999V8.07999L11.4 8.11999H11.38L11.34 8.15999H11.26L11.22 8.09999V7.89999L11.32 7.81999L11.4 7.73999L11.58 7.55999L11.72 7.43999L11.9 7.25999L12.18 7.07999H12.32L12.44 7.11999L12.5 7.15999L12.7 7.23999L12.88 7.35999H12.92L12.96 7.39999L12.98 7.41999V7.47999L12.96 7.51999H12.88L12.78 7.47999L12.7 7.45999L12.62 7.41999V7.49999L12.66 7.53999L12.74 7.57999L12.84 7.67999H12.9L13.04 7.55999L13.08 7.53999L13.14 7.47999L13.16 7.51999H13.22V7.43999L13.18 7.41999V7.35999L13.14 7.33999V7.25999H13.18L13.26 7.31999V7.39999H13.3L13.42 7.35999L13.58 7.29999L13.7 7.25999L13.88 7.21999L14.08 7.19999L14.18 7.25999H14.26V7.19999L14.2 7.11999L14.14 7.09999V7.03999L14.26 6.91999L14.28 6.89999L14.36 6.87999L14.38 6.91999V6.99999L14.56 7.23999V7.33999L14.5 7.35999L14.46 7.41999H14.56L14.62 7.35999L14.64 7.23999H14.72H14.76V7.19999L14.62 7.15999L14.52 7.07999L14.48 6.97999L14.7 6.83999L14.8 6.75999L14.92 6.65999L15.24 6.55999L15.36 6.53999H15.86L15.94 6.55999L15.92 6.63999L15.82 6.77999L15.86 6.79999L16.04 6.69999H16.26L16.98 6.81999L17.06 6.83999L17.24 6.81999L17.26 6.73999L17.3 6.67999L17.42 6.69999L17.72 6.75999H18L18.2 6.73999L18.42 6.81999H18.6L18.82 6.71999H19L19.44 6.75999L19.72 6.85999L19.9 6.89999L19.98 6.95999V6.99999H19.9L19.82 6.97999H19.74H19.7L19.66 6.95999L19.62 6.97999V7.07999L19.74 7.11999L19.84 7.15999L19.9 7.17999L19.88 7.23999L19.76 7.41999V7.45999L19.6 7.47999L19.5 7.51999L19.56 7.59999L19.7 7.73999L19.82 7.93999L19.88 8.13999V8.25999H19.84L19.76 8.15999L19.64 8.03999L19.46 7.87999L19.34 7.79999V7.69999L19.4 7.61999L19.38 7.49999L19.32 7.39999L19.28 7.37999L19.24 7.43999H19.22L19.18 7.41999H19.1V7.51999L19.14 7.61999L19.06 7.67999L18.92 7.69999L18.8 7.71999H18.66L18.54 7.75999L18.52 7.79999V8.05999L18.62 8.15999H18.66L18.68 8.13999H18.76L18.84 8.19999L18.98 8.35999L19.06 8.51999L19.12 8.67999L19.16 8.87999L19.18 9.07999L18.98 9.13999L18.96 9.29999L18.94 9.43999L19.02 9.55999L19.12 9.71999L19.14 9.75999V9.81999L19.08 9.85999L19.02 9.89999L19 9.83999L18.94 9.71999L18.88 9.61999L18.8 9.55999L18.68 9.43999H18.66L18.58 9.51999L18.52 9.49999V9.41999L18.54 9.37999H18.46L18.34 9.49999V9.55999L18.42 9.63999H18.58L18.66 9.67999L18.64 9.71999L18.6 9.73999V9.83999L18.76 10.08L18.84 10.24L18.78 10.26L18.84 10.3L18.88 10.36V10.64L18.8 10.74L18.6 10.94L18.42 11.06L18.36 11.16H18.32L18.28 11.1L18.24 11.06L18.16 11.1L18.08 11.3L18.1 11.38L18.26 11.52L18.38 11.66L18.4 11.9L18.34 12L18.28 12.08L18.2 12.14L18.18 12.2H18.12V12.14L18.08 12.08L18.04 12.04L17.96 11.98V11.9L17.9 11.88L17.84 11.84L17.82 11.8H17.74L17.78 12V12.16L17.84 12.3L17.92 12.42L18 12.54L18.06 12.66L18.1 12.74L18.08 12.8H18.02L17.96 12.74H17.92L17.8 12.48L17.74 12.38L17.64 12.28V12L17.62 11.82L17.56 11.66L17.5 11.48L17.46 11.5L17.4 11.56L17.34 11.58L17.28 11.56L17.3 11.4L17.18 11.24L17.1 11.18V11.12L17.08 11.02H17L16.92 11.12L16.86 11.1L16.84 11.06L16.78 11.1L16.7 11.24L16.6 11.38L16.52 11.48L16.4 11.66L16.34 11.92L16.32 12.08L16.26 12.3H16.22L16.16 12.28L16.1 12.1L16 11.94L15.86 11.6L15.8 11.36L15.78 11.12H15.72L15.7 11.24L15.66 11.26L15.6 11.22L15.48 11.1L15.44 11.04L15.42 10.96L15.32 10.88H14.86L14.78 10.86L14.68 10.82V10.74L14.64 10.7L14.54 10.72L14.5 10.76H14.38L14.32 10.7L14.2 10.58L14.12 10.5H14.04L14 10.56V10.6L14.1 10.68L14.14 10.76L14.18 10.78L14.2 10.84H14.24L14.3 10.82L14.32 10.86V10.96H14.38L14.48 10.98L14.52 10.92L14.56 10.84H14.64V10.94L14.66 11L14.72 11.02L14.8 11.04L14.84 11.06L14.86 11.1L14.78 11.32L14.68 11.46L14.58 11.56L14.5 11.6L14.38 11.68L14.28 11.78L14.18 11.84L13.92 11.9L13.84 11.92L13.76 11.8L13.72 11.74L13.68 11.5L13.5 11.24L13.2 10.78L13.14 10.58L13.1 10.62L13.08 10.6L13.06 10.58H13V10.66L13.06 10.78L13.2 11.04L13.32 11.24V11.38L13.48 11.54L13.52 11.7L13.56 11.72L13.66 11.84L13.78 11.96L13.76 12.1L13.84 12.12L13.98 12.08L14.22 12L14.34 11.98V12.04L14.12 12.58L13.94 12.84L13.7 13.08L13.52 13.3V13.56L13.6 14.08V14.22L13.44 14.38L13.28 14.52L13.14 14.64L13.18 14.82V15L13 15.12V15.18L12.88 15.42L12.7 15.64L12.56 15.74L12.42 15.76L12.22 15.8L12.14 15.88L12.08 15.86L12.06 15.82L11.96 15.76L11.94 15.56L11.76 15.24L11.72 14.96L11.7 14.82L11.56 14.5V14.18L11.7 13.92L11.64 13.56L11.52 13.32L11.34 13.04L11.36 12.88L11.42 12.76V12.66H11.32H11.2L11.08 12.48H10.94L10.66 12.56L10.3 12.68L10.16 12.66L9.83998 12.32L9.61998 12.04L9.53998 11.88V11.7L9.59998 11.5V11.3L9.61998 11.16L9.79998 10.78L9.89998 10.68H9.95998L10.1 10.5L10.14 10.36L10.16 10.3L10.28 10.22L10.32 10.16L10.4 10.04H10.46L10.52 10.08H10.6L10.82 9.99999L11 9.95999L11.1 9.93999L11.2 9.89999H11.34L11.52 9.91999L11.5 9.99999L11.46 10.12L11.48 10.16L11.56 10.22L11.64 10.26L11.76 10.28H11.8L11.82 10.38L11.92 10.42L12.06 10.46H12.12V10.4H12.1V10.34L12.18 10.28L12.3 10.26L12.36 10.32L12.44 10.38L12.56 10.44H12.66L12.74 10.4L12.84 10.38H12.9L12.96 10.4L13 10.42L13.04 10.34L13.06 10.26L13.1 10.16V10.08V9.99999L13.12 9.97999V9.93999L12.98 9.95999H12.88H12.76L12.62 9.97999L12.58 9.91999L12.54 9.79999L12.5 9.67999H12.58L12.62 9.61999L12.64 9.59999H12.7H12.78L12.82 9.55999L12.88 9.51999L12.92 9.47999H13.02L13.08 9.51999L13.16 9.53999L13.22 9.55999H13.3H13.42V9.47999L13.44 9.43999L13.4 9.41999H13.34L13.3 9.35999L13.26 9.31999L13.18 9.27999L13.14 9.23999V9.17999L13.2 9.13999L13.24 9.09999V9.07999L13.2 9.05999L13.16 9.07999L13 9.15999L13.04 9.19999V9.25999L12.98 9.29999H12.92L12.88 9.23999L12.84 9.13999L12.82 9.09999L12.78 9.11999L12.68 9.15999L12.64 9.29999L12.58 9.39999V9.49999L12.62 9.55999L12.52 9.63999H12.48L12.42 9.59999L12.32 9.61999L12.3 9.67999V9.77999V9.81999V9.95999L12.2 9.97999L12.14 9.91999V9.81999L12.2 9.79999L12.12 9.77999L12.08 9.69999L12.04 9.59999L11.98 9.49999L11.9 9.45999L11.78 9.33999L11.7 9.31999L11.66 9.27999L11.64 9.23999H11.6L11.58 9.29999L11.62 9.33999L11.66 9.39999L11.68 9.43999L11.76 9.49999L11.82 9.51999V9.55999L11.92 9.61999L11.96 9.67999L11.98 9.73999H11.96L11.92 9.69999H11.9V9.81999L11.88 9.85999H11.84V9.75999L11.78 9.69999L11.72 9.61999L11.66 9.57999H11.58L11.52 9.53999L11.46 9.41999L11.42 9.35999L11.38 9.31999L11.32 9.33999L11.24 9.43999L11.16 9.45999L11.12 9.41999L11.04 9.45999L11.02 9.51999L10.82 9.67999L10.74 9.85999L10.66 9.99999H10.6L10.54 9.95999L10.48 9.97999L10.4 9.99999L10.32 9.95999L10.26 9.93999L10.22 9.89999Z" fill="#BFBFBF"/>
<path d="M11.38 9.39999L11.32 9.45999L11.34 9.53999V9.55999H11.38L11.4 9.53999V9.45999L11.38 9.39999Z" fill="#BFBFBF"/>
<path d="M11.32 9.64001L11.34 9.62001L11.4 9.60001V9.62001L11.38 9.68001L11.4 9.70001L11.38 9.76001H11.34L11.32 9.74001V9.68001V9.64001Z" fill="#BFBFBF"/>
<path d="M11.6 9.84V9.88L11.68 9.92L11.74 9.96H11.8L11.82 9.88L11.78 9.84H11.72H11.6Z" fill="#BFBFBF"/>
<path d="M12.3 10.08V10.04L12.38 10.08L12.5 10.06L12.52 10.1L12.44 10.12L12.4 10.1L12.36 10.08H12.3Z" fill="#BFBFBF"/>
<path d="M12.9 10.1L12.94 10.04L13.06 10.02V10.06L13.02 10.1L12.96 10.14H12.92L12.9 10.1Z" fill="#BFBFBF"/>
<path d="M13.46 6.88L13.42 7.04L13.58 7.08L13.62 7.1H13.74V7.06L13.64 7.04L13.62 7.02001L13.6 6.88H13.46Z" fill="#BFBFBF"/>
<path d="M13.5 6.83999H13.62L13.68 6.77999H13.7L13.76 6.73999H13.84L13.96 6.63999V6.53999H13.94L13.8 6.65999H13.74L13.64 6.63999L13.6 6.69999L13.56 6.75999H13.52L13.5 6.83999Z" fill="#BFBFBF"/>
<path d="M18.9 8.14001V8.10001H18.96L19 8.14001L19.06 8.24001L19.14 8.32001H19.18L19.3 8.46001L19.36 8.50001V8.52001L19.34 8.56001L19.38 8.66001L19.44 8.70001L19.48 8.74001V8.78001H19.44V8.80001H19.4L19.36 8.70001L19.3 8.64001L19.24 8.58001L19.14 8.46001L19.04 8.36001L18.96 8.20001L18.9 8.14001Z" fill="#BFBFBF"/>
<path d="M19.46 8.94V8.9L19.52 8.88L19.58 8.9H19.62H19.7L19.74 8.92001L19.8 8.98V9.04L19.74 9.08V9.12001H19.68L19.64 9.1H19.6V9.18H19.54L19.5 9.12001L19.48 9.08L19.5 9.04L19.52 9L19.5 8.98L19.46 8.94Z" fill="#BFBFBF"/>
<path d="M19.58 9.22H19.64L19.72 9.28L19.78 9.4L19.84 9.56L19.86 9.64L19.84 9.78L19.76 9.8L19.7 9.74H19.58L19.48 9.8V9.9L19.42 9.94L19.34 9.92V9.88L19.4 9.8L19.56 9.68V9.58H19.6L19.66 9.6L19.7 9.5L19.64 9.44L19.6 9.32L19.58 9.22Z" fill="#BFBFBF"/>
<path d="M19.32 10.04H19.38V10.08L19.4 10.14L19.44 10.18H19.48L19.52 10.12L19.48 10.06L19.42 9.96001H19.36L19.32 9.98001V10.02" fill="#BFBFBF"/>
<path d="M19.52 9.88H19.6L19.64 9.86L19.7 9.8L19.66 9.78L19.58 9.8L19.54 9.82L19.52 9.88Z" fill="#BFBFBF"/>
<path d="M17.08 8.22L17.12 8.2L17.14 8.22V8.38L17.1 8.46L17.06 8.52H17V8.48L17.06 8.42L17.1 8.34L17.08 8.22Z" fill="#BFBFBF"/>
<path d="M14.1 9.2H14.06V9.24L14.02 9.26L13.98 9.3V9.32L14.04 9.36L14.12 9.48V9.6L14.18 9.66L14.24 9.74L14.26 9.84L14.3 9.88V9.92L14.24 9.96H14.18L14.04 9.88L13.96 9.86V9.74L14 9.62L13.9 9.5L13.74 9.34V9.22L13.86 9.14L14 9.1L14.06 9.08H14.12L14.14 9.12V9.16L14.1 9.2Z" fill="#BFBFBF"/>
<path d="M14.54 9.06H14.64V9.08L14.66 9.22L14.62 9.3L14.56 9.32H14.5L14.46 9.24L14.48 9.14L14.52 9.1L14.54 9.06Z" fill="#BFBFBF"/>
<path d="M15.36 9.08L15.32 9.1L15.34 9.14H15.36L15.4 9.18H15.42L15.44 9.14V9.1H15.54L15.62 9.08L15.7 9.06V9.02H15.64L15.62 9.04H15.58L15.52 9.02L15.48 9H15.44L15.4 9.04L15.36 9.08Z" fill="#BFBFBF"/>
<path d="M13 12.98L13.1 12.94H13.14L13.2 12.96V13L13.16 13.04L13.12 13.1V13.2H13.06L12.98 13.14L13 12.98Z" fill="#BFBFBF"/>
<path d="M12.82 13.34V13.52L12.88 13.64H12.92V13.56L12.88 13.46V13.38L12.86 13.34H12.82Z" fill="#BFBFBF"/>
<path d="M13.1 13.78H13.14V13.86L13.16 14.02L13.18 14.16L13.14 14.14L13.12 14.1V14V13.88L13.1 13.78Z" fill="#BFBFBF"/>
<path d="M13.8 14.62L13.82 14.52L13.78 14.5L13.82 14.36L13.94 14.26L14 14.22L14.06 14.12L14.2 13.98L14.24 13.96V14.08V14.32L14.1 14.7L14 15.02L13.86 15.08H13.78L13.72 14.94V14.82L13.8 14.62Z" fill="#BFBFBF"/>
<path d="M14.56 14.68V14.74L14.62 14.76H14.66V14.72L14.62 14.68H14.56Z" fill="#BFBFBF"/>
<path d="M14.74 14.6H14.78V14.66L14.76 14.68H14.72L14.74 14.6Z" fill="#BFBFBF"/>
<path d="M19 10.72L19.06 10.7L19.08 10.8V10.86L19.12 11H19.06L19 10.94L18.96 10.84L19 10.72Z" fill="#BFBFBF"/>
<path d="M19.08 11.3L19.18 11.28L19.26 11.38L19.22 11.5L19.26 11.64L19.36 11.68L19.46 11.76L19.48 11.8H19.42L19.32 11.72H19.2L19.1 11.58L19.08 11.5L19.12 11.46L19.1 11.36L19.08 11.3Z" fill="#BFBFBF"/>
<path d="M16.4 12.14L16.48 12.26L16.56 12.34L16.52 12.44L16.4 12.48L16.34 12.38L16.36 12.26L16.38 12.16L16.4 12.14Z" fill="#BFBFBF"/>
<path d="M17.54 12.5L17.78 12.7L18 12.94L18.16 13.1L18.24 13.2L18.22 13.32V13.4L18.14 13.42L17.96 13.26L17.78 12.96L17.64 12.76L17.52 12.6H17.48L17.46 12.52L17.54 12.5Z" fill="#BFBFBF"/>
<path d="M18.14 13.54L18.18 13.48L18.3 13.44L18.38 13.48L18.56 13.5L18.68 13.54L18.8 13.64L18.82 13.74L18.74 13.72L18.68 13.68H18.56L18.46 13.64L18.28 13.6L18.22 13.54H18.14Z" fill="#BFBFBF"/>
<path d="M19.18 11.98L19.16 12.06L19.1 12.16H19.06V12.08L19.1 12.02L19.12 11.98L19.16 11.96" fill="#BFBFBF"/>
<path d="M19.34 11.9H19.42V11.94L19.38 12L19.32 12.02V11.96L19.34 11.9Z" fill="#BFBFBF"/>
<path d="M19.26 12.22L19.3 12.16L19.34 12.14H19.36L19.4 12.12L19.42 12.06H19.48L19.5 12.12L19.54 12.18L19.44 12.32H19.36V12.24L19.34 12.22H19.28H19.26Z" fill="#BFBFBF"/>
<path d="M19.04 12.38L19.08 12.42L19.12 12.46L19.16 12.52L19.08 12.58L19.06 12.7L19.12 12.76L19.14 12.86L19.06 12.94L19 13.12L18.92 13.28L18.88 13.3H18.8L18.56 13.2L18.5 13.04L18.48 12.9V12.82H18.52L18.72 12.68L18.84 12.54L18.9 12.44L18.92 12.36L19.04 12.38Z" fill="#BFBFBF"/>
<path d="M19.84 12.74L19.86 12.8V12.92L19.84 12.98H19.8L19.76 12.92V12.86L19.78 12.78L19.82 12.74H19.84Z" fill="#BFBFBF"/>
<path d="M19.56 12.84H19.6V12.86L19.56 12.9L19.48 12.92H19.3L19.28 13.08L19.36 13.02L19.44 12.98L19.5 13V13.04H19.46L19.36 13.1V13.16L19.42 13.26L19.44 13.32L19.4 13.38L19.32 13.4V13.34L19.3 13.2H19.26L19.24 13.28L19.26 13.42V13.44H19.18V13.32L19.16 13.24V13.1L19.22 12.9L19.26 12.84H19.36L19.38 12.88H19.48L19.56 12.84Z" fill="#BFBFBF"/>
<path d="M18.9 13.74L18.94 13.7L18.98 13.66H19.1V13.7L19.06 13.74H18.9Z" fill="#BFBFBF"/>
<path d="M19.18 13.7V13.74L19.22 13.76H19.32L19.42 13.7V13.64H19.38L19.32 13.68L19.18 13.7Z" fill="#BFBFBF"/>
<path d="M19.44 13.8V13.86H19.5L19.56 13.82L19.68 13.76L19.7 13.74V13.7H19.66L19.56 13.74H19.5V13.78L19.44 13.8Z" fill="#BFBFBF"/>
<path d="M19.82 13.2H19.9L19.98 13.24V13.28H19.88L19.82 13.26V13.2Z" fill="#BFBFBF"/>
<path d="M20.02 13.06L20.1 13.24L20.2 13.26L20.34 13.36L20.46 13.44L20.48 13.5V13.64L20.6 13.74L20.72 13.76L20.8 13.8L20.9 13.68L20.94 13.66L21.04 13.78L21.08 13.88L21.18 13.92H21.28L21.3 13.86L21.2 13.72L21.14 13.64L21.12 13.58L21.14 13.52L20.98 13.38L20.82 13.28L20.72 13.24L20.6 13.18L20.44 13.14L20.34 13.22H20.26V13.16V13.1L20.24 13.06L20.16 13.04L20.12 13.02H20.08L20.02 13.06Z" fill="#BFBFBF"/>
<path d="M21.2 13.54H21.4L21.46 13.46V13.32L21.42 13.34L21.4 13.38L21.38 13.44V13.46H21.36L21.32 13.44H21.28V13.46L21.24 13.48L21.2 13.5V13.54Z" fill="#BFBFBF"/>
<path d="M20.74 13.92H20.78L20.8 14.28L20.82 14.6L20.98 14.96L21.06 15.4L20.94 15.66L20.7 16.06L20.38 16.38L20.32 16.42L20.22 16.44L20.14 16.5L20.08 16.54L20.02 16.52V16.48H19.94L19.9 16.54L19.84 16.5L19.76 16.38L19.74 16.24L19.7 16.12L19.8 16.02V15.98H19.74L19.64 16.04V16.1L19.58 16.12V16.02V15.9L19.52 15.84H19.14L18.84 15.9L18.56 16.02L18.46 16.04L18.38 16.06L18.32 15.96L18.42 15.62L18.48 15.24L18.5 14.9L18.78 14.76L19.04 14.72L19.36 14.42L19.58 14.24L19.68 14.22V14.3H19.8L19.76 14.24V14.18L19.84 14.16L19.96 14.02L20 13.96H20.08L20.12 14L20.26 14.02L20.28 14.08L20.2 14.28L20.22 14.36L20.26 14.42L20.4 14.56L20.48 14.54L20.6 14.32L20.64 14.14L20.68 14L20.74 13.92Z" fill="#BFBFBF"/>
<path d="M19.84 16.7L19.88 16.68L19.92 16.72L19.98 16.7H20.04H20.06L20.08 16.78L19.98 16.84L19.96 16.88L19.9 16.94H19.84H19.76V16.84L19.8 16.74V16.68L19.84 16.7Z" fill="#BFBFBF"/>
<path d="M21.84 16.32L21.88 16.36L21.9 16.54V16.64L22 16.66V16.72H21.9L21.82 16.78L21.72 16.88L21.66 16.98L21.58 16.96L21.6 16.88L21.62 16.76L21.7 16.72L21.78 16.64L21.8 16.5L21.82 16.36L21.84 16.32Z" fill="#BFBFBF"/>
<path d="M21.46 16.88L21.52 16.94L21.54 17.02L21.44 17.06L21.26 17.1L21.14 17.2L21.06 17.26L21.02 17.32L20.96 17.36H20.84H20.78V17.26L20.84 17.22L21 17.16L21.1 17.08L21.24 17.02L21.36 16.9L21.46 16.88Z" fill="#BFBFBF"/>
</svg>
