<svg width="24" height="24" viewBox="0 0 24 24" fill="none" xmlns="http://www.w3.org/2000/svg">
<path d="M16.8794 9.62246V6.68505C16.8794 6.30679 16.5726 6 16.1936 6H15.3799V3.94105H16.2589C16.4692 4.45317 16.9723 4.81427 17.5606 4.81427C18.3378 4.81427 18.9676 4.18424 18.9676 3.40725C18.9676 2.63026 18.3376 2 17.5606 2C16.9723 2 16.469 2.36134 16.2586 2.8737H15.3768C15.344 2.52546 15.0517 2.2532 14.6949 2.2532H14.1463C13.7897 2.2532 13.497 2.5257 13.4644 2.8737H12.5823C12.3718 2.36134 11.8687 2 11.2804 2C10.5031 2 9.87335 2.63026 9.87335 3.40725C9.87335 4.18424 10.5034 4.81427 11.2804 4.81427C11.8687 4.81427 12.3718 4.45317 12.5823 3.94105H13.461V6H12.6469C12.2684 6 11.9616 6.30679 11.9616 6.68505V9.62246H7.08028C6.0751 9.62246 5.25714 10.4402 5.25714 11.4458V15.9534H7.89086V12.2559H19.4895V9.62246H16.8794Z" fill="#BFBFBF"/>
<path d="M8.05618 19.5657C8.00116 19.4356 7.94399 19.301 7.87682 19.1733C7.73081 18.8958 7.56359 18.6257 7.40138 18.3647C7.11888 17.9081 6.82662 17.436 6.65178 16.9272L6.59819 16.7714L6.54412 16.9272C6.36952 17.436 6.07678 17.9081 5.79428 18.3647C5.63279 18.6257 5.46558 18.8956 5.31932 19.1733C5.25215 19.301 5.19523 19.4358 5.13973 19.5657L5.12186 19.6088C4.81626 20.3298 5.12901 21.1713 5.57824 21.5967C5.85288 21.8568 6.21351 22 6.59771 22H6.60319C6.9824 22 7.34255 21.8566 7.61766 21.5967C8.0669 21.1713 8.37965 20.33 8.07428 19.6085L8.05618 19.5657ZM7.04219 19.5959C7.04219 19.5959 6.53578 19.9413 6.13609 19.5959C5.87837 19.3732 5.49988 19.4697 5.26359 19.5657C5.31218 19.4516 5.36196 19.3353 5.4196 19.226C5.56371 18.9523 5.72997 18.6839 5.89099 18.4245C6.15015 18.006 6.41716 17.5755 6.59819 17.1111C6.77874 17.5753 7.046 18.006 7.30468 18.4245C7.46593 18.6839 7.63219 18.9523 7.77606 19.226C7.81751 19.3048 7.8549 19.387 7.89063 19.4694C7.43854 19.3294 7.04219 19.5959 7.04219 19.5959Z" fill="#BFBFBF"/>
</svg>
